<svg width="592" height="374" viewBox="0 0 592 374" fill="none" xmlns="http://www.w3.org/2000/svg">
<g clip-path="url(#clip0)">
<path d="M449.29 308.64C449 309.52 459.29 348.64 459.29 348.64L466.35 347.17L456.64 308.64H449.29Z" fill="#EBEBEB"/>
<path d="M504 303.05L489.88 348.64H498.12L511.65 306.29L504 303.05Z" fill="#F5F5F5"/>
<path d="M516.94 295.99L500.77 348.64H509L524.59 299.23L516.94 295.99Z" fill="#EBEBEB"/>
<path d="M454.29 345.41L462.53 373.94H504L511.65 345.41H454.29Z" fill="#E0E0E0"/>
<path d="M475.69 345.41C475.68 345.41 475.65 345.31 475.6 345.12C475.54 344.9 475.47 344.61 475.38 344.25C475.19 343.45 474.92 342.32 474.58 340.88C473.9 337.91 472.93 333.67 471.73 328.42C469.36 317.83 466.08 303.2 462.42 286.87L462.67 287.07C461.51 287.07 460.26 287.07 459.01 287.07C457.78 287.07 456.55 287.07 455.41 287.07L455.66 286.75C459.34 303.1 462.64 317.74 465.03 328.33C466.19 333.59 467.13 337.85 467.79 340.82C468.1 342.27 468.34 343.4 468.51 344.21C468.58 344.58 468.64 344.87 468.68 345.09C468.72 345.29 468.73 345.39 468.72 345.39C468.71 345.39 468.68 345.29 468.63 345.1C468.57 344.88 468.5 344.59 468.41 344.23C468.22 343.43 467.94 342.3 467.6 340.86C466.91 337.89 465.91 333.65 464.69 328.4C462.26 317.81 458.91 303.18 455.17 286.85L455.1 286.53H455.43C456.57 286.53 457.8 286.53 459.03 286.53C460.28 286.53 461.53 286.53 462.69 286.53H462.9L462.94 286.73C466.54 303.08 469.76 317.72 472.09 328.31C473.22 333.57 474.14 337.83 474.78 340.8C475.08 342.25 475.32 343.38 475.48 344.19C475.55 344.56 475.61 344.85 475.65 345.07C475.68 345.3 475.7 345.41 475.69 345.41Z" fill="#E0E0E0"/>
<path d="M210.39 13.05H140.16V61.95H210.39V13.05Z" fill="#F5F5F5"/>
<path d="M210.39 13.05H140.16V19.16H210.39V13.05Z" fill="#E0E0E0"/>
<path d="M143.98 16.28C143.98 16.7 143.65 17.05 143.25 17.05C142.85 17.05 142.52 16.71 142.52 16.28C142.52 15.86 142.85 15.51 143.25 15.51C143.65 15.51 143.98 15.86 143.98 16.28Z" fill="white"/>
<path d="M146.95 16.28C146.95 16.7 146.62 17.05 146.22 17.05C145.82 17.05 145.49 16.71 145.49 16.28C145.49 15.86 145.82 15.51 146.22 15.51C146.62 15.52 146.95 15.86 146.95 16.28Z" fill="white"/>
<path d="M149.92 16.28C149.92 16.7 149.59 17.05 149.19 17.05C148.79 17.05 148.46 16.71 148.46 16.28C148.46 15.86 148.79 15.51 149.19 15.51C149.59 15.51 149.92 15.86 149.92 16.28Z" fill="white"/>
<path d="M156.85 25.16H146.84V49.17H156.85V25.16Z" fill="#E0E0E0"/>
<path d="M172.28 25.16H162.27V49.17H172.28V25.16Z" fill="#EBEBEB"/>
<path d="M187.71 25.16H177.7V49.17H187.71V25.16Z" fill="white"/>
<path d="M203.15 25.34H193.14V49.35H203.15V25.34Z" fill="#EBEBEB"/>
<path d="M206.34 51.82H145.68V57.31H206.34V51.82Z" fill="#EBEBEB"/>
<path d="M198.03 55.47L199.33 62.08L200.4 60.24L202.71 63.53L203.86 62.79L201.56 59.5L203.67 59.19L198.03 55.47Z" fill="#E0E0E0"/>
<path d="M198.28 78.86H75.3301V164.48H198.28V78.86Z" fill="#F5F5F5"/>
<path d="M198.28 78.86H75.3301V89.56H198.28V78.86Z" fill="#E0E0E0"/>
<path d="M81.9999 84.52C81.9999 85.26 81.4299 85.86 80.7199 85.86C80.0099 85.86 79.4399 85.26 79.4399 84.52C79.4399 83.78 80.0099 83.18 80.7199 83.18C81.4299 83.18 81.9999 83.78 81.9999 84.52Z" fill="white"/>
<path d="M87.2099 84.52C87.2099 85.26 86.6399 85.86 85.9299 85.86C85.2199 85.86 84.6499 85.26 84.6499 84.52C84.6499 83.78 85.2199 83.18 85.9299 83.18C86.6299 83.18 87.2099 83.78 87.2099 84.52Z" fill="white"/>
<path d="M92.4101 84.52C92.4101 85.26 91.8401 85.86 91.1301 85.86C90.4201 85.86 89.8501 85.26 89.8501 84.52C89.8501 83.78 90.4201 83.18 91.1301 83.18C91.8301 83.18 92.4101 83.78 92.4101 84.52Z" fill="white"/>
<path d="M518.78 114.03V137.56L557.06 138.61L556.38 114.69L518.78 114.03Z" fill="#E0E0E0"/>
<path d="M518.78 114.03L518.74 111.68L556.41 112.19V115.53L518.78 114.03Z" fill="#EBEBEB"/>
<path d="M522.15 119.95L522.56 124.74L527.67 124.8L527.8 120.18L522.15 119.95Z" fill="#EBEBEB"/>
<path d="M529.75 123.23L529.47 121.23L540.8 121.96L540.58 124.03L529.75 123.23Z" fill="#F5F5F5"/>
<path d="M547.03 120.84L547.97 125.81L553.8 125.51L553.46 121.22L547.03 120.84Z" fill="#EBEBEB"/>
<path d="M522.22 127.85L522.63 132.64L527.74 132.7L527.87 128.09L522.22 127.85Z" fill="#EBEBEB"/>
<path d="M529.77 130.78L529.55 129.13L537.82 129.88L537.68 131.58L529.77 130.78Z" fill="#F5F5F5"/>
<path d="M547.1 128.74L548.05 133.71L553.88 133.41L553.54 129.12L547.1 128.74Z" fill="#EBEBEB"/>
<path d="M591.61 373.14C591.61 373.28 465.09 373.4 309.05 373.4C152.96 373.4 26.46 373.28 26.46 373.14C26.46 373 152.96 372.88 309.05 372.88C465.08 372.88 591.61 373 591.61 373.14Z" fill="#263238"/>
<path d="M85.39 180.11C78.84 180.74 75.42 188.52 75.57 195.1C75.72 201.68 77.99 208.25 76.85 214.74C75.4 222.97 68.68 229.58 67.42 237.85C65.93 247.6 72.3 256.74 73.75 266.49C74.46 271.24 74 276.18 75.45 280.75C77.9 288.46 86.21 293.84 94.25 292.93C102.29 292.02 109.18 284.92 109.86 276.86C110.49 269.34 106.3 261.95 107.35 254.48C108.12 248.96 111.71 243.91 111.37 238.34C110.96 231.72 105.18 226.66 103.43 220.26C101.69 213.86 104.19 207.09 103.88 200.46C103.31 188.58 97.3 179.93 85.39 180.11Z" fill="#148277"/>
<path opacity="0.2" d="M85.39 180.11C78.84 180.74 75.42 188.52 75.57 195.1C75.72 201.68 77.99 208.25 76.85 214.74C75.4 222.97 68.68 229.58 67.42 237.85C65.93 247.6 72.3 256.74 73.75 266.49C74.46 271.24 74 276.18 75.45 280.75C77.9 288.46 86.21 293.84 94.25 292.93C102.29 292.02 109.18 284.92 109.86 276.86C110.49 269.34 106.3 261.95 107.35 254.48C108.12 248.96 111.71 243.91 111.37 238.34C110.96 231.72 105.18 226.66 103.43 220.26C101.69 213.86 104.19 207.09 103.88 200.46C103.31 188.58 97.3 179.93 85.39 180.11Z" fill="#148277"/>
<path d="M48.5902 235.14C46.7802 246.01 50.7902 259.19 55.8102 269C60.8302 278.81 69.0602 286.94 78.9302 291.83C80.0402 292.38 81.4402 292.88 82.4502 292.16C83.2802 291.57 83.4502 290.43 83.5202 289.41C84.3402 277.9 81.3302 266.16 75.0902 256.46C68.8502 246.76 59.4002 239.16 48.5902 235.14Z" fill="#0AA697"/>
<path d="M91.2605 315.59C91.2405 315.6 91.1504 315.38 90.9904 314.96C90.8104 314.47 90.5905 313.87 90.3205 313.12C89.7605 311.52 88.9305 309.2 87.8505 306.36C85.7105 300.68 82.4904 292.92 78.3404 284.63C74.1804 276.35 69.8905 269.13 66.6205 264.01C64.9905 261.45 63.6405 259.39 62.6805 257.99C62.2405 257.33 61.8905 256.79 61.6005 256.36C61.3605 255.98 61.2405 255.78 61.2605 255.77C61.2805 255.76 61.4305 255.94 61.7005 256.29C62.0105 256.7 62.4005 257.22 62.8705 257.86C63.8905 259.23 65.2905 261.25 66.9805 263.78C70.3505 268.85 74.7105 276.05 78.8905 284.36C83.0505 292.67 86.2105 300.48 88.2505 306.21C89.2705 309.08 90.0505 311.41 90.5405 313.05C90.7705 313.81 90.9504 314.43 91.0904 314.93C91.2304 315.36 91.2805 315.59 91.2605 315.59Z" fill="#263238"/>
<path d="M90.9305 210.86C90.9505 210.86 90.9705 211.22 90.9805 211.92C90.9905 212.67 90.9905 213.68 91.0005 214.95C91.0005 217.64 91.0005 221.42 91.0005 226.08C90.9905 235.48 90.9905 248.46 91.0705 262.8C91.1605 277.14 91.3105 290.12 91.4405 299.52C91.5005 304.17 91.5405 307.96 91.5705 310.65C91.5705 311.92 91.5805 312.93 91.5805 313.68C91.5805 314.37 91.5605 314.74 91.5405 314.74C91.5205 314.74 91.4905 314.38 91.4505 313.69C91.4205 312.94 91.3805 311.94 91.3205 310.67C91.2405 307.98 91.1305 304.2 90.9905 299.54C90.7505 290.14 90.5305 277.16 90.4405 262.81C90.3605 248.47 90.4305 235.48 90.5505 226.08C90.6305 221.42 90.7005 217.64 90.7505 214.95C90.7905 213.68 90.8205 212.67 90.8405 211.93C90.8805 211.22 90.9105 210.86 90.9305 210.86Z" fill="#263238"/>
<path d="M75.3301 300.39L78.6201 372.37H101.64L104.2 303.68L75.3301 300.39Z" fill="#455A64"/>
<path d="M103.5 318.25C103.51 318.28 103.14 318.43 102.45 318.61C101.76 318.8 100.75 319.02 99.4903 319.17C98.2203 319.31 96.7003 319.39 95.0103 319.26C93.3203 319.15 91.4903 318.78 89.6203 318.28C87.7503 317.79 85.9803 317.29 84.3503 317.05C82.7203 316.8 81.2203 316.82 79.9903 317.02C77.5003 317.43 76.2903 318.55 76.2403 318.46C76.2203 318.44 76.5003 318.15 77.1003 317.76C77.7003 317.38 78.6603 316.92 79.9303 316.66C81.1903 316.4 82.7403 316.34 84.4203 316.57C86.1003 316.79 87.8903 317.28 89.7603 317.77C93.4603 318.84 96.9603 319.03 99.4603 318.8C101.96 318.59 103.48 318.16 103.5 318.25Z" fill="#263238"/>
<path d="M102.9 326.15C102.86 326.18 102.63 325.85 102.07 325.41C101.52 324.97 100.57 324.51 99.3204 324.35C98.0604 324.17 96.5504 324.34 94.9404 324.87C93.3204 325.37 91.6104 326.18 89.6604 326.67C85.7204 327.65 81.9704 326.8 79.6404 325.67C78.4604 325.11 77.5704 324.52 77.0004 324.06C76.4304 323.6 76.1504 323.31 76.1704 323.29C76.2304 323.2 77.4304 324.32 79.7904 325.33C82.1104 326.35 85.7404 327.1 89.5404 326.16C91.4204 325.69 93.1404 324.89 94.8004 324.4C96.4504 323.88 98.0704 323.74 99.3804 323.98C100.69 324.2 101.67 324.75 102.21 325.25C102.49 325.49 102.67 325.72 102.77 325.88C102.86 326.05 102.91 326.13 102.9 326.15Z" fill="#263238"/>
<path d="M103.17 335.94C103.18 335.96 103.09 336 102.91 336.07C102.74 336.14 102.47 336.21 102.12 336.26C101.42 336.36 100.36 336.26 99.1702 335.81C97.9802 335.39 96.6802 334.63 95.2202 333.91C93.7602 333.2 92.0702 332.57 90.2502 332.14C86.5902 331.25 83.1302 331.35 80.7002 331.71C78.2502 332.06 76.8002 332.6 76.7702 332.51C76.7602 332.48 77.1102 332.33 77.7702 332.09C78.4302 331.87 79.4002 331.58 80.6402 331.35C83.0902 330.88 86.6402 330.72 90.3702 331.63C92.2302 332.08 93.9502 332.73 95.4302 333.48C96.9102 334.23 98.1602 335.01 99.3002 335.46C100.43 335.94 101.42 336.08 102.1 336.05C102.78 336.02 103.15 335.89 103.17 335.94Z" fill="#263238"/>
<path d="M77.2704 342.56C77.2904 342.51 77.6504 342.66 78.3204 342.68C78.9904 342.72 79.9704 342.54 81.0504 342.01C82.1404 341.5 83.2504 340.56 84.5604 339.57C85.2204 339.09 85.9504 338.59 86.8004 338.25C87.6504 337.91 88.5704 337.68 89.5404 337.61C91.4704 337.48 93.2604 337.83 94.8504 338.14C96.4504 338.46 97.8704 338.76 99.0804 338.9C100.29 339.06 101.27 339.02 101.96 338.99C102.63 338.91 103.02 338.87 103.02 338.91C103.03 338.94 102.66 339.05 101.98 339.19C101.29 339.28 100.28 339.38 99.0404 339.26C97.8004 339.16 96.3504 338.9 94.7504 338.6C93.1604 338.32 91.4004 338 89.5604 338.12C88.6504 338.18 87.7804 338.4 86.9804 338.71C86.1904 339.03 85.4804 339.49 84.8304 339.95C83.5304 340.89 82.3604 341.83 81.1904 342.33C80.0404 342.84 78.9904 342.97 78.2904 342.87C77.9404 342.83 77.6804 342.75 77.5104 342.68C77.3404 342.62 77.2604 342.58 77.2704 342.56Z" fill="#263238"/>
<path d="M102.85 348.81C102.82 348.9 101.61 347.89 99.28 347.91C96.98 347.85 93.88 349.1 90.26 349.26C86.66 349.51 83.39 349.02 81.12 348.43C79.98 348.15 79.08 347.83 78.46 347.6C77.85 347.35 77.52 347.2 77.53 347.17C77.56 347.08 78.92 347.59 81.2 348.07C83.47 348.56 86.68 348.98 90.23 348.74C92 348.63 93.66 348.37 95.17 348.04C96.68 347.72 98.09 347.48 99.29 347.54C100.49 347.59 101.43 347.89 102.02 348.21C102.61 348.51 102.87 348.79 102.85 348.81Z" fill="#263238"/>
<path d="M497.53 0.260002H238.12V165.78H497.53V0.260002Z" fill="white"/>
<path d="M497.53 165.78C497.53 164.11 497.45 101.35 497.32 0.26L497.53 0.47C426.72 0.48 336.31 0.5 238.14 0.52H238.12L238.38 0.26C238.37 58.98 238.37 114.91 238.36 165.78L238.12 165.54C390.52 165.68 495.38 165.77 497.53 165.78C495.38 165.78 390.52 165.88 238.12 166.02H237.88V165.78C237.87 114.92 237.87 58.98 237.86 0.26V0H238.12H238.14C336.31 0.02 426.72 0.04 497.53 0.05H497.74V0.26C497.61 101.35 497.53 164.11 497.53 165.78Z" fill="#263238"/>
<path d="M238.12 4.97L237.97 13.46L497.24 13.92L497.53 4.97H238.12Z" fill="#0AA697"/>
<path d="M480.65 39.44L479.69 93.21L521.18 94.42L522.39 40.03L480.65 39.44Z" fill="#263238"/>
<path d="M480.83 44.52L511.13 44.69L510.88 42.01L522.31 42.44L522.39 40.03L480.65 39.44L480.83 44.52Z" fill="#455A64"/>
<path d="M482.43 41.96L482.39 43.41L489.98 43.42L489.67 42L482.43 41.96Z" fill="#E8505B"/>
<path d="M491.84 41.98L491.79 43.43L499.39 43.44L499.07 42.03L491.84 41.98Z" fill="#E8505B"/>
<path d="M501.44 42.17L501.39 43.62L508.99 43.63L508.67 42.21L501.44 42.17Z" fill="#E8505B"/>
<path d="M483.13 47.02L482.82 74.15L508.58 75.07L507.69 47.81L483.13 47.02Z" fill="#455A64"/>
<path d="M507.61 49.49C507.64 49.52 507.29 49.93 506.72 50.74C506.14 51.55 505.36 52.75 504.38 54.28C503.89 55.04 503.35 55.88 502.73 56.77C502.09 57.63 501.56 58.63 501.06 59.74C500.55 60.85 500.07 62.05 499.49 63.29C498.9 64.51 498.23 65.82 497.11 66.89L496.81 67.18L496.63 66.8C495.77 65 494.96 63.03 494.33 60.93C493.83 59.25 493.48 57.56 493.36 55.9L493.88 56.09C491.77 58.23 490.55 60.89 489.38 63.18C488.8 64.34 488.26 65.44 487.69 66.44C487.11 67.42 486.58 68.33 486.08 69.16C485.13 70.74 484.34 72.04 483.74 73.04C483.18 73.94 482.86 74.42 482.83 74.4C482.8 74.38 483.05 73.86 483.55 72.93C484.11 71.91 484.84 70.58 485.72 68.97C486.19 68.12 486.71 67.2 487.26 66.21C487.8 65.21 488.32 64.11 488.88 62.94C490.02 60.63 491.22 57.92 493.43 55.65L493.9 55.17L493.95 55.85C494.08 57.45 494.42 59.1 494.91 60.75C495.52 62.81 496.31 64.75 497.15 66.54L496.67 66.45C497.68 65.5 498.35 64.25 498.94 63.05C499.5 61.82 500.04 60.65 500.55 59.53C501.07 58.42 501.65 57.37 502.32 56.51C502.96 55.65 503.51 54.82 504.03 54.08C505.05 52.58 505.89 51.4 506.53 50.63C507.18 49.83 507.59 49.46 507.61 49.49Z" fill="#E8505B"/>
<path d="M513 49.3951L509.69 49.3682L509.664 52.6782L512.974 52.7051L513 49.3951Z" fill="#455A64"/>
<path d="M513.88 49.96L514.01 51.45L520.37 51.43L520.28 50.4L513.88 49.96Z" fill="#E8505B"/>
<path d="M513.47 54.3253L510.16 54.2984L510.133 57.6084L513.443 57.6353L513.47 54.3253Z" fill="#455A64"/>
<path d="M514.34 54.89L514.48 56.38L520.83 56.36L520.74 55.33L514.34 54.89Z" fill="#E8505B"/>
<path d="M513.3 60.0055L509.99 59.9785L509.963 63.2885L513.273 63.3155L513.3 60.0055Z" fill="#455A64"/>
<path d="M514.17 60.57L514.31 62.06L520.67 62.04L520.57 61.01L514.17 60.57Z" fill="#E8505B"/>
<path d="M483.5 76.99L514.46 77.58L514.35 80.35L483.34 79.21L483.5 76.99Z" fill="#455A64"/>
<path d="M514.46 77.58L518.14 77.61L518.03 80.38L514.35 80.35L514.46 77.58Z" fill="#E8505B"/>
<path d="M483.97 82.09L518.28 82.64L518.26 85.8L483.81 84.31L483.97 82.09Z" fill="#455A64"/>
<path d="M500.37 82.32L504.05 82.34L503.94 85.11L500.26 85.09L500.37 82.32Z" fill="#E8505B"/>
<path d="M484.44 87.02L515.39 87.61L515.28 90.38L484.28 89.24L484.44 87.02Z" fill="#455A64"/>
<path d="M515.39 87.61L519.07 87.64L518.97 90.41L515.28 90.38L515.39 87.61Z" fill="#E8505B"/>
<path d="M497.53 0.260002H238.12V4.97H497.53V0.260002Z" fill="#263238"/>
<path d="M242.96 2.41C243 2.92 242.62 3.37 242.1 3.41C241.59 3.45 241.14 3.07 241.1 2.55C241.06 2.04 241.44 1.59 241.96 1.55C242.47 1.51 242.92 1.89 242.96 2.41Z" fill="#0AA697"/>
<path d="M246.71 2.47C246.75 2.98 246.37 3.43 245.85 3.47C245.34 3.51 244.89 3.13 244.85 2.61C244.81 2.1 245.19 1.65 245.71 1.61C246.22 1.57 246.67 1.95 246.71 2.47Z" fill="#0AA697"/>
<path d="M250.46 2.5C250.5 3.01 250.12 3.46 249.6 3.5C249.09 3.54 248.64 3.16 248.6 2.64C248.56 2.12 248.94 1.68 249.46 1.64C249.97 1.61 250.42 1.99 250.46 2.5Z" fill="#0AA697"/>
<path d="M254.88 1.81L255.01 3.58L267.5 3.61L267.17 1.85L254.88 1.81Z" fill="#455A64"/>
<path d="M270.09 2.06L270.33 3.83L279.08 3.65L278.7 1.91L270.09 2.06Z" fill="#455A64"/>
<path d="M283.42 2.3L283.61 4.07L292.37 4.12L292.04 2.37L283.42 2.3Z" fill="#455A64"/>
<path d="M277.46 34.27L283.33 175.4L457.44 176.44L455.58 38.25L277.46 34.27Z" fill="white"/>
<path d="M277.46 34.27C277.46 34.27 277.73 34.27 278.29 34.28C278.85 34.29 279.67 34.3 280.76 34.32C282.95 34.36 286.18 34.43 290.39 34.51C298.83 34.68 311.18 34.94 326.82 35.26C358.16 35.93 402.72 36.89 455.61 38.02H455.84V38.25C456.4 79.4 457.04 126.33 457.72 175.92C457.72 176.09 457.72 176.27 457.73 176.44V176.71H457.46C393.03 176.31 333.14 175.94 283.35 175.63H283.14L283.13 175.42C281.4 132.83 279.97 97.53 278.97 72.86C278.48 60.55 278.1 50.9 277.84 44.32C277.71 41.04 277.62 38.53 277.55 36.83C277.48 35.13 277.46 34.27 277.46 34.27C277.46 34.27 277.51 35.16 277.59 36.87C277.67 38.58 277.78 41.1 277.93 44.4C278.22 50.99 278.64 60.66 279.18 72.99C280.23 97.62 281.74 132.87 283.56 175.4L283.34 175.19C333.13 175.47 393.03 175.82 457.45 176.18L457.19 176.44C457.19 176.27 457.19 176.1 457.18 175.92C456.52 126.33 455.9 79.4 455.35 38.25L455.58 38.48C402.76 37.25 358.26 36.22 326.96 35.49C311.29 35.11 298.93 34.82 290.48 34.61C286.25 34.5 283.01 34.42 280.81 34.37C279.72 34.34 278.88 34.32 278.32 34.3C277.75 34.29 277.46 34.27 277.46 34.27Z" fill="#455A64"/>
<path d="M277.35 32.85L277.49 38.29L455.58 38.25V33.56L277.35 32.85Z" fill="#263238"/>
<path d="M429.2 51.27L430.38 59.94L447.75 60L446.93 52.02L429.2 51.27Z" fill="#E0E0E0"/>
<path d="M429.23 53.35L446.96 54.11L446.93 52.02L429.2 51.27L429.23 53.35Z" fill="#455A64"/>
<path d="M435.84 54.7985L433.15 54.8423L433.194 57.532L435.884 57.4882L435.84 54.7985Z" fill="#E8505B"/>
<path d="M435.41 55.2382L432.721 55.2821L432.765 57.9718L435.454 57.928L435.41 55.2382Z" fill="#263238"/>
<path d="M434.56 55.9784L431.871 56.0223L431.914 58.712L434.604 58.6681L434.56 55.9784Z" fill="#E8505B"/>
<path d="M438.51 56.01L438.38 57.38L446.09 57.18L446 56.32L438.51 56.01Z" fill="#263238"/>
<path d="M429.36 61.34L430.54 70.01L447.92 70.07L447.09 62.1L429.36 61.34Z" fill="#E0E0E0"/>
<path d="M429.4 63.43L447.13 64.18L447.09 62.1L429.36 61.34L429.4 63.43Z" fill="#455A64"/>
<path d="M436 64.8789L433.31 64.9227L433.354 67.6124L436.044 67.5686L436 64.8789Z" fill="#E8505B"/>
<path d="M435.58 65.3186L432.89 65.3624L432.934 68.0522L435.624 68.0083L435.58 65.3186Z" fill="#263238"/>
<path d="M434.722 66.0327L432.032 66.0766L432.076 68.7663L434.766 68.7224L434.722 66.0327Z" fill="#E8505B"/>
<path d="M438.67 66.08L438.55 67.45L446.25 67.26L446.17 66.39L438.67 66.08Z" fill="#263238"/>
<path d="M299.634 76.8318L295.434 76.8496L295.452 81.0496L299.652 81.0318L299.634 76.8318Z" fill="#455A64"/>
<path d="M443.245 77.9518L439.045 77.9696L439.063 82.1696L443.263 82.1518L443.245 77.9518Z" fill="#455A64"/>
<path d="M442.755 141.042L438.555 141.06L438.573 145.26L442.773 145.242L442.755 141.042Z" fill="#455A64"/>
<path d="M302.244 136.352L298.044 136.37L298.062 140.57L302.262 140.552L302.244 136.352Z" fill="#455A64"/>
<path d="M372.121 81.4065L372.109 78.6465L369.349 78.6581L369.361 81.4181L372.121 81.4065Z" fill="#455A64"/>
<path d="M299.5 111.647L299.488 108.887L296.728 108.899L296.74 111.659L299.5 111.647Z" fill="#455A64"/>
<path d="M442.405 109.273L442.394 106.513L439.634 106.525L439.645 109.285L442.405 109.273Z" fill="#455A64"/>
<path d="M370.558 142.204L370.546 139.444L367.786 139.456L367.798 142.216L370.558 142.204Z" fill="#455A64"/>
<path d="M441.15 80.06C441.14 80.07 440.89 80.08 440.41 80.09C439.92 80.09 439.22 80.1 438.31 80.1C436.46 80.09 433.76 80.09 430.26 80.08C423.25 80.03 413.07 79.97 400.26 79.88C374.73 79.64 338.79 79.3 297.07 78.91L297.68 78.29C298.33 96.99 299.04 117.29 299.77 138.33C299.78 138.54 299.78 138.75 299.79 138.95L299.18 138.35C354.05 139.8 403.82 141.12 440.21 142.08L439.75 142.52C440.14 123.29 440.46 107.73 440.68 96.96C440.81 91.55 440.91 87.35 440.98 84.48C441.02 83.05 441.06 81.96 441.08 81.21C441.1 80.85 441.11 80.57 441.12 80.36C441.14 80.17 441.15 80.07 441.15 80.06C441.17 80.04 441.18 80.4 441.18 81.12C441.18 81.86 441.18 82.92 441.18 84.31C441.16 87.16 441.14 91.32 441.1 96.69C440.99 107.53 440.84 123.19 440.65 142.54V142.99L440.19 142.98C403.79 142.11 354.03 140.92 299.15 139.61L298.56 139.6L298.54 139.01C298.53 138.81 298.53 138.6 298.52 138.39C297.81 117.35 297.12 97.05 296.49 78.35L296.47 77.72L297.1 77.73C338.98 78.35 375.06 78.89 400.69 79.27C413.43 79.5 423.57 79.67 430.55 79.8C434 79.87 436.66 79.93 438.48 79.97C439.36 80 440.03 80.02 440.51 80.03C440.94 80.03 441.17 80.05 441.15 80.06Z" fill="#455A64"/>
<path d="M442.811 147.6L445.181 158.25L446.941 154.62L451.181 153.95L442.811 147.6Z" fill="#263238"/>
<path d="M409.1 153.88H403.45V159.53H409.1V153.88Z" fill="#0AA697"/>
<path d="M417.16 153.88H411.51V159.53H417.16V153.88Z" fill="#E0E0E0"/>
<path d="M425.21 153.88H419.56V159.53H425.21V153.88Z" fill="#455A64"/>
<path d="M433.26 153.88H427.61V159.53H433.26V153.88Z" fill="#263238"/>
<path d="M436.48 137.62L306.57 133.83L304.44 82.46L436.48 84.23V137.62Z" fill="#0AA697"/>
<path d="M337.39 117.92L310.07 117.36L309.18 95.01L337.39 95.4V117.92Z" fill="#E0E0E0"/>
<path d="M471.22 150.72L474.85 193.69L510.22 194.28L507.52 153.13L471.22 150.72Z" fill="#455A64"/>
<path d="M470.98 148.88L471.44 153.24L507.61 154.55L507.41 150.3L470.98 148.88Z" fill="#263238"/>
<path d="M480.2 161.16L482.01 184.84L502.47 185.9L501.38 161.31L480.2 161.16Z" fill="#263238"/>
<path d="M500.15 180.42C500.15 180.54 498.49 180.64 495.77 180.71C493.05 180.78 489.27 180.82 485.03 180.81H484.61L484.57 180.39C484.53 179.93 484.48 179.45 484.44 178.95C484.02 174.39 483.69 170.27 483.5 167.27C483.31 164.28 483.25 162.42 483.38 162.41C483.51 162.4 483.79 164.23 484.15 167.21C484.51 170.19 484.94 174.31 485.36 178.86C485.4 179.35 485.45 179.84 485.49 180.3L485.04 179.88C489.28 179.91 493.06 179.98 495.78 180.08C498.49 180.18 500.15 180.3 500.15 180.42Z" fill="#E0E0E0"/>
<path d="M483.98 181.69C484.18 181.85 484.1 182.28 483.8 182.67C483.5 183.05 483.09 183.24 482.89 183.08C482.69 182.92 482.77 182.49 483.07 182.1C483.37 181.72 483.78 181.54 483.98 181.69Z" fill="#E8505B"/>
<path d="M489.04 175.21C489.24 175.37 488.84 176.22 488.14 177.11C487.44 178.01 486.71 178.6 486.51 178.45C486.31 178.29 486.71 177.44 487.41 176.55C488.11 175.65 488.84 175.05 489.04 175.21Z" fill="#E8505B"/>
<path d="M494.11 168.72C494.31 168.88 493.91 169.73 493.21 170.62C492.51 171.52 491.78 172.11 491.58 171.96C491.38 171.8 491.78 170.95 492.48 170.06C493.18 169.17 493.91 168.57 494.11 168.72Z" fill="#E8505B"/>
<path d="M497.73 164.09C497.93 164.25 497.85 164.68 497.55 165.07C497.25 165.45 496.84 165.64 496.64 165.48C496.44 165.32 496.52 164.89 496.82 164.5C497.13 164.12 497.53 163.93 497.73 164.09Z" fill="#E8505B"/>
<path d="M473.72 155.36L473.95 157.25L481.93 157.37L482.24 155.41L473.72 155.36Z" fill="#E8505B"/>
<path d="M468.75 20.28L469.94 28.95L487.31 29.01L486.48 21.03L468.75 20.28Z" fill="#E0E0E0"/>
<path d="M468.79 22.37L486.52 23.12L486.48 21.03L468.75 20.28L468.79 22.37Z" fill="#455A64"/>
<path d="M475.393 23.8189L472.703 23.8627L472.747 26.5525L475.437 26.5086L475.393 23.8189Z" fill="#E8505B"/>
<path d="M474.973 24.2588L472.283 24.3026L472.327 26.9924L475.017 26.9485L474.973 24.2588Z" fill="#263238"/>
<path d="M474.123 24.9888L471.433 25.0326L471.477 27.7224L474.167 27.6785L474.123 24.9888Z" fill="#E8505B"/>
<path d="M478.06 25.02L477.94 26.39L485.65 26.19L485.56 25.33L478.06 25.02Z" fill="#263238"/>
<path d="M11.4 177.42C17.696 177.42 22.8 172.316 22.8 166.02C22.8 159.724 17.696 154.62 11.4 154.62C5.10395 154.62 0 159.724 0 166.02C0 172.316 5.10395 177.42 11.4 177.42Z" fill="#356884"/>
<path d="M58.0299 127.98C66.0878 127.98 72.6199 121.448 72.6199 113.39C72.6199 105.332 66.0878 98.8 58.0299 98.8C49.9721 98.8 43.4399 105.332 43.4399 113.39C43.4399 121.448 49.9721 127.98 58.0299 127.98Z" fill="#356884"/>
<path d="M176.01 127.98C184.068 127.98 190.6 121.448 190.6 113.39C190.6 105.332 184.068 98.8 176.01 98.8C167.952 98.8 161.42 105.332 161.42 113.39C161.42 121.448 167.952 127.98 176.01 127.98Z" fill="#356884"/>
<path d="M219.28 167.51C227.338 167.51 233.87 160.978 233.87 152.92C233.87 144.862 227.338 138.33 219.28 138.33C211.222 138.33 204.69 144.862 204.69 152.92C204.69 160.978 211.222 167.51 219.28 167.51Z" fill="#356884"/>
<path d="M321.22 162.19C329.278 162.19 335.81 155.658 335.81 147.6C335.81 139.542 329.278 133.01 321.22 133.01C313.162 133.01 306.63 139.542 306.63 147.6C306.63 155.658 313.162 162.19 321.22 162.19Z" fill="#356884"/>
<path d="M265.55 207.9C273.608 207.9 280.14 203.078 280.14 197.13C280.14 191.182 273.608 186.36 265.55 186.36C257.492 186.36 250.96 191.182 250.96 197.13C250.96 203.078 257.492 207.9 265.55 207.9Z" fill="#356884"/>
<path d="M117.12 98.8C125.178 98.8 131.71 92.2678 131.71 84.21C131.71 76.1522 125.178 69.62 117.12 69.62C109.062 69.62 102.53 76.1522 102.53 84.21C102.53 92.2678 109.062 98.8 117.12 98.8Z" fill="#356884"/>
<path d="M11.3999 168.48C11.3999 168.48 12.6399 166.68 14.8999 163.61" stroke="#356884" stroke-miterlimit="10"/>
<path d="M21.9897 154.31C40.8297 130.38 81.3597 84.51 115.32 84.51C153.5 84.51 231.93 162.24 257.38 188.54" stroke="#356884" stroke-miterlimit="10" stroke-dasharray="11.7 11.7"/>
<path d="M261.44 192.77C264.09 195.55 265.55 197.13 265.55 197.13C267.11 195.79 268.62 194.48 270.09 193.21" stroke="#356884" stroke-miterlimit="10"/>
<path d="M279.09 185.46C295.03 171.71 304.69 163.38 310.55 158.32" stroke="#356884" stroke-miterlimit="10" stroke-dasharray="11.87 11.87"/>
<path d="M315.04 154.45C319.58 150.53 319.58 150.53 319.58 150.53" stroke="#356884" stroke-miterlimit="10"/>
<path d="M235.67 238.12V233.17C235.67 233.17 235.47 226.83 243.99 226.23C252.51 225.64 282.31 226.18 282.31 226.18C282.31 226.18 291.15 225.95 291.15 231.58C291.15 234.95 291.15 238.32 291.15 238.32L235.67 238.12Z" fill="#148277"/>
<path d="M235.67 238.12C235.67 238.12 261.55 239.71 262.9 244.84H267.7C267.7 244.84 270.87 239.52 291.15 238.32L235.67 238.12Z" fill="#263238"/>
<path d="M244.52 372.91H284.98L269.56 362.75L269.35 303.88H276.88V302.31H269.34L269.28 285.7L267.88 281.76L267.68 238.32H262.97C262.81 239.2 262.97 281.64 262.97 281.64L261.56 285.4V302.31H249.3V303.88H261.56V362.75L244.52 372.91Z" fill="#263238"/>
<path d="M265.55 208.08L266.67 206.94H294.35L295.23 208.22L265.55 208.08Z" fill="#455A64"/>
<path d="M165.38 210.71L200.58 372.54H204.69L169.03 210.71H165.38Z" fill="#263238"/>
<path d="M201.49 210.71L165.38 372.54H168.91L204.69 210.71H201.49Z" fill="#263238"/>
<path d="M172.16 351.07H197.53V347.78H173.25L172.16 351.07Z" fill="#263238"/>
<path d="M374.6 210.71L409.8 373.01H413.91L378.26 210.71H374.6Z" fill="#263238"/>
<path d="M410.71 210.71L374.6 373.01H378.13L413.91 210.71H410.71Z" fill="#263238"/>
<path d="M381.38 351.48H406.75V348.18H382.47L381.38 351.48Z" fill="#263238"/>
<path d="M377.27 165.91L362.83 208.08H297.48L297.96 205.91L324.39 205.09L336.56 165.88L377.27 165.91Z" fill="#263238"/>
<path d="M348.3 185.72C347.87 187.45 348.61 189.14 349.95 189.5C351.29 189.86 352.73 188.75 353.17 187.02C353.6 185.29 352.86 183.6 351.52 183.24C350.18 182.88 348.74 183.99 348.3 185.72Z" fill="white"/>
<path d="M351.16 194.77L352.51 198.28L365.88 191.86L364.61 188.34L351.16 194.77Z" fill="white"/>
<path d="M352.21 195.09L353.09 197.04L364.9 191.52L364.25 189.12L352.21 195.09Z" fill="#455A64"/>
<path d="M365.08 175.38C365.08 177.73 363.18 179.63 360.83 179.63C358.48 179.63 356.58 177.73 356.58 175.38C356.58 173.03 358.48 171.13 360.83 171.13C363.18 171.13 365.08 173.03 365.08 175.38Z" fill="white"/>
<path d="M360.1 171.97C358.6 172.34 357.49 173.86 357.54 175.4C357.59 176.94 358.74 178.37 360.22 178.8C360.89 179 361.65 179 362.28 178.69C362.92 178.38 363.38 177.78 363.7 177.14C364.13 176.28 364.35 175.28 364.13 174.35C363.89 173.33 363.13 172.45 362.15 172.08C361.17 171.71 360.01 171.85 359.16 172.45" fill="#0AA697"/>
<path d="M336.2 193.36L340.28 191.56L343.12 193.79L341.05 198.79L335.81 196.68L336.2 193.36Z" fill="white"/>
<path d="M336.56 193.74L340.17 192.06L342.49 194.01L340.77 198.16L336.32 196.47L336.56 193.74Z" fill="#0AA697"/>
<path d="M431.1 208.08H145.48V210.84H431.1V208.08Z" fill="#263238"/>
<path d="M395.56 188.23C392.45 184.98 390.56 180.6 390.32 176.11C390.21 173.96 390.53 171.62 392 170.04C393.88 168.01 397.47 167.95 399.42 169.9C401.41 171.9 401.43 175.11 400.93 177.88C400.18 182 398.1 185.05 395.75 188.52" fill="#0AA697"/>
<path d="M400.12 188.18C400.88 184.92 402.85 181.95 405.56 179.98C406.86 179.03 408.45 178.29 410.03 178.56C412.06 178.91 413.56 181.13 413.13 183.14C412.69 185.19 410.69 186.51 408.76 187.33C405.88 188.54 403.13 188.48 400.01 188.42" fill="#0AA697"/>
<path d="M395.55 197.28C395.41 197.28 395.38 193.08 395.48 187.9C395.59 182.72 395.79 178.52 395.94 178.53C396.08 178.53 396.11 182.73 396.01 187.91C395.9 193.09 395.69 197.28 395.55 197.28Z" fill="#263238"/>
<path d="M409.27 182.62C409.31 182.68 408.59 183.22 407.39 184.03C406.19 184.84 404.5 185.9 402.59 187.01C400.68 188.12 398.91 189.05 397.61 189.7C396.31 190.34 395.49 190.69 395.45 190.63C395.42 190.56 396.18 190.1 397.43 189.38C398.85 188.56 400.5 187.61 402.32 186.57C404.13 185.51 405.77 184.55 407.19 183.73C408.45 182.99 409.23 182.56 409.27 182.62Z" fill="#263238"/>
<path d="M386.57 195.74L405.53 196.69L403.65 208.21H388.45L386.57 195.74Z" fill="#455A64"/>
<path d="M395.78 193.37C395.74 193.5 393.94 193.12 391.85 192.25C389.76 191.38 388.22 190.37 388.29 190.25C388.36 190.12 389.99 190.92 392.05 191.77C394.11 192.63 395.82 193.23 395.78 193.37Z" fill="#263238"/>
</g>
<defs>
<clipPath id="clip0">
<rect width="591.61" height="373.94" fill="white"/>
</clipPath>
</defs>
</svg>
