<svg width="335" height="332" viewBox="0 0 335 332" fill="none" xmlns="http://www.w3.org/2000/svg">
<path d="M251.661 248.598C297.427 202.832 297.427 128.631 251.661 82.8659C205.896 37.1003 131.695 37.1003 85.9294 82.8659C40.1638 128.631 40.1638 202.832 85.9294 248.598C131.695 294.363 205.896 294.363 251.661 248.598Z" fill="#BAF4EE"/>
<path opacity="0.73" d="M264.51 193.89V233.286C260.2 239.384 255.344 245.031 249.96 250.208V193.89H249.941V193.758C249.866 193.475 242.807 187.603 237.368 183.16V180.695L243.937 179.001C246.647 178.304 249.49 178.53 252.012 179.622C253.16 180.111 254.346 180.582 255.532 180.958V186.097C260.972 190.558 264.416 193.457 264.473 193.739V193.871H264.51V193.89Z" fill="#7FD6CB"/>
<path d="M2.02588 15.3734L36.3964 96.0671L61.5438 78.863L76.1127 100.039L78.7291 64.3317L109.147 45.7912L2.02588 15.3734Z" fill="#FFB031"/>
<path d="M67.115 75.0608L36.396 96.0671L61.5434 78.863L76.1123 100.039L78.7287 64.3317L30.2598 35.4763L67.115 75.0608Z" fill="#FF9433"/>
<path d="M78.0887 73.0844L30.2598 35.4763L78.7287 64.3317L78.0887 73.0844Z" fill="#FF7733"/>
<path d="M76.7152 110.09C76.4516 108.509 76.094 106.947 75.6987 105.422L78.0516 104.782C78.4845 106.382 78.8421 108.02 79.1245 109.657L76.7152 110.09Z" fill="#00C8B7"/>
<path d="M48.2544 164.902C44.7157 164.658 41.3276 163.528 38.4477 161.627L39.8029 159.594C42.3252 161.27 45.2992 162.248 48.4238 162.455L48.2544 164.902ZM58.3811 162.907L57.3082 160.724C59.8493 159.481 62.2962 157.543 64.6115 154.983L66.4373 156.62C63.915 159.406 61.2045 161.533 58.3811 162.907ZM31.6526 153.834C30.2785 151.049 29.5444 147.981 29.5444 144.969C29.5444 144.724 29.5444 144.48 29.5633 144.235L29.6009 143.708L32.0291 143.877L32.0102 144.329C32.0102 144.555 31.9914 144.762 31.9914 144.969C31.9914 147.604 32.6314 150.296 33.8361 152.762L31.6526 153.834ZM126.087 153.289L126.068 150.842C129.249 150.823 132.524 150.691 135.8 150.446L135.988 152.875C132.656 153.138 129.324 153.27 126.087 153.289ZM116.186 152.969L114.624 152.856C111.631 152.611 108.902 152.272 106.304 151.82L106.718 149.411C109.24 149.844 111.895 150.183 114.812 150.428L116.337 150.54L116.186 152.969ZM145.813 151.858L145.493 149.43C148.637 148.997 151.874 148.47 155.112 147.849L155.582 150.239C152.288 150.879 148.994 151.425 145.813 151.858ZM96.6292 149.392C93.7681 148.414 91.0764 147.228 88.6294 145.854C88.253 145.647 87.8577 145.421 87.4812 145.195L88.7424 143.105C89.1 143.313 89.4576 143.538 89.8153 143.727C92.1305 145.025 94.6716 146.155 97.4009 147.096L96.6292 149.392ZM72.2535 148.414L70.1454 147.19C71.7265 144.442 73.0817 141.506 74.1735 138.494L76.4699 139.322C75.3217 142.484 73.9099 145.534 72.2535 148.414ZM165.22 148.131L164.636 145.759C167.686 145.025 170.867 144.178 174.085 143.256L174.763 145.609C171.507 146.55 168.307 147.397 165.22 148.131ZM184.193 142.729L183.44 140.414C186.546 139.416 189.633 138.362 192.701 137.27L193.51 139.567C190.424 140.658 187.318 141.731 184.193 142.729ZM79.3309 139.51C77.091 137.873 74.6817 136.16 72.0653 134.729L71.2559 134.296L72.3665 132.132C72.6488 132.282 72.95 132.433 73.2323 132.602C75.9805 134.108 78.5592 135.934 80.7615 137.553L79.3309 139.51ZM35.436 135.84L33.7231 134.089C35.8689 131.981 38.8053 130.4 42.7016 129.271L43.5298 131.567C39.9535 132.64 37.2806 134.052 35.436 135.84ZM62.3339 131.078C59.5669 130.456 56.7058 130.137 53.8824 130.137L52.8848 130.155L52.8283 127.708C56.1976 127.633 59.5857 127.953 62.8797 128.687L62.3339 131.078ZM79.0486 129.647L76.6393 129.214C77.204 126.052 77.4863 122.852 77.5051 119.652L79.9521 119.671C79.9333 123.003 79.6321 126.353 79.0486 129.647Z" fill="#00C8B7"/>
<path d="M202.846 136.122L201.98 133.845C203.505 133.261 205.011 132.678 206.536 132.094L207.42 134.372C205.914 134.955 204.39 135.539 202.846 136.122Z" fill="#00C8B7"/>
<path d="M279.701 195.621C278.458 195.621 277.404 194.68 277.273 193.419C277.141 192.083 278.12 190.878 279.475 190.746C294.232 189.316 307.803 182.276 317.685 170.926C318.57 169.909 320.113 169.796 321.13 170.681C322.146 171.566 322.259 173.109 321.375 174.126C310.664 186.436 295.945 194.059 279.945 195.602C279.851 195.602 279.776 195.621 279.701 195.621Z" fill="#00C8B7"/>
<path d="M249.96 193.908L164.919 244.053L79.877 193.908C79.877 193.871 79.8769 193.814 79.8958 193.777C79.9711 193.457 84.658 189.541 91.8107 183.725C91.8859 183.669 91.9424 183.612 91.9989 183.556C115.49 164.469 164.919 125.431 164.919 125.431C164.919 125.431 214.348 164.469 237.839 183.537C245.104 189.429 249.885 193.419 249.96 193.758C249.96 193.795 249.96 193.852 249.96 193.908Z" fill="#7A4C08"/>
<path d="M199.892 83.907H108.13C100.262 83.907 93.8813 90.288 93.8813 98.1559V236.881C93.8813 244.748 100.262 251.129 108.13 251.129H223.1C230.968 251.129 237.349 244.748 237.349 236.881V121.365L199.892 83.907Z" fill="white"/>
<path d="M199.891 107.116C199.891 114.984 206.272 121.365 214.14 121.365H237.349L199.891 83.8887V107.116Z" fill="#E6E8E8"/>
<path d="M152.307 107.342H120.666C117.861 107.342 115.583 109.62 115.583 112.424V144.084C115.583 146.889 117.861 149.166 120.666 149.166H152.326C155.13 149.166 157.408 146.889 157.408 144.084V112.424C157.389 109.62 155.112 107.342 152.307 107.342Z" fill="#82EBE3"/>
<path d="M195.676 160.78H119.726C117.467 160.78 115.642 162.606 115.642 164.865C115.642 167.123 117.467 168.949 119.726 168.949H195.676C197.935 168.949 199.761 167.123 199.761 164.865C199.761 162.606 197.935 160.78 195.676 160.78Z" fill="#D9DBDB"/>
<path d="M195.676 181.147H119.726C117.467 181.147 115.642 182.972 115.642 185.231C115.642 187.49 117.467 189.316 119.726 189.316H195.676C197.935 189.316 199.761 187.49 199.761 185.231C199.761 182.972 197.935 181.147 195.676 181.147Z" fill="#D9DBDB"/>
<path d="M161.193 200.911H119.726C117.467 200.911 115.642 202.736 115.642 204.995C115.642 207.254 117.467 209.08 119.726 209.08H161.193C163.452 209.08 165.278 207.254 165.278 204.995C165.278 202.755 163.452 200.911 161.193 200.911Z" fill="#D9DBDB"/>
<path d="M249.96 193.89V275.468C249.96 281.171 245.292 285.839 239.589 285.839H90.2107C84.5074 285.839 79.877 281.171 79.877 275.468V193.89L164.919 244.034L249.96 193.89Z" fill="#FFB031"/>
<path d="M247.08 282.602L192.343 227.865L164.918 244.034L137.475 227.846L82.7378 282.583C84.6201 284.578 87.2741 285.839 90.2105 285.839H239.589C242.544 285.839 245.198 284.578 247.08 282.602Z" fill="#FF9433"/>
<path d="M267.146 81.8935C242.658 84.3028 223.101 104.481 221.35 129.007C220.484 141.223 223.948 152.555 230.31 161.74C232.719 165.204 233.096 169.665 231.496 173.542L227.468 183.255L243.975 178.982C246.667 178.285 249.509 178.511 252.05 179.603C259.692 182.916 268.313 184.441 277.367 183.556C301.404 181.222 320.829 161.815 323.163 137.797C326.25 105.573 299.39 78.7312 267.146 81.8935Z" fill="#00C8B7"/>
<path d="M273.565 158.559L276.369 155.754C276.369 155.754 274.148 150.503 283.484 141.637C289.056 136.367 290.298 131.247 289.846 127.068C289.131 120.424 283.691 114.984 277.047 114.269C272.868 113.817 267.767 115.059 262.478 120.631C253.612 129.986 248.361 127.746 248.361 127.746L245.556 130.551L273.565 158.559Z" fill="white"/>
<path d="M251.899 141.393C249.678 144.423 249.923 148.696 252.671 151.444C255.419 154.192 259.692 154.437 262.723 152.216L251.899 141.393Z" fill="white"/>
<path d="M291.823 117.676L290.072 119.426C288.717 117.262 286.854 115.417 284.689 114.062L286.458 112.292C287.945 110.805 290.355 110.805 291.842 112.292C293.31 113.779 293.31 116.189 291.823 117.676Z" fill="white"/>
<path d="M270.929 81.6864C289.13 87.1262 302.401 103.992 302.401 123.963C302.401 148.338 282.637 168.102 258.261 168.102C245.424 168.102 233.885 162.587 225.829 153.834C227.109 156.62 228.596 159.274 230.309 161.759C232.718 165.222 233.095 169.683 231.495 173.561L227.467 183.273L243.974 179.001C246.666 178.304 249.508 178.53 252.049 179.622C259.691 182.935 268.312 184.459 277.366 183.575C301.403 181.241 320.828 161.853 323.162 137.816C326.136 106.853 301.459 80.877 270.929 81.6864Z" fill="#08B29D"/>
<path d="M4.92399 39.3162L16.086 64.9153C16.6506 66.2141 16.0483 67.7387 14.7495 68.3034L14.3543 68.4728C13.0367 69.0375 11.512 68.4352 10.9661 67.1176L0.199449 41.3302C-0.365237 39.975 0.312386 38.4315 1.68646 37.9233C2.96641 37.4527 4.39695 38.055 4.92399 39.3162Z" fill="#FFB031"/>
</svg>
