<svg width="613" height="423" viewBox="0 0 613 423" fill="none" xmlns="http://www.w3.org/2000/svg">
<g clip-path="url(#clip0)">
<path d="M504.54 292.15C504.54 291.97 505.4 291.82 506.47 291.82C507.53 291.82 508.4 291.97 508.4 292.15C508.4 292.33 507.54 292.48 506.47 292.48C505.4 292.49 504.54 292.34 504.54 292.15Z" fill="#E0E0E0"/>
<path d="M496.83 292.15C496.83 291.97 497.69 291.82 498.76 291.82C499.82 291.82 500.69 291.97 500.69 292.15C500.69 292.33 499.83 292.48 498.76 292.48C497.69 292.49 496.83 292.34 496.83 292.15Z" fill="#E0E0E0"/>
<path d="M489.12 292.15C489.12 291.97 489.98 291.82 491.05 291.82C492.11 291.82 492.98 291.97 492.98 292.15C492.98 292.33 492.12 292.48 491.05 292.48C489.99 292.49 489.12 292.34 489.12 292.15Z" fill="#E0E0E0"/>
<path d="M481.42 292.15C481.42 291.97 482.28 291.82 483.35 291.82C484.41 291.82 485.28 291.97 485.28 292.15C485.28 292.33 484.42 292.48 483.35 292.48C482.28 292.49 481.42 292.34 481.42 292.15Z" fill="#E0E0E0"/>
<path d="M473.71 292.15C473.71 291.97 474.57 291.82 475.64 291.82C476.7 291.82 477.57 291.97 477.57 292.15C477.57 292.33 476.71 292.48 475.64 292.48C474.57 292.49 473.71 292.34 473.71 292.15Z" fill="#E0E0E0"/>
<path d="M466 292.15C466 291.97 466.86 291.82 467.93 291.82C468.99 291.82 469.86 291.97 469.86 292.15C469.86 292.33 469 292.48 467.93 292.48C466.86 292.49 466 292.34 466 292.15Z" fill="#E0E0E0"/>
<path d="M458.29 292.15C458.29 291.97 459.15 291.82 460.22 291.82C461.28 291.82 462.15 291.97 462.15 292.15C462.15 292.33 461.29 292.48 460.22 292.48C459.16 292.49 458.29 292.34 458.29 292.15Z" fill="#E0E0E0"/>
<path d="M450.59 292.15C450.59 291.97 451.45 291.82 452.52 291.82C453.58 291.82 454.45 291.97 454.45 292.15C454.45 292.33 453.59 292.48 452.52 292.48C451.45 292.49 450.59 292.34 450.59 292.15Z" fill="#E0E0E0"/>
<path d="M442.88 292.15C442.88 291.97 443.74 291.82 444.81 291.82C445.87 291.82 446.74 291.97 446.74 292.15C446.74 292.33 445.88 292.48 444.81 292.48C443.74 292.49 442.88 292.34 442.88 292.15Z" fill="#E0E0E0"/>
<path d="M435.17 292.15C435.17 291.97 436.03 291.82 437.1 291.82C438.16 291.82 439.03 291.97 439.03 292.15C439.03 292.33 438.17 292.48 437.1 292.48C436.03 292.49 435.17 292.34 435.17 292.15Z" fill="#E0E0E0"/>
<path d="M427.46 292.15C427.46 291.97 428.32 291.82 429.39 291.82C430.45 291.82 431.32 291.97 431.32 292.15C431.32 292.33 430.46 292.48 429.39 292.48C428.33 292.49 427.46 292.34 427.46 292.15Z" fill="#E0E0E0"/>
<path d="M419.76 292.15C419.76 291.97 420.62 291.82 421.69 291.82C422.75 291.82 423.62 291.97 423.62 292.15C423.62 292.33 422.76 292.48 421.69 292.48C420.62 292.49 419.76 292.34 419.76 292.15Z" fill="#E0E0E0"/>
<path d="M414.27 289.94C414.45 289.94 414.6 290.8 414.6 291.87C414.6 291.97 414.6 292.06 414.6 292.16L414.27 291.83C415.2 291.85 415.91 291.99 415.91 292.16C415.91 292.33 415.2 292.47 414.27 292.49L413.94 292.5V292.16C413.94 292.06 413.94 291.97 413.94 291.87C413.93 290.8 414.08 289.94 414.27 289.94Z" fill="#E0E0E0"/>
<path d="M414.27 282.23C414.45 282.23 414.6 283.09 414.6 284.16C414.6 285.22 414.45 286.09 414.27 286.09C414.09 286.09 413.94 285.23 413.94 284.16C413.93 283.09 414.08 282.23 414.27 282.23Z" fill="#E0E0E0"/>
<path d="M414.27 274.52C414.45 274.52 414.6 275.38 414.6 276.45C414.6 277.51 414.45 278.38 414.27 278.38C414.09 278.38 413.94 277.52 413.94 276.45C413.93 275.38 414.08 274.52 414.27 274.52Z" fill="#E0E0E0"/>
<path d="M414.27 266.81C414.45 266.81 414.6 267.67 414.6 268.74C414.6 269.8 414.45 270.67 414.27 270.67C414.09 270.67 413.94 269.81 413.94 268.74C413.93 267.68 414.08 266.81 414.27 266.81Z" fill="#E0E0E0"/>
<path d="M414.27 259.11C414.45 259.11 414.6 259.97 414.6 261.04C414.6 262.1 414.45 262.97 414.27 262.97C414.09 262.97 413.94 262.11 413.94 261.04C413.93 259.97 414.08 259.11 414.27 259.11Z" fill="#E0E0E0"/>
<path d="M414.27 251.4C414.45 251.4 414.6 252.26 414.6 253.33C414.6 254.39 414.45 255.26 414.27 255.26C414.09 255.26 413.94 254.4 413.94 253.33C413.93 252.26 414.08 251.4 414.27 251.4Z" fill="#E0E0E0"/>
<path d="M414.27 243.69C414.45 243.69 414.6 244.55 414.6 245.62C414.6 246.68 414.45 247.55 414.27 247.55C414.09 247.55 413.94 246.69 413.94 245.62C413.93 244.55 414.08 243.69 414.27 243.69Z" fill="#E0E0E0"/>
<path d="M414.27 235.98C414.45 235.98 414.6 236.84 414.6 237.91C414.6 238.97 414.45 239.84 414.27 239.84C414.09 239.84 413.94 238.98 413.94 237.91C413.93 236.85 414.08 235.98 414.27 235.98Z" fill="#E0E0E0"/>
<path d="M414.27 228.28C414.45 228.28 414.6 229.14 414.6 230.21C414.6 231.27 414.45 232.14 414.27 232.14C414.09 232.14 413.94 231.28 413.94 230.21C413.93 229.14 414.08 228.28 414.27 228.28Z" fill="#E0E0E0"/>
<path d="M414.27 220.57C414.45 220.57 414.6 221.43 414.6 222.5C414.6 223.56 414.45 224.43 414.27 224.43C414.09 224.43 413.94 223.57 413.94 222.5C413.93 221.43 414.08 220.57 414.27 220.57Z" fill="#E0E0E0"/>
<path d="M414.27 212.86C414.45 212.86 414.6 213.72 414.6 214.79C414.6 215.85 414.45 216.72 414.27 216.72C414.09 216.72 413.94 215.86 413.94 214.79C413.93 213.72 414.08 212.86 414.27 212.86Z" fill="#E0E0E0"/>
<path d="M414.27 205.15C414.45 205.15 414.6 206.01 414.6 207.08C414.6 208.14 414.45 209.01 414.27 209.01C414.09 209.01 413.94 208.15 413.94 207.08C413.93 206.02 414.08 205.15 414.27 205.15Z" fill="#E0E0E0"/>
<path d="M414.84 198.02C414.84 198.11 414.62 198.2 414.26 198.26L414.5 198.02C414.56 198.37 414.6 198.84 414.6 199.37C414.6 200.43 414.45 201.3 414.27 201.3C414.09 201.3 413.94 200.44 413.94 199.37C413.94 198.84 413.98 198.37 414.04 198.02L414.09 197.75L414.28 197.78C414.62 197.85 414.84 197.93 414.84 198.02Z" fill="#E0E0E0"/>
<path d="M422.55 198.02C422.55 198.2 421.69 198.35 420.62 198.35C419.56 198.35 418.69 198.2 418.69 198.02C418.69 197.84 419.55 197.69 420.62 197.69C421.69 197.69 422.55 197.84 422.55 198.02Z" fill="#E0E0E0"/>
<path d="M430.26 198.02C430.26 198.2 429.4 198.35 428.33 198.35C427.27 198.35 426.4 198.2 426.4 198.02C426.4 197.84 427.26 197.69 428.33 197.69C429.39 197.69 430.26 197.84 430.26 198.02Z" fill="#E0E0E0"/>
<path d="M437.96 198.02C437.96 198.2 437.1 198.35 436.03 198.35C434.97 198.35 434.1 198.2 434.1 198.02C434.1 197.84 434.96 197.69 436.03 197.69C437.1 197.69 437.96 197.84 437.96 198.02Z" fill="#E0E0E0"/>
<path d="M445.67 198.02C445.67 198.2 444.81 198.35 443.74 198.35C442.68 198.35 441.81 198.2 441.81 198.02C441.81 197.84 442.67 197.69 443.74 197.69C444.81 197.69 445.67 197.84 445.67 198.02Z" fill="#E0E0E0"/>
<path d="M453.38 198.02C453.38 198.2 452.52 198.35 451.45 198.35C450.39 198.35 449.52 198.2 449.52 198.02C449.52 197.84 450.38 197.69 451.45 197.69C452.52 197.69 453.38 197.84 453.38 198.02Z" fill="#E0E0E0"/>
<path d="M459.16 198.35C460.226 198.35 461.09 198.202 461.09 198.02C461.09 197.838 460.226 197.69 459.16 197.69C458.094 197.69 457.23 197.838 457.23 198.02C457.23 198.202 458.094 198.35 459.16 198.35Z" fill="#E0E0E0"/>
<path d="M468.79 198.02C468.79 198.2 467.93 198.35 466.86 198.35C465.8 198.35 464.93 198.2 464.93 198.02C464.93 197.84 465.79 197.69 466.86 197.69C467.93 197.69 468.79 197.84 468.79 198.02Z" fill="#E0E0E0"/>
<path d="M476.5 198.02C476.5 198.2 475.64 198.35 474.57 198.35C473.51 198.35 472.64 198.2 472.64 198.02C472.64 197.84 473.5 197.69 474.57 197.69C475.64 197.69 476.5 197.84 476.5 198.02Z" fill="#E0E0E0"/>
<path d="M484.21 198.02C484.21 198.2 483.35 198.35 482.28 198.35C481.22 198.35 480.35 198.2 480.35 198.02C480.35 197.84 481.21 197.69 482.28 197.69C483.35 197.69 484.21 197.84 484.21 198.02Z" fill="#E0E0E0"/>
<path d="M491.92 198.02C491.92 198.2 491.06 198.35 489.99 198.35C488.93 198.35 488.06 198.2 488.06 198.02C488.06 197.84 488.92 197.69 489.99 197.69C491.05 197.69 491.92 197.84 491.92 198.02Z" fill="#E0E0E0"/>
<path d="M499.62 198.02C499.62 198.2 498.76 198.35 497.69 198.35C496.63 198.35 495.76 198.2 495.76 198.02C495.76 197.84 496.62 197.69 497.69 197.69C498.76 197.69 499.62 197.84 499.62 198.02Z" fill="#E0E0E0"/>
<path d="M507.33 198.02C507.33 198.2 506.47 198.35 505.4 198.35C504.34 198.35 503.47 198.2 503.47 198.02C503.47 197.84 504.33 197.69 505.4 197.69C506.47 197.69 507.33 197.84 507.33 198.02Z" fill="#E0E0E0"/>
<path d="M508.39 204.67C508.21 204.67 508.06 203.81 508.06 202.74C508.06 201.68 508.21 200.81 508.39 200.81C508.57 200.81 508.72 201.67 508.72 202.74C508.73 203.81 508.58 204.67 508.39 204.67Z" fill="#E0E0E0"/>
<path d="M508.39 212.38C508.21 212.38 508.06 211.52 508.06 210.45C508.06 209.39 508.21 208.52 508.39 208.52C508.57 208.52 508.72 209.38 508.72 210.45C508.73 211.52 508.58 212.38 508.39 212.38Z" fill="#E0E0E0"/>
<path d="M508.39 220.09C508.21 220.09 508.06 219.23 508.06 218.16C508.06 217.1 508.21 216.23 508.39 216.23C508.57 216.23 508.72 217.09 508.72 218.16C508.73 219.22 508.58 220.09 508.39 220.09Z" fill="#E0E0E0"/>
<path d="M508.39 227.79C508.21 227.79 508.06 226.93 508.06 225.86C508.06 224.8 508.21 223.93 508.39 223.93C508.57 223.93 508.72 224.79 508.72 225.86C508.73 226.93 508.58 227.79 508.39 227.79Z" fill="#E0E0E0"/>
<path d="M508.39 235.5C508.21 235.5 508.06 234.64 508.06 233.57C508.06 232.51 508.21 231.64 508.39 231.64C508.57 231.64 508.72 232.5 508.72 233.57C508.73 234.64 508.58 235.5 508.39 235.5Z" fill="#E0E0E0"/>
<path d="M508.39 243.21C508.21 243.21 508.06 242.35 508.06 241.28C508.06 240.22 508.21 239.35 508.39 239.35C508.57 239.35 508.72 240.21 508.72 241.28C508.73 242.35 508.58 243.21 508.39 243.21Z" fill="#E0E0E0"/>
<path d="M508.39 250.92C508.21 250.92 508.06 250.06 508.06 248.99C508.06 247.93 508.21 247.06 508.39 247.06C508.57 247.06 508.72 247.92 508.72 248.99C508.73 250.05 508.58 250.92 508.39 250.92Z" fill="#E0E0E0"/>
<path d="M508.39 258.62C508.21 258.62 508.06 257.76 508.06 256.69C508.06 255.63 508.21 254.76 508.39 254.76C508.57 254.76 508.72 255.62 508.72 256.69C508.73 257.76 508.58 258.62 508.39 258.62Z" fill="#E0E0E0"/>
<path d="M508.39 266.33C508.21 266.33 508.06 265.47 508.06 264.4C508.06 263.34 508.21 262.47 508.39 262.47C508.57 262.47 508.72 263.33 508.72 264.4C508.73 265.47 508.58 266.33 508.39 266.33Z" fill="#E0E0E0"/>
<path d="M508.39 274.04C508.21 274.04 508.06 273.18 508.06 272.11C508.06 271.05 508.21 270.18 508.39 270.18C508.57 270.18 508.72 271.04 508.72 272.11C508.73 273.18 508.58 274.04 508.39 274.04Z" fill="#E0E0E0"/>
<path d="M508.39 281.75C508.21 281.75 508.06 280.89 508.06 279.82C508.06 278.76 508.21 277.89 508.39 277.89C508.57 277.89 508.72 278.75 508.72 279.82C508.73 280.88 508.58 281.75 508.39 281.75Z" fill="#E0E0E0"/>
<path d="M508.39 289.45C508.21 289.45 508.06 288.59 508.06 287.52C508.06 286.46 508.21 285.59 508.39 285.59C508.57 285.59 508.72 286.45 508.72 287.52C508.73 288.59 508.58 289.45 508.39 289.45Z" fill="#E0E0E0"/>
<path d="M511.88 287.71H504.91V294.68H511.88V287.71Z" fill="#E0E0E0"/>
<path d="M417.75 288.67H410.78V295.64H417.75V288.67Z" fill="#E0E0E0"/>
<path d="M511.88 193.86H504.91V200.83H511.88V193.86Z" fill="#E0E0E0"/>
<path d="M417.75 194.54H410.78V201.51H417.75V194.54Z" fill="#E0E0E0"/>
<path d="M351.31 27.44H216.17V117.93H351.31V27.44Z" fill="white"/>
<path d="M351.31 117.92C351.31 117.92 351.3 117.35 351.29 116.27C351.29 115.18 351.28 113.58 351.27 111.5C351.26 107.31 351.24 101.17 351.22 93.3C351.2 77.58 351.16 54.98 351.12 27.43L351.31 27.62C314.07 27.63 267.09 27.65 216.18 27.67H216.17L216.41 27.43C216.4 59.67 216.4 90.32 216.39 117.92L216.17 117.7C255.95 117.74 289.71 117.78 313.53 117.81C325.45 117.84 334.88 117.86 341.35 117.87C344.58 117.88 347.06 117.89 348.75 117.9C349.59 117.91 350.22 117.91 350.66 117.91C351.08 117.92 351.31 117.92 351.31 117.92C351.31 117.92 351.1 117.93 350.68 117.93C350.25 117.93 349.62 117.94 348.79 117.94C347.11 117.95 344.64 117.96 341.44 117.97C334.99 117.98 325.57 118 313.67 118.03C289.81 118.06 256.01 118.09 216.16 118.14H215.94V117.92C215.93 90.32 215.93 59.67 215.92 27.43V27.19H216.16H216.17C267.08 27.21 314.06 27.23 351.3 27.24H351.49V27.43C351.45 55.03 351.41 77.67 351.39 93.42C351.37 101.27 351.35 107.4 351.34 111.57C351.33 113.64 351.32 115.23 351.32 116.31C351.32 117.39 351.31 117.92 351.31 117.92Z" fill="#E0E0E0"/>
<path d="M216.17 35.51C216.17 35.38 246.4 35.27 283.68 35.27C320.97 35.27 351.2 35.38 351.2 35.51C351.2 35.64 320.98 35.75 283.68 35.75C246.4 35.76 216.17 35.65 216.17 35.51Z" fill="#E0E0E0"/>
<g opacity="0.3">
<g opacity="0.3">
<path opacity="0.3" d="M221.5 31.44C221.5 32.04 221.02 32.52 220.42 32.52C219.82 32.52 219.34 32.04 219.34 31.44C219.34 30.84 219.82 30.36 220.42 30.36C221.02 30.36 221.5 30.84 221.5 31.44Z" fill="#E0E0E0"/>
</g>
</g>
<g opacity="0.3">
<g opacity="0.3">
<path opacity="0.3" d="M225.21 31.44C225.21 32.04 224.73 32.52 224.13 32.52C223.53 32.52 223.05 32.04 223.05 31.44C223.05 30.84 223.54 30.36 224.13 30.36C224.72 30.36 225.21 30.84 225.21 31.44Z" fill="#E0E0E0"/>
</g>
</g>
<g opacity="0.3">
<g opacity="0.3">
<path opacity="0.3" d="M228.87 31.44C228.87 32.04 228.39 32.52 227.79 32.52C227.19 32.52 226.71 32.04 226.71 31.44C226.71 30.84 227.19 30.36 227.79 30.36C228.39 30.36 228.87 30.84 228.87 31.44Z" fill="#E0E0E0"/>
</g>
</g>
<path d="M263.84 44.95H227.79V81H263.84V44.95Z" fill="#E0E0E0"/>
<path d="M332.78 55.14C332.78 55.27 318.72 55.38 301.38 55.38C284.03 55.38 269.98 55.27 269.98 55.14C269.98 55.01 284.04 54.9 301.38 54.9C318.72 54.9 332.78 55.01 332.78 55.14Z" fill="#E0E0E0"/>
<path d="M332.78 61.84C332.78 61.97 318.72 62.08 301.38 62.08C284.03 62.08 269.98 61.97 269.98 61.84C269.98 61.71 284.04 61.6 301.38 61.6C318.72 61.6 332.78 61.7 332.78 61.84Z" fill="#E0E0E0"/>
<path d="M332.78 68.54C332.78 68.67 318.72 68.78 301.38 68.78C284.03 68.78 269.98 68.67 269.98 68.54C269.98 68.41 284.04 68.3 301.38 68.3C318.72 68.29 332.78 68.4 332.78 68.54Z" fill="#E0E0E0"/>
<path d="M307.09 75.24C307.09 75.27 306.57 75.31 305.63 75.33C304.6 75.35 303.27 75.38 301.65 75.41C298.29 75.45 293.65 75.48 288.53 75.48C283.4 75.48 278.76 75.45 275.41 75.41C273.8 75.38 272.46 75.35 271.43 75.33C270.49 75.3 269.97 75.27 269.97 75.24C269.97 75.21 270.49 75.17 271.43 75.15C272.46 75.13 273.79 75.1 275.41 75.07C278.77 75.03 283.41 75 288.53 75C293.65 75 298.29 75.03 301.65 75.07C303.26 75.1 304.6 75.13 305.63 75.15C306.57 75.17 307.09 75.2 307.09 75.24Z" fill="#E0E0E0"/>
<path d="M246.98 93.15H230.04V110.09H246.98V93.15Z" fill="#E0E0E0"/>
<path d="M277.71 93.15H260.77V110.09H277.71V93.15Z" fill="#E0E0E0"/>
<path d="M308.43 93.15H291.49V110.09H308.43V93.15Z" fill="#E0E0E0"/>
<path d="M339.15 93.15H322.21V110.09H339.15V93.15Z" fill="#E0E0E0"/>
<path d="M58.41 99H161.09V247.88H59.11L58.41 99Z" fill="#E0E0E0"/>
<path d="M50.7062 247.187H152.456L152.456 99.7068H50.7062L50.7062 247.187Z" fill="white"/>
<path d="M153.15 99V247.88H50V99H153.15ZM151.75 246.48V100.4H51.4V246.48H151.75Z" fill="#E0E0E0"/>
<path d="M139.82 115.68H63.35V231.21H139.82V115.68Z" fill="white"/>
<path d="M63.35 115.68C63.35 115.68 63.36 115.88 63.37 116.25C63.37 116.64 63.38 117.18 63.39 117.89C63.4 119.35 63.41 121.48 63.43 124.23C63.45 129.78 63.48 137.85 63.52 148.04C63.56 168.41 63.62 197.25 63.68 231.21L63.35 230.88C86.71 230.87 112.6 230.86 139.81 230.85H139.82L139.46 231.21C139.49 187.63 139.51 147.45 139.53 115.68L139.82 115.97C116.55 115.91 97.47 115.85 84.18 115.82C77.54 115.79 72.35 115.76 68.8 115.75C67.04 115.74 65.69 115.73 64.76 115.72C63.83 115.7 63.35 115.68 63.35 115.68C63.35 115.68 63.8 115.66 64.69 115.65C65.61 115.64 66.94 115.63 68.68 115.62C72.22 115.6 77.39 115.58 84 115.55C97.33 115.51 116.47 115.46 139.82 115.4H140.11V115.69C140.13 147.46 140.16 187.64 140.18 231.22V231.58H139.82H139.81C112.6 231.57 86.72 231.56 63.35 231.55H63.02V231.22C63.09 197.18 63.14 168.26 63.18 147.83C63.22 137.67 63.25 129.63 63.27 124.1C63.29 121.37 63.3 119.27 63.31 117.82C63.32 117.13 63.33 116.6 63.33 116.21C63.33 115.85 63.35 115.68 63.35 115.68Z" fill="#E0E0E0"/>
<path d="M50.42 247.18C50.34 247.12 50.97 246.15 52.06 244.64C53.15 243.13 54.69 241.08 56.47 238.86C58.25 236.64 59.93 234.69 61.18 233.32C62.44 231.95 63.27 231.14 63.34 231.21C63.49 231.35 60.57 234.89 57.03 239.32C53.51 243.75 50.58 247.31 50.42 247.18Z" fill="#E0E0E0"/>
<path d="M50.7001 99.7C50.8601 99.58 53.8201 103.05 57.3101 107.46C60.8001 111.87 63.5001 115.55 63.3501 115.67C63.1901 115.79 60.2301 112.32 56.7401 107.91C53.2501 103.51 50.5501 99.83 50.7001 99.7Z" fill="#E0E0E0"/>
<path d="M152.47 99.82C148.03 105.3 143.59 110.78 139.14 116.26L152.47 99.82Z" fill="white"/>
<path d="M139.14 116.26C138.98 116.13 141.84 112.35 145.52 107.81C149.2 103.27 152.31 99.69 152.47 99.82C152.63 99.95 149.77 103.73 146.09 108.27C142.41 112.81 139.3 116.39 139.14 116.26Z" fill="#E0E0E0"/>
<path d="M152.45 247.18C152.29 247.3 149.36 243.87 145.91 239.5C142.46 235.13 139.79 231.49 139.94 231.37C140.1 231.25 143.02 234.68 146.48 239.05C149.94 243.42 152.61 247.06 152.45 247.18Z" fill="#E0E0E0"/>
<path d="M106.51 175.13H93.05L91.45 178.84C90.93 180.08 90.66 181.1 90.66 181.9C90.66 182.97 91.09 183.75 91.95 184.26C92.46 184.56 93.7 184.78 95.69 184.93V185.97H83.02V184.93C84.39 184.72 85.51 184.16 86.39 183.23C87.27 182.3 88.36 180.39 89.65 177.49L103.28 147.09H103.81L117.55 178.33C118.86 181.29 119.94 183.15 120.78 183.92C121.42 184.5 122.32 184.84 123.48 184.93V185.97H105.05V184.93H105.81C107.29 184.93 108.33 184.72 108.93 184.31C109.34 184.01 109.55 183.58 109.55 183.02C109.55 182.68 109.49 182.34 109.38 181.98C109.34 181.81 109.06 181.11 108.54 179.87L106.51 175.13ZM105.55 173.05L99.88 159.93L94.04 173.05H105.55Z" fill="#E0E0E0"/>
<path d="M392.29 58.64C392.29 58.56 392.82 58.5 393.47 58.5C393.6 58.5 393.72 58.51 393.87 58.51L393.74 58.64C393.76 58.18 393.81 57.86 393.87 57.86C393.93 57.86 393.98 58.19 394 58.64L394.01 58.77H393.88C393.73 58.77 393.61 58.78 393.48 58.78C392.82 58.77 392.29 58.71 392.29 58.64Z" fill="#E0E0E0"/>
<path d="M389.14 58.64C389.14 58.56 389.49 58.5 389.93 58.5C390.37 58.5 390.72 58.56 390.72 58.64C390.72 58.72 390.37 58.78 389.93 58.78C389.49 58.77 389.14 58.71 389.14 58.64Z" fill="#E0E0E0"/>
<path d="M385.99 58.64C385.99 58.56 386.34 58.5 386.78 58.5C387.22 58.5 387.57 58.56 387.57 58.64C387.57 58.72 387.22 58.78 386.78 58.78C386.34 58.77 385.99 58.71 385.99 58.64Z" fill="#E0E0E0"/>
<path d="M382.84 58.64C382.84 58.56 383.19 58.5 383.63 58.5C384.07 58.5 384.42 58.56 384.42 58.64C384.42 58.72 384.07 58.78 383.63 58.78C383.19 58.77 382.84 58.71 382.84 58.64Z" fill="#E0E0E0"/>
<path d="M379.68 58.64C379.68 58.56 380.03 58.5 380.47 58.5C380.91 58.5 381.26 58.56 381.26 58.64C381.26 58.72 380.91 58.78 380.47 58.78C380.04 58.77 379.68 58.71 379.68 58.64Z" fill="#E0E0E0"/>
<path d="M376.53 58.64C376.53 58.56 376.88 58.5 377.32 58.5C377.76 58.5 378.11 58.56 378.11 58.64C378.11 58.72 377.76 58.78 377.32 58.78C376.88 58.77 376.53 58.71 376.53 58.64Z" fill="#E0E0E0"/>
<path d="M373.38 58.64C373.38 58.56 373.73 58.5 374.17 58.5C374.61 58.5 374.96 58.56 374.96 58.64C374.96 58.72 374.61 58.78 374.17 58.78C373.73 58.77 373.38 58.71 373.38 58.64Z" fill="#E0E0E0"/>
<path d="M370.23 58.64C370.23 58.56 370.58 58.5 371.02 58.5C371.46 58.5 371.81 58.56 371.81 58.64C371.81 58.72 371.46 58.78 371.02 58.78C370.58 58.77 370.23 58.71 370.23 58.64Z" fill="#E0E0E0"/>
<path d="M367.07 58.64C367.07 58.56 367.42 58.5 367.86 58.5C368.3 58.5 368.65 58.56 368.65 58.64C368.65 58.72 368.3 58.78 367.86 58.78C367.43 58.77 367.07 58.71 367.07 58.64Z" fill="#E0E0E0"/>
<path d="M363.92 58.64C363.92 58.56 364.27 58.5 364.71 58.5C365.15 58.5 365.5 58.56 365.5 58.64C365.5 58.72 365.15 58.78 364.71 58.78C364.27 58.77 363.92 58.71 363.92 58.64Z" fill="#E0E0E0"/>
<path d="M360.77 58.64C360.77 58.56 361.12 58.5 361.56 58.5C362 58.5 362.35 58.56 362.35 58.64C362.35 58.72 362 58.78 361.56 58.78C361.12 58.77 360.77 58.71 360.77 58.64Z" fill="#E0E0E0"/>
<path d="M357.62 58.64C357.62 58.56 357.97 58.5 358.41 58.5C358.85 58.5 359.2 58.56 359.2 58.64C359.2 58.72 358.85 58.78 358.41 58.78C357.97 58.77 357.62 58.71 357.62 58.64Z" fill="#E0E0E0"/>
<path d="M354.46 58.64C354.46 58.56 354.81 58.5 355.25 58.5C355.69 58.5 356.04 58.56 356.04 58.64C356.04 58.72 355.69 58.78 355.25 58.78C354.82 58.77 354.46 58.71 354.46 58.64Z" fill="#E0E0E0"/>
<path d="M351.31 58.64C351.31 58.56 351.66 58.5 352.1 58.5C352.54 58.5 352.89 58.56 352.89 58.64C352.89 58.72 352.54 58.78 352.1 58.78C351.66 58.77 351.31 58.71 351.31 58.64Z" fill="#E0E0E0"/>
<path d="M348.16 58.64C348.16 58.56 348.51 58.5 348.95 58.5C349.39 58.5 349.74 58.56 349.74 58.64C349.74 58.72 349.39 58.78 348.95 58.78C348.51 58.77 348.16 58.71 348.16 58.64Z" fill="#E0E0E0"/>
<path d="M345.01 58.64C345.01 58.56 345.36 58.5 345.8 58.5C346.24 58.5 346.59 58.56 346.59 58.64C346.59 58.72 346.24 58.78 345.8 58.78C345.36 58.77 345.01 58.71 345.01 58.64Z" fill="#E0E0E0"/>
<path d="M341.85 58.64C341.85 58.56 342.2 58.5 342.64 58.5C343.08 58.5 343.43 58.56 343.43 58.64C343.43 58.72 343.08 58.78 342.64 58.78C342.21 58.77 341.85 58.71 341.85 58.64Z" fill="#E0E0E0"/>
<path d="M338.7 58.64C338.7 58.56 339.05 58.5 339.49 58.5C339.93 58.5 340.28 58.56 340.28 58.64C340.28 58.72 339.93 58.78 339.49 58.78C339.05 58.77 338.7 58.71 338.7 58.64Z" fill="#E0E0E0"/>
<path d="M337.72 56.47C337.8 56.47 337.86 56.82 337.86 57.26C337.86 57.7 337.8 58.05 337.72 58.05C337.64 58.05 337.58 57.7 337.58 57.26C337.58 56.82 337.64 56.47 337.72 56.47Z" fill="#E0E0E0"/>
<path d="M337.72 53.31C337.8 53.31 337.86 53.66 337.86 54.1C337.86 54.54 337.8 54.89 337.72 54.89C337.64 54.89 337.58 54.54 337.58 54.1C337.58 53.66 337.64 53.31 337.72 53.31Z" fill="#E0E0E0"/>
<path d="M337.72 50.16C337.8 50.16 337.86 50.51 337.86 50.95C337.86 51.39 337.8 51.74 337.72 51.74C337.64 51.74 337.58 51.39 337.58 50.95C337.58 50.51 337.64 50.16 337.72 50.16Z" fill="#E0E0E0"/>
<path d="M337.72 47.01C337.8 47.01 337.86 47.36 337.86 47.8C337.86 48.24 337.8 48.59 337.72 48.59C337.64 48.59 337.58 48.24 337.58 47.8C337.58 47.36 337.64 47.01 337.72 47.01Z" fill="#E0E0E0"/>
<path d="M337.72 43.86C337.8 43.86 337.86 44.21 337.86 44.65C337.86 45.09 337.8 45.44 337.72 45.44C337.64 45.44 337.58 45.09 337.58 44.65C337.58 44.21 337.64 43.86 337.72 43.86Z" fill="#E0E0E0"/>
<path d="M337.72 40.7C337.8 40.7 337.86 41.05 337.86 41.49C337.86 41.93 337.8 42.28 337.72 42.28C337.64 42.28 337.58 41.93 337.58 41.49C337.58 41.06 337.64 40.7 337.72 40.7Z" fill="#E0E0E0"/>
<path d="M337.72 37.55C337.8 37.55 337.86 37.9 337.86 38.34C337.86 38.78 337.8 39.13 337.72 39.13C337.64 39.13 337.58 38.78 337.58 38.34C337.58 37.9 337.64 37.55 337.72 37.55Z" fill="#E0E0E0"/>
<path d="M337.72 34.4C337.8 34.4 337.86 34.75 337.86 35.19C337.86 35.63 337.8 35.98 337.72 35.98C337.64 35.98 337.58 35.63 337.58 35.19C337.58 34.75 337.64 34.4 337.72 34.4Z" fill="#E0E0E0"/>
<path d="M337.72 31.25C337.8 31.25 337.86 31.6 337.86 32.04C337.86 32.48 337.8 32.83 337.72 32.83C337.64 32.83 337.58 32.48 337.58 32.04C337.58 31.6 337.64 31.25 337.72 31.25Z" fill="#E0E0E0"/>
<path d="M337.72 28.09C337.8 28.09 337.86 28.44 337.86 28.88C337.86 29.32 337.8 29.67 337.72 29.67C337.64 29.67 337.58 29.32 337.58 28.88C337.58 28.45 337.64 28.09 337.72 28.09Z" fill="#E0E0E0"/>
<path d="M337.72 24.94C337.8 24.94 337.86 25.29 337.86 25.73C337.86 26.17 337.8 26.52 337.72 26.52C337.64 26.52 337.58 26.17 337.58 25.73C337.58 25.3 337.64 24.94 337.72 24.94Z" fill="#E0E0E0"/>
<path d="M337.72 21.79C337.8 21.79 337.86 22.14 337.86 22.58C337.86 23.02 337.8 23.37 337.72 23.37C337.64 23.37 337.58 23.02 337.58 22.58C337.58 22.14 337.64 21.79 337.72 21.79Z" fill="#E0E0E0"/>
<path d="M337.72 18.64C337.8 18.64 337.86 18.99 337.86 19.43C337.86 19.87 337.8 20.22 337.72 20.22C337.64 20.22 337.58 19.87 337.58 19.43C337.58 18.99 337.64 18.64 337.72 18.64Z" fill="#E0E0E0"/>
<path d="M337.72 15.49C337.8 15.49 337.86 15.84 337.86 16.28C337.86 16.72 337.8 17.07 337.72 17.07C337.64 17.07 337.58 16.72 337.58 16.28C337.58 15.84 337.64 15.49 337.72 15.49Z" fill="#E0E0E0"/>
<path d="M337.72 12.33C337.8 12.33 337.86 12.68 337.86 13.12C337.86 13.56 337.8 13.91 337.72 13.91C337.64 13.91 337.58 13.56 337.58 13.12C337.58 12.69 337.64 12.33 337.72 12.33Z" fill="#E0E0E0"/>
<path d="M337.72 9.17999C337.8 9.17999 337.86 9.52999 337.86 9.96999C337.86 10.41 337.8 10.76 337.72 10.76C337.64 10.76 337.58 10.41 337.58 9.96999C337.58 9.52999 337.64 9.17999 337.72 9.17999Z" fill="#E0E0E0"/>
<path d="M337.72 6.03C337.8 6.03 337.86 6.38 337.86 6.82C337.86 7.26 337.8 7.61 337.72 7.61C337.64 7.61 337.58 7.26 337.58 6.82C337.58 6.38 337.64 6.03 337.72 6.03Z" fill="#E0E0E0"/>
<path d="M337.72 2.87999C337.8 2.87999 337.86 3.22999 337.86 3.66999C337.86 4.10999 337.8 4.45999 337.72 4.45999C337.64 4.45999 337.58 4.10999 337.58 3.66999C337.58 3.22999 337.64 2.87999 337.72 2.87999Z" fill="#E0E0E0"/>
<path d="M340.48 2.48C340.48 2.56 340.13 2.62 339.69 2.62C339.25 2.62 338.9 2.56 338.9 2.48C338.9 2.4 339.25 2.34 339.69 2.34C340.13 2.35 340.48 2.41 340.48 2.48Z" fill="#E0E0E0"/>
<path d="M343.63 2.48C343.63 2.56 343.28 2.62 342.84 2.62C342.4 2.62 342.05 2.56 342.05 2.48C342.05 2.4 342.4 2.34 342.84 2.34C343.28 2.35 343.63 2.41 343.63 2.48Z" fill="#E0E0E0"/>
<path d="M346.78 2.48C346.78 2.56 346.43 2.62 345.99 2.62C345.55 2.62 345.2 2.56 345.2 2.48C345.2 2.4 345.55 2.34 345.99 2.34C346.43 2.35 346.78 2.41 346.78 2.48Z" fill="#E0E0E0"/>
<path d="M349.94 2.48C349.94 2.56 349.59 2.62 349.15 2.62C348.71 2.62 348.36 2.56 348.36 2.48C348.36 2.4 348.71 2.34 349.15 2.34C349.58 2.35 349.94 2.41 349.94 2.48Z" fill="#E0E0E0"/>
<path d="M353.09 2.48C353.09 2.56 352.74 2.62 352.3 2.62C351.86 2.62 351.51 2.56 351.51 2.48C351.51 2.4 351.86 2.34 352.3 2.34C352.74 2.35 353.09 2.41 353.09 2.48Z" fill="#E0E0E0"/>
<path d="M356.24 2.48C356.24 2.56 355.89 2.62 355.45 2.62C355.01 2.62 354.66 2.56 354.66 2.48C354.66 2.4 355.01 2.34 355.45 2.34C355.89 2.35 356.24 2.41 356.24 2.48Z" fill="#E0E0E0"/>
<path d="M359.39 2.48C359.39 2.56 359.04 2.62 358.6 2.62C358.16 2.62 357.81 2.56 357.81 2.48C357.81 2.4 358.16 2.34 358.6 2.34C359.04 2.34 359.39 2.41 359.39 2.48Z" fill="#E0E0E0"/>
<path d="M362.55 2.48C362.55 2.56 362.2 2.62 361.76 2.62C361.32 2.62 360.97 2.56 360.97 2.48C360.97 2.4 361.32 2.34 361.76 2.34C362.19 2.35 362.55 2.41 362.55 2.48Z" fill="#E0E0E0"/>
<path d="M365.7 2.48C365.7 2.56 365.35 2.62 364.91 2.62C364.47 2.62 364.12 2.56 364.12 2.48C364.12 2.4 364.47 2.34 364.91 2.34C365.35 2.35 365.7 2.41 365.7 2.48Z" fill="#E0E0E0"/>
<path d="M368.85 2.48C368.85 2.56 368.5 2.62 368.06 2.62C367.62 2.62 367.27 2.56 367.27 2.48C367.27 2.4 367.62 2.34 368.06 2.34C368.5 2.35 368.85 2.41 368.85 2.48Z" fill="#E0E0E0"/>
<path d="M372 2.48C372 2.56 371.65 2.62 371.21 2.62C370.77 2.62 370.42 2.56 370.42 2.48C370.42 2.4 370.77 2.34 371.21 2.34C371.65 2.35 372 2.41 372 2.48Z" fill="#E0E0E0"/>
<path d="M375.16 2.48C375.16 2.56 374.81 2.62 374.37 2.62C373.93 2.62 373.58 2.56 373.58 2.48C373.58 2.4 373.93 2.34 374.37 2.34C374.8 2.35 375.16 2.41 375.16 2.48Z" fill="#E0E0E0"/>
<path d="M378.31 2.48C378.31 2.56 377.96 2.62 377.52 2.62C377.08 2.62 376.73 2.56 376.73 2.48C376.73 2.4 377.08 2.34 377.52 2.34C377.95 2.35 378.31 2.41 378.31 2.48Z" fill="#E0E0E0"/>
<path d="M381.46 2.48C381.46 2.56 381.11 2.62 380.67 2.62C380.23 2.62 379.88 2.56 379.88 2.48C379.88 2.4 380.23 2.34 380.67 2.34C381.11 2.35 381.46 2.41 381.46 2.48Z" fill="#E0E0E0"/>
<path d="M384.61 2.48C384.61 2.56 384.26 2.62 383.82 2.62C383.38 2.62 383.03 2.56 383.03 2.48C383.03 2.4 383.38 2.34 383.82 2.34C384.26 2.35 384.61 2.41 384.61 2.48Z" fill="#E0E0E0"/>
<path d="M387.76 2.48C387.76 2.56 387.41 2.62 386.97 2.62C386.53 2.62 386.18 2.56 386.18 2.48C386.18 2.4 386.53 2.34 386.97 2.34C387.41 2.35 387.76 2.41 387.76 2.48Z" fill="#E0E0E0"/>
<path d="M390.92 2.48C390.92 2.56 390.57 2.62 390.13 2.62C389.69 2.62 389.34 2.56 389.34 2.48C389.34 2.4 389.69 2.34 390.13 2.34C390.56 2.35 390.92 2.41 390.92 2.48Z" fill="#E0E0E0"/>
<path d="M393.87 2.68999C393.84 2.68999 393.8 2.60999 393.78 2.48999L393.87 2.57999C393.73 2.60999 393.52 2.62999 393.28 2.62999C392.84 2.62999 392.49 2.56999 392.49 2.48999C392.49 2.40999 392.84 2.34999 393.28 2.34999C393.51 2.34999 393.72 2.36999 393.87 2.39999L393.97 2.41999L393.96 2.48999C393.94 2.60999 393.9 2.68999 393.87 2.68999Z" fill="#E0E0E0"/>
<path d="M393.87 5.83999C393.79 5.83999 393.73 5.48999 393.73 5.04999C393.73 4.60999 393.79 4.25999 393.87 4.25999C393.95 4.25999 394.01 4.60999 394.01 5.04999C394.01 5.47999 393.94 5.83999 393.87 5.83999Z" fill="#E0E0E0"/>
<path d="M393.87 8.99C393.79 8.99 393.73 8.64 393.73 8.2C393.73 7.76 393.79 7.41 393.87 7.41C393.95 7.41 394.01 7.76 394.01 8.2C394.01 8.64 393.94 8.99 393.87 8.99Z" fill="#E0E0E0"/>
<path d="M393.87 12.14C393.79 12.14 393.73 11.79 393.73 11.35C393.73 10.91 393.79 10.56 393.87 10.56C393.95 10.56 394.01 10.91 394.01 11.35C394.01 11.79 393.94 12.14 393.87 12.14Z" fill="#E0E0E0"/>
<path d="M393.87 15.3C393.79 15.3 393.73 14.95 393.73 14.51C393.73 14.07 393.79 13.72 393.87 13.72C393.95 13.72 394.01 14.07 394.01 14.51C394.01 14.95 393.94 15.3 393.87 15.3Z" fill="#E0E0E0"/>
<path d="M393.87 18.45C393.79 18.45 393.73 18.1 393.73 17.66C393.73 17.22 393.79 16.87 393.87 16.87C393.95 16.87 394.01 17.22 394.01 17.66C394.01 18.09 393.94 18.45 393.87 18.45Z" fill="#E0E0E0"/>
<path d="M393.87 21.6C393.79 21.6 393.73 21.25 393.73 20.81C393.73 20.37 393.79 20.02 393.87 20.02C393.95 20.02 394.01 20.37 394.01 20.81C394.01 21.25 393.94 21.6 393.87 21.6Z" fill="#E0E0E0"/>
<path d="M393.87 24.75C393.79 24.75 393.73 24.4 393.73 23.96C393.73 23.52 393.79 23.17 393.87 23.17C393.95 23.17 394.01 23.52 394.01 23.96C394.01 24.4 393.94 24.75 393.87 24.75Z" fill="#E0E0E0"/>
<path d="M393.87 27.9C393.79 27.9 393.73 27.55 393.73 27.11C393.73 26.67 393.79 26.32 393.87 26.32C393.95 26.32 394.01 26.67 394.01 27.11C394.01 27.55 393.94 27.9 393.87 27.9Z" fill="#E0E0E0"/>
<path d="M393.87 31.06C393.79 31.06 393.73 30.71 393.73 30.27C393.73 29.83 393.79 29.48 393.87 29.48C393.95 29.48 394.01 29.83 394.01 30.27C394.01 30.7 393.94 31.06 393.87 31.06Z" fill="#E0E0E0"/>
<path d="M393.87 34.21C393.79 34.21 393.73 33.86 393.73 33.42C393.73 32.98 393.79 32.63 393.87 32.63C393.95 32.63 394.01 32.98 394.01 33.42C394.01 33.86 393.94 34.21 393.87 34.21Z" fill="#E0E0E0"/>
<path d="M393.87 37.36C393.79 37.36 393.73 37.01 393.73 36.57C393.73 36.13 393.79 35.78 393.87 35.78C393.95 35.78 394.01 36.13 394.01 36.57C394.01 37.01 393.94 37.36 393.87 37.36Z" fill="#E0E0E0"/>
<path d="M393.87 40.51C393.79 40.51 393.73 40.16 393.73 39.72C393.73 39.28 393.79 38.93 393.87 38.93C393.95 38.93 394.01 39.28 394.01 39.72C394.01 40.16 393.94 40.51 393.87 40.51Z" fill="#E0E0E0"/>
<path d="M393.87 43.67C393.79 43.67 393.73 43.32 393.73 42.88C393.73 42.44 393.79 42.09 393.87 42.09C393.95 42.09 394.01 42.44 394.01 42.88C394.01 43.31 393.94 43.67 393.87 43.67Z" fill="#E0E0E0"/>
<path d="M393.87 46.82C393.79 46.82 393.73 46.47 393.73 46.03C393.73 45.59 393.79 45.24 393.87 45.24C393.95 45.24 394.01 45.59 394.01 46.03C394.01 46.47 393.94 46.82 393.87 46.82Z" fill="#E0E0E0"/>
<path d="M393.87 49.97C393.79 49.97 393.73 49.62 393.73 49.18C393.73 48.74 393.79 48.39 393.87 48.39C393.95 48.39 394.01 48.74 394.01 49.18C394.01 49.62 393.94 49.97 393.87 49.97Z" fill="#E0E0E0"/>
<path d="M393.87 53.12C393.79 53.12 393.73 52.77 393.73 52.33C393.73 51.89 393.79 51.54 393.87 51.54C393.95 51.54 394.01 51.89 394.01 52.33C394.01 52.77 393.94 53.12 393.87 53.12Z" fill="#E0E0E0"/>
<path d="M393.87 56.28C393.79 56.28 393.73 55.93 393.73 55.49C393.73 55.05 393.79 54.7 393.87 54.7C393.95 54.7 394.01 55.05 394.01 55.49C394.01 55.92 393.94 56.28 393.87 56.28Z" fill="#E0E0E0"/>
<path d="M395.95 55.99H391.79V60.15H395.95V55.99Z" fill="#E0E0E0"/>
<path d="M339.8 56.56H335.64V60.72H339.8V56.56Z" fill="#E0E0E0"/>
<path d="M395.95 0H391.79V4.16H395.95V0Z" fill="#E0E0E0"/>
<path d="M339.8 0.399994H335.64V4.55999H339.8V0.399994Z" fill="#E0E0E0"/>
<path d="M525.371 132.941H522.011L514.671 122.711V116.001C514.671 116.001 509.471 115.681 510.081 124.471C510.691 133.261 510.031 131.021 510.031 131.021C510.031 131.021 498.991 131.061 498.081 132.021C497.411 132.721 497.111 143.681 497.001 149.631C496.941 152.621 498.781 155.411 501.561 156.111C501.961 156.211 502.361 156.271 502.751 156.271C505.501 156.271 519.571 154.031 519.571 154.031H525.371V132.941Z" fill="#EBEBEB"/>
<path d="M534.991 131.101L532.921 154.101H527.171V131.561L534.991 131.101Z" fill="#EBEBEB"/>
<path d="M612.51 422.55C612.51 422.69 475.38 422.81 306.27 422.81C137.1 422.81 0 422.69 0 422.55C0 422.41 137.1 422.29 306.27 422.29C475.39 422.29 612.51 422.41 612.51 422.55Z" fill="#263238"/>
<path d="M346.4 318.52C346.4 323.66 349.38 422.36 349.38 422.36L307.35 422.15L300 378.28L298.07 422.15H257.76L262.14 313.81L346.4 318.52Z" fill="#455A64"/>
<path d="M222.58 277.65L201.11 245.65L217.04 232.72L243.96 257.69C243.96 257.69 255.55 192.71 266.97 188.77L266.08 289.57C250.63 296.94 232.12 291.86 222.58 277.65Z" fill="#263238"/>
<path d="M178.64 126.96L183.2 189.26L257.98 332.6L301.21 307.56L227.52 167.47L178.64 126.96Z" fill="#D8942F"/>
<g opacity="0.7">
<path opacity="0.7" d="M228.25 167.74C227.08 169.93 223.77 170.58 221.86 168.99C222.96 173.47 220.92 178.55 217.03 181.02C213.14 183.5 207.68 183.19 204.09 180.29C203.5 184.82 200.34 188.92 196.11 190.64C191.88 192.36 186.75 191.62 183.18 188.79L178.65 126.96L228.25 167.74Z" fill="white"/>
</g>
<path d="M180.47 152.01C180.47 152.01 190.6 158.37 198.66 143.55L178.63 126.95L180.47 152.01Z" fill="#D8942F"/>
<path d="M274.46 320.89C274.33 320.95 258.43 289.58 238.96 250.82C219.48 212.05 203.79 180.58 203.92 180.51C204.05 180.45 219.94 211.81 239.43 250.58C258.9 289.35 274.59 320.82 274.46 320.89Z" fill="white"/>
<path d="M292.43 310.13C292.3 310.19 276.4 278.82 256.93 240.06C237.45 201.29 221.76 169.82 221.89 169.75C222.02 169.69 237.91 201.05 257.4 239.82C276.87 278.59 292.56 310.07 292.43 310.13Z" fill="white"/>
<path d="M204.51 210.42L194.81 214.29L192.73 222.11L196.07 235.15L203.9 243.46L209.18 239.09L209.51 231.11L210.16 226.64C210.16 226.64 214.94 225.14 215.06 224.41C215.18 223.68 214.47 221.22 213.73 221.11C213 220.99 207.98 222.86 207.98 222.86C207.98 222.86 213.92 218.16 213.75 217.41C213.58 216.65 212.95 214.72 211.76 214.51C210.58 214.3 201 218.81 201 218.81L199.44 222.36L198.08 216.69C198.1 216.67 206.62 214.29 204.51 210.42Z" fill="#B78876"/>
<path d="M205.73 228.74C205.67 228.76 205.49 228.4 205.4 227.77C205.31 227.14 205.35 226.24 205.69 225.32C206.03 224.4 206.59 223.69 207.06 223.27C207.54 222.85 207.91 222.7 207.94 222.75C208.04 222.87 206.77 223.77 206.16 225.49C205.51 227.2 205.88 228.71 205.73 228.74Z" fill="#AA6550"/>
<path d="M201.12 227.05C201.06 227.02 201.41 226.1 201.5 224.51C201.58 223.72 201.62 222.74 201.99 221.7C202.18 221.18 202.45 220.65 202.88 220.2C203.31 219.75 203.89 219.44 204.46 219.2C206.78 218.36 208.87 217.68 210.4 217.18C211.93 216.69 212.88 216.43 212.9 216.49C212.92 216.56 212.01 216.94 210.51 217.51C209.02 218.09 206.92 218.83 204.64 219.66C204.09 219.88 203.59 220.15 203.22 220.53C202.84 220.91 202.59 221.38 202.41 221.85C202.05 222.8 201.96 223.75 201.84 224.55C201.67 226.16 201.19 227.09 201.12 227.05Z" fill="#AA6550"/>
<path d="M198.9 225.29C198.76 225.27 198.79 224.41 198.96 223.38C199.13 222.35 199.38 221.53 199.52 221.55C199.66 221.57 199.63 222.43 199.46 223.46C199.28 224.5 199.03 225.32 198.9 225.29Z" fill="#AA6550"/>
<path d="M330.04 170.13L321.54 167.24L289.76 174.54L286.94 176.87L270.12 332.6C277.34 340.05 300.12 341.53 313.05 339.32L330.04 170.13Z" fill="#606060"/>
<path d="M330.63 170.43L326.54 168.39C326.54 168.39 317.54 208.03 317.54 234.22C317.54 260.41 311.88 355.33 311.88 355.33L354.75 354.23V249.35L330.63 170.43Z" fill="#263238"/>
<path d="M270.12 356.91L253.88 352.15L259.55 275.4L258.48 219.77L266.99 188.76L287.15 176.3C287.13 176.31 271.23 347.66 270.12 356.91Z" fill="#263238"/>
<path d="M304 189.29C295.9 188.57 289.71 181.77 289.74 173.64L289.79 159.71C289.79 159.71 276.92 157.71 276.77 144.85C276.61 131.99 278.84 102.45 278.84 102.45C293.73 96.05 310.92 98.21 323.76 108.1L325.67 109.57L321 174.82C320.37 183.55 312.71 190.07 304 189.29Z" fill="#B78876"/>
<path d="M289.77 159.54C289.77 159.54 297.9 160.2 306.54 154.77C306.54 154.77 302.58 164.03 289.74 162.87L289.77 159.54Z" fill="#AA6550"/>
<path d="M324.08 122.9C324.3 122.8 332.92 120.29 332.64 129.08C332.36 137.87 323.59 135.78 323.58 135.53C323.57 135.27 324.08 122.9 324.08 122.9Z" fill="#B78876"/>
<path d="M326.37 132.28C326.41 132.25 326.52 132.39 326.77 132.52C327.02 132.64 327.45 132.74 327.91 132.58C328.85 132.27 329.68 130.82 329.77 129.24C329.82 128.44 329.67 127.67 329.41 127.03C329.16 126.38 328.76 125.92 328.3 125.82C327.84 125.7 327.5 125.97 327.38 126.21C327.25 126.45 327.3 126.63 327.26 126.64C327.23 126.66 327.08 126.49 327.16 126.13C327.2 125.96 327.31 125.75 327.52 125.59C327.74 125.43 328.05 125.35 328.37 125.39C329.05 125.46 329.64 126.1 329.93 126.8C330.26 127.51 330.44 128.37 330.38 129.27C330.27 131.04 329.31 132.67 328.02 133C327.4 133.14 326.89 132.94 326.63 132.72C326.38 132.49 326.34 132.29 326.37 132.28Z" fill="#AA6550"/>
<path d="M283.05 122.25C283.02 123.22 283.81 124.05 284.82 124.1C285.83 124.15 286.68 123.41 286.71 122.44C286.74 121.47 285.95 120.64 284.94 120.59C283.94 120.54 283.09 121.28 283.05 122.25Z" fill="#263238"/>
<path d="M281.27 120.56C281.5 120.8 282.89 119.77 284.87 119.77C286.84 119.75 288.3 120.76 288.51 120.52C288.62 120.41 288.38 119.98 287.75 119.52C287.13 119.06 286.07 118.62 284.84 118.62C283.61 118.63 282.57 119.08 281.98 119.54C281.36 120.01 281.16 120.45 281.27 120.56Z" fill="#263238"/>
<path d="M302.48 123.08C302.45 124.05 303.24 124.88 304.25 124.93C305.26 124.98 306.11 124.24 306.14 123.27C306.17 122.3 305.38 121.47 304.37 121.42C303.37 121.37 302.52 122.11 302.48 123.08Z" fill="#263238"/>
<path d="M300.7 120.92C300.93 121.16 302.32 120.13 304.3 120.14C306.27 120.12 307.73 121.13 307.94 120.89C308.05 120.78 307.82 120.35 307.18 119.89C306.56 119.43 305.5 118.99 304.27 118.99C303.04 119 302 119.45 301.41 119.91C300.79 120.38 300.59 120.82 300.7 120.92Z" fill="#263238"/>
<path d="M293.53 135.58C293.54 135.47 292.31 135.26 290.32 135C289.82 134.95 289.34 134.85 289.25 134.5C289.13 134.14 289.34 133.59 289.59 133C290.06 131.78 290.56 130.5 291.08 129.16C293.15 123.69 294.65 119.19 294.43 119.11C294.21 119.03 292.35 123.4 290.28 128.87C289.78 130.22 289.3 131.51 288.85 132.74C288.66 133.31 288.33 133.96 288.59 134.72C288.73 135.1 289.1 135.37 289.42 135.46C289.74 135.56 290.03 135.56 290.28 135.58C292.28 135.69 293.52 135.7 293.53 135.58Z" fill="#263238"/>
<path d="M300.19 113.18C300.38 113.72 302.36 113.46 304.68 113.74C307 113.97 308.88 114.65 309.18 114.17C309.32 113.94 308.99 113.43 308.23 112.91C307.48 112.39 306.28 111.9 304.89 111.74C303.5 111.59 302.22 111.81 301.38 112.15C300.53 112.5 300.11 112.92 300.19 113.18Z" fill="#263238"/>
<path d="M282 114.83C282.35 115.28 283.71 114.81 285.35 114.79C286.99 114.71 288.37 115.09 288.69 114.62C288.83 114.39 288.61 113.94 288.01 113.52C287.41 113.1 286.41 112.75 285.29 112.78C284.17 112.82 283.19 113.22 282.62 113.68C282.03 114.15 281.84 114.62 282 114.83Z" fill="#263238"/>
<path d="M272.57 94.34C272.43 92.75 273.03 91.03 274.32 90.1C275.62 89.16 277.63 89.22 278.68 90.43C278.08 88.28 279.83 85.8 282.06 85.66C284.16 85.53 285.95 87.11 287.97 87.67C289.95 88.21 292.07 87.74 293.98 86.98C295.88 86.21 297.66 85.16 299.59 84.45C303.61 82.98 308.21 83.17 312.1 84.95C315.99 86.74 319.12 90.1 320.63 94.11C323.44 93.23 326.64 94.66 328.37 97.04C330.1 99.42 330.55 102.55 330.2 105.48C329.97 107.46 329.39 109.37 328.73 111.25C328.73 111.42 328.75 111.58 328.74 111.74C328.61 118.81 327.81 127.12 324.79 127.17C319.53 127.25 320.78 117.34 320.78 117.34C314.33 114.85 316.73 105.18 315.12 103.71C313.51 102.24 310.13 98.83 296.62 105.74C291.37 108.42 284.4 108.34 280.59 107.47C280.48 107.45 280.37 107.43 280.25 107.4C280.23 107.39 280.2 107.39 280.17 107.38C280.13 107.37 280.1 107.35 280.06 107.33C278.85 107.01 277.67 106.54 276.59 105.86C275.37 105.09 274.25 104.04 273.73 102.68C273.21 101.33 273.41 99.64 274.47 98.65C273.49 97.42 272.71 95.93 272.57 94.34Z" fill="#263238"/>
<path d="M291.85 141.66C292.16 142.44 292.48 143.24 293 143.91C293.52 144.58 294.28 145.1 295.12 145.14C296.02 145.18 296.88 144.65 297.39 143.9C297.89 143.15 298.06 142.22 298.02 141.32C297.98 140.51 297.61 139.54 296.8 139.44C296.46 139.4 296.13 139.53 295.82 139.66C294.41 140.23 292.99 140.81 291.58 141.38" fill="#AA6550"/>
<path d="M293.54 145.15C293.56 145.02 294.49 145.4 295.8 144.87C296.43 144.61 297.13 144.11 297.51 143.32C297.89 142.54 297.97 141.47 297.57 140.54C297.48 140.31 297.34 140.09 297.2 139.91C297.03 139.73 297.06 139.74 296.88 139.77C296.71 139.82 296.43 139.95 296.2 140.04C295.96 140.14 295.73 140.23 295.5 140.32C294.59 140.69 293.77 141.01 293.08 141.27C291.69 141.79 290.81 142.06 290.77 141.97C290.73 141.87 291.53 141.43 292.87 140.78C293.54 140.46 294.34 140.09 295.23 139.68C295.45 139.58 295.68 139.48 295.92 139.37C296.17 139.27 296.36 139.16 296.69 139.05C296.86 139 297.09 138.98 297.32 139.07C297.54 139.16 297.68 139.31 297.79 139.44C297.98 139.69 298.15 139.95 298.27 140.24C298.77 141.4 298.65 142.68 298.14 143.63C297.62 144.6 296.74 145.15 295.99 145.37C295.23 145.61 294.57 145.55 294.15 145.44C293.72 145.34 293.53 145.2 293.54 145.15Z" fill="#263238"/>
<path d="M315.56 102.5C315.51 102.49 315.69 101.94 315.57 100.94C315.45 99.96 314.89 98.53 313.56 97.33C312.27 96.1 310.13 95.36 307.77 95.42C305.39 95.44 302.86 96.22 300.25 97.1C298.94 97.53 297.64 97.95 296.36 98.23C295.07 98.51 293.81 98.66 292.6 98.69C290.18 98.76 288.01 98.37 286.26 97.86C284.51 97.33 283.18 96.68 282.29 96.18C281.84 95.93 281.51 95.72 281.29 95.56C281.07 95.41 280.96 95.33 280.96 95.32C280.98 95.29 281.45 95.6 282.35 96.05C283.25 96.51 284.59 97.11 286.32 97.6C288.05 98.07 290.19 98.43 292.57 98.34C293.76 98.3 295 98.15 296.26 97.87C297.52 97.59 298.8 97.17 300.12 96.74C302.73 95.86 305.31 95.07 307.76 95.07C310.19 95.03 312.41 95.82 313.74 97.13C315.1 98.4 315.63 99.91 315.72 100.92C315.8 101.96 315.56 102.5 315.56 102.5Z" fill="#455A64"/>
<path d="M325.56 124.24C325.55 124.25 325.49 124.15 325.39 123.97C325.29 123.79 325.15 123.51 324.99 123.15C324.67 122.43 324.27 121.34 323.97 119.95C323.68 118.56 323.49 116.86 323.64 114.98C323.76 113.09 324.35 111.09 324.79 109C325.25 106.92 325.35 104.84 324.8 103.09C324.54 102.22 324.1 101.45 323.57 100.85C323.03 100.26 322.37 99.86 321.72 99.64C320.41 99.18 319.23 99.39 318.55 99.72C317.86 100.07 317.59 100.45 317.56 100.41C317.56 100.41 317.78 100 318.48 99.59C319.18 99.2 320.42 98.93 321.81 99.39C322.5 99.61 323.21 100.02 323.8 100.64C324.38 101.27 324.85 102.08 325.13 102.99C325.73 104.82 325.62 106.98 325.16 109.08C324.71 111.2 324.12 113.16 323.99 115.01C323.83 116.85 323.98 118.53 324.24 119.9C324.5 121.28 324.86 122.36 325.14 123.09C325.4 123.83 325.59 124.23 325.56 124.24Z" fill="#455A64"/>
<path d="M316.79 101.47C316.78 101.47 316.78 101.29 316.8 100.95C316.81 100.57 316.83 100.09 316.85 99.48C316.86 98.21 316.9 96.32 316.26 94.14C315.93 93.06 315.39 91.92 314.54 90.9C313.71 89.88 312.53 88.99 311.09 88.62C309.66 88.23 308.05 88.37 306.49 88.81C304.92 89.25 303.41 90.04 301.89 90.9C300.37 91.76 298.88 92.63 297.33 93.25C295.77 93.85 294.16 94.16 292.63 94.19C291.1 94.22 289.64 94.03 288.32 93.66C287.01 93.29 285.84 92.78 284.83 92.22C282.82 91.06 281.48 89.7 280.69 88.69C280.28 88.19 280.02 87.76 279.85 87.47C279.68 87.18 279.59 87.02 279.6 87.02C279.61 87.01 279.72 87.16 279.91 87.43C280.1 87.71 280.38 88.12 280.8 88.6C281.62 89.57 282.96 90.88 284.95 91.99C285.95 92.52 287.11 93.01 288.4 93.36C289.69 93.71 291.12 93.89 292.62 93.84C294.12 93.8 295.68 93.49 297.2 92.9C298.72 92.29 300.19 91.43 301.72 90.57C303.24 89.71 304.79 88.91 306.41 88.46C308.02 88.01 309.7 87.87 311.2 88.29C312.72 88.69 313.95 89.64 314.8 90.71C315.67 91.78 316.21 92.96 316.53 94.08C317.16 96.33 317.07 98.23 317.01 99.5C316.97 100.14 316.92 100.64 316.88 100.98C316.84 101.29 316.81 101.47 316.79 101.47Z" fill="#455A64"/>
<path d="M330.63 170.43C330.63 170.43 361.3 180.24 363.34 185.56C364.87 189.55 380.99 237.92 384.47 269.45C385.89 282.29 376.37 293.76 363.5 294.94C342.73 296.85 312.58 299.33 312.58 297.62V271.47L351.64 265.7L337.17 223.17L330.63 170.43Z" fill="#263238"/>
<path d="M291.26 292.34C295.27 293.38 312.58 293.38 312.58 293.38V272.84C312.58 272.84 305.05 269.62 302.97 267.75C300.89 265.88 294.98 254.83 294.98 254.83C294.98 254.83 291.34 256.88 292.26 261.15C293.23 265.66 295.1 266.21 295.22 268.01C295.22 268.03 295.37 268.47 295.38 268.49C295.78 270.99 293.39 273.2 293.39 273.2C293.54 273.17 291.41 271.93 290.76 271.85C287.11 271.42 282.79 274.03 282.79 275.49C282.79 275.49 282.66 279.42 282.79 280.01C282.92 280.59 284.76 281.37 284.76 281.37C284.76 281.37 284.18 283.99 284.76 285.16C285.34 286.33 287.29 287.2 287.29 287.2C287.29 287.2 289.01 291.75 291.26 292.34Z" fill="#B78876"/>
<path d="M295.47 289.05C295.48 289.18 293.57 289.33 291.3 288.82C289.02 288.33 287.35 287.4 287.41 287.28C287.47 287.14 289.19 287.83 291.41 288.31C293.62 288.8 295.47 288.89 295.47 289.05Z" fill="#AA6550"/>
<path d="M294.45 282.89C294.48 283.02 292.35 283.5 289.72 283.14C287.09 282.8 285.16 281.77 285.22 281.66C285.28 281.51 287.24 282.3 289.78 282.63C292.34 282.98 294.43 282.74 294.45 282.89Z" fill="#AA6550"/>
<path d="M293.85 265.25C293.9 265.21 294.57 266.12 295.24 267.79C295.4 268.21 295.57 268.68 295.68 269.21C295.8 269.72 295.85 270.37 295.66 270.97C295.34 272.19 294.4 273.3 293.18 274C292.57 274.36 291.93 274.61 291.27 274.75C290.61 274.89 289.99 274.92 289.4 274.94C288.22 274.98 287.16 274.96 286.27 274.98C284.5 274.99 283.44 275.24 283.41 275.18C283.38 275.11 284.45 274.72 286.25 274.62C287.14 274.55 288.2 274.53 289.37 274.46C289.95 274.42 290.56 274.38 291.16 274.25C291.75 274.11 292.36 273.88 292.91 273.55C294.04 272.9 294.89 271.9 295.19 270.84C295.37 270.3 295.34 269.81 295.25 269.3C295.16 268.8 295.02 268.34 294.89 267.92C294.33 266.25 293.78 265.29 293.85 265.25Z" fill="#AA6550"/>
<path d="M352.13 265.65C352.13 265.68 351.59 265.79 350.59 265.98C349.5 266.17 348.08 266.41 346.37 266.7C342.8 267.29 337.86 268.07 332.41 268.9C326.95 269.73 322 270.44 318.41 270.91C314.83 271.38 312.59 271.62 312.58 271.49C312.99 271.42 313.44 271.34 314.12 271.23C315.21 271.06 316.63 270.83 318.35 270.55C322.01 269.98 326.91 269.23 332.32 268.39C337.78 267.57 342.72 266.84 346.31 266.34C348.03 266.11 349.46 265.93 350.56 265.78C351.57 265.65 352.13 265.61 352.13 265.65Z" fill="#455A64"/>
<path d="M368.72 261.77C368.72 261.84 367.54 261.83 365.64 261.74C363.74 261.66 361.12 261.51 358.23 261.31C356.78 261.21 355.42 261.09 354.23 261.35C353.05 261.6 352.09 262.24 351.63 263C351.16 263.77 351.15 264.56 351.26 265.05C351.38 265.55 351.57 265.78 351.53 265.81C351.51 265.83 351.26 265.63 351.06 265.11C350.88 264.6 350.82 263.72 351.3 262.82C351.79 261.93 352.84 261.19 354.11 260.89C355.39 260.58 356.82 260.69 358.25 260.79C361.14 260.99 363.76 261.19 365.65 261.37C367.55 261.55 368.72 261.7 368.72 261.77Z" fill="#455A64"/>
<path d="M362.29 268.94C362.25 269.08 359.76 268.46 356.73 267.57C353.7 266.67 351.27 265.83 351.31 265.7C351.35 265.56 353.84 266.18 356.87 267.07C359.9 267.96 362.33 268.8 362.29 268.94Z" fill="#455A64"/>
<path d="M338.06 217.78C338.2 217.74 341.35 227.68 345.1 239.99C348.85 252.3 351.78 262.31 351.64 262.35C351.5 262.39 348.35 252.45 344.6 240.14C340.85 227.83 337.92 217.82 338.06 217.78Z" fill="#455A64"/>
<path d="M360.96 186.3C360.98 186.4 359.16 186.67 356.43 187.73C353.71 188.77 350.09 190.74 346.94 193.91C343.79 197.08 341.84 200.72 340.82 203.44C339.78 206.18 339.52 208 339.42 207.98C339.39 207.97 339.43 207.52 339.57 206.7C339.71 205.89 339.99 204.72 340.47 203.31C341.41 200.51 343.35 196.77 346.56 193.53C349.77 190.29 353.5 188.33 356.29 187.37C357.69 186.88 358.86 186.59 359.67 186.45C360.5 186.31 360.95 186.27 360.96 186.3Z" fill="#455A64"/>
<path d="M258.88 207.64C258.9 207.64 258.92 207.88 258.94 208.34C258.96 208.85 258.98 209.51 259.01 210.33C259.05 212.12 259.1 214.61 259.16 217.66C259.24 223.91 259.34 232.43 259.45 241.85C259.51 251.27 259.55 259.8 259.59 266.05C259.58 269.1 259.58 271.59 259.57 273.38C259.56 274.2 259.55 274.87 259.54 275.37C259.53 275.83 259.51 276.07 259.49 276.07C259.47 276.07 259.45 275.83 259.43 275.38C259.41 274.87 259.39 274.21 259.36 273.39C259.32 271.6 259.27 269.11 259.21 266.06C259.13 259.81 259.03 251.29 258.92 241.86C258.87 232.44 258.82 223.91 258.78 217.67C258.79 214.62 258.79 212.13 258.8 210.34C258.81 209.52 258.82 208.85 258.83 208.35C258.84 207.88 258.86 207.64 258.88 207.64Z" fill="#455A64"/>
<path d="M307.23 420.84C307.21 420.84 307.14 420.59 307.02 420.09C306.9 419.55 306.73 418.82 306.53 417.92C306.11 416.03 305.53 413.29 304.85 409.91C303.49 403.13 301.74 393.74 300.07 383.32C298.41 372.9 297.14 363.43 296.33 356.56C295.92 353.13 295.62 350.35 295.43 348.42C295.34 347.5 295.28 346.76 295.22 346.2C295.18 345.69 295.17 345.43 295.18 345.42C295.2 345.42 295.25 345.68 295.32 346.19C295.4 346.74 295.5 347.48 295.62 348.4C295.88 350.37 296.24 353.13 296.69 356.52C297.6 363.37 298.92 372.83 300.58 383.24C302.24 393.65 303.93 403.05 305.2 409.84C305.83 413.2 306.35 415.93 306.71 417.88C306.88 418.79 307.01 419.52 307.11 420.07C307.21 420.57 307.25 420.84 307.23 420.84Z" fill="#263238"/>
<path d="M363.51 294.95C363.52 295.09 352.24 295.95 338.33 296.87C324.41 297.79 313.12 298.41 313.11 298.27C313.1 298.13 324.37 297.27 338.29 296.35C352.21 295.43 363.5 294.8 363.51 294.95Z" fill="#455A64"/>
<path d="M159.74 394.95C159.73 394.94 159.8 394.79 159.93 394.49C160.08 394.16 160.29 393.73 160.55 393.17C161.08 392 161.76 390.24 162.37 387.89C163.57 383.19 163.99 376.02 162.21 367.49C161.38 363.22 160.05 358.64 158.43 353.79C156.83 348.93 154.97 343.77 153.45 338.19C151.95 332.63 150.76 326.59 150.99 320.25C151.22 313.91 153.1 307.57 155.16 301.27C157.22 294.96 159.35 288.79 159.99 282.58C160.71 276.38 159.39 270.3 156.56 265.32C153.83 260.28 150.39 255.98 147.81 251.51C145.2 247.06 143.56 242.49 142.55 238.24C140.6 229.66 141.28 222.44 142.22 217.68C143.23 212.89 144.37 210.42 144.37 210.42C144.38 210.42 144.34 210.59 144.24 210.9C144.13 211.24 143.99 211.7 143.81 212.29C143.43 213.51 142.94 215.34 142.48 217.73C141.63 222.48 141.02 229.66 143.01 238.14C144.04 242.35 145.68 246.86 148.29 251.25C150.86 255.66 154.31 259.95 157.1 265.05C159.98 270.09 161.37 276.37 160.63 282.66C159.99 288.97 157.84 295.18 155.78 301.49C153.71 307.79 151.86 314.05 151.62 320.29C151.39 326.52 152.54 332.51 154.02 338.04C155.51 343.59 157.35 348.75 158.93 353.63C160.54 358.5 161.85 363.11 162.65 367.41C164.38 376 163.89 383.25 162.6 387.96C161.95 390.32 161.22 392.08 160.65 393.23C160.36 393.78 160.14 394.21 159.97 394.53C159.83 394.81 159.75 394.96 159.74 394.95Z" fill="#263238"/>
<path d="M151.32 255.92C151.32 255.92 146.09 239.2 155.47 229.42C155.8 229.08 156.38 229.24 156.46 229.71C156.96 232.46 157.59 240.87 151.32 255.92Z" fill="#84B104"/>
<path d="M154.45 234.98C154.54 235 154.39 236.17 154.1 238.06C153.76 240.18 153.35 242.68 152.91 245.43C152.47 248.19 152.08 250.68 151.74 252.8C151.45 254.69 151.28 255.86 151.19 255.85C151.11 255.84 151.11 254.65 151.28 252.74C151.45 250.83 151.79 248.2 152.26 245.32C152.73 242.44 153.23 239.84 153.64 237.97C154.05 236.11 154.36 234.97 154.45 234.98Z" fill="#263238"/>
<path d="M157.46 295.34C157.46 295.34 160.66 278.12 173.52 273.86C173.97 273.71 174.41 274.12 174.26 274.58C173.41 277.25 170.03 284.97 157.46 295.34Z" fill="#84B104"/>
<path d="M170.01 278.3C170.08 278.36 169.4 279.33 168.26 280.86C166.96 282.58 165.44 284.59 163.76 286.82C162.08 289.05 160.57 291.07 159.28 292.79C158.14 294.32 157.45 295.28 157.36 295.23C157.29 295.18 157.85 294.14 158.9 292.53C159.95 290.92 161.47 288.76 163.24 286.43C165.01 284.1 166.66 282.04 167.9 280.58C169.13 279.11 169.94 278.25 170.01 278.3Z" fill="#263238"/>
<path d="M153.98 338.54C153.98 338.54 152.04 321.13 163.11 313.32C163.5 313.05 164.04 313.32 164.03 313.79C163.99 316.59 163 324.96 153.98 338.54Z" fill="#84B104"/>
<path d="M161.05 318.59C161.13 318.62 160.76 319.75 160.12 321.55C159.38 323.57 158.51 325.94 157.54 328.56C156.59 331.18 155.72 333.55 154.98 335.57C154.34 337.37 153.95 338.48 153.85 338.46C153.77 338.44 154 337.27 154.53 335.43C155.06 333.59 155.9 331.07 156.91 328.33C157.92 325.59 158.91 323.14 159.67 321.38C160.44 319.62 160.96 318.55 161.05 318.59Z" fill="#263238"/>
<path d="M163.67 381.99C163.67 381.99 162.35 364.53 173.7 357.11C174.1 356.85 174.63 357.14 174.6 357.61C174.46 360.41 173.18 368.75 163.67 381.99Z" fill="#84B104"/>
<path d="M171.45 362.3C171.53 362.34 171.12 363.45 170.41 365.22C169.6 367.21 168.64 369.55 167.58 372.13C166.53 374.72 165.58 377.05 164.78 379.05C164.07 380.82 163.64 381.93 163.55 381.9C163.47 381.87 163.75 380.72 164.34 378.89C164.94 377.07 165.86 374.59 166.97 371.88C168.08 369.18 169.16 366.76 169.98 365.03C170.8 363.31 171.37 362.27 171.45 362.3Z" fill="#263238"/>
<path d="M143.8 241.23C143.8 241.23 128.28 233.12 127.97 219.57C127.96 219.09 128.48 218.8 128.88 219.07C131.19 220.67 137.58 226.17 143.8 241.23Z" fill="#84B104"/>
<path d="M131.2 224.23C131.28 224.18 132 225.12 133.13 226.66C134.39 228.4 135.87 230.45 137.51 232.71C139.15 234.97 140.64 237.01 141.9 238.75C143.03 240.29 143.74 241.23 143.67 241.3C143.61 241.36 142.77 240.51 141.54 239.04C140.31 237.57 138.69 235.47 136.98 233.1C135.27 230.73 133.79 228.54 132.75 226.93C131.72 225.31 131.12 224.28 131.2 224.23Z" fill="#263238"/>
<path d="M160.47 277.13C160.47 277.13 144.48 269.98 143.36 256.47C143.32 256 143.83 255.67 144.23 255.92C146.63 257.37 153.35 262.47 160.47 277.13Z" fill="#84B104"/>
<path d="M146.86 260.92C146.93 260.87 147.71 261.76 148.94 263.23C150.3 264.89 151.91 266.85 153.68 269C155.46 271.15 157.06 273.1 158.43 274.76C159.66 276.22 160.42 277.13 160.35 277.19C160.29 277.25 159.4 276.46 158.08 275.06C156.76 273.67 155.02 271.67 153.17 269.41C151.32 267.15 149.71 265.05 148.58 263.51C147.44 261.97 146.79 260.98 146.86 260.92Z" fill="#263238"/>
<path d="M151.27 317.17C151.27 317.17 140.29 303.52 145.44 290.99C145.62 290.55 146.22 290.49 146.47 290.89C147.95 293.28 151.61 300.87 151.27 317.17Z" fill="#84B104"/>
<path d="M146.53 296.54C146.62 296.52 146.91 297.67 147.33 299.54C147.79 301.64 148.32 304.11 148.92 306.84C149.52 309.56 150.06 312.03 150.53 314.13C150.95 315.99 151.22 317.14 151.13 317.17C151.05 317.2 150.62 316.08 150.08 314.24C149.54 312.4 148.9 309.83 148.28 306.97C147.66 304.11 147.18 301.51 146.88 299.62C146.58 297.74 146.45 296.56 146.53 296.54Z" fill="#263238"/>
<path d="M162.15 364.29C162.15 364.29 146.28 356.87 145.38 343.35C145.35 342.88 145.86 342.56 146.26 342.81C148.64 344.3 155.27 349.51 162.15 364.29Z" fill="#84B104"/>
<path d="M148.81 347.86C148.88 347.81 149.65 348.71 150.85 350.2C152.19 351.89 153.75 353.87 155.49 356.05C157.23 358.23 158.8 360.21 160.14 361.89C161.34 363.37 162.09 364.29 162.02 364.36C161.96 364.42 161.09 363.61 159.79 362.2C158.5 360.78 156.78 358.76 154.97 356.47C153.16 354.18 151.58 352.05 150.48 350.49C149.37 348.91 148.73 347.91 148.81 347.86Z" fill="#263238"/>
<path d="M193.75 295.43C193.76 295.43 193.77 295.56 193.77 295.82C193.76 296.12 193.75 296.49 193.74 296.94C193.69 297.99 193.63 299.41 193.55 301.19C193.35 304.92 193.06 310.13 192.72 316.36V316.37V316.39C191.59 322.73 188.36 329.75 184.02 336.57C180.84 341.59 177.51 346.16 174.63 350.41C171.74 354.65 169.29 358.57 167.59 362.05C165.88 365.52 164.88 368.5 164.3 370.59C164.02 371.64 163.81 372.45 163.69 373.01C163.56 373.57 163.48 373.86 163.46 373.85C163.44 373.85 163.47 373.55 163.56 372.98C163.64 372.41 163.81 371.58 164.05 370.52C164.56 368.4 165.5 365.37 167.17 361.84C168.83 358.31 171.25 354.33 174.13 350.07C176.99 345.79 180.3 341.22 183.46 336.22C187.77 329.43 190.98 322.52 192.16 316.28V316.32C192.6 310.1 192.96 304.9 193.22 301.17C193.36 299.4 193.48 297.98 193.56 296.93C193.6 296.49 193.64 296.12 193.67 295.82C193.71 295.56 193.73 295.43 193.75 295.43Z" fill="#263238"/>
<path d="M184.3 335.26C184.3 335.26 191.02 319.09 182.57 308.49C182.27 308.12 181.68 308.23 181.55 308.69C180.8 311.4 179.42 319.71 184.3 335.26Z" fill="#84B104"/>
<path d="M183.08 314.13C183.17 314.12 183.38 315.29 183.61 317.19C183.85 319.09 184.11 321.72 184.32 324.64C184.53 327.56 184.63 330.2 184.63 332.12C184.63 334.04 184.53 335.22 184.44 335.22C184.34 335.22 184.28 334.04 184.17 332.13C184.03 329.98 183.86 327.47 183.67 324.68C183.48 321.9 183.3 319.38 183.15 317.23C183.03 315.33 182.99 314.14 183.08 314.13Z" fill="#263238"/>
<path d="M163.49 374.24C163.49 374.24 168.88 357.58 159.59 347.7C159.26 347.35 158.68 347.51 158.59 347.98C158.07 350.73 157.36 359.13 163.49 374.24Z" fill="#84B104"/>
<path d="M160.56 353.28C160.65 353.26 160.95 354.41 161.34 356.29C161.73 358.16 162.21 360.77 162.65 363.65C163.1 366.54 163.41 369.17 163.56 371.08C163.71 372.99 163.71 374.18 163.62 374.19C163.52 374.2 163.36 373.02 163.1 371.13C162.78 369 162.41 366.51 162 363.75C161.58 360.99 161.2 358.49 160.88 356.37C160.61 354.47 160.47 353.29 160.56 353.28Z" fill="#263238"/>
<path d="M192.86 315.5C192.86 315.5 207.21 305.46 205.76 291.98C205.71 291.51 205.15 291.28 204.8 291.6C202.71 293.48 197.08 299.76 192.86 315.5Z" fill="#84B104"/>
<path d="M203.16 297.01C203.24 297.05 202.79 298.15 201.97 299.88C201.15 301.61 199.96 303.98 198.58 306.55C197.19 309.12 195.86 311.41 194.83 313.03C193.8 314.65 193.08 315.59 193.01 315.55C192.93 315.5 193.51 314.47 194.43 312.8C195.46 310.91 196.67 308.7 198.01 306.25C199.34 303.8 200.54 301.58 201.57 299.68C202.48 297.99 203.08 296.97 203.16 297.01Z" fill="#263238"/>
<path d="M169.28 357.72C169.28 357.72 186.58 355.02 191.22 342.29C191.38 341.84 190.98 341.39 190.52 341.53C187.82 342.29 180 345.44 169.28 357.72Z" fill="#84B104"/>
<path d="M186.67 345.66C186.72 345.73 185.83 346.52 184.34 347.71C182.84 348.9 180.74 350.5 178.36 352.2C175.98 353.9 173.77 355.36 172.14 356.36C170.5 357.36 169.44 357.89 169.39 357.82C169.34 357.74 170.32 357.07 171.88 355.98C173.64 354.74 175.7 353.28 177.98 351.67C180.25 350.05 182.31 348.59 184.07 347.34C185.63 346.24 186.61 345.59 186.67 345.66Z" fill="#263238"/>
<path d="M148.8 389.56L153.76 422.12L173.59 422.09L180.26 389.56H148.8Z" fill="#455A64"/>
<path d="M177.36 402.12C177.36 402.13 177.31 402.17 177.19 402.24C177.07 402.31 176.91 402.42 176.67 402.54C176.2 402.77 175.46 403.06 174.45 403.2C173.45 403.34 172.18 403.31 170.81 402.86C169.45 402.42 167.96 401.53 166.89 400.01C166.38 399.24 166.03 398.31 165.97 397.29C165.9 396.29 166.29 395.08 167.31 394.49C168.34 393.9 169.66 394.11 170.63 394.76C171.65 395.42 172.24 396.58 172.53 397.75C172.81 398.94 172.85 400.18 172.78 401.43C172.7 402.68 172.47 403.96 171.98 405.19C171.5 406.42 170.73 407.57 169.68 408.47C168.64 409.36 167.31 410 165.87 410.06C164.43 410.12 163.05 409.63 161.9 408.91C160.74 408.18 159.76 407.26 158.94 406.23C158.13 405.2 157.52 403.97 157.44 402.65C157.38 401.36 157.83 400.01 158.85 399.2C159.88 398.36 161.34 398.42 162.36 398.99C163.42 399.52 164.2 400.53 164.39 401.64C164.77 403.87 163.47 405.89 161.88 406.79C160.26 407.72 158.49 407.74 157.09 407.48C155.67 407.2 154.55 406.64 153.68 406.15C152.81 405.64 152.19 405.18 151.77 404.86C151.35 404.54 151.15 404.35 151.16 404.34C151.17 404.32 151.4 404.48 151.84 404.77C152.28 405.06 152.92 405.49 153.79 405.97C154.66 406.43 155.78 406.95 157.15 407.19C158.51 407.42 160.19 407.35 161.69 406.47C163.14 405.62 164.32 403.71 163.95 401.73C163.78 400.76 163.09 399.88 162.15 399.42C161.23 398.93 160.01 398.91 159.17 399.6C158.32 400.28 157.91 401.47 157.97 402.63C158.04 403.8 158.6 404.93 159.37 405.91C160.15 406.88 161.11 407.77 162.2 408.45C163.29 409.13 164.56 409.58 165.86 409.52C167.16 409.46 168.38 408.88 169.35 408.06C170.32 407.23 171.05 406.16 171.5 404.99C171.97 403.83 172.2 402.6 172.28 401.39C172.35 400.18 172.32 398.97 172.06 397.86C171.8 396.76 171.26 395.72 170.38 395.15C169.52 394.57 168.38 394.39 167.55 394.87C166.7 395.35 166.35 396.34 166.4 397.26C166.44 398.19 166.76 399.07 167.22 399.79C168.2 401.23 169.61 402.11 170.92 402.56C172.24 403.02 173.47 403.08 174.44 402.98C176.4 402.77 177.33 402.04 177.36 402.12Z" fill="#263238"/>
<path d="M453.08 394.76C445.23 390.21 441.04 379.63 440.72 370.97C440.41 362.31 444.01 353.28 451.11 348.31C458.59 343.08 469.24 343.17 476.93 348.1C484.62 353.03 489.12 362.31 488.77 371.43C488.42 380.55 483.45 389.26 476.1 394.67" fill="#84B104"/>
<path d="M465.6 395.6C465.55 395.6 465.5 394.89 465.45 393.62C465.41 392.2 465.36 390.39 465.3 388.22C465.18 383.66 465 377.36 464.7 370.41C464.39 363.46 464.02 357.17 463.73 352.62C463.6 350.45 463.49 348.64 463.41 347.23C463.34 345.96 463.33 345.25 463.38 345.24C463.43 345.24 463.54 345.93 463.69 347.2C463.85 348.47 464.04 350.3 464.24 352.58C464.66 357.13 465.11 363.42 465.42 370.38C465.72 377.34 465.82 383.65 465.81 388.21C465.8 390.49 465.77 392.34 465.73 393.62C465.7 394.89 465.65 395.6 465.6 395.6Z" fill="white"/>
<path d="M443.04 369.01C443.02 369.21 441.77 369.27 440.25 369.15C438.72 369.02 437.5 368.76 437.52 368.56C437.54 368.36 438.79 368.3 440.31 368.42C441.83 368.54 443.06 368.81 443.04 369.01Z" fill="#263238"/>
<path d="M443.47 361.24C443.39 361.43 442.31 361.13 441.06 360.57C439.81 360.02 438.87 359.42 438.95 359.23C439.03 359.04 440.11 359.34 441.36 359.9C442.61 360.46 443.55 361.06 443.47 361.24Z" fill="#263238"/>
<path d="M447.47 355.48C447.36 355.65 446.15 355.08 444.89 354.03C443.63 352.99 442.84 351.9 442.98 351.77C443.13 351.63 444.13 352.46 445.35 353.47C446.58 354.47 447.58 355.3 447.47 355.48Z" fill="#263238"/>
<path d="M451.49 350.04C451.3 350.12 450.72 349.21 450.19 348.01C449.66 346.81 449.38 345.77 449.56 345.68C449.75 345.6 450.33 346.51 450.86 347.71C451.4 348.91 451.68 349.95 451.49 350.04Z" fill="#263238"/>
<path d="M457.8 346.17C457.62 346.25 456.99 345.29 456.58 343.95C456.16 342.61 456.13 341.46 456.32 341.43C456.52 341.39 456.87 342.45 457.28 343.74C457.68 345.02 457.98 346.09 457.8 346.17Z" fill="#263238"/>
<path d="M468.32 341.82C468.51 341.89 468.39 342.71 468.06 343.66C467.72 344.61 467.3 345.33 467.11 345.26C466.92 345.19 467.04 344.37 467.37 343.42C467.7 342.47 468.13 341.75 468.32 341.82Z" fill="#263238"/>
<path d="M476.13 345.17C476.27 345.32 475.77 346.01 475.01 346.71C474.25 347.41 473.53 347.86 473.39 347.71C473.25 347.56 473.75 346.87 474.51 346.17C475.27 345.47 475.99 345.02 476.13 345.17Z" fill="#263238"/>
<path d="M483 349.61C483.11 349.78 482.5 350.39 481.64 350.98C480.77 351.57 479.98 351.91 479.86 351.74C479.75 351.57 480.36 350.96 481.22 350.37C482.1 349.78 482.89 349.44 483 349.61Z" fill="#263238"/>
<path d="M487.88 356.23C487.96 356.42 487 357.01 485.73 357.55C484.46 358.09 483.37 358.38 483.29 358.19C483.21 358 484.17 357.41 485.44 356.87C486.71 356.33 487.81 356.04 487.88 356.23Z" fill="#263238"/>
<path d="M489.81 363.45C489.83 363.65 488.86 363.94 487.62 364.09C486.39 364.24 485.37 364.2 485.34 364C485.32 363.8 486.29 363.51 487.53 363.36C488.76 363.21 489.78 363.24 489.81 363.45Z" fill="#263238"/>
<path d="M490.81 372.33C490.73 372.52 489.69 372.24 488.48 371.72C487.27 371.2 486.36 370.62 486.44 370.43C486.52 370.24 487.56 370.52 488.77 371.04C489.98 371.57 490.89 372.15 490.81 372.33Z" fill="#263238"/>
<path d="M489.93 379.96C489.87 380.15 488.55 379.83 487.17 378.93C485.79 378.03 484.97 376.95 485.11 376.82C485.26 376.67 486.26 377.47 487.57 378.32C488.87 379.16 490 379.76 489.93 379.96Z" fill="#263238"/>
<path d="M485.96 386.9C485.84 387.06 484.79 386.44 483.78 385.35C482.77 384.26 482.23 383.17 482.4 383.06C482.57 382.94 483.35 383.81 484.32 384.85C485.28 385.89 486.09 386.73 485.96 386.9Z" fill="#263238"/>
<path d="M448.26 387.71C448.35 387.89 447.25 388.65 445.8 389.41C444.35 390.17 443.09 390.63 443 390.45C442.91 390.27 444.01 389.51 445.46 388.75C446.91 388 448.17 387.53 448.26 387.71Z" fill="#263238"/>
<path d="M444.82 381.43C444.9 381.61 444.02 382.2 442.85 382.73C441.68 383.26 440.66 383.54 440.57 383.36C440.49 383.18 441.37 382.59 442.55 382.06C443.72 381.53 444.74 381.25 444.82 381.43Z" fill="#263238"/>
<path d="M442.29 375.87C442.32 376.07 441.23 376.39 439.86 376.59C438.49 376.78 437.35 376.78 437.33 376.58C437.3 376.38 438.39 376.06 439.76 375.86C441.13 375.67 442.26 375.67 442.29 375.87Z" fill="#263238"/>
<path d="M450.59 372.81C450.65 373 449.59 373.49 448.17 373.65C446.75 373.81 445.61 373.57 445.63 373.37C445.64 373.16 446.75 373.08 448.09 372.92C449.43 372.77 450.53 372.61 450.59 372.81Z" fill="#263238"/>
<path d="M457.49 365.95C457.55 366.14 456.7 366.57 455.57 366.68C454.43 366.79 453.52 366.54 453.54 366.34C453.56 366.13 454.44 366.05 455.5 365.95C456.55 365.84 457.43 365.75 457.49 365.95Z" fill="#263238"/>
<path d="M458.81 360.45C458.74 360.64 457.83 360.5 456.77 360.13C455.71 359.76 454.9 359.31 454.97 359.12C455.04 358.93 455.95 359.07 457.01 359.44C458.06 359.8 458.87 360.26 458.81 360.45Z" fill="#263238"/>
<path d="M461.33 354.89C461.19 355.03 460.56 354.62 460.11 353.84C459.66 353.06 459.62 352.31 459.81 352.26C460.01 352.2 460.35 352.78 460.75 353.47C461.15 354.16 461.48 354.75 461.33 354.89Z" fill="#263238"/>
<path d="M458.29 377.65C458.34 377.85 457.55 378.21 456.52 378.46C455.93 378.6 455.39 378.68 455.03 378.68L454.88 378.25C455.15 378.2 455.32 378.21 455.35 378.29C455.38 378.37 455.28 378.5 455.06 378.66L454.91 378.23C455.22 378.07 455.74 377.88 456.33 377.74C457.37 377.5 458.24 377.45 458.29 377.65Z" fill="#263238"/>
<path d="M459.71 387.39C459.78 387.58 458.77 388.15 457.45 388.67C456.13 389.19 455 389.46 454.93 389.27C454.86 389.08 455.87 388.51 457.19 387.99C458.5 387.47 459.63 387.21 459.71 387.39Z" fill="#263238"/>
<path d="M451.92 383.07C451.99 383.26 451.31 383.67 450.42 383.97C449.52 384.27 448.74 384.37 448.68 384.17C448.61 383.98 449.29 383.57 450.18 383.27C451.07 382.97 451.85 382.87 451.92 383.07Z" fill="#263238"/>
<path d="M452.51 363.23C452.46 363.42 451.29 363.31 449.94 362.83C448.58 362.35 447.6 361.7 447.69 361.52C447.78 361.33 448.87 361.67 450.19 362.13C451.5 362.6 452.56 363.03 452.51 363.23Z" fill="#263238"/>
<path d="M471.36 361.07C471.47 361.24 470.81 361.87 469.89 362.48C468.96 363.09 468.12 363.45 468.01 363.28C467.9 363.11 468.56 362.48 469.48 361.87C470.41 361.26 471.25 360.9 471.36 361.07Z" fill="#263238"/>
<path d="M472.39 370.86C472.43 371.06 471.74 371.37 470.84 371.56C469.94 371.75 469.18 371.74 469.14 371.54C469.1 371.34 469.79 371.03 470.69 370.84C471.59 370.65 472.35 370.66 472.39 370.86Z" fill="#263238"/>
<path d="M473.58 381.86C473.49 382.04 472.5 381.76 471.35 381.23C470.2 380.7 469.34 380.12 469.43 379.93C469.52 379.75 470.51 380.03 471.66 380.56C472.8 381.1 473.67 381.68 473.58 381.86Z" fill="#263238"/>
<path d="M471.06 392.58C470.9 392.71 470.25 392.18 469.61 391.4C468.97 390.62 468.57 389.88 468.73 389.75C468.89 389.62 469.54 390.15 470.18 390.93C470.82 391.71 471.22 392.45 471.06 392.58Z" fill="#263238"/>
<path d="M470.54 353.87C470.66 354.03 470.24 354.57 469.5 354.93C468.77 355.3 468.08 355.32 468.03 355.13C467.97 354.93 468.51 354.61 469.17 354.28C469.84 353.94 470.42 353.7 470.54 353.87Z" fill="#263238"/>
<path d="M479.78 363.74C479.85 363.93 478.99 364.4 477.82 364.56C476.65 364.72 475.7 364.51 475.71 364.31C475.72 364.1 476.63 363.99 477.71 363.83C478.81 363.68 479.71 363.54 479.78 363.74Z" fill="#263238"/>
<path d="M477.94 354.88C478.03 355.06 477.18 355.66 475.97 356.05C474.76 356.44 473.72 356.44 473.69 356.24C473.66 356.04 474.6 355.72 475.74 355.35C476.9 354.98 477.85 354.69 477.94 354.88Z" fill="#263238"/>
<path d="M481.8 377.46C481.8 377.66 480.35 377.79 478.6 377.47C476.85 377.16 475.53 376.53 475.6 376.34C475.67 376.14 477.04 376.44 478.73 376.75C480.41 377.05 481.8 377.25 481.8 377.46Z" fill="#263238"/>
<path d="M478.37 390.33C478.25 390.49 477.18 389.86 476.11 388.78C475.04 387.71 474.42 386.64 474.57 386.52C474.73 386.39 475.59 387.23 476.63 388.27C477.66 389.31 478.49 390.17 478.37 390.33Z" fill="#263238"/>
<path d="M463.27 344.4C463.38 344.56 460.34 345.79 456.83 349.49C453.32 353.11 449.7 359.51 448.8 367.23C448.37 371.07 448.74 374.79 449.28 378.1C449.85 381.42 450.61 384.37 451.32 386.82C452.03 389.28 452.67 391.24 453.11 392.61C453.55 393.97 453.78 394.73 453.73 394.75C453.68 394.77 453.36 394.04 452.84 392.7C452.32 391.36 451.6 389.42 450.82 386.97C450.05 384.52 449.23 381.56 448.61 378.21C448.02 374.86 447.62 371.09 448.06 367.14C448.97 359.24 452.76 352.72 456.44 349.12C458.27 347.29 459.99 346.07 461.25 345.36C461.86 344.97 462.39 344.77 462.72 344.6C463.07 344.45 463.26 344.38 463.27 344.4Z" fill="white"/>
<path d="M473.29 395.23C473.13 395.15 474.94 392.36 476.59 387.34C478.29 382.38 479.7 375.02 478.57 367.04C478.04 363.06 476.89 359.37 475.44 356.21C473.94 353.1 472 350.55 470.1 348.78C468.14 347.05 466.21 346.05 464.87 345.47C463.51 344.9 462.7 344.77 462.71 344.71C462.71 344.69 462.92 344.7 463.31 344.76C463.7 344.83 464.27 344.96 464.97 345.21C466.37 345.72 468.37 346.65 470.44 348.39C472.46 350.19 474.46 352.73 476.05 355.92C477.57 359.13 478.76 362.88 479.3 366.94C480.45 375.07 478.93 382.54 477.09 387.51C476.67 388.78 476.14 389.87 475.74 390.85C475.27 391.8 474.88 392.62 474.52 393.27C473.77 394.56 473.34 395.26 473.29 395.23Z" fill="white"/>
<path d="M444.82 393.5H485.34L485.59 401.61H444.82V393.5Z" fill="#263238"/>
<path d="M448.26 397.55L450.59 422.31H480.21L482.59 397.82L448.26 397.55Z" fill="#263238"/>
<path d="M485.59 401.7C485.59 401.9 476.46 402.07 465.21 402.07C453.95 402.07 444.83 401.91 444.83 401.7C444.83 401.49 453.95 401.33 465.21 401.33C476.47 401.34 485.59 401.5 485.59 401.7Z" fill="#455A64"/>
<path d="M481.47 409.25C481.51 409.27 481.24 409.84 480.6 410.8C479.96 411.75 478.95 413.08 477.46 414.51L477.27 414.69L477.09 414.5C475.14 412.45 472.46 409.94 469.15 407.55L469.6 407.53C468.47 408.52 467.29 409.56 466.08 410.62C464.64 411.87 463.25 413.09 461.92 414.24L461.69 414.44L461.46 414.25C458.94 412.13 456.64 410.2 454.69 408.56L455.08 408.52C453.68 410.23 452.51 411.66 451.58 412.79C450.74 413.79 450.25 414.33 450.21 414.29C450.17 414.26 450.57 413.65 451.34 412.6C452.22 411.43 453.33 409.94 454.65 408.18L454.82 407.95L455.05 408.13C457.03 409.73 459.36 411.62 461.92 413.7L461.46 413.71C462.78 412.55 464.17 411.33 465.61 410.07C466.82 409.01 468.01 407.98 469.14 406.99L469.36 406.8L469.59 406.97C472.93 409.42 475.59 412.01 477.49 414.15L477.12 414.14C480.11 411.39 481.36 409.16 481.47 409.25Z" fill="#455A64"/>
<path d="M446.49 63.82L457.97 75.78C458.74 76.59 460.01 76.63 460.79 75.87L506.49 31.97C507.28 31.21 507.29 29.95 506.51 29.14L495.03 17.18C494.26 16.37 492.99 16.33 492.21 17.09L446.51 60.99C445.73 61.75 445.72 63.01 446.49 63.82Z" fill="#F5F5F5"/>
<path d="M446.49 63.82C446.49 63.82 446.37 63.73 446.2 63.48C446.04 63.23 445.84 62.81 445.89 62.22C445.91 61.93 446.01 61.61 446.21 61.3C446.41 60.99 446.72 60.75 447.01 60.45C447.61 59.86 448.31 59.19 449.09 58.43C452.24 55.39 456.77 51 462.38 45.59C468 40.18 474.69 33.73 482.12 26.58C483.98 24.79 485.88 22.96 487.83 21.09C488.8 20.15 489.79 19.21 490.78 18.25C491.29 17.77 491.75 17.29 492.3 16.81C492.91 16.35 493.76 16.27 494.46 16.58C494.8 16.73 495.12 17 495.34 17.26L496.07 18.02C496.56 18.53 497.05 19.04 497.55 19.56C498.54 20.59 499.54 21.63 500.54 22.67C502.55 24.76 504.59 26.88 506.65 29.03C507.22 29.61 507.43 30.51 507.16 31.27C507.04 31.65 506.76 31.99 506.49 32.24L505.69 33C504.63 34.02 503.58 35.03 502.53 36.03C500.44 38.04 498.38 40.02 496.35 41.96C492.3 45.85 488.39 49.6 484.67 53.17C477.22 60.31 470.51 66.73 464.88 72.13C463.47 73.48 462.13 74.76 460.86 75.98C460.17 76.63 459.09 76.69 458.36 76.22C457.98 75.99 457.73 75.65 457.45 75.38C457.17 75.09 456.9 74.81 456.63 74.53C454.49 72.29 452.65 70.36 451.14 68.78C449.64 67.2 448.48 65.98 447.68 65.13C447.29 64.72 447 64.4 446.79 64.18C446.59 63.94 446.49 63.82 446.49 63.82C446.49 63.82 446.6 63.92 446.81 64.13C447.03 64.35 447.33 64.66 447.73 65.06C448.54 65.89 449.72 67.1 451.23 68.66C452.75 70.23 454.61 72.15 456.76 74.37C457.03 74.65 457.3 74.93 457.58 75.22C457.87 75.5 458.12 75.83 458.46 76.03C459.13 76.45 460.1 76.39 460.7 75.81C461.96 74.59 463.3 73.3 464.7 71.95C470.32 66.54 477.01 60.09 484.44 52.94C488.16 49.36 492.06 45.61 496.11 41.72C498.13 39.77 500.19 37.8 502.28 35.79C503.33 34.79 504.38 33.77 505.44 32.76L506.24 32C506.51 31.75 506.71 31.5 506.82 31.17C507.05 30.53 506.87 29.77 506.39 29.28C504.33 27.13 502.29 25.01 500.28 22.92C499.28 21.87 498.28 20.84 497.29 19.81C496.8 19.3 496.3 18.78 495.81 18.27L495.08 17.51C494.84 17.24 494.61 17.04 494.31 16.91C493.72 16.65 493 16.71 492.49 17.1C492 17.53 491.49 18.05 491 18.51C490.01 19.46 489.02 20.41 488.05 21.34C486.1 23.21 484.19 25.04 482.33 26.82C474.88 33.95 468.18 40.38 462.54 45.78C456.9 51.16 452.34 55.52 449.18 58.54C448.39 59.29 447.69 59.96 447.08 60.54C446.78 60.84 446.47 61.08 446.28 61.36C446.09 61.65 445.99 61.96 445.96 62.24C445.9 62.81 446.09 63.23 446.23 63.48C446.39 63.71 446.5 63.81 446.49 63.82Z" fill="#263238"/>
<path d="M493.033 18.6839L484.734 26.7598L496.513 38.8649L504.812 30.789L493.033 18.6839Z" fill="#E8505B"/>
<path d="M465.993 44.99L457.694 53.0659L469.473 65.171L477.773 57.0951L465.993 44.99Z" fill="#E8505B"/>
<path d="M475.019 36.2185L466.719 44.2944L478.499 56.3995L486.798 48.3236L475.019 36.2185Z" fill="#E8505B"/>
<path d="M484.044 27.4288L475.745 35.5047L487.524 47.6098L495.824 39.5339L484.044 27.4288Z" fill="#E8505B"/>
<g opacity="0.8">
<path opacity="0.8" d="M493.033 18.6839L484.734 26.7598L496.513 38.8649L504.812 30.789L493.033 18.6839Z" fill="#D8942F"/>
</g>
<g opacity="0.5">
<path opacity="0.5" d="M465.993 44.99L457.694 53.0659L469.473 65.171L477.773 57.0951L465.993 44.99Z" fill="#D8942F"/>
</g>
<g opacity="0.6">
<path opacity="0.6" d="M475.019 36.2185L466.719 44.2944L478.499 56.3995L486.798 48.3236L475.019 36.2185Z" fill="#D8942F"/>
</g>
<g opacity="0.7">
<path opacity="0.7" d="M484.044 27.4288L475.745 35.5047L487.524 47.6098L495.824 39.5339L484.044 27.4288Z" fill="#D8942F"/>
</g>
<path d="M447.26 61.77L455.28 76.28C455.82 77.26 457.02 77.63 457.96 77.11L512.63 46.88C513.57 46.36 513.9 45.15 513.36 44.17L505.34 29.66C504.8 28.68 503.6 28.31 502.66 28.83L447.99 59.06C447.05 59.58 446.72 60.8 447.26 61.77Z" fill="#F5F5F5"/>
<path d="M447.26 61.77C447.26 61.77 447.17 61.65 447.07 61.37C446.98 61.1 446.89 60.64 447.08 60.08C447.17 59.81 447.34 59.52 447.61 59.27C447.88 59.02 448.24 58.87 448.59 58.66C449.32 58.25 450.15 57.78 451.09 57.26C454.87 55.15 460.32 52.12 467.06 48.37C473.81 44.63 481.84 40.17 490.76 35.22C492.99 33.98 495.28 32.72 497.61 31.42C498.78 30.77 499.96 30.12 501.15 29.46L502.05 28.96C502.35 28.81 502.63 28.6 503.01 28.49C503.74 28.28 504.55 28.51 505.09 29.04C505.37 29.3 505.53 29.65 505.7 29.94L506.21 30.86C506.55 31.47 506.89 32.09 507.23 32.7C507.91 33.93 508.6 35.18 509.3 36.43C510.69 38.94 512.09 41.48 513.52 44.06C513.91 44.76 513.9 45.66 513.45 46.33C513.24 46.67 512.89 46.93 512.57 47.09L511.61 47.62C510.34 48.32 509.07 49.02 507.82 49.72C505.31 51.11 502.84 52.47 500.41 53.82C495.55 56.5 490.86 59.09 486.39 61.56C477.46 66.48 469.41 70.92 462.65 74.64C460.95 75.57 459.37 76.46 457.81 77.29C456.94 77.65 455.93 77.31 455.41 76.63C454.94 75.92 454.61 75.22 454.23 74.55C452.76 71.86 451.49 69.55 450.45 67.66C449.42 65.77 448.62 64.3 448.07 63.3C447.81 62.81 447.6 62.43 447.46 62.16C447.32 61.91 447.26 61.77 447.26 61.77C447.26 61.77 447.34 61.89 447.49 62.15C447.64 62.41 447.85 62.79 448.13 63.27C448.69 64.27 449.51 65.73 450.56 67.6C451.61 69.49 452.9 71.79 454.39 74.47C454.77 75.12 455.13 75.86 455.56 76.51C456.04 77.13 456.95 77.42 457.71 77.1C459.22 76.29 460.83 75.37 462.52 74.44C469.27 70.7 477.3 66.24 486.22 61.29C490.68 58.82 495.37 56.22 500.23 53.53C502.66 52.19 505.13 50.82 507.64 49.43C508.89 48.74 510.16 48.04 511.43 47.33L512.39 46.8C512.71 46.63 512.96 46.44 513.15 46.15C513.52 45.59 513.53 44.83 513.2 44.24C511.78 41.66 510.37 39.12 508.98 36.61C508.29 35.36 507.6 34.11 506.92 32.88C506.58 32.26 506.24 31.65 505.9 31.03L505.39 30.11C505.22 29.8 505.07 29.51 504.84 29.29C504.39 28.84 503.7 28.65 503.09 28.83C502.8 28.91 502.51 29.11 502.2 29.27L501.3 29.77C500.11 30.43 498.93 31.08 497.76 31.73C495.42 33.02 493.13 34.28 490.9 35.52C481.97 40.44 473.92 44.88 467.16 48.6C460.4 52.31 454.93 55.31 451.14 57.39C450.19 57.91 449.35 58.36 448.62 58.76C448.26 58.97 447.9 59.12 447.65 59.35C447.4 59.58 447.22 59.85 447.13 60.11C446.94 60.64 447.01 61.09 447.09 61.36C447.19 61.64 447.27 61.77 447.26 61.77Z" fill="#263238"/>
<path d="M502.289 31.4629L492.189 37.1266L500.45 51.8581L510.55 46.1943L502.289 31.4629Z" fill="#E8505B"/>
<path d="M469.393 49.9144L459.292 55.5781L467.553 70.3096L477.653 64.6458L469.393 49.9144Z" fill="#E8505B"/>
<path d="M480.372 43.7593L470.272 49.4231L478.533 64.1545L488.633 58.4907L480.372 43.7593Z" fill="#E8505B"/>
<path d="M491.352 37.5999L481.252 43.2637L489.513 57.9951L499.613 52.3314L491.352 37.5999Z" fill="#E8505B"/>
<g opacity="0.5">
<path opacity="0.5" d="M502.289 31.4629L492.189 37.1266L500.45 51.8581L510.55 46.1943L502.289 31.4629Z" fill="#D8942F"/>
</g>
<g opacity="0.2">
<path opacity="0.2" d="M469.393 49.9144L459.292 55.5781L467.553 70.3096L477.653 64.6458L469.393 49.9144Z" fill="#D8942F"/>
</g>
<g opacity="0.3">
<path opacity="0.3" d="M480.372 43.7593L470.272 49.4231L478.533 64.1545L488.633 58.4907L480.372 43.7593Z" fill="#D8942F"/>
</g>
<g opacity="0.4">
<path opacity="0.4" d="M491.352 37.5999L481.252 43.2637L489.513 57.9951L499.613 52.3314L491.352 37.5999Z" fill="#D8942F"/>
</g>
<path d="M445.25 61.64L448.79 77.84C449.03 78.93 450.12 79.62 451.22 79.38L515.33 65.37C516.43 65.13 517.13 64.05 516.9 62.96L513.36 46.76C513.12 45.67 512.03 44.98 510.93 45.22L446.82 59.23C445.71 59.47 445.01 60.55 445.25 61.64Z" fill="#F5F5F5"/>
<path d="M445.25 61.64C445.25 61.64 445.19 61.49 445.19 61.19C445.19 60.89 445.25 60.41 445.63 59.93C445.82 59.7 446.08 59.47 446.42 59.32C446.77 59.17 447.16 59.12 447.58 59.02C448.42 58.83 449.39 58.61 450.49 58.37C454.88 57.4 461.21 55.99 469.03 54.26C476.86 52.54 486.18 50.49 496.53 48.21C499.12 47.64 501.77 47.06 504.48 46.47C505.83 46.17 507.2 45.87 508.59 45.57C509.28 45.42 509.98 45.27 510.67 45.11C511.01 45.02 511.43 44.97 511.8 45.05C512.18 45.13 512.54 45.3 512.84 45.56C513.14 45.81 513.36 46.16 513.48 46.53C513.59 46.91 513.64 47.25 513.73 47.61C513.89 48.32 514.04 49.03 514.2 49.75C514.51 51.18 514.83 52.63 515.15 54.08C515.79 56.99 516.43 59.94 517.08 62.93C517.27 63.75 516.93 64.64 516.27 65.14C515.96 65.4 515.52 65.54 515.16 65.6L514.05 65.84C512.57 66.16 511.11 66.48 509.65 66.8C506.74 67.44 503.87 68.06 501.05 68.68C495.41 69.91 489.98 71.09 484.8 72.22C474.44 74.47 465.12 76.49 457.28 78.2C455.32 78.62 453.46 79.03 451.69 79.41C451.47 79.46 451.26 79.51 451.02 79.54C450.79 79.56 450.55 79.55 450.33 79.5C449.88 79.41 449.47 79.16 449.17 78.82C448.87 78.49 448.71 78.04 448.64 77.64C448.55 77.24 448.47 76.84 448.38 76.45C447.71 73.34 447.14 70.66 446.67 68.46C446.21 66.28 445.85 64.58 445.6 63.41C445.48 62.84 445.39 62.4 445.33 62.1C445.27 61.8 445.25 61.64 445.25 61.64C445.25 61.64 445.29 61.79 445.37 62.08C445.44 62.39 445.54 62.82 445.67 63.39C445.93 64.55 446.31 66.25 446.8 68.43C447.29 70.62 447.88 73.3 448.57 76.4C448.66 76.79 448.74 77.18 448.83 77.59C448.9 78 449.04 78.37 449.32 78.67C449.59 78.97 449.96 79.19 450.37 79.27C450.78 79.37 451.19 79.28 451.64 79.17C453.4 78.78 455.27 78.37 457.22 77.94C465.05 76.22 474.37 74.17 484.72 71.89C489.9 70.76 495.33 69.56 500.97 68.33C503.79 67.71 506.65 67.09 509.56 66.45C511.01 66.13 512.48 65.81 513.96 65.49L515.07 65.25C515.45 65.18 515.76 65.07 516.04 64.85C516.6 64.43 516.88 63.68 516.72 62.99C516.07 60 515.42 57.05 514.79 54.14C514.47 52.69 514.16 51.24 513.84 49.81C513.68 49.09 513.53 48.38 513.37 47.67C513.29 47.32 513.22 46.94 513.13 46.62C513.02 46.31 512.84 46.02 512.59 45.8C512.09 45.35 511.38 45.23 510.72 45.43C510.02 45.58 509.33 45.73 508.64 45.88C507.26 46.18 505.89 46.48 504.53 46.78C501.82 47.37 499.17 47.95 496.58 48.51C486.23 50.76 476.9 52.78 469.06 54.48C461.23 56.17 454.89 57.53 450.5 58.48C449.41 58.71 448.43 58.92 447.59 59.1C447.17 59.2 446.77 59.25 446.44 59.38C446.11 59.52 445.86 59.73 445.67 59.96C445.3 60.41 445.22 60.88 445.21 61.18C445.22 61.49 445.26 61.64 445.25 61.64Z" fill="#263238"/>
<path d="M445.12 61.71C445.12 61.77 444.31 61.73 442.9 61.98C441.52 62.28 439.46 62.87 437.53 64.53C435.61 66.14 433.85 68.85 433.56 72.19C433.27 75.48 434.55 79.33 437.55 81.77C439 83.02 440.77 83.79 442.53 84.17C444.3 84.53 446.08 84.42 447.68 83.99C449.29 83.56 450.71 82.79 451.85 81.86C453 80.92 453.88 79.83 454.51 78.73C455.78 76.53 456.07 74.41 456.07 72.99C456.06 72.64 456.05 72.32 456.04 72.04C456.03 71.76 455.98 71.53 455.97 71.35C455.93 70.97 455.92 70.77 455.94 70.77C455.96 70.76 456.02 70.96 456.1 71.33C456.14 71.52 456.2 71.75 456.24 72.03C456.27 72.32 456.3 72.64 456.33 73C456.41 74.44 456.19 76.65 454.93 78.99C454.3 80.15 453.41 81.32 452.21 82.32C451.02 83.32 449.53 84.15 447.84 84.63C446.15 85.1 444.26 85.24 442.38 84.86C440.51 84.47 438.63 83.66 437.09 82.33C436.29 81.7 435.64 80.92 435.04 80.14C434.49 79.32 433.99 78.47 433.67 77.57C432.98 75.78 432.74 73.91 432.91 72.16C433.09 70.41 433.65 68.8 434.42 67.45C435.2 66.1 436.18 65.01 437.21 64.18C439.28 62.5 441.43 61.96 442.86 61.74C443.59 61.65 444.15 61.64 444.54 61.66C444.92 61.65 445.12 61.69 445.12 61.71Z" fill="#263238"/>
<path d="M457.81 68.21C458.11 69.57 457.24 70.92 455.88 71.22C454.52 71.52 453.17 70.65 452.87 69.29C452.57 67.93 453.44 66.58 454.8 66.28C456.16 65.99 457.51 66.85 457.81 68.21Z" fill="#263238"/>
<path d="M511.372 47.3858L500.06 49.8582L503.666 66.358L514.978 63.8857L511.372 47.3858Z" fill="#D8942F"/>
<path d="M499.121 50.0526L487.809 52.5249L491.415 69.0248L502.727 66.5524L499.121 50.0526Z" fill="#E8505B"/>
<path d="M486.822 52.7411L475.509 55.2134L479.115 71.7133L490.428 69.241L486.822 52.7411Z" fill="#E8505B"/>
<path d="M474.523 55.4356L463.211 57.908L466.817 74.4078L478.129 71.9355L474.523 55.4356Z" fill="#E8505B"/>
<g opacity="0.8">
<path opacity="0.8" d="M474.523 55.4356L463.211 57.908L466.817 74.4078L478.129 71.9355L474.523 55.4356Z" fill="#D8942F"/>
</g>
<g opacity="0.6">
<path opacity="0.6" d="M486.822 52.7411L475.509 55.2134L479.115 71.7133L490.428 69.241L486.822 52.7411Z" fill="#D8942F"/>
</g>
<g opacity="0.4">
<path opacity="0.4" d="M499.121 50.0526L487.809 52.5249L491.415 69.0248L502.727 66.5524L499.121 50.0526Z" fill="#D8942F"/>
</g>
</g>
<defs>
<clipPath id="clip0">
<rect width="612.51" height="422.81" fill="white"/>
</clipPath>
</defs>
</svg>
