<svg width="427" height="420" viewBox="0 0 427 420" fill="none" xmlns="http://www.w3.org/2000/svg">
<path d="M407.353 83.4588C407.353 83.2907 408.124 83.1621 409.084 83.1621C410.043 83.1621 410.815 83.3006 410.815 83.4588C410.815 83.627 410.043 83.7556 409.084 83.7556C408.134 83.7655 407.353 83.627 407.353 83.4588Z" fill="#E0E0E0"/>
<path d="M400.428 83.4588C400.428 83.2907 401.2 83.1621 402.159 83.1621C403.119 83.1621 403.89 83.3006 403.89 83.4588C403.89 83.627 403.119 83.7556 402.159 83.7556C401.2 83.7655 400.428 83.627 400.428 83.4588Z" fill="#E0E0E0"/>
<path d="M393.504 83.4588C393.504 83.2907 394.275 83.1621 395.235 83.1621C396.195 83.1621 396.966 83.3006 396.966 83.4588C396.966 83.627 396.195 83.7556 395.235 83.7556C394.275 83.7655 393.504 83.627 393.504 83.4588Z" fill="#E0E0E0"/>
<path d="M386.579 83.4588C386.579 83.2907 387.351 83.1621 388.31 83.1621C389.27 83.1621 390.041 83.3006 390.041 83.4588C390.041 83.627 389.27 83.7556 388.31 83.7556C387.351 83.7655 386.579 83.627 386.579 83.4588Z" fill="#E0E0E0"/>
<path d="M379.655 83.4588C379.655 83.2907 380.426 83.1621 381.386 83.1621C382.345 83.1621 383.117 83.3006 383.117 83.4588C383.117 83.627 382.345 83.7556 381.386 83.7556C380.426 83.7655 379.655 83.627 379.655 83.4588Z" fill="#E0E0E0"/>
<path d="M372.72 83.4588C372.72 83.2907 373.492 83.1621 374.451 83.1621C375.411 83.1621 376.182 83.3006 376.182 83.4588C376.182 83.627 375.411 83.7556 374.451 83.7556C373.502 83.7655 372.72 83.627 372.72 83.4588Z" fill="#E0E0E0"/>
<path d="M365.796 83.4588C365.796 83.2907 366.567 83.1621 367.527 83.1621C368.487 83.1621 369.258 83.3006 369.258 83.4588C369.258 83.627 368.487 83.7556 367.527 83.7556C366.577 83.7655 365.796 83.627 365.796 83.4588Z" fill="#E0E0E0"/>
<path d="M358.872 83.4588C358.872 83.2907 359.643 83.1621 360.603 83.1621C361.562 83.1621 362.334 83.3006 362.334 83.4588C362.334 83.627 361.562 83.7556 360.603 83.7556C359.643 83.7655 358.872 83.627 358.872 83.4588Z" fill="#E0E0E0"/>
<path d="M351.947 83.4588C351.947 83.2907 352.719 83.1621 353.678 83.1621C354.638 83.1621 355.409 83.3006 355.409 83.4588C355.409 83.627 354.638 83.7556 353.678 83.7556C352.719 83.7655 351.947 83.627 351.947 83.4588Z" fill="#E0E0E0"/>
<path d="M345.023 83.4588C345.023 83.2907 345.795 83.1621 346.754 83.1621C347.714 83.1621 348.485 83.3006 348.485 83.4588C348.485 83.627 347.714 83.7556 346.754 83.7556C345.795 83.7655 345.023 83.627 345.023 83.4588Z" fill="#E0E0E0"/>
<path d="M338.089 83.4588C338.089 83.2907 338.86 83.1621 339.82 83.1621C340.779 83.1621 341.551 83.3006 341.551 83.4588C341.551 83.627 340.779 83.7556 339.82 83.7556C338.87 83.7655 338.089 83.627 338.089 83.4588Z" fill="#E0E0E0"/>
<path d="M331.164 83.4588C331.164 83.2907 331.936 83.1621 332.895 83.1621C333.855 83.1621 334.626 83.3006 334.626 83.4588C334.626 83.627 333.855 83.7556 332.895 83.7556C331.946 83.7655 331.164 83.627 331.164 83.4588Z" fill="#E0E0E0"/>
<path d="M326.228 81.4705C326.397 81.4705 326.525 82.2421 326.525 83.2016C326.525 83.2907 326.525 83.3698 326.525 83.4588L326.228 83.1621C327.059 83.1819 327.702 83.3105 327.702 83.4588C327.702 83.6072 327.069 83.7358 326.228 83.7556L325.932 83.7655V83.4588C325.932 83.3698 325.932 83.2808 325.932 83.2016C325.932 82.2421 326.07 81.4705 326.228 81.4705Z" fill="#E0E0E0"/>
<path d="M326.228 74.5461C326.397 74.5461 326.525 75.3177 326.525 76.2772C326.525 77.2368 326.387 78.0083 326.228 78.0083C326.06 78.0083 325.932 77.2368 325.932 76.2772C325.932 75.3177 326.07 74.5461 326.228 74.5461Z" fill="#E0E0E0"/>
<path d="M326.228 67.6217C326.397 67.6217 326.525 68.3933 326.525 69.3528C326.525 70.3124 326.387 71.0839 326.228 71.0839C326.06 71.0839 325.932 70.3124 325.932 69.3528C325.932 68.3933 326.07 67.6217 326.228 67.6217Z" fill="#E0E0E0"/>
<path d="M326.228 60.6973C326.397 60.6973 326.525 61.4689 326.525 62.4284C326.525 63.388 326.387 64.1595 326.228 64.1595C326.06 64.1595 325.932 63.388 325.932 62.4284C325.932 61.4689 326.07 60.6973 326.228 60.6973Z" fill="#E0E0E0"/>
<path d="M326.228 53.763C326.397 53.763 326.525 54.5346 326.525 55.4941C326.525 56.4537 326.387 57.2252 326.228 57.2252C326.06 57.2252 325.932 56.4537 325.932 55.4941C325.932 54.5445 326.07 53.763 326.228 53.763Z" fill="#E0E0E0"/>
<path d="M326.228 46.8387C326.397 46.8387 326.525 47.6102 326.525 48.5698C326.525 49.5293 326.387 50.3009 326.228 50.3009C326.06 50.3009 325.932 49.5293 325.932 48.5698C325.932 47.6201 326.07 46.8387 326.228 46.8387Z" fill="#E0E0E0"/>
<path d="M326.228 39.9142C326.397 39.9142 326.525 40.6858 326.525 41.6453C326.525 42.6048 326.387 43.3764 326.228 43.3764C326.06 43.3764 325.932 42.6048 325.932 41.6453C325.932 40.6858 326.07 39.9142 326.228 39.9142Z" fill="#E0E0E0"/>
<path d="M326.228 32.9898C326.397 32.9898 326.525 33.7614 326.525 34.7209C326.525 35.6804 326.387 36.452 326.228 36.452C326.06 36.452 325.932 35.6804 325.932 34.7209C325.932 33.7614 326.07 32.9898 326.228 32.9898Z" fill="#E0E0E0"/>
<path d="M410.815 32.5546C410.647 32.5546 410.518 31.783 410.518 30.8235C410.518 29.8639 410.657 29.0924 410.815 29.0924C410.983 29.0924 411.112 29.8639 411.112 30.8235C411.121 31.7731 410.983 32.5546 410.815 32.5546Z" fill="#E0E0E0"/>
<path d="M410.815 39.479C410.647 39.479 410.518 38.7074 410.518 37.7479C410.518 36.7883 410.657 36.0168 410.815 36.0168C410.983 36.0168 411.112 36.7883 411.112 37.7479C411.121 38.7074 410.983 39.479 410.815 39.479Z" fill="#E0E0E0"/>
<path d="M410.815 46.4034C410.647 46.4034 410.518 45.6318 410.518 44.6723C410.518 43.7128 410.657 42.9412 410.815 42.9412C410.983 42.9412 411.112 43.7128 411.112 44.6723C411.121 45.6318 410.983 46.4034 410.815 46.4034Z" fill="#E0E0E0"/>
<path d="M410.815 53.3278C410.647 53.3278 410.518 52.5562 410.518 51.5967C410.518 50.6372 410.657 49.8656 410.815 49.8656C410.983 49.8656 411.112 50.6372 411.112 51.5967C411.121 52.5562 410.983 53.3278 410.815 53.3278Z" fill="#E0E0E0"/>
<path d="M410.815 60.2621C410.647 60.2621 410.518 59.4905 410.518 58.531C410.518 57.5714 410.657 56.7999 410.815 56.7999C410.983 56.7999 411.112 57.5714 411.112 58.531C411.121 59.4806 410.983 60.2621 410.815 60.2621Z" fill="#E0E0E0"/>
<path d="M410.815 67.1865C410.647 67.1865 410.518 66.4149 410.518 65.4554C410.518 64.4959 410.657 63.7243 410.815 63.7243C410.983 63.7243 411.112 64.4959 411.112 65.4554C411.121 66.405 410.983 67.1865 410.815 67.1865Z" fill="#E0E0E0"/>
<path d="M410.815 74.1109C410.647 74.1109 410.518 73.3393 410.518 72.3798C410.518 71.4203 410.657 70.6487 410.815 70.6487C410.983 70.6487 411.112 71.4203 411.112 72.3798C411.121 73.3393 410.983 74.1109 410.815 74.1109Z" fill="#E0E0E0"/>
<path d="M410.815 81.0353C410.647 81.0353 410.518 80.2637 410.518 79.3042C410.518 78.3447 410.657 77.5731 410.815 77.5731C410.983 77.5731 411.112 78.3447 411.112 79.3042C411.121 80.2637 410.983 81.0353 410.815 81.0353Z" fill="#E0E0E0"/>
<path d="M413.95 79.4724H407.688V85.734H413.95V79.4724Z" fill="#E0E0E0"/>
<path d="M329.364 80.333H323.103V86.5946H329.364V80.333Z" fill="#E0E0E0"/>
<path d="M81.3219 106.606C92.2624 97.0208 93.2516 81.3519 91.2633 67.5822C90.927 65.2873 90.9171 62.8241 89.5916 60.9249C88.2661 59.0256 85.5557 57.9177 83.597 59.1245C81.9748 60.1236 81.4505 62.1911 80.669 63.9518C79.6402 66.2863 77.9388 68.3043 75.8318 69.7189C74.4469 70.6388 72.6862 71.3115 71.143 70.6685C69.036 69.7881 68.4919 67.0678 68.2545 64.7729C67.8094 60.4896 67.3643 56.2163 66.9191 51.933C66.6817 49.6381 66.4245 47.2937 65.4749 45.1966C64.5253 43.0995 62.7249 41.2497 60.4695 40.8837C58.224 40.5177 55.662 42.0707 55.4444 44.3657C55.3554 45.3252 55.6521 46.2748 55.6917 47.2245C55.7313 48.184 55.4048 49.282 54.5343 49.648C53.6441 50.014 52.6548 49.4699 51.9031 48.8764C49.2817 46.8189 47.3428 44.0194 45.5128 41.2101C43.6828 38.4107 41.8923 35.5321 39.4688 33.2372C37.0453 30.9521 33.8501 29.2705 30.5462 29.4485C27.2423 29.6266 23.968 32.0402 23.4932 35.354C23.0184 38.6778 25.2639 41.7542 27.6083 44.148C31.0804 47.6993 35.0669 50.7361 39.3897 53.1399C40.1711 53.5751 41.012 54.04 41.3879 54.8611C42.0506 56.335 40.7746 58.0166 39.3204 58.6794C37.6685 59.4411 35.7989 59.4609 34.0282 59.8763C32.2674 60.2819 30.4077 61.2909 29.923 63.0517C29.2405 65.495 31.4761 67.7405 33.5831 69.1352C37.807 71.9347 42.4958 73.9922 47.3923 75.199C49.1432 75.6343 50.9831 75.9805 52.4768 77.0093C53.9705 78.0479 55.019 80.0164 54.3761 81.7179C53.7331 83.4292 51.6755 84.181 49.8752 84.0425C48.0748 83.9139 46.3833 83.1225 44.6324 82.6774C41.3483 81.8366 37.3025 82.4993 35.5812 85.4472C34.4536 87.386 34.6118 89.8887 35.512 91.9561C36.4221 94.0136 37.985 95.7052 39.6172 97.2384C45.3249 102.61 52.3185 106.666 59.9156 108.397C67.4929 110.118 74.348 110.058 81.3219 106.606Z" fill="#E0E0E0"/>
<path d="M82.6378 116.825C81.5299 111.404 79.6207 105.073 76.8015 98.3266C74.002 91.5802 70.3123 84.4382 66.1972 77.0983C65.1586 75.2683 64.1397 73.4581 63.1307 71.6775C62.1217 69.8969 61.1226 68.1362 60.0345 66.4743C57.8781 63.1407 55.5436 60.094 53.2486 57.2747C50.9438 54.4555 48.6587 51.8539 46.5023 49.4502C44.3359 47.0464 42.2883 44.8405 40.3198 42.9115C36.4124 39.0339 32.8909 36.2938 30.3981 34.5033C29.1517 33.6032 28.1625 32.9404 27.4898 32.4953C27.1634 32.2875 26.9062 32.1194 26.7183 32.0007C26.5402 31.8919 26.4512 31.8424 26.4512 31.8424C26.4512 31.8523 26.5303 31.9116 26.6985 32.0402C26.8864 32.1688 27.1337 32.3469 27.4503 32.5744C28.113 33.0393 29.0824 33.7219 30.3091 34.6418C32.7623 36.4718 36.2443 39.2416 40.112 43.1292C42.0509 45.068 44.0886 47.2739 46.2352 49.6975C48.3817 52.121 50.647 54.7127 52.942 57.5418C55.227 60.361 57.5417 63.3979 59.6784 66.7216C60.7566 68.3736 61.7458 70.1245 62.7548 71.905C63.7638 73.6856 64.7827 75.4958 65.8115 77.3258C69.9166 84.6558 73.6064 91.778 76.4256 98.5046C79.2547 105.221 81.1836 111.513 82.3212 116.904" fill="#FAFAFA"/>
<path d="M59.9157 66.4743C59.9454 66.4743 59.985 66.1182 60.0344 65.4752C60.0839 64.8322 60.1235 63.8925 60.163 62.7252C60.2323 60.4006 60.2224 57.1956 60.2026 53.6641C60.1828 50.1228 60.2125 46.9277 60.3213 44.613C60.3708 43.4556 60.4202 42.5257 60.4697 41.8729C60.5093 41.2299 60.5191 40.8639 60.4895 40.8639C60.4598 40.8639 60.4004 41.2101 60.3114 41.8531C60.2224 42.4961 60.1235 43.4259 60.0344 44.5932C59.8465 46.9079 59.7674 50.1228 59.7871 53.6641C59.8168 57.156 59.8465 60.3116 59.8762 62.7252C59.8762 63.8133 59.8861 64.7333 59.8861 65.4653C59.8762 66.1083 59.8861 66.4743 59.9157 66.4743Z" fill="#FAFAFA"/>
<path d="M29.814 64.209C29.814 64.2387 30.2393 64.2387 31.001 64.2189C31.7627 64.1991 32.8706 64.1695 34.2357 64.1794C36.9659 64.1695 40.7446 64.2981 44.9092 64.6146C49.0737 64.941 52.8228 65.3961 55.5332 65.8016C56.8884 65.9995 57.9765 66.1874 58.7382 66.3061C59.49 66.4347 59.9153 66.4941 59.9252 66.4644C59.9351 66.4347 59.5197 66.3259 58.7778 66.1479C58.026 65.9698 56.9477 65.7423 55.5925 65.5049C52.892 65.0202 49.1331 64.5157 44.9586 64.1892C40.7842 63.8727 36.9956 63.7936 34.2555 63.8826C32.8805 63.9123 31.7726 63.9914 31.0109 64.0607C30.2294 64.1299 29.814 64.1794 29.814 64.209Z" fill="#FAFAFA"/>
<path d="M76.3759 97.8319C76.3858 97.8319 76.4451 97.7034 76.5342 97.4462C76.643 97.1395 76.7617 96.7735 76.92 96.3185C77.2464 95.3392 77.6915 93.9147 78.2158 92.144C79.2644 88.6126 80.5602 83.6765 81.9253 78.2161C83.2805 72.7557 84.5368 67.8196 85.5062 64.2684C85.981 62.5373 86.3767 61.1227 86.6735 60.0643C86.8021 59.6092 86.901 59.2334 86.9801 58.9168C87.0494 58.6497 87.0791 58.5112 87.0593 58.5112C87.0494 58.5112 86.99 58.6398 86.901 58.897C86.7922 59.2037 86.6735 59.5697 86.5152 60.0148C86.1888 60.9941 85.7436 62.4186 85.2194 64.1892C84.1708 67.7207 82.8749 72.6568 81.5099 78.1172C80.1546 83.5776 78.8984 88.5137 77.9289 92.0649C77.4442 93.796 77.0584 95.2106 76.7617 96.269C76.6331 96.724 76.5342 97.1098 76.455 97.4165C76.3957 97.6836 76.366 97.8221 76.3759 97.8319Z" fill="#FAFAFA"/>
<path d="M35.7891 89.5227C35.7891 89.5326 35.9276 89.582 36.1946 89.6414C36.5112 89.7106 36.9069 89.7898 37.3718 89.8986C38.4599 90.1261 39.9338 90.4228 41.7144 90.7987C45.3843 91.5604 50.4391 92.6584 56.0281 93.8949C61.6171 95.1215 66.6917 96.1899 70.3715 96.8724C72.2114 97.2186 73.7051 97.4758 74.7438 97.6341C75.2186 97.7034 75.6143 97.7627 75.9407 97.8122C76.2177 97.8517 76.3562 97.8616 76.3661 97.8418C76.3661 97.832 76.2276 97.7825 75.9605 97.7231C75.644 97.6539 75.2582 97.5748 74.7833 97.4659C73.6952 97.2384 72.2213 96.9417 70.4408 96.5658C66.7708 95.8041 61.716 94.7061 56.127 93.4696C50.538 92.243 45.4733 91.1845 41.7836 90.502C39.9437 90.1558 38.45 89.8986 37.4114 89.7403C36.9365 89.6711 36.5409 89.6117 36.2144 89.5622C35.9374 89.5227 35.799 89.5029 35.7891 89.5227Z" fill="#FAFAFA"/>
<path d="M220.314 420C288.358 420 343.518 364.84 343.518 296.796C343.518 228.753 288.358 173.593 220.314 173.593C152.271 173.593 97.1104 228.753 97.1104 296.796C97.1104 364.84 152.271 420 220.314 420Z" fill="#E0E0E0"/>
<path d="M220.314 394.028C166.7 394.028 123.086 350.414 123.086 296.8C123.086 243.185 166.7 199.571 220.314 199.571C273.929 199.571 317.543 243.185 317.543 296.8C317.543 350.404 273.929 394.028 220.314 394.028ZM220.314 200.56C167.244 200.56 124.075 243.729 124.075 296.8C124.075 349.87 167.244 393.039 220.314 393.039C273.385 393.039 316.554 349.87 316.554 296.8C316.554 243.729 273.375 200.56 220.314 200.56Z" fill="#FAFAFA"/>
<path d="M220.314 409.529C158.153 409.529 107.575 358.951 107.575 296.79C107.575 234.628 158.153 184.051 220.314 184.051C282.476 184.051 333.054 234.628 333.054 296.79C333.054 358.951 282.476 409.529 220.314 409.529ZM220.314 185.05C158.697 185.05 108.564 235.182 108.564 296.8C108.564 358.417 158.697 408.55 220.314 408.55C281.932 408.55 332.064 358.417 332.064 296.8C332.054 235.182 281.932 185.05 220.314 185.05Z" fill="#FAFAFA"/>
<path d="M220.314 381.099C173.832 381.099 136.015 343.282 136.015 296.8C136.015 250.317 173.832 212.5 220.314 212.5C266.797 212.5 304.614 250.317 304.614 296.8C304.614 343.282 266.797 381.099 220.314 381.099ZM220.314 213.479C174.376 213.479 137.004 250.851 137.004 296.79C137.004 342.728 174.376 380.1 220.314 380.1C266.253 380.1 303.625 342.728 303.625 296.79C303.625 250.851 266.253 213.479 220.314 213.479Z" fill="#FAFAFA"/>
<path d="M220.315 367.894C181.113 367.894 149.221 336.002 149.221 296.8C149.221 257.598 181.113 225.706 220.315 225.706C259.517 225.706 291.408 257.598 291.408 296.8C291.408 336.002 259.517 367.894 220.315 367.894ZM220.315 226.695C181.657 226.695 150.21 258.142 150.21 296.8C150.21 335.458 181.657 366.904 220.315 366.904C258.972 366.904 290.419 335.458 290.419 296.8C290.419 258.142 258.972 226.695 220.315 226.695Z" fill="#FAFAFA"/>
<path d="M220.314 354.351C188.581 354.351 162.763 328.533 162.763 296.8C162.763 265.066 188.581 239.248 220.314 239.248C252.048 239.248 277.866 265.066 277.866 296.8C277.866 328.533 252.048 354.351 220.314 354.351ZM220.314 240.227C189.125 240.227 163.752 265.6 163.752 296.79C163.752 327.979 189.125 353.352 220.314 353.352C251.504 353.352 276.877 327.979 276.877 296.79C276.877 265.6 251.504 240.227 220.314 240.227Z" fill="#FAFAFA"/>
<path d="M220.314 342.164C195.298 342.164 174.95 321.817 174.95 296.8C174.95 271.783 195.298 251.435 220.314 251.435C245.331 251.435 265.679 271.783 265.679 296.8C265.679 321.807 245.321 342.164 220.314 342.164ZM220.314 252.414C195.842 252.414 175.939 272.327 175.939 296.79C175.939 321.263 195.842 341.165 220.314 341.165C244.787 341.165 264.69 321.263 264.69 296.79C264.69 272.327 244.777 252.414 220.314 252.414Z" fill="#FAFAFA"/>
<path d="M258.884 0H211.076V47.8081H258.884V0Z" fill="#EBEBEB"/>
<path d="M271.511 249.612L164.226 257.454L172.839 375.285L280.124 367.443L271.511 249.612Z" fill="#263238"/>
<path d="M268.281 309.135L266.708 274.305L172.991 283.099L176.572 319.284L268.281 309.135Z" fill="#455A64"/>
<path d="M287.897 369.585L167.788 377.657C163.604 377.934 159.983 374.768 159.697 370.584C159.42 366.4 162.585 362.779 166.769 362.493L286.878 354.421C291.062 354.144 294.683 357.309 294.97 361.493C295.247 365.678 292.081 369.298 287.897 369.585Z" fill="#455A64"/>
<path d="M421.32 105.686H21.6235V286.749H421.32V105.686Z" fill="#EBEBEB"/>
<path d="M21.6235 286.749L31.9508 292.131L411.428 291.775L421.32 286.749H21.6235Z" fill="#E0E0E0"/>
<path d="M130.04 269.666L129.328 147.727H316.693V270.922L130.04 269.666Z" fill="#455A64"/>
<path d="M168.699 246.449C175.949 246.074 183.329 247.775 190.57 248.616L186.682 247.587C186.079 240.702 188.72 233.6 193.676 228.782C198.632 223.965 205.804 221.531 212.669 222.333C217.822 222.936 222.887 225.251 228.011 224.39C237.389 222.808 242.216 211.639 251.119 208.296C262.505 204.023 275.77 214.014 286.997 209.335C291.547 207.435 294.851 203.429 299.075 200.887C302.696 198.711 307.938 198.087 310.985 200.58V174.376C307.988 180.183 300.599 183.002 293.941 182.448C286.878 181.865 280.459 178.323 274.325 174.802C268.192 171.28 261.881 167.61 254.858 166.71C244.867 165.424 235.173 169.895 225.479 172.625C216.724 175.089 207.297 176.157 198.563 173.625C198.276 173.545 197.989 173.427 197.702 173.328C196.604 174.357 195.417 175.257 194.062 175.919C186.623 179.52 176.701 174.693 169.915 179.401C165.85 182.221 164.435 187.503 161.448 191.45C155.938 198.73 142.663 200.837 135.036 195.733V255.975L135.066 263.77H139.062C145.551 253.878 156.828 247.073 168.699 246.449ZM283.476 192.716C283.921 192.36 284.445 192.123 284.999 191.984C285.068 191.964 285.137 191.925 285.217 191.905L285.137 191.945C286.908 191.559 288.956 192.251 289.945 193.804C291.261 195.882 290.38 199.017 288.174 200.105C285.968 201.194 282.941 199.977 282.101 197.662C281.428 195.802 282.308 193.606 283.921 192.508L283.476 192.716Z" fill="#FAFAFA"/>
<path d="M310.986 200.59C307.939 198.087 302.696 198.72 299.076 200.897C294.852 203.429 291.548 207.445 286.997 209.345C275.77 214.023 262.505 204.023 251.119 208.306C242.216 211.649 237.389 222.817 228.011 224.4C222.897 225.261 217.823 222.946 212.669 222.343C205.804 221.541 198.632 223.975 193.676 228.792C188.72 233.61 186.079 240.712 186.683 247.597L190.57 248.626C196.218 249.279 201.788 249.397 207.149 247.587C222.6 242.364 231.019 222.689 247.222 220.809C256.204 219.771 265.186 224.766 274.098 223.253C281.329 222.016 287.096 216.773 293.071 212.52C298.947 208.336 304.813 204.349 311.49 206.792V201.065C311.332 200.887 311.164 200.729 310.986 200.59Z" fill="#E8505B"/>
<path d="M293.081 212.51C287.106 216.764 281.339 222.016 274.108 223.243C265.195 224.766 256.213 219.761 247.232 220.799C231.028 222.669 222.61 242.344 207.159 247.577C201.798 249.387 196.228 249.269 190.58 248.616C183.339 247.785 175.96 246.074 168.709 246.449C156.829 247.063 145.562 253.868 139.062 263.78H143C146.788 259.843 151.794 257.123 157.244 255.787C165.148 253.859 173.863 255.54 180.48 260.269C182.004 261.357 183.428 262.593 184.872 263.82L214.37 263.849C215.676 263.117 216.982 262.385 218.317 261.703C223.659 258.993 229.762 257.113 235.618 258.35C239.219 259.111 242.622 261.08 244.65 263.879L276.225 263.909C277.274 261.812 279.084 260.1 281.329 259.418C283.713 258.696 286.463 258.963 288.491 257.528C290.865 255.857 291.31 252.612 292.27 249.882C294.951 242.295 303.606 237.378 311.5 238.872V206.763C304.823 204.339 298.957 208.316 293.081 212.51ZM265.166 257.558C260.141 260.031 253.256 257.261 251.357 251.989C249.863 247.834 251.742 242.908 255.284 240.366L254.502 240.732C255.383 240.039 256.372 239.535 257.42 239.208C257.757 239.08 258.093 238.981 258.449 238.892L258.271 238.971C262.307 238.091 266.956 239.673 269.202 243.205C272.189 247.943 270.191 255.085 265.166 257.558ZM300.193 221.739C298.848 222.402 296.998 221.66 296.494 220.246C296.088 219.108 296.622 217.773 297.602 217.11L297.335 217.238C297.612 217.021 297.928 216.882 298.264 216.793C298.304 216.783 298.353 216.754 298.393 216.744L298.344 216.764C299.422 216.526 300.668 216.951 301.272 217.901C302.083 219.167 301.539 221.076 300.193 221.739Z" fill="#E8505B"/>
<path d="M292.26 249.902C291.29 252.632 290.845 255.877 288.481 257.548C286.443 258.983 283.693 258.706 281.319 259.438C279.074 260.12 277.263 261.841 276.215 263.929L311.5 263.968V238.892C303.596 237.398 294.95 242.315 292.26 249.902Z" fill="#E8505B"/>
<path d="M157.234 255.797C151.783 257.123 146.788 259.853 142.989 263.79L184.862 263.83C183.428 262.603 181.993 261.357 180.47 260.278C173.842 255.55 165.137 253.868 157.234 255.797Z" fill="#E8505B"/>
<path d="M235.598 258.369C229.732 257.123 223.639 259.012 218.297 261.723C216.962 262.395 215.656 263.127 214.35 263.869L244.63 263.899C242.602 261.099 239.199 259.131 235.598 258.369Z" fill="#E8505B"/>
<path d="M223.372 161.586C218.099 161.982 212.471 161.072 207.782 163.515C203.588 165.701 201.036 170.152 197.593 173.367C197.88 173.466 198.167 173.575 198.454 173.664C207.189 176.196 216.616 175.128 225.37 172.665C235.064 169.935 244.758 165.473 254.749 166.75C261.773 167.65 268.084 171.32 274.217 174.841C280.35 178.363 286.77 181.904 293.833 182.488C300.49 183.042 307.869 180.222 310.876 174.416V172.151V152.822L235.153 152.782C234.777 157.995 228.615 161.2 223.372 161.586Z" fill="#E8505B"/>
<path d="M282.091 197.662C282.922 199.977 285.949 201.194 288.164 200.105C290.37 199.017 291.251 195.882 289.935 193.804C288.946 192.251 286.908 191.559 285.128 191.944L285.207 191.905C285.128 191.925 285.068 191.964 284.989 191.984C284.435 192.123 283.921 192.36 283.466 192.716L283.901 192.508C282.308 193.606 281.428 195.802 282.091 197.662Z" fill="#E8505B"/>
<path d="M258.261 238.981L258.439 238.902C258.083 238.981 257.747 239.09 257.411 239.218C256.362 239.545 255.363 240.049 254.492 240.742L255.274 240.376C251.742 242.908 249.853 247.844 251.347 251.999C253.246 257.271 260.131 260.041 265.156 257.568C270.181 255.095 272.189 247.953 269.182 243.225C266.946 239.683 262.297 238.101 258.261 238.981Z" fill="#E8505B"/>
<g opacity="0.3">
<g opacity="0.3">
<path opacity="0.3" d="M258.261 238.981L258.439 238.902C258.083 238.981 257.747 239.09 257.411 239.218C256.362 239.545 255.363 240.049 254.492 240.742L255.274 240.376C251.742 242.908 249.853 247.844 251.347 251.999C253.246 257.271 260.131 260.041 265.156 257.568C270.181 255.095 272.189 247.953 269.182 243.225C266.946 239.683 262.297 238.101 258.261 238.981Z" fill="white"/>
</g>
</g>
<path d="M301.271 217.901C300.668 216.951 299.422 216.536 298.343 216.764L298.393 216.744C298.343 216.754 298.304 216.773 298.264 216.793C297.928 216.882 297.611 217.021 297.334 217.238L297.602 217.11C296.622 217.772 296.088 219.118 296.494 220.246C296.998 221.66 298.848 222.402 300.193 221.739C301.539 221.076 302.083 219.167 301.271 217.901Z" fill="#E8505B"/>
<path d="M161.448 191.46C164.435 187.513 165.85 182.231 169.916 179.411C176.701 174.703 186.623 179.53 194.062 175.929C195.427 175.267 196.604 174.366 197.702 173.338C201.135 170.123 203.687 165.671 207.891 163.485C212.58 161.042 218.208 161.952 223.481 161.556C228.723 161.17 234.777 157.995 235.153 152.782C235.153 152.752 235.153 152.812 235.153 152.782H207.04H134.68L134.829 195.614C134.898 195.664 134.967 195.694 135.036 195.743C142.663 200.847 155.938 198.74 161.448 191.46Z" fill="#E8505B"/>
<g opacity="0.3">
<g opacity="0.3">
<path opacity="0.3" d="M310.986 200.59C307.939 198.087 302.696 198.72 299.076 200.897C294.852 203.429 291.548 207.445 286.997 209.345C275.77 214.023 262.505 204.023 251.119 208.306C242.216 211.649 237.389 222.817 228.011 224.4C222.897 225.261 217.823 222.946 212.669 222.343C205.804 221.541 198.632 223.975 193.676 228.792C188.72 233.61 186.079 240.712 186.683 247.597L190.57 248.626C196.218 249.279 201.788 249.397 207.149 247.587C222.6 242.364 231.019 222.689 247.222 220.809C256.204 219.771 265.186 224.766 274.098 223.253C281.329 222.016 287.096 216.773 293.071 212.52C298.947 208.336 304.813 204.349 311.49 206.792V201.065C311.332 200.887 311.164 200.729 310.986 200.59Z" fill="white"/>
</g>
</g>
<g opacity="0.3">
<g opacity="0.3">
<path opacity="0.3" d="M207.04 152.782H134.68L134.829 195.615C134.898 195.664 134.967 195.694 135.036 195.743C142.663 200.847 155.938 198.74 161.448 191.46C164.435 187.513 165.85 182.231 169.916 179.411C176.701 174.703 186.623 179.53 194.062 175.929C195.427 175.267 196.604 174.366 197.702 173.338C201.135 170.123 203.687 165.671 207.891 163.485C212.58 161.042 218.208 161.952 223.481 161.556C228.723 161.171 234.777 157.995 235.153 152.782" fill="white"/>
</g>
</g>
<path d="M422.676 199.215C422.646 199.166 423.329 198.938 424.229 197.998C425.129 197.088 426.069 195.278 426.148 192.815C426.177 191.598 425.999 190.203 425.366 188.848C424.753 187.503 423.665 186.217 422.211 185.277C419.312 183.338 414.92 182.963 410.875 184.704C406.759 186.346 403.08 189.61 399.034 192.874C396.986 194.497 394.79 196.119 392.248 197.316C389.696 198.493 386.827 199.156 383.859 199.205C377.954 199.255 371.643 196.821 367.32 191.974C365.144 189.6 363.492 186.642 362.691 183.398C361.919 180.183 362.028 176.513 363.828 173.506C364.709 172.022 365.905 170.716 367.35 169.796C368.774 168.847 370.495 168.322 372.207 168.392C373.918 168.5 375.55 169.282 376.737 170.459C377.924 171.656 378.686 173.169 379.131 174.732C380.002 177.858 379.705 181.281 378.132 184.021C376.549 186.741 373.918 188.66 371.119 189.63C368.299 190.609 365.322 190.757 362.552 190.283C359.782 189.798 357.23 188.789 354.886 187.622C350.197 185.257 346.28 182.349 342.452 180.133C338.653 177.878 334.934 176.266 331.471 175.722C328.009 175.168 324.933 175.682 322.658 176.612C320.363 177.532 318.859 178.788 317.969 179.738C317.751 179.975 317.563 180.193 317.395 180.371C317.247 180.559 317.118 180.727 317.019 180.865C316.811 181.133 316.703 181.261 316.703 181.261C316.703 181.261 316.792 181.113 316.98 180.836C317.079 180.697 317.197 180.519 317.336 180.321C317.504 180.133 317.682 179.906 317.9 179.659C318.77 178.689 320.274 177.383 322.588 176.424C324.883 175.464 327.999 174.91 331.521 175.435C335.042 175.959 338.821 177.571 342.639 179.817C346.497 182.033 350.424 184.921 355.074 187.236C357.398 188.383 359.911 189.373 362.631 189.828C365.332 190.283 368.24 190.134 370.97 189.175C373.69 188.235 376.213 186.375 377.717 183.764C379.2 181.162 379.497 177.858 378.656 174.861C378.221 173.367 377.499 171.923 376.381 170.805C375.263 169.707 373.77 168.995 372.187 168.886C370.604 168.827 368.992 169.302 367.637 170.212C366.262 171.082 365.124 172.329 364.283 173.753C362.572 176.612 362.453 180.143 363.205 183.269C363.986 186.415 365.589 189.313 367.716 191.628C371.93 196.366 378.102 198.76 383.879 198.721C386.778 198.681 389.587 198.038 392.08 196.89C394.572 195.723 396.749 194.131 398.796 192.518C402.842 189.284 406.562 185.99 410.766 184.338C414.901 182.587 419.421 182.992 422.399 185.01C423.892 185.99 425.01 187.315 425.623 188.72C426.257 190.124 426.425 191.549 426.375 192.785C426.266 195.298 425.267 197.128 424.338 198.038C424.12 198.285 423.892 198.463 423.685 198.612C423.487 198.77 423.319 198.879 423.16 198.958C422.834 199.146 422.676 199.215 422.676 199.215Z" fill="#263238"/>
<g opacity="0.3">
<g opacity="0.3">
<path opacity="0.3" d="M292.26 249.902C291.29 252.632 290.845 255.877 288.481 257.548C286.443 258.983 283.693 258.706 281.319 259.438C279.074 260.12 277.263 261.841 276.215 263.929L311.5 263.968V238.892C303.596 237.398 294.95 242.315 292.26 249.902Z" fill="black"/>
</g>
</g>
<g opacity="0.3">
<g opacity="0.3">
<path opacity="0.3" d="M301.271 217.901C300.668 216.951 299.421 216.536 298.343 216.764L298.392 216.744C298.343 216.754 298.303 216.773 298.264 216.793C297.927 216.882 297.611 217.021 297.334 217.238L297.601 217.11C296.622 217.772 296.088 219.118 296.493 220.246C296.998 221.66 298.847 222.402 300.193 221.739C301.538 221.076 302.082 219.167 301.271 217.901Z" fill="black"/>
</g>
</g>
<g opacity="0.3">
<g opacity="0.3">
<path opacity="0.3" d="M157.234 255.797C151.783 257.123 146.788 259.853 142.989 263.79L184.862 263.83C183.428 262.603 181.993 261.357 180.47 260.278C173.842 255.55 165.137 253.868 157.234 255.797Z" fill="black"/>
</g>
</g>
<g opacity="0.3">
<g opacity="0.3">
<path opacity="0.3" d="M235.598 258.369C229.732 257.123 223.639 259.012 218.297 261.723C216.962 262.395 215.656 263.127 214.35 263.869L244.63 263.899C242.602 261.099 239.199 259.131 235.598 258.369Z" fill="black"/>
</g>
</g>
<path d="M334.587 280.537L299.263 218.237L296.384 212.668C295.059 210.106 292.507 208.405 289.628 208.167L283.93 207.693C283.93 207.693 284.346 201.085 281.269 201.609C279.281 201.945 272.09 208.128 273.484 209.948C274.879 211.768 278.964 207.069 278.964 207.069L280.518 218.623C280.518 218.623 269.686 212.322 267.935 212.688C266.194 213.054 266.115 214.983 267.5 215.794C275.779 220.681 279.133 227.299 279.934 229.138L279.904 229.158L304.921 285.038L296.365 291.874L306.524 318.434L327.92 303.793C336.437 299.421 339.494 288.758 334.587 280.537Z" fill="#FFBE9D"/>
<path d="M262.942 206.911L261.907 206.372L261.811 206.556L262.846 207.096L262.942 206.911Z" fill="#263238"/>
<path d="M262.831 206.723L267.272 206.842L292.537 220.74C293.447 221.245 293.793 222.382 293.298 223.302C292.804 224.232 291.646 224.588 290.716 224.094L265.64 210.69L262.593 207.228C262.425 207.03 262.574 206.713 262.831 206.723Z" fill="#263238"/>
<path d="M290.014 219.355L288.224 222.788L287.195 222.254L289.005 218.791L290.014 219.355Z" fill="#455A64"/>
<path d="M188.482 220.621C186.712 220.443 180.005 226.418 180.005 226.418L176.691 214.478C176.691 214.478 181.133 214.874 182.32 212.916C183.517 210.957 171.468 211.145 171.201 212.47C170.924 213.796 171.893 217.397 171.893 217.397L167.333 218.277C163.495 219.019 160.587 222.155 160.132 226.032L159.39 232.413L159.519 232.462L124.224 291.418C118.615 300.786 120.534 312.825 128.784 319.987L164.138 345.102L177.334 316.336L151.199 299.164L181.143 241.395C181.143 241.395 187.889 224.489 189.254 223.648C190.619 222.827 190.253 220.799 188.482 220.621Z" fill="#FFBE9D"/>
<path d="M311.925 320.066L311.509 315.961C311.015 311.104 308.561 306.652 304.713 303.645C300.203 300.123 297.641 294.643 297.838 288.926L297.898 287.224L279.825 298.323C279.825 298.323 277.204 300.015 274.444 302.705L274.404 302.616C274.404 302.616 254.427 296.192 223.065 299.312C210.272 300.585 192.399 305.248 179.767 311.44L158.529 303.764L160.359 305.198C161.368 310.837 159.489 315.822 155.522 319.957C152.139 323.479 150.339 328.237 150.546 333.113L150.724 337.238C150.724 337.238 163.396 345.498 172.616 348.604C172.734 348.644 172.843 348.673 172.952 348.703C183.704 353.501 200.877 358.981 222.184 358.11C256.678 356.706 285.028 338.336 288.748 335.834C297.502 331.303 311.925 320.066 311.925 320.066Z" fill="#F21833"/>
<path d="M179.758 311.44C179.768 311.43 179.897 311.529 180.134 311.737C180.371 311.935 180.708 312.261 181.133 312.676C181.974 313.517 183.161 314.783 184.368 316.554C185.575 318.315 186.801 320.59 187.583 323.32C188.364 326.031 188.839 329.196 188.344 332.46C188.117 334.093 187.612 335.636 186.95 337.04C186.267 338.445 185.476 339.682 184.674 340.849C183.052 343.173 181.202 344.994 179.392 346.161C177.611 347.368 175.95 347.951 174.822 348.317C174.248 348.495 173.803 348.604 173.496 348.664C173.19 348.733 173.031 348.753 173.022 348.743C173.012 348.693 173.645 348.535 174.763 348.129C175.861 347.714 177.473 347.081 179.194 345.864C180.935 344.687 182.716 342.877 184.289 340.582C185.07 339.434 185.852 338.178 186.504 336.823C187.137 335.458 187.622 333.964 187.84 332.381C188.325 329.216 187.879 326.12 187.128 323.449C186.376 320.768 185.218 318.513 184.061 316.752C182.904 314.991 181.776 313.695 180.985 312.815C180.193 311.934 179.728 311.47 179.758 311.44Z" fill="#263238"/>
<g opacity="0.2">
<g opacity="0.2">
<path opacity="0.2" d="M278.312 341.937C281.102 339.939 279.717 335.883 276.611 334.409C273.505 332.945 269.845 333.826 266.58 334.894C256.045 338.336 246.084 343.381 235.559 346.873C225.034 350.355 213.53 352.225 202.886 349.109C195.477 346.932 190.491 342.066 182.825 342.936C179.333 343.332 178.245 347.773 173.071 348.842C173.071 348.842 182.676 353.362 196.268 356.122C204.835 357.863 215.043 358.704 225.212 357.932C235.322 357.161 245.748 354.895 254.453 352.056C268.381 347.526 278.312 341.937 278.312 341.937Z" fill="black"/>
</g>
</g>
<g opacity="0.2">
<path opacity="0.2" d="M188.117 325.961C188.117 325.961 189.027 316.584 183.379 310.916L179.61 311.479C179.61 311.479 184.576 315.06 188.117 325.961Z" fill="black"/>
</g>
<path d="M206.071 301.063C205.873 301.578 207.98 323.251 207.98 323.251C207.98 323.251 218.97 338.593 236.252 323.657L238.339 300.025L206.071 301.063Z" fill="#FFBE9D"/>
<g opacity="0.2">
<path opacity="0.2" d="M207.733 323.548C207.733 323.548 203.087 312.037 201.797 303.475L205.613 302.775L206.551 304.377L207.733 323.548Z" fill="black"/>
</g>
<path d="M298.769 329.394C298.779 329.414 298.631 329.513 298.344 329.691C298.057 329.869 297.631 330.126 297.068 330.423C295.94 331.016 294.258 331.867 292.003 332.371C290.875 332.619 289.609 332.777 288.244 332.678C286.889 332.559 285.454 332.282 284.01 331.788C281.122 330.808 278.184 328.949 275.879 326.258C274.732 324.923 273.802 323.449 273.119 321.925C272.446 320.392 271.972 318.879 271.576 317.415C270.824 314.467 270.616 311.677 270.973 309.392C271.289 307.097 272.169 305.376 272.872 304.318C273.218 303.774 273.544 303.398 273.782 303.15C274.009 302.903 274.128 302.775 274.148 302.784C274.158 302.794 274.059 302.943 273.861 303.22C273.653 303.487 273.357 303.873 273.04 304.426C272.397 305.505 271.596 307.196 271.329 309.442C271.022 311.677 271.269 314.398 272.031 317.296C272.427 318.73 272.911 320.244 273.574 321.728C274.247 323.201 275.147 324.626 276.265 325.932C280.776 331.194 287.571 333.084 291.924 332.025C294.14 331.57 295.821 330.779 296.969 330.254C298.126 329.691 298.749 329.354 298.769 329.394Z" fill="#263238"/>
<path d="M274.148 323.914C274.148 323.924 274.088 323.963 273.95 324.042C273.792 324.131 273.594 324.24 273.356 324.379C272.792 324.685 272.021 325.101 271.042 325.625C270.042 326.169 268.806 326.822 267.332 327.485C265.858 328.157 264.216 329.008 262.317 329.75C260.437 330.531 258.38 331.402 256.105 332.174C253.859 333.024 251.406 333.766 248.824 334.558C243.641 336.041 237.844 337.367 231.681 338.267C225.509 339.128 219.573 339.474 214.182 339.523C212.837 339.513 211.521 339.503 210.245 339.484C208.969 339.484 207.733 339.375 206.536 339.325C204.142 339.236 201.916 339.009 199.888 338.821C197.851 338.663 196.03 338.356 194.428 338.158C192.816 337.96 191.45 337.713 190.323 337.515C189.235 337.317 188.374 337.159 187.741 337.04C187.474 336.981 187.256 336.941 187.068 336.902C186.92 336.872 186.841 336.843 186.841 336.843C186.841 336.833 186.92 336.843 187.078 336.852C187.266 336.872 187.484 336.902 187.751 336.941C188.384 337.031 189.254 337.159 190.343 337.317C191.47 337.495 192.845 337.713 194.448 337.881C196.05 338.049 197.87 338.336 199.908 338.465C201.936 338.633 204.152 338.841 206.546 338.9C207.743 338.94 208.979 339.039 210.245 339.029C211.521 339.029 212.827 339.039 214.172 339.039C219.544 338.959 225.449 338.603 231.602 337.743C237.735 336.843 243.512 335.537 248.686 334.093C251.258 333.321 253.711 332.599 255.946 331.758C258.212 331.006 260.279 330.156 262.159 329.394C264.058 328.672 265.71 327.851 267.194 327.208C268.677 326.565 269.924 325.942 270.933 325.427C271.922 324.942 272.713 324.557 273.287 324.27C273.534 324.151 273.742 324.062 273.91 323.983C274.069 323.933 274.138 323.904 274.148 323.914Z" fill="#263238"/>
<g opacity="0.2">
<g opacity="0.2">
<path opacity="0.2" d="M217.704 329.325C216.893 331.432 217.189 333.924 218.485 335.774C219.781 337.624 222.027 338.772 224.282 338.722C225.311 338.702 226.379 338.465 227.339 338.831C228.496 339.286 229.139 340.483 229.901 341.462C232.186 344.39 236.36 345.686 239.901 344.558C243.443 343.431 246.094 339.959 246.262 336.249C246.292 335.547 246.272 334.765 246.727 334.221C247.716 333.074 249.497 334.192 250.842 334.884C254.255 336.665 258.845 334.884 260.724 331.531C262.604 328.177 262.01 323.785 259.854 320.6C257.687 317.415 254.176 315.337 250.496 314.21C248.132 313.488 245.55 313.052 243.7 311.42C241.039 309.056 240.792 305.05 240.742 301.489" fill="black"/>
</g>
</g>
<path d="M245.836 262.049C248.25 267.351 249.516 270.408 249.882 276.056C250.555 286.344 248.24 294.811 242.611 303.447C242.572 303.507 242.651 303.388 242.611 303.447C238.496 309.719 226.171 317.543 222.521 318.592C218.871 319.65 204.359 310.609 201.421 300.45C198.483 290.281 194.714 284.118 199.71 266.362C204.834 248.161 229.346 247.508 229.346 247.508C229.346 247.508 245.816 247.518 248.824 257.064C251.841 266.609 245.836 262.049 245.836 262.049Z" fill="#263238"/>
<path d="M231.819 281.16C231.74 281.151 231.799 280.26 231.859 278.836C231.888 277.421 231.918 275.403 231.038 273.455C230.187 271.476 228.416 270.388 227.091 270.032C225.736 269.656 224.835 269.824 224.826 269.725C224.806 269.686 225.716 269.379 227.18 269.676C227.902 269.834 228.743 270.161 229.534 270.744C230.335 271.328 231.048 272.198 231.513 273.237C232.452 275.334 232.353 277.441 232.225 278.856C232.066 280.29 231.879 281.16 231.819 281.16Z" fill="#455A64"/>
<path d="M233.412 262.771C233.372 262.84 232.888 262.554 232.047 262.257C231.216 261.96 230.009 261.693 228.674 261.812C227.338 261.93 226.201 262.395 225.429 262.831C224.658 263.266 224.232 263.632 224.183 263.572C224.143 263.533 224.48 263.058 225.241 262.524C225.993 261.99 227.2 261.426 228.634 261.297C230.069 261.169 231.355 261.515 232.185 261.921C233.036 262.316 233.452 262.722 233.412 262.771Z" fill="#F5F5F5"/>
<path d="M245.342 262.732C245.263 262.801 244.541 261.584 242.809 260.209C241.118 258.844 238.259 257.42 234.906 257.449C231.552 257.499 228.723 259.002 227.071 260.407C225.38 261.822 224.697 263.048 224.608 262.989C224.579 262.969 224.727 262.662 225.073 262.138C225.419 261.614 225.993 260.902 226.824 260.14C228.456 258.626 231.374 256.994 234.896 256.945C238.408 256.905 241.365 258.458 243.037 259.932C243.888 260.674 244.481 261.376 244.847 261.891C245.213 262.405 245.372 262.712 245.342 262.732Z" fill="#455A64"/>
<path d="M239.763 248.833C239.773 248.922 238.487 249.002 236.538 249.585C234.589 250.159 231.978 251.366 229.703 253.473C227.428 255.59 226.033 258.112 225.311 260.001C224.579 261.911 224.411 263.187 224.322 263.167C224.292 263.167 224.302 262.84 224.381 262.267C224.46 261.693 224.638 260.872 224.965 259.883C225.607 257.914 226.992 255.283 229.347 253.097C231.701 250.911 234.431 249.724 236.439 249.229C237.448 248.972 238.289 248.863 238.863 248.824C239.446 248.784 239.763 248.804 239.763 248.833Z" fill="#F5F5F5"/>
<path d="M224.262 248.725C224.331 248.784 223.718 249.427 223.045 250.663C222.373 251.88 221.7 253.75 221.72 255.886C221.74 258.013 222.452 259.873 223.144 261.08C223.837 262.296 224.46 262.939 224.391 262.999C224.361 263.038 223.629 262.484 222.828 261.268C222.026 260.071 221.225 258.132 221.205 255.886C221.186 253.641 221.957 251.692 222.729 250.476C223.51 249.249 224.232 248.685 224.262 248.725Z" fill="#455A64"/>
<path d="M210.621 252.404C210.72 252.395 210.71 253.453 211.383 254.947C212.026 256.44 213.47 258.29 215.587 259.616C217.713 260.941 219.929 261.604 221.522 262.059C223.124 262.514 224.123 262.771 224.104 262.85C224.094 262.91 223.065 262.781 221.433 262.415C219.811 262.039 217.526 261.426 215.32 260.051C213.104 258.666 211.64 256.688 211.056 255.085C210.759 254.284 210.631 253.601 210.601 253.136C210.552 252.672 210.591 252.404 210.621 252.404Z" fill="#455A64"/>
<path d="M218.149 295.652C218.139 295.672 217.98 295.632 217.664 295.534C217.347 295.454 216.892 295.286 216.319 295.059C215.171 294.594 213.549 293.763 211.808 292.358C210.096 290.944 208.266 288.916 207.02 286.215C205.754 283.535 205.259 280.161 205.873 276.788C206.506 273.425 208.217 270.428 210.492 268.509C212.767 266.57 215.379 265.64 217.585 265.333C219.81 265.046 221.64 265.323 222.827 265.689C223.421 265.877 223.876 266.046 224.163 266.194C224.46 266.332 224.608 266.412 224.608 266.431C224.588 266.491 223.965 266.184 222.778 265.887C221.591 265.59 219.801 265.373 217.644 265.699C215.507 266.046 212.975 266.985 210.809 268.875C208.632 270.744 206.99 273.633 206.377 276.897C205.784 280.161 206.249 283.426 207.445 286.037C208.623 288.669 210.383 290.677 212.035 292.091C213.707 293.506 215.28 294.366 216.388 294.891C217.515 295.405 218.168 295.603 218.149 295.652Z" fill="#455A64"/>
<path d="M216.833 306.098C216.823 306.118 216.616 306.019 216.22 305.811C215.824 305.614 215.241 305.307 214.519 304.862C213.074 303.991 211.037 302.587 208.84 300.48C206.674 298.363 204.33 295.543 202.46 291.982C201.52 290.212 200.699 288.253 200.047 286.166C199.423 284.069 198.978 281.813 199.038 279.469C199.077 277.125 199.71 274.849 200.759 272.911C201.797 270.952 203.212 269.32 204.735 268.004C207.832 265.343 211.422 264.166 214.4 263.691C217.417 263.226 219.89 263.394 221.572 263.602C222.412 263.711 223.055 263.83 223.491 263.919C223.926 264.018 224.153 264.077 224.153 264.087C224.153 264.107 223.916 264.077 223.481 264.018C223.045 263.958 222.393 263.869 221.552 263.79C219.88 263.642 217.427 263.533 214.469 264.037C211.541 264.562 208.039 265.749 205.052 268.35C202.074 270.883 199.601 274.879 199.552 279.469C199.502 281.734 199.928 283.95 200.531 286.008C201.164 288.065 201.956 289.994 202.876 291.755C204.696 295.286 206.981 298.086 209.098 300.212C211.234 302.319 213.223 303.764 214.627 304.684C216.022 305.633 216.863 306.049 216.833 306.098Z" fill="#455A64"/>
<path d="M240.732 295.484C240.623 295.425 242.226 293.516 243.364 289.786C243.908 287.927 244.303 285.622 244.175 283.07C244.056 280.518 243.383 277.738 241.998 275.126C239.239 269.864 234.451 266.649 230.751 265.66C228.882 265.145 227.289 265.205 226.231 265.432C225.172 265.67 224.638 265.966 224.618 265.917C224.608 265.897 224.737 265.818 224.994 265.689C225.251 265.551 225.647 265.393 226.181 265.244C227.249 264.957 228.901 264.839 230.83 265.314C232.759 265.788 234.936 266.817 237.003 268.42C239.07 270.012 241.029 272.218 242.444 274.899C243.868 277.57 244.551 280.448 244.64 283.06C244.748 285.681 244.303 288.026 243.71 289.905C243.096 291.784 242.335 293.199 241.741 294.129C241.454 294.594 241.197 294.94 241.019 295.168C240.851 295.385 240.752 295.504 240.732 295.484Z" fill="#455A64"/>
<path d="M388.083 27.8065H235.766V141.386H388.083V27.8065Z" fill="white"/>
<path d="M388.083 141.386C388.083 141.386 388.063 140.674 388.063 139.309C388.053 137.934 388.053 135.916 388.043 133.275C388.033 127.983 388.014 120.237 387.994 110.335C387.964 90.5515 387.935 62.1812 387.885 27.8164L388.093 28.0241C345.162 28.034 292.556 28.0538 235.786 28.0735H235.776L236.033 27.8164C236.023 68.6308 236.013 107.289 236.003 141.386L235.766 141.149C280.854 141.199 318.908 141.238 345.696 141.268C359.099 141.297 369.684 141.317 376.925 141.327C380.545 141.337 383.325 141.347 385.214 141.357C386.154 141.367 386.866 141.367 387.351 141.367C387.826 141.377 388.083 141.386 388.083 141.386C388.083 141.386 387.846 141.396 387.381 141.396C386.896 141.396 386.194 141.406 385.274 141.406C383.394 141.416 380.634 141.426 377.034 141.436C369.803 141.446 359.238 141.475 345.854 141.495C319.027 141.525 280.923 141.565 235.776 141.614H235.538V141.377C235.528 107.269 235.519 68.611 235.519 27.8065V27.5493H235.776H235.786C292.546 27.5691 345.162 27.5789 388.093 27.5987H388.301V27.8065C388.251 62.2207 388.221 90.6306 388.192 110.454C388.172 120.336 388.152 128.072 388.142 133.354C388.132 135.976 388.123 137.984 388.123 139.349C388.093 140.704 388.083 141.386 388.083 141.386Z" fill="#263238"/>
<path d="M406.918 94.8643H314.299V130.871H406.918V94.8643Z" fill="#FAFAFA"/>
<path d="M406.918 130.861C406.918 130.861 406.908 130.634 406.898 130.218C406.898 129.783 406.888 129.16 406.878 128.349C406.868 126.697 406.848 124.293 406.838 121.197C406.819 114.985 406.779 106.013 406.739 94.8643L406.918 95.0424C383.661 95.0622 350.751 95.0919 314.309 95.1215H314.299L314.556 94.8643C314.556 107.457 314.546 119.614 314.546 130.871L314.299 130.624C341.076 130.673 364.194 130.713 380.634 130.743C388.855 130.772 395.413 130.792 399.934 130.812C402.179 130.822 403.91 130.832 405.107 130.842C405.691 130.851 406.136 130.851 406.453 130.861C406.749 130.851 406.918 130.861 406.918 130.861C406.918 130.861 406.779 130.871 406.482 130.881C406.166 130.881 405.73 130.891 405.167 130.901C403.98 130.911 402.268 130.921 400.043 130.931C395.542 130.95 389.003 130.97 380.803 131C364.313 131.03 341.136 131.069 314.299 131.119H314.051V130.871C314.051 119.624 314.042 107.457 314.042 94.8643V94.6071H314.299H314.309C350.761 94.6368 383.661 94.6665 406.918 94.6863H407.096V94.8643C407.056 106.052 407.026 115.074 406.997 121.306C406.977 124.392 406.967 126.776 406.957 128.418C406.947 129.209 406.947 129.823 406.937 130.258C406.927 130.664 406.918 130.861 406.918 130.861Z" fill="#263238"/>
<path d="M406.918 94.8643H314.299V102.58H406.918V94.8643Z" fill="#263238"/>
<path d="M334.399 108.456H325.309V117.547H334.399V108.456Z" fill="#263238"/>
<path d="M339.899 113.966H330.809V123.057H339.899V113.966Z" fill="#263238"/>
<path d="M356.073 108.456H346.982V117.547H356.073V108.456Z" fill="#263238"/>
<path d="M361.583 113.966H352.492V123.057H361.583V113.966Z" fill="#F5F5F5"/>
<path d="M361.592 123.066C361.573 123.047 361.563 122.809 361.543 122.364C361.523 121.85 361.503 121.236 361.484 120.495C361.444 118.892 361.395 116.647 361.375 113.976L361.602 114.203C358.931 114.213 355.825 114.223 352.511 114.243C352.452 114.302 352.996 113.758 352.769 113.986V113.995V114.015V114.055V114.134V114.292V114.599V115.212C352.769 115.618 352.769 116.023 352.769 116.429C352.769 117.23 352.769 118.012 352.759 118.783C352.749 120.307 352.739 121.741 352.729 123.076L352.502 122.849C355.182 122.869 357.428 122.918 359.02 122.958C359.762 122.977 360.386 122.997 360.89 123.017C361.325 123.027 361.573 123.047 361.592 123.066C361.612 123.086 361.395 123.096 360.989 123.116C360.494 123.136 359.891 123.155 359.169 123.175C357.586 123.215 355.281 123.264 352.502 123.284H352.284V123.057C352.274 121.721 352.264 120.287 352.254 118.763C352.254 118.002 352.254 117.21 352.244 116.409C352.244 116.004 352.244 115.598 352.244 115.192V114.579V114.272V114.114V114.035V113.995V113.976V113.966C352.017 114.193 352.561 113.649 352.502 113.709C355.815 113.718 358.931 113.728 361.592 113.748H361.82V113.966C361.8 116.745 361.751 119.05 361.711 120.633C361.691 121.355 361.671 121.959 361.652 122.453C361.622 122.869 361.602 123.076 361.592 123.066Z" fill="#263238"/>
<path d="M376.302 108.456H367.211V117.547H376.302V108.456Z" fill="#F5F5F5"/>
<path d="M376.312 117.557C376.292 117.537 376.282 117.299 376.262 116.854C376.242 116.34 376.223 115.727 376.203 114.985C376.163 113.382 376.114 111.137 376.094 108.466L376.321 108.693C373.651 108.703 370.545 108.713 367.231 108.733C367.171 108.792 367.715 108.248 367.488 108.476V108.486V108.505V108.545V108.624V108.782V109.089V109.702C367.488 110.108 367.488 110.514 367.488 110.919C367.488 111.72 367.488 112.502 367.478 113.273C367.468 114.797 367.458 116.231 367.448 117.566L367.221 117.339C369.902 117.359 372.147 117.408 373.74 117.448C374.482 117.468 375.105 117.487 375.609 117.507C376.044 117.517 376.292 117.537 376.312 117.557C376.331 117.576 376.114 117.586 375.708 117.606C375.214 117.626 374.61 117.646 373.888 117.665C372.305 117.705 370 117.754 367.221 117.774H367.003V117.547C366.993 116.211 366.983 114.777 366.974 113.254C366.974 112.492 366.974 111.701 366.964 110.899C366.964 110.494 366.964 110.088 366.964 109.683V109.069V108.763V108.604V108.525V108.486V108.466V108.456C366.736 108.683 367.28 108.139 367.221 108.199C370.535 108.209 373.651 108.219 376.312 108.238H376.539V108.456C376.519 111.236 376.47 113.54 376.43 115.123C376.411 115.845 376.391 116.449 376.371 116.943C376.341 117.359 376.321 117.566 376.312 117.557Z" fill="#263238"/>
<path d="M381.811 113.966H372.721V123.057H381.811V113.966Z" fill="#F5F5F5"/>
<path d="M381.821 123.066C381.802 123.047 381.792 122.809 381.772 122.364C381.752 121.85 381.732 121.236 381.713 120.495C381.673 118.892 381.623 116.647 381.604 113.976L381.831 114.203C379.16 114.213 376.054 114.223 372.74 114.243C372.681 114.302 373.225 113.758 372.998 113.986V113.995V114.015V114.055V114.134V114.292V114.599V115.212C372.998 115.618 372.998 116.023 372.998 116.429C372.998 117.23 372.998 118.012 372.988 118.783C372.978 120.307 372.968 121.741 372.958 123.076L372.731 122.849C375.411 122.869 377.657 122.918 379.249 122.958C379.991 122.977 380.615 122.997 381.119 123.017C381.554 123.027 381.802 123.047 381.821 123.066C381.841 123.086 381.624 123.096 381.218 123.116C380.723 123.136 380.12 123.155 379.398 123.175C377.815 123.215 375.51 123.264 372.731 123.284H372.513V123.057C372.503 121.721 372.493 120.287 372.483 118.763C372.483 118.002 372.483 117.21 372.473 116.409C372.473 116.004 372.473 115.598 372.473 115.192V114.579V114.272V114.114V114.035V113.995V113.976V113.966C372.246 114.193 372.79 113.649 372.731 113.709C376.044 113.718 379.16 113.728 381.821 113.748H382.049V113.966C382.029 116.745 381.98 119.05 381.94 120.633C381.92 121.355 381.9 121.959 381.881 122.453C381.851 122.869 381.831 123.076 381.821 123.066Z" fill="#263238"/>
<path d="M376.312 113.966H372.721V117.557H376.312V113.966Z" fill="#263238"/>
<path d="M394.899 108.456H385.808V117.547H394.899V108.456Z" fill="#263238"/>
<path d="M400.409 113.966H391.318V123.057H400.409V113.966Z" fill="#263238"/>
<path d="M394.909 113.966H391.318V117.557H394.909V113.966Z" fill="#FAFAFA"/>
<path d="M425.237 204.685H336.229V239.288H425.237V204.685Z" fill="#FAFAFA"/>
<path d="M425.356 239.406H336.101V204.557H425.356V239.406ZM336.348 239.159H425.109V204.804H336.348V239.159Z" fill="#222221"/>
<path d="M425.237 204.685H336.229V212.104H425.237V204.685Z" fill="#263238"/>
<path d="M350.038 221.353H341.244V230.147H350.038V221.353Z" fill="#F5F5F5"/>
<path d="M350.038 230.147C350.018 230.128 350.009 229.89 349.989 229.465C349.969 228.97 349.949 228.367 349.929 227.655C349.89 226.111 349.84 223.935 349.821 221.353L350.048 221.581C347.466 221.591 344.459 221.601 341.254 221.621C341.195 221.68 341.739 221.136 341.511 221.363V221.373V221.393V221.433V221.512V221.66V221.957V222.55C341.511 222.946 341.511 223.342 341.511 223.728C341.511 224.499 341.511 225.261 341.501 226.003C341.492 227.477 341.482 228.861 341.472 230.147L341.244 229.92C343.836 229.94 346.002 229.989 347.545 230.029C348.258 230.049 348.861 230.068 349.356 230.088C349.781 230.118 350.018 230.128 350.038 230.147C350.068 230.177 349.227 230.217 347.694 230.256C346.161 230.296 343.935 230.345 341.244 230.365H341.027V230.138C341.017 228.852 341.007 227.457 340.997 225.993C340.997 225.251 340.997 224.499 340.987 223.718C340.987 223.332 340.987 222.936 340.987 222.54V221.947V221.65V221.502V221.423V221.383V221.363V221.353C340.76 221.581 341.304 221.037 341.244 221.096C344.449 221.106 347.456 221.116 350.038 221.136H350.266V221.353C350.246 224.044 350.197 226.27 350.157 227.803C350.108 229.336 350.068 230.187 350.038 230.147Z" fill="#263238"/>
<path d="M341.244 230.147C341.146 230.049 343.035 228.001 345.458 225.567C347.892 223.134 349.939 221.255 350.038 221.353C350.137 221.452 348.248 223.5 345.824 225.933C343.391 228.367 341.343 230.246 341.244 230.147Z" fill="#E8505B"/>
<path d="M361.483 221.353H352.689V230.147H361.483V221.353Z" fill="#263238"/>
<path d="M372.919 221.353H364.125V230.147H372.919V221.353Z" fill="#455A64"/>
<path d="M384.364 221.353H375.57V230.147H384.364V221.353Z" fill="#E8505B"/>
<path d="M395.809 221.353H387.015V230.147H395.809V221.353Z" fill="#E8505B"/>
<g opacity="0.5">
<g opacity="0.5">
<path opacity="0.5" d="M395.809 221.353H387.015V230.147H395.809V221.353Z" fill="white"/>
</g>
</g>
<path d="M407.254 221.353H398.46V230.147H407.254V221.353Z" fill="#E8505B"/>
<g opacity="0.3">
<g opacity="0.3">
<path opacity="0.3" d="M407.254 221.353H398.46V230.147H407.254V221.353Z" fill="black"/>
</g>
</g>
<path d="M418.699 221.353H409.905V230.147H418.699V221.353Z" fill="#E8505B"/>
<g opacity="0.7">
<g opacity="0.7">
<path opacity="0.7" d="M418.699 221.353H409.905V230.147H418.699V221.353Z" fill="black"/>
</g>
</g>
<path d="M198.789 27.8065H74.3281V114.48H198.789V27.8065Z" fill="white"/>
<path d="M198.79 114.48C198.79 114.48 198.77 113.936 198.77 112.897C198.76 111.849 198.76 110.316 198.75 108.308C198.74 104.282 198.72 98.3859 198.701 90.8482C198.671 75.7728 198.641 54.1291 198.592 27.8065L198.8 28.0142C164.227 28.0241 121.058 28.0439 74.3483 28.0636H74.3384L74.5956 27.8065C74.5857 58.7882 74.5758 88.1971 74.5758 114.48L74.3384 114.243C111.048 114.292 142.128 114.332 164.049 114.361C175.019 114.391 183.694 114.411 189.63 114.421C192.597 114.431 194.882 114.441 196.435 114.451C197.197 114.46 197.791 114.46 198.196 114.46C198.582 114.47 198.79 114.48 198.79 114.48C198.79 114.48 198.602 114.49 198.216 114.49C197.82 114.49 197.237 114.5 196.485 114.5C194.942 114.51 192.676 114.52 189.729 114.53C183.793 114.54 175.138 114.569 164.197 114.589C142.237 114.619 111.107 114.658 74.3285 114.708H74.0911V114.47C74.0812 88.1873 74.0812 58.7783 74.0713 27.7966V27.5394H74.3285H74.3384C121.048 27.5592 164.217 27.5789 198.79 27.5888H198.997V27.7966C198.948 54.1785 198.918 75.8618 198.889 90.9669C198.869 98.4848 198.849 104.371 198.839 108.387C198.829 110.375 198.819 111.898 198.819 112.937C198.8 113.966 198.79 114.48 198.79 114.48Z" fill="#263238"/>
<path d="M198.789 27.8065H74.3281V38.6382H198.789V27.8065Z" fill="#263238"/>
<path d="M81.0849 33.5339C81.0849 34.2857 80.5012 34.8891 79.789 34.8891C79.0768 34.8891 78.4932 34.2857 78.4932 33.5339C78.4932 32.7821 79.0768 32.1787 79.789 32.1787C80.5012 32.1787 81.0849 32.7821 81.0849 33.5339Z" fill="white"/>
<path d="M86.3471 33.5339C86.3471 34.2857 85.7635 34.8891 85.0512 34.8891C84.339 34.8891 83.7554 34.2857 83.7554 33.5339C83.7554 32.7821 84.339 32.1787 85.0512 32.1787C85.7733 32.1787 86.3471 32.7821 86.3471 33.5339Z" fill="white"/>
<path d="M91.6195 33.5339C91.6195 34.2857 91.0359 34.8891 90.3237 34.8891C89.6115 34.8891 89.0278 34.2857 89.0278 33.5339C89.0278 32.7821 89.6115 32.1787 90.3237 32.1787C91.0359 32.1787 91.6195 32.7821 91.6195 33.5339Z" fill="white"/>
<path d="M103.896 49.2523H86.1597V91.8077H103.896V49.2523Z" fill="#E8505B"/>
<path d="M131.247 49.2523H113.511V91.8077H131.247V49.2523Z" fill="#EBEBEB"/>
<path d="M158.598 49.2523H140.862V91.8077H158.598V49.2523Z" fill="#FAFAFA"/>
<path d="M185.95 49.5887H168.213V92.1441H185.95V49.5887Z" fill="#E0E0E0"/>
<path d="M191.608 96.5064H84.1021V106.23H191.608V96.5064Z" fill="#E8505B"/>
<path d="M183.438 104.242L185.752 115.944L187.651 112.68L191.737 118.516L193.785 117.2L189.699 111.364L193.448 110.82L183.438 104.242Z" fill="#263238"/>
<path d="M151.091 124.788H96.3086V218.752H151.091V124.788Z" fill="#FAFAFA"/>
<path d="M151.09 218.752C151.09 218.752 151.08 218.594 151.08 218.287C151.08 217.97 151.071 217.525 151.071 216.942C151.061 215.755 151.051 214.014 151.041 211.758C151.021 207.228 151.001 200.649 150.972 192.34C150.942 175.741 150.902 152.287 150.853 124.778L151.09 125.015C134.225 125.025 115.707 125.025 96.3184 125.035H96.3085L96.5657 124.778C96.5459 160.626 96.5261 193.498 96.5063 218.742L96.3085 218.544C113.085 218.584 126.756 218.623 136.242 218.653C140.991 218.673 144.69 218.692 147.213 218.702C148.469 218.712 149.429 218.722 150.091 218.722C150.744 218.732 151.09 218.752 151.09 218.752C151.09 218.752 150.774 218.762 150.141 218.772C149.488 218.781 148.538 218.781 147.302 218.791C144.779 218.801 141.099 218.821 136.371 218.841C126.845 218.871 113.135 218.9 96.3085 218.95H96.1106V218.752C96.0908 193.507 96.0711 160.636 96.0513 124.788V124.53H96.3085H96.3184C115.707 124.54 134.225 124.54 151.09 124.55H151.328V124.788C151.278 152.357 151.239 175.87 151.209 192.508C151.179 200.788 151.16 207.356 151.14 211.867C151.13 214.103 151.12 215.814 151.11 217.001C151.1 217.575 151.1 218.01 151.1 218.317C151.1 218.603 151.09 218.752 151.09 218.752Z" fill="#222221"/>
<path d="M151.091 124.788H96.3086V132.701H151.091V124.788Z" fill="#263238"/>
<path d="M109.475 142.583L110.137 151.358L112.581 148.162L116.686 147.984L109.475 142.583Z" fill="#263238"/>
<path d="M133.146 142.583C133.136 142.564 133.314 142.692 133.66 142.939C134.085 143.246 134.58 143.602 135.154 144.018C136.44 144.948 138.299 146.283 140.436 147.866L140.772 148.113L140.357 148.133C139.12 148.182 137.785 148.242 136.4 148.301L136.262 148.311L136.38 148.251C135.52 149.369 134.689 150.448 133.917 151.447L133.68 151.753L133.65 151.367C133.462 148.766 133.344 146.54 133.255 144.987C133.215 144.295 133.185 143.701 133.156 143.197C133.146 142.781 133.136 142.573 133.146 142.583C133.156 142.593 133.175 142.841 133.225 143.276C133.274 143.8 133.334 144.413 133.403 145.116C133.551 146.679 133.759 148.835 133.957 151.348L133.7 151.269C134.461 150.269 135.282 149.191 136.143 148.064L136.183 148.004H136.252L136.39 147.994C137.775 147.935 139.111 147.885 140.347 147.836L140.268 148.103C138.21 146.55 136.469 145.185 135.193 144.196C134.62 143.751 134.125 143.365 133.7 143.028C133.353 142.752 133.156 142.603 133.146 142.583Z" fill="#263238"/>
<path d="M107.882 180.757C107.822 180.697 110.553 177.789 113.975 174.267C117.398 170.736 120.227 167.927 120.286 167.986C120.346 168.045 117.616 170.954 114.193 174.475C110.77 178.007 107.941 180.816 107.882 180.757Z" fill="#263238"/>
<path d="M145.907 174.287C145.858 174.287 145.907 173.565 145.61 172.329C145.304 171.122 144.542 169.321 142.751 167.907C141.861 167.214 140.743 166.631 139.438 166.384C138.142 166.156 136.678 166.205 135.293 166.75C133.898 167.264 132.602 168.253 131.682 169.579C130.743 170.894 130.218 172.556 130.199 174.277C130.208 175.989 130.743 177.66 131.682 178.976C132.602 180.302 133.908 181.291 135.293 181.805C136.678 182.359 138.142 182.409 139.438 182.171C140.743 181.924 141.871 181.34 142.751 180.648C144.542 179.233 145.304 177.443 145.61 176.226C145.917 174.999 145.867 174.277 145.907 174.287C145.907 174.287 145.996 175.009 145.719 176.266C145.442 177.502 144.7 179.352 142.88 180.826C141.98 181.548 140.823 182.161 139.477 182.428C138.142 182.676 136.618 182.636 135.174 182.072C133.73 181.548 132.375 180.519 131.415 179.154C130.436 177.789 129.882 176.058 129.872 174.287C129.882 172.507 130.436 170.785 131.415 169.42C132.375 168.045 133.73 167.027 135.174 166.502C136.618 165.938 138.132 165.899 139.477 166.146C140.823 166.413 141.98 167.027 142.88 167.749C144.7 169.223 145.452 171.072 145.719 172.309C145.996 173.565 145.907 174.287 145.907 174.287Z" fill="#263238"/>
<path d="M138.814 195.149C138.814 195.14 138.883 195.189 139.012 195.298C139.18 195.436 139.368 195.595 139.575 195.773C140.139 196.257 140.861 196.871 141.732 197.622L141.801 197.682L141.742 197.751C139.546 200.274 136.272 204.042 132.542 208.326L132.503 208.365L132.443 208.375C132.087 208.425 131.711 208.484 131.335 208.543C130.663 208.642 129.99 208.741 129.337 208.84L129.12 208.87L129.159 208.652C129.407 207.396 129.654 206.179 129.881 205.032L129.891 204.992L129.911 204.962C132.404 202.024 134.58 199.532 136.163 197.781C137.745 196.05 138.754 195.08 138.814 195.149C138.814 195.159 138.745 195.219 138.626 195.328C138.517 195.446 138.339 195.624 138.121 195.862C137.686 196.327 137.073 197.039 136.301 197.919C134.768 199.69 132.621 202.222 130.139 205.16L130.168 205.091C129.941 206.248 129.703 207.455 129.466 208.721L129.288 208.543C129.941 208.444 130.603 208.345 131.286 208.237C131.662 208.177 132.038 208.118 132.394 208.068L132.305 208.118C136.074 203.864 139.378 200.135 141.593 197.622L141.603 197.751C140.772 196.979 140.08 196.356 139.536 195.852C139.328 195.654 139.15 195.486 138.992 195.337C138.873 195.229 138.814 195.159 138.814 195.149Z" fill="#263238"/>
<path d="M118.773 207.97C118.763 207.96 118.763 207.881 118.753 207.712C118.753 207.505 118.743 207.267 118.734 206.99C118.724 206.298 118.714 205.398 118.694 204.29C118.674 201.906 118.654 198.641 118.625 194.754L118.763 194.892C115.004 194.902 110.602 194.902 105.923 194.912C105.884 194.942 106.21 194.625 106.072 194.764V194.774V194.783V194.813V194.873V194.981V195.209V195.664V196.564C106.072 197.158 106.072 197.751 106.072 198.335C106.072 199.502 106.072 200.64 106.072 201.757C106.062 203.973 106.062 206.06 106.052 207.989L105.923 207.861C109.712 207.89 112.887 207.91 115.192 207.93C116.27 207.94 117.141 207.96 117.814 207.97C118.081 207.979 118.308 207.979 118.516 207.989C118.684 207.96 118.773 207.97 118.773 207.97C118.783 207.979 118.704 207.979 118.555 207.989C118.358 207.989 118.14 207.999 117.883 208.009C117.22 208.019 116.35 208.029 115.291 208.049C112.957 208.068 109.752 208.088 105.933 208.118H105.805V207.979C105.805 206.06 105.795 203.963 105.785 201.747C105.785 200.64 105.785 199.492 105.785 198.325C105.785 197.741 105.785 197.148 105.785 196.554V195.654V195.199V194.971V194.863V194.803V194.774V194.764V194.754C105.646 194.892 105.973 194.566 105.943 194.596C110.632 194.605 115.024 194.605 118.783 194.615H118.921V194.754C118.892 198.681 118.872 201.975 118.852 204.379C118.842 205.477 118.823 206.367 118.813 207.05C118.803 207.317 118.803 207.544 118.793 207.742C118.783 207.9 118.783 207.979 118.773 207.97Z" fill="#263238"/>
<path d="M107.882 194.754C107.882 194.843 106.635 194.912 105.092 194.912C103.549 194.912 102.303 194.843 102.303 194.754C102.303 194.665 103.549 194.596 105.092 194.596C106.635 194.596 107.882 194.665 107.882 194.754Z" fill="#263238"/>
<path d="M105.933 197.296C105.844 197.296 105.774 195.891 105.774 194.16C105.774 192.429 105.844 191.025 105.933 191.025C106.022 191.025 106.091 192.429 106.091 194.16C106.081 195.891 106.012 197.296 105.933 197.296Z" fill="#263238"/>
<path d="M84.1318 152.782H11.5938V225.32H84.1318V152.782Z" fill="#F5F5F5"/>
<path d="M110.566 263.469C115.874 258.161 115.874 249.555 110.566 244.248C105.258 238.94 96.6528 238.94 91.345 244.248C86.0372 249.555 86.0372 258.161 91.345 263.469C96.6528 268.777 105.258 268.777 110.566 263.469Z" fill="#E0E0E0"/>
<path d="M110.687 256.818C115.33 252.175 115.33 244.646 110.687 240.003C106.043 235.359 98.5148 235.359 93.8714 240.003C89.2281 244.646 89.2281 252.175 93.8714 256.818C98.5148 261.461 106.043 261.461 110.687 256.818Z" fill="#FAFAFA"/>
<path d="M102.283 259.863C108.609 259.863 113.738 254.734 113.738 248.408C113.738 242.082 108.609 236.953 102.283 236.953C95.9567 236.953 90.8281 242.082 90.8281 248.408C90.8281 254.734 95.9567 259.863 102.283 259.863Z" fill="#E8505B"/>
<path d="M102.283 257.192C97.4458 257.192 93.5088 253.255 93.5088 248.418C93.5088 243.581 97.4458 239.644 102.283 239.644C107.12 239.644 111.057 243.581 111.057 248.418C111.057 253.255 107.13 257.192 102.283 257.192ZM102.283 239.683C97.4755 239.683 93.5583 243.601 93.5583 248.408C93.5583 253.216 97.4755 257.133 102.283 257.133C107.091 257.133 111.008 253.216 111.008 248.408C111.018 243.601 107.1 239.683 102.283 239.683Z" fill="#263238"/>
<g opacity="0.2">
<g opacity="0.2">
<path opacity="0.2" d="M103.223 240.405C100.997 239.881 98.4846 240.86 97.2085 242.76C95.9325 244.659 95.972 247.35 97.2976 249.219C98.6231 251.089 101.165 251.999 103.371 251.415C105.587 250.832 107.338 248.774 107.565 246.499C107.684 245.332 107.417 244.115 106.764 243.146C105.765 241.662 104.964 240.791 103.223 240.405Z" fill="black"/>
</g>
</g>
<path d="M100.137 255.807L100.79 256.707L104.281 256.599L104.954 255.807H100.137Z" fill="#263238"/>
<path d="M334.162 262.712C338.172 262.712 341.423 259.461 341.423 255.451C341.423 251.441 338.172 248.19 334.162 248.19C330.152 248.19 326.901 251.441 326.901 255.451C326.901 259.461 330.152 262.712 334.162 262.712Z" fill="#263238"/>
<path d="M336.813 255.451C336.813 256.915 335.626 258.102 334.162 258.102C332.698 258.102 331.511 256.915 331.511 255.451C331.511 253.987 332.698 252.8 334.162 252.8C335.626 252.8 336.813 253.987 336.813 255.451Z" fill="#455A64"/>
<path d="M68.3735 235.558C68.3735 235.42 69.0066 235.311 69.7782 235.311C70.5498 235.311 71.1829 235.42 71.1829 235.558C71.1829 235.697 70.5498 235.806 69.7782 235.806C68.9967 235.806 68.3735 235.697 68.3735 235.558Z" fill="#263238"/>
<path d="M62.7549 235.558C62.7549 235.42 63.388 235.311 64.1595 235.311C64.9311 235.311 65.5642 235.42 65.5642 235.558C65.5642 235.697 64.9311 235.806 64.1595 235.806C63.3781 235.806 62.7549 235.697 62.7549 235.558Z" fill="#263238"/>
<path d="M57.1265 235.558C57.1265 235.42 57.7596 235.311 58.5311 235.311C59.3027 235.311 59.9358 235.42 59.9358 235.558C59.9358 235.697 59.3027 235.806 58.5311 235.806C57.7596 235.806 57.1265 235.697 57.1265 235.558Z" fill="#263238"/>
<path d="M51.5073 235.558C51.5073 235.42 52.1404 235.311 52.912 235.311C53.6836 235.311 54.3167 235.42 54.3167 235.558C54.3167 235.697 53.6836 235.806 52.912 235.806C52.1404 235.806 51.5073 235.697 51.5073 235.558Z" fill="#263238"/>
<path d="M45.8892 235.558C45.8892 235.42 46.5223 235.311 47.2938 235.311C48.0654 235.311 48.6985 235.42 48.6985 235.558C48.6985 235.697 48.0654 235.806 47.2938 235.806C46.5223 235.806 45.8892 235.697 45.8892 235.558Z" fill="#263238"/>
<path d="M40.2705 235.558C40.2705 235.42 40.9036 235.311 41.6752 235.311C42.4468 235.311 43.0798 235.42 43.0798 235.558C43.0798 235.697 42.4468 235.806 41.6752 235.806C40.8937 235.806 40.2705 235.697 40.2705 235.558Z" fill="#263238"/>
<path d="M34.6519 235.558C34.6519 235.42 35.2849 235.311 36.0565 235.311C36.8281 235.311 37.4612 235.42 37.4612 235.558C37.4612 235.697 36.8281 235.806 36.0565 235.806C35.2751 235.806 34.6519 235.697 34.6519 235.558Z" fill="#263238"/>
<path d="M29.0332 235.558C29.0332 235.42 29.6663 235.311 30.4379 235.311C31.2094 235.311 31.8425 235.42 31.8425 235.558C31.8425 235.697 31.2094 235.806 30.4379 235.806C29.6564 235.806 29.0332 235.697 29.0332 235.558Z" fill="#263238"/>
<path d="M23.4048 235.558C23.4048 235.42 24.0379 235.311 24.8094 235.311C25.581 235.311 26.2141 235.42 26.2141 235.558C26.2141 235.697 25.581 235.806 24.8094 235.806C24.0379 235.806 23.4048 235.697 23.4048 235.558Z" fill="#263238"/>
<path d="M17.7856 235.558C17.7856 235.42 18.4187 235.311 19.1903 235.311C19.9619 235.311 20.595 235.42 20.595 235.558C20.595 235.697 19.9619 235.806 19.1903 235.806C18.4187 235.806 17.7856 235.697 17.7856 235.558Z" fill="#263238"/>
<path d="M12.1675 235.558C12.1675 235.42 12.8006 235.311 13.5721 235.311C14.3437 235.311 14.9768 235.42 14.9768 235.558C14.9768 235.697 14.3437 235.806 13.5721 235.806C12.8006 235.806 12.1675 235.697 12.1675 235.558Z" fill="#263238"/>
<path d="M6.54883 235.558C6.54883 235.42 7.18192 235.311 7.95349 235.311C8.72507 235.311 9.35816 235.42 9.35816 235.558C9.35816 235.697 8.72507 235.806 7.95349 235.806C7.17202 235.806 6.54883 235.697 6.54883 235.558Z" fill="#263238"/>
<path d="M2.54235 233.946C2.68083 233.946 2.78965 234.579 2.78965 235.351C2.78965 235.42 2.78965 235.489 2.78965 235.558L2.55224 235.321C3.22489 235.341 3.74917 235.44 3.74917 235.558C3.74917 235.677 3.23479 235.786 2.55224 235.796L2.31483 235.806V235.558C2.31483 235.479 2.31483 235.42 2.31483 235.351C2.29505 234.569 2.40386 233.946 2.54235 233.946Z" fill="#263238"/>
<path d="M2.54222 228.327C2.68071 228.327 2.78952 228.96 2.78952 229.732C2.78952 230.504 2.68071 231.137 2.54222 231.137C2.40373 231.137 2.29492 230.504 2.29492 229.732C2.29492 228.95 2.40373 228.327 2.54222 228.327Z" fill="#263238"/>
<path d="M2.54222 222.699C2.68071 222.699 2.78952 223.332 2.78952 224.103C2.78952 224.875 2.68071 225.508 2.54222 225.508C2.40373 225.508 2.29492 224.875 2.29492 224.103C2.29492 223.332 2.40373 222.699 2.54222 222.699Z" fill="#263238"/>
<path d="M2.54222 217.08C2.68071 217.08 2.78952 217.713 2.78952 218.485C2.78952 219.256 2.68071 219.889 2.54222 219.889C2.40373 219.889 2.29492 219.256 2.29492 218.485C2.29492 217.713 2.40373 217.08 2.54222 217.08Z" fill="#263238"/>
<path d="M2.54222 211.461C2.68071 211.461 2.78952 212.094 2.78952 212.866C2.78952 213.638 2.68071 214.271 2.54222 214.271C2.40373 214.271 2.29492 213.638 2.29492 212.866C2.29492 212.094 2.40373 211.461 2.54222 211.461Z" fill="#263238"/>
<path d="M2.54222 205.843C2.68071 205.843 2.78952 206.476 2.78952 207.247C2.78952 208.019 2.68071 208.652 2.54222 208.652C2.40373 208.652 2.29492 208.019 2.29492 207.247C2.29492 206.476 2.40373 205.843 2.54222 205.843Z" fill="#263238"/>
<path d="M2.54222 200.224C2.68071 200.224 2.78952 200.857 2.78952 201.629C2.78952 202.4 2.68071 203.033 2.54222 203.033C2.40373 203.033 2.29492 202.4 2.29492 201.629C2.29492 200.847 2.40373 200.224 2.54222 200.224Z" fill="#263238"/>
<path d="M2.54222 194.605C2.68071 194.605 2.78952 195.239 2.78952 196.01C2.78952 196.782 2.68071 197.415 2.54222 197.415C2.40373 197.415 2.29492 196.782 2.29492 196.01C2.29492 195.229 2.40373 194.605 2.54222 194.605Z" fill="#263238"/>
<path d="M2.54222 188.977C2.68071 188.977 2.78952 189.61 2.78952 190.382C2.78952 191.153 2.68071 191.786 2.54222 191.786C2.40373 191.786 2.29492 191.153 2.29492 190.382C2.29492 189.61 2.40373 188.977 2.54222 188.977Z" fill="#263238"/>
<path d="M2.54222 183.358C2.68071 183.358 2.78952 183.991 2.78952 184.763C2.78952 185.534 2.68071 186.168 2.54222 186.168C2.40373 186.168 2.29492 185.534 2.29492 184.763C2.29492 183.991 2.40373 183.358 2.54222 183.358Z" fill="#263238"/>
<path d="M2.54222 177.74C2.68071 177.74 2.78952 178.373 2.78952 179.144C2.78952 179.916 2.68071 180.549 2.54222 180.549C2.40373 180.549 2.29492 179.916 2.29492 179.144C2.29492 178.373 2.40373 177.74 2.54222 177.74Z" fill="#263238"/>
<path d="M2.54222 172.121C2.68071 172.121 2.78952 172.754 2.78952 173.526C2.78952 174.297 2.68071 174.93 2.54222 174.93C2.40373 174.93 2.29492 174.297 2.29492 173.526C2.29492 172.754 2.40373 172.121 2.54222 172.121Z" fill="#263238"/>
<path d="M2.95781 166.918C2.95781 166.987 2.79954 167.047 2.53246 167.096L2.71051 166.918C2.75008 167.175 2.77976 167.522 2.77976 167.898C2.77976 168.669 2.67094 169.302 2.53246 169.302C2.39397 169.302 2.28516 168.669 2.28516 167.898C2.28516 167.512 2.31483 167.166 2.3544 166.918L2.38408 166.72L2.52256 166.74C2.79954 166.79 2.95781 166.849 2.95781 166.918Z" fill="#263238"/>
<path d="M8.58618 166.918C8.58618 167.056 7.9531 167.165 7.18152 167.165C6.40994 167.165 5.77686 167.056 5.77686 166.918C5.77686 166.779 6.40994 166.67 7.18152 166.67C7.9531 166.68 8.58618 166.789 8.58618 166.918Z" fill="#263238"/>
<path d="M14.2048 166.918C14.2048 167.056 13.5717 167.165 12.8002 167.165C12.0286 167.165 11.3955 167.056 11.3955 166.918C11.3955 166.779 12.0286 166.67 12.8002 166.67C13.5717 166.68 14.2048 166.789 14.2048 166.918Z" fill="#263238"/>
<path d="M19.824 166.918C19.824 167.056 19.1909 167.165 18.4193 167.165C17.6477 167.165 17.0146 167.056 17.0146 166.918C17.0146 166.779 17.6477 166.67 18.4193 166.67C19.1909 166.68 19.824 166.789 19.824 166.918Z" fill="#263238"/>
<path d="M25.4421 166.918C25.4421 167.056 24.8091 167.165 24.0375 167.165C23.2659 167.165 22.6328 167.056 22.6328 166.918C22.6328 166.779 23.2659 166.67 24.0375 166.67C24.8189 166.68 25.4421 166.789 25.4421 166.918Z" fill="#263238"/>
<path d="M31.0608 166.918C31.0608 167.056 30.4277 167.165 29.6561 167.165C28.8846 167.165 28.2515 167.056 28.2515 166.918C28.2515 166.779 28.8846 166.67 29.6561 166.67C30.4376 166.68 31.0608 166.789 31.0608 166.918Z" fill="#263238"/>
<path d="M36.6892 166.918C36.6892 167.056 36.0561 167.165 35.2845 167.165C34.513 167.165 33.8799 167.056 33.8799 166.918C33.8799 166.779 34.513 166.67 35.2845 166.67C36.0561 166.68 36.6892 166.789 36.6892 166.918Z" fill="#263238"/>
<path d="M42.3084 166.918C42.3084 167.056 41.6753 167.165 40.9037 167.165C40.1321 167.165 39.499 167.056 39.499 166.918C39.499 166.779 40.1321 166.67 40.9037 166.67C41.6753 166.68 42.3084 166.789 42.3084 166.918Z" fill="#263238"/>
<path d="M47.9265 166.918C47.9265 167.056 47.2934 167.165 46.5219 167.165C45.7503 167.165 45.1172 167.056 45.1172 166.918C45.1172 166.779 45.7503 166.67 46.5219 166.67C47.2934 166.68 47.9265 166.789 47.9265 166.918Z" fill="#263238"/>
<path d="M53.5457 166.918C53.5457 167.056 52.9126 167.165 52.141 167.165C51.3694 167.165 50.7363 167.056 50.7363 166.918C50.7363 166.779 51.3694 166.67 52.141 166.67C52.9126 166.68 53.5457 166.789 53.5457 166.918Z" fill="#263238"/>
<path d="M59.1643 166.918C59.1643 167.056 58.5312 167.165 57.7596 167.165C56.9881 167.165 56.355 167.056 56.355 166.918C56.355 166.779 56.9881 166.67 57.7596 166.67C58.5411 166.68 59.1643 166.789 59.1643 166.918Z" fill="#263238"/>
<path d="M64.7825 166.918C64.7825 167.056 64.1494 167.165 63.3778 167.165C62.6062 167.165 61.9731 167.056 61.9731 166.918C61.9731 166.779 62.6062 166.67 63.3778 166.67C64.1593 166.68 64.7825 166.789 64.7825 166.918Z" fill="#263238"/>
<path d="M70.4109 166.918C70.4109 167.056 69.7778 167.165 69.0062 167.165C68.2347 167.165 67.6016 167.056 67.6016 166.918C67.6016 166.779 68.2347 166.67 69.0062 166.67C69.7778 166.68 70.4109 166.789 70.4109 166.918Z" fill="#263238"/>
<path d="M71.1828 171.765C71.0444 171.765 70.9355 171.132 70.9355 170.36C70.9355 169.589 71.0444 168.955 71.1828 168.955C71.3213 168.955 71.4301 169.589 71.4301 170.36C71.4203 171.142 71.3114 171.765 71.1828 171.765Z" fill="#263238"/>
<path d="M71.1828 177.383C71.0444 177.383 70.9355 176.75 70.9355 175.979C70.9355 175.207 71.0444 174.574 71.1828 174.574C71.3213 174.574 71.4301 175.207 71.4301 175.979C71.4203 176.76 71.3114 177.383 71.1828 177.383Z" fill="#263238"/>
<path d="M71.1828 183.012C71.0444 183.012 70.9355 182.379 70.9355 181.607C70.9355 180.836 71.0444 180.203 71.1828 180.203C71.3213 180.203 71.4301 180.836 71.4301 181.607C71.4203 182.379 71.3114 183.012 71.1828 183.012Z" fill="#263238"/>
<path d="M71.1828 188.631C71.0444 188.631 70.9355 187.998 70.9355 187.226C70.9355 186.454 71.0444 185.821 71.1828 185.821C71.3213 185.821 71.4301 186.454 71.4301 187.226C71.4203 187.998 71.3114 188.631 71.1828 188.631Z" fill="#263238"/>
<path d="M71.1828 194.249C71.0444 194.249 70.9355 193.616 70.9355 192.845C70.9355 192.073 71.0444 191.44 71.1828 191.44C71.3213 191.44 71.4301 192.073 71.4301 192.845C71.4203 193.616 71.3114 194.249 71.1828 194.249Z" fill="#263238"/>
<path d="M71.1828 199.868C71.0444 199.868 70.9355 199.235 70.9355 198.463C70.9355 197.692 71.0444 197.059 71.1828 197.059C71.3213 197.059 71.4301 197.692 71.4301 198.463C71.4203 199.245 71.3114 199.868 71.1828 199.868Z" fill="#263238"/>
<path d="M71.1828 205.487C71.0444 205.487 70.9355 204.854 70.9355 204.082C70.9355 203.31 71.0444 202.677 71.1828 202.677C71.3213 202.677 71.4301 203.31 71.4301 204.082C71.4203 204.863 71.3114 205.487 71.1828 205.487Z" fill="#263238"/>
<path d="M71.1828 211.105C71.0444 211.105 70.9355 210.472 70.9355 209.701C70.9355 208.929 71.0444 208.296 71.1828 208.296C71.3213 208.296 71.4301 208.929 71.4301 209.701C71.4203 210.482 71.3114 211.105 71.1828 211.105Z" fill="#263238"/>
<path d="M71.1828 216.734C71.0444 216.734 70.9355 216.101 70.9355 215.329C70.9355 214.558 71.0444 213.924 71.1828 213.924C71.3213 213.924 71.4301 214.558 71.4301 215.329C71.4203 216.101 71.3114 216.734 71.1828 216.734Z" fill="#263238"/>
<path d="M71.1828 222.352C71.0444 222.352 70.9355 221.719 70.9355 220.948C70.9355 220.176 71.0444 219.543 71.1828 219.543C71.3213 219.543 71.4301 220.176 71.4301 220.948C71.4203 221.719 71.3114 222.352 71.1828 222.352Z" fill="#263238"/>
<path d="M71.1828 227.971C71.0444 227.971 70.9355 227.338 70.9355 226.566C70.9355 225.795 71.0444 225.162 71.1828 225.162C71.3213 225.162 71.4301 225.795 71.4301 226.566C71.4203 227.338 71.3114 227.971 71.1828 227.971Z" fill="#263238"/>
<path d="M71.1828 233.59C71.0444 233.59 70.9355 232.957 70.9355 232.185C70.9355 231.414 71.0444 230.78 71.1828 230.78C71.3213 230.78 71.4301 231.414 71.4301 232.185C71.4203 232.967 71.3114 233.59 71.1828 233.59Z" fill="#263238"/>
<path d="M73.7251 232.324H68.6406V237.408H73.7251V232.324Z" fill="#263238"/>
<path d="M5.08449 233.016H0V238.101H5.08449V233.016Z" fill="#263238"/>
<path d="M73.7251 163.881H68.6406V168.965H73.7251V163.881Z" fill="#263238"/>
<path d="M5.08449 164.375H0V169.46H5.08449V164.375Z" fill="#263238"/>
</svg>
