<svg width="494" height="320" viewBox="0 0 494 320" fill="none" xmlns="http://www.w3.org/2000/svg">
<path d="M99.3712 26.3851H8.42651V185.497H99.3712V26.3851Z" fill="#97B8D3"/>
<path d="M36.759 187.019C36.759 187.019 26.8022 115.432 21.5743 107.569C21.5743 107.569 51.371 85.2013 52.2792 24.5688H7.0686V187.019H36.759Z" fill="#97B8D3"/>
<path d="M71.0311 186.7C71.0311 186.7 80.9879 115.113 86.2159 107.25C86.2159 107.25 56.4191 84.8823 55.511 24.2497H100.722V186.7H71.0311Z" fill="#97B8D3"/>
<path d="M101.769 20.3227H97.5553H0V22.8262V26.3851V185.506V188.132V190.758H105.982V188.132V185.506V20.3227H101.769ZM26.7123 108.87V149.401H8.42687V108.87H26.7123ZM8.42687 105.933V63.9869H26.7042V105.933H8.42687ZM54.5292 105.933V63.9869H77.3963V105.933H54.5292ZM77.3963 108.87V149.401H54.5292V108.87H77.3963ZM27.5223 105.933V63.9869H51.6002V105.933H27.5223ZM51.6002 108.87V149.401H27.5223V108.87H51.6002ZM27.5223 63.267V26.3851H51.6002V63.267H27.5223ZM51.6002 150.121V185.506H27.5223V150.121H51.6002ZM54.5292 150.121H77.3963V185.506H54.5292V150.121ZM54.5292 63.267V26.3851H77.3963V63.267H54.5292ZM78.2144 108.87H97.5553V149.401H78.2144V108.87ZM78.2144 105.933V63.9869H97.5553V105.933H78.2144ZM97.5471 63.267H78.2144V26.3851H97.5553V63.267H97.5471ZM26.7123 26.3851V63.267H8.42687V26.3851H26.7123ZM8.42687 150.121H26.7042V185.506H8.42687V150.121ZM78.2144 185.506V150.121H97.5553V185.506H78.2144Z" fill="#97B8D3"/>
<path d="M409.022 57.8999H132.318V243.226H409.022V57.8999Z" fill="#97B8D3"/>
<path d="M409.022 57.8999H132.318V76.4145H409.022V57.8999Z" fill="#97B8D3"/>
<path d="M144.304 67.1531C144.304 68.2985 143.306 69.2312 142.07 69.2312C140.835 69.2312 139.837 68.2985 139.837 67.1531C139.837 66.0077 140.835 65.075 142.07 65.075C143.306 65.075 144.304 66.0077 144.304 67.1531Z" fill="#97B8D3"/>
<path d="M151.52 67.1531C151.52 68.2985 150.522 69.2312 149.287 69.2312C148.051 69.2312 147.053 68.2985 147.053 67.1531C147.053 66.0077 148.051 65.075 149.287 65.075C150.522 65.075 151.52 66.0077 151.52 67.1531Z" fill="#97B8D3"/>
<path d="M158.744 67.1531C158.744 68.2985 157.746 69.2312 156.511 69.2312C155.275 69.2312 154.277 68.2985 154.277 67.1531C154.277 66.0077 155.275 65.075 156.511 65.075C157.738 65.075 158.744 66.0077 158.744 67.1531Z" fill="#97B8D3"/>
<path d="M493.741 94.5282H438.148V167.024L493.741 168.415V94.5282Z" fill="#97B8D3"/>
<path d="M490.084 97.1053H441.437V162.851L490.084 164.496V97.1053Z" fill="#97B8D3"/>
<path d="M481.559 109.05L449.283 107.823V153.778H481.559V109.05Z" fill="#97B8D3"/>
<path d="M449.283 153.778L481.559 130.166L449.283 107.823V153.778Z" fill="#97B8D3"/>
<path d="M487.613 43.517L456.67 42.5516V82.8942L487.613 83.6714V43.517Z" fill="#97B8D3"/>
<path d="M485.576 45.2678L458.503 43.9833V80.5788L485.576 81.4951V45.2678Z" fill="#97B8D3"/>
<path d="M480.83 50.6348L462.864 49.9476V75.5227H480.83V50.6348Z" fill="#97B8D3"/>
<path d="M462.864 75.5227L480.83 62.3833L462.864 49.9476V75.5227Z" fill="#97B8D3"/>
<path d="M274.732 9.33501L271.77 36.8491H309.748L312.898 9.33501H274.732Z" fill="#97B8D3"/>
<path d="M276.295 11.1513L273.415 35.221H307.687L310.461 11.1513H276.295Z" fill="#97B8D3"/>
<path d="M282.063 15.3647L280.287 31.3348H301.919L303.024 15.3647H282.063Z" fill="#97B8D3"/>
<path d="M324.279 0L320.311 36.8491H371.183L375.397 0H324.279Z" fill="#97B8D3"/>
<path d="M326.373 2.42171L322.512 34.6647H368.418L372.132 2.42171H326.373Z" fill="#97B8D3"/>
<path d="M334.096 8.06688L331.724 29.4613H360.694L362.175 8.06688H334.096Z" fill="#97B8D3"/>
<path d="M394.385 36.8491H246.236V41.0871H394.385V36.8491Z" fill="#97B8D3"/>
<path d="M271.582 51.3875L265.103 41.0871H274.732V51.3875H271.582Z" fill="#97B8D3"/>
<path d="M268.228 41.0871L273.963 51.3875H274.732V41.0871H268.228Z" fill="#97B8D3"/>
<path d="M357.062 51.3875L350.582 41.0871H360.212V51.3875H357.062Z" fill="#97B8D3"/>
<path d="M353.708 41.0871L359.443 51.3875H360.212V41.0871H353.708Z" fill="#97B8D3"/>
<path d="M69.0267 288.796C82.6569 279.87 86.1177 262.787 85.9704 247.357C85.9459 244.78 86.2977 242.072 85.1113 239.781C83.925 237.49 81.0697 235.879 78.7053 236.909C76.7499 237.76 75.85 239.969 74.7209 241.777C73.2237 244.191 71.0229 246.163 68.4622 247.398C66.7768 248.208 64.7151 248.683 63.0951 247.75C60.878 246.474 60.6816 243.397 60.7634 240.837C60.9107 236.067 61.058 231.297 61.2052 226.519C61.287 223.958 61.3525 221.348 60.608 218.894C59.8635 216.448 58.1372 214.141 55.6828 213.404C53.2283 212.66 50.1439 213.993 49.5631 216.489C49.3176 217.528 49.5058 218.616 49.4076 219.671C49.3094 220.735 48.7776 221.897 47.7468 222.167C46.7078 222.445 45.6851 221.692 44.9242 220.923C42.3061 218.272 40.5717 214.901 38.9599 211.547C37.34 208.193 35.7774 204.765 33.4211 201.885C31.0649 199.005 27.7514 196.69 24.0452 196.395C20.339 196.101 16.3219 198.269 15.2911 201.844C14.2602 205.427 16.3056 209.142 18.5555 212.12C21.8935 216.538 25.8778 220.465 30.3367 223.754C31.1385 224.343 32.0139 224.989 32.3003 225.938C32.8239 227.656 31.1385 229.317 29.4204 229.833C27.4732 230.422 25.3788 230.176 23.3498 230.364C21.3208 230.553 19.1118 231.379 18.2937 233.244C17.1646 235.838 19.3163 238.628 21.4599 240.477C25.7388 244.183 30.664 247.136 35.9328 249.19C37.8227 249.926 39.819 250.581 41.3244 251.939C42.8298 253.297 43.7052 255.62 42.7316 257.404C41.758 259.187 39.3526 259.711 37.3646 259.294C35.3765 258.885 33.6093 257.764 31.7276 257.011C28.1932 255.596 23.587 255.727 21.2308 258.713C19.6845 260.676 19.48 263.458 20.1836 265.855C20.8872 268.253 22.3762 270.347 23.9634 272.278C29.5186 279.027 36.7019 284.534 44.8997 287.561C53.0893 290.612 60.7307 291.561 69.0267 288.796Z" fill="#CBECF7"/>
<path d="M19.1282 198.432C19.12 198.44 19.21 198.522 19.3736 198.678C19.5618 198.849 19.8073 199.079 20.1263 199.373C20.789 199.978 21.7708 200.878 22.998 202.073C25.4606 204.446 28.9214 208.013 32.6521 212.864C34.5256 215.286 36.4646 218.019 38.4936 220.988C40.5144 223.966 42.658 227.165 44.7851 230.602C46.9123 234.046 49.0313 237.728 50.9212 241.696C51.8703 243.675 52.7129 245.745 53.572 247.856C54.4229 249.967 55.2901 252.102 56.1655 254.27C59.6426 262.943 62.6779 271.32 64.8051 279.134C66.9486 286.939 68.1595 294.147 68.6176 300.25C69.0922 306.353 68.8385 311.311 68.5031 314.715C68.3231 316.417 68.1595 317.734 68.0204 318.625C67.9631 319.051 67.914 319.386 67.8731 319.64C67.8404 319.869 67.8322 319.984 67.8404 319.992C67.8486 319.992 67.8731 319.877 67.9222 319.648C67.9713 319.395 68.0367 319.067 68.1104 318.642C68.2822 317.758 68.4785 316.441 68.6831 314.739C69.0758 311.336 69.3785 306.353 68.9449 300.225C68.5276 294.106 67.3495 286.857 65.2223 279.019C63.1115 271.181 60.0762 262.779 56.5991 254.099C55.7237 251.931 54.8565 249.795 53.9974 247.684C53.1384 245.582 52.2875 243.495 51.3303 241.499C49.424 237.507 47.2887 233.817 45.1533 230.372C43.0098 226.928 40.8581 223.737 38.8127 220.767C36.7673 217.798 34.8038 215.073 32.9139 212.66C29.1423 207.816 25.6324 204.274 23.1289 201.942C21.8772 200.772 20.879 199.888 20.1918 199.308C19.8645 199.029 19.6027 198.809 19.4064 198.645C19.2264 198.506 19.1282 198.432 19.1282 198.432Z" fill="#263238"/>
<path d="M51.1993 241.491C51.2321 241.499 51.3302 241.107 51.4775 240.403C51.6329 239.699 51.8211 238.668 52.0338 237.4C52.4593 234.856 52.9338 231.33 53.441 227.435C53.9483 223.541 54.4637 220.031 54.9382 217.503C55.1673 216.243 55.3637 215.221 55.5109 214.517C55.65 213.813 55.7155 213.421 55.6827 213.412C55.65 213.404 55.5273 213.781 55.3309 214.476C55.1264 215.171 54.881 216.186 54.611 217.446C54.0546 219.966 53.4819 223.484 52.9747 227.378C52.4838 231.223 52.042 234.692 51.7066 237.351C51.5429 238.546 51.412 239.56 51.3057 240.37C51.2075 241.082 51.1666 241.483 51.1993 241.491Z" fill="#263238"/>
<path d="M17.999 234.537C17.999 234.57 18.4735 234.635 19.3244 234.725C20.1753 234.823 21.4189 234.954 22.9406 235.167C25.9841 235.568 30.173 236.263 34.7628 237.229C39.3525 238.202 43.4678 239.266 46.4213 240.108C47.9021 240.526 49.0884 240.894 49.9148 241.139C50.7329 241.393 51.1992 241.516 51.2074 241.483C51.2156 241.45 50.782 241.27 49.972 240.959C49.1621 240.657 47.9921 240.239 46.5195 239.781C43.5823 238.848 39.4671 237.736 34.8691 236.754C30.263 235.78 26.0495 235.142 22.9897 234.823C21.4598 234.651 20.2162 234.57 19.349 234.537C18.4735 234.504 17.999 234.504 17.999 234.537Z" fill="#263238"/>
<path d="M64.8297 278.414C64.8461 278.422 64.9279 278.283 65.067 278.021C65.2306 277.702 65.427 277.317 65.6642 276.843C66.1797 275.82 66.8915 274.315 67.7341 272.45C69.4359 268.719 71.6203 263.491 73.952 257.682C76.2837 251.881 78.4191 246.637 80.039 242.874C80.8326 241.041 81.4871 239.544 81.9698 238.423C82.1744 237.94 82.3462 237.539 82.4852 237.212C82.5998 236.934 82.6489 236.779 82.6407 236.77C82.6243 236.762 82.5425 236.901 82.4034 237.163C82.2398 237.482 82.0434 237.867 81.8062 238.341C81.2908 239.364 80.579 240.869 79.7363 242.735C78.0346 246.465 75.8501 251.693 73.5102 257.502C71.1785 263.303 69.0432 268.547 67.4232 272.31C66.6297 274.143 65.9751 275.64 65.4924 276.761C65.2879 277.244 65.1161 277.645 64.977 277.972C64.8706 278.258 64.8216 278.406 64.8297 278.414Z" fill="#263238"/>
<path d="M20.8543 263.254C20.8461 263.27 21.0016 263.335 21.2879 263.442C21.6315 263.565 22.057 263.712 22.5642 263.9C23.7424 264.309 25.3377 264.857 27.2767 265.528C31.2529 266.903 36.7181 268.874 42.7642 271.051C48.8102 273.235 54.3 275.149 58.3089 276.45C60.3133 277.097 61.9414 277.612 63.0704 277.939C63.5941 278.087 64.0277 278.209 64.3713 278.307C64.674 278.389 64.8295 278.422 64.8376 278.406C64.8458 278.389 64.6904 278.324 64.404 278.217C64.0604 278.095 63.6432 277.947 63.1277 277.759C61.9496 277.35 60.3542 276.802 58.4152 276.131C54.4391 274.749 48.9657 272.785 42.9278 270.609C36.8899 268.424 31.392 266.51 27.3913 265.209C25.3868 264.563 23.7587 264.047 22.6297 263.72C22.1061 263.573 21.6725 263.45 21.3288 263.352C21.0179 263.278 20.8625 263.237 20.8543 263.254Z" fill="#263238"/>
<path d="M440.431 319.787C440.431 319.902 348.684 320 235.527 320C122.337 320 30.6067 319.902 30.6067 319.787C30.6067 319.673 122.337 319.575 235.527 319.575C348.684 319.575 440.431 319.673 440.431 319.787Z" fill="#263238"/>
<path d="M364.859 73.6655H86.3468C81.5443 73.6655 77.6499 77.5599 77.6499 82.3624V279.085C77.6499 283.887 81.5443 287.782 86.3468 287.782H193.245C193.245 287.782 200.044 308.808 178.969 319.689H278.921C278.921 319.689 255.121 311.532 261.241 287.782H364.875C369.678 287.782 373.572 283.887 373.572 279.085V82.3542C373.556 77.5517 369.661 73.6655 364.859 73.6655Z" fill="#263238"/>
<path d="M229.612 267.017C233.4 272.433 227.468 278.365 222.052 274.577C221.872 274.454 221.708 274.29 221.586 274.11C217.806 268.694 223.729 262.771 229.145 266.551C229.325 266.673 229.489 266.837 229.612 267.017Z" fill="#455A64"/>
<path d="M364.302 251.317H86.9029C85.422 251.317 84.2275 250.114 84.2275 248.642V86.2731C84.2275 84.7923 85.4302 83.5978 86.9029 83.5978H364.302C365.783 83.5978 366.978 84.8004 366.978 86.2731V248.642C366.978 250.122 365.783 251.317 364.302 251.317Z" fill="#E0E0E0"/>
<path d="M366.986 95.8863H84.2275V251.317H366.986V95.8863Z" fill="#FAFAFA"/>
<path d="M107.414 90.0775C107.414 91.321 106.399 92.3355 105.156 92.3355C103.912 92.3355 102.898 91.321 102.898 90.0775C102.898 88.8339 103.912 87.8194 105.156 87.8194C106.408 87.8194 107.414 88.8257 107.414 90.0775Z" fill="#97B8D3"/>
<path d="M93.7263 90.0775C93.7263 91.321 92.7119 92.3355 91.4683 92.3355C90.2247 92.3355 89.2102 91.321 89.2102 90.0775C89.2102 88.8339 90.2247 87.8194 91.4683 87.8194C92.72 87.8194 93.7263 88.8257 93.7263 90.0775Z" fill="#97B8D3"/>
<path d="M100.296 90.0775C100.296 91.321 99.2817 92.3355 98.0381 92.3355C96.7945 92.3355 95.78 91.321 95.78 90.0775C95.78 88.8339 96.7945 87.8194 98.0381 87.8194C99.2899 87.8194 100.296 88.8257 100.296 90.0775Z" fill="#97B8D3"/>
<path d="M223.549 168.259C223.549 168.39 213.191 168.488 200.412 168.488C187.633 168.488 177.275 168.382 177.275 168.259C177.275 168.128 187.633 168.03 200.412 168.03C213.191 168.03 223.549 168.136 223.549 168.259Z" fill="#455A64"/>
<path d="M223.549 174.452C223.549 174.583 213.191 174.682 200.412 174.682C187.633 174.682 177.275 174.575 177.275 174.452C177.275 174.322 187.633 174.223 200.412 174.223C213.191 174.223 223.549 174.33 223.549 174.452Z" fill="#455A64"/>
<path d="M205.01 180.646C205.01 180.777 198.8 180.875 191.142 180.875C183.485 180.875 177.275 180.769 177.275 180.646C177.275 180.523 183.485 180.417 191.142 180.417C198.8 180.417 205.01 180.515 205.01 180.646Z" fill="#455A64"/>
<path d="M199.275 104.992H177.275V107.782H199.275V104.992Z" fill="#455A64"/>
<path d="M225.619 113.975H177.275V160.749H225.619V113.975Z" fill="#E0E0E0"/>
<path d="M181.03 156.748L194.399 132.678L205.337 148.059L211.989 139.886L221.872 156.748H181.03Z" fill="#97B8D3"/>
<path d="M206.515 131.475C208.436 131.475 209.992 129.919 209.992 127.998C209.992 126.078 208.436 124.521 206.515 124.521C204.595 124.521 203.038 126.078 203.038 127.998C203.038 129.919 204.595 131.475 206.515 131.475Z" fill="#97B8D3"/>
<path d="M221.872 156.871C221.872 156.871 221.864 156.805 221.864 156.682C221.864 156.543 221.855 156.363 221.855 156.134C221.847 155.635 221.839 154.932 221.831 154.032C221.823 152.174 221.798 149.491 221.782 146.087C221.757 139.256 221.724 129.528 221.684 117.845L221.88 118.042C210.05 118.05 196.027 118.066 181.038 118.074C180.981 118.123 181.472 117.641 181.267 117.853V117.862V117.886V117.927V118.009V118.172V118.508V119.171V120.496C181.267 121.38 181.267 122.263 181.267 123.139C181.267 124.889 181.267 126.624 181.267 128.35C181.267 131.786 181.267 135.149 181.259 138.43C181.251 144.983 181.243 151.176 181.235 156.871L181.03 156.666C193.22 156.707 203.406 156.74 210.565 156.772C214.132 156.797 216.946 156.813 218.894 156.822C219.843 156.83 220.579 156.838 221.103 156.846C221.34 156.854 221.528 156.854 221.675 156.854C221.806 156.871 221.872 156.871 221.872 156.871C221.872 156.871 221.814 156.879 221.692 156.879C221.553 156.879 221.373 156.887 221.144 156.887C220.628 156.895 219.908 156.903 218.975 156.912C217.036 156.928 214.238 156.944 210.688 156.961C203.496 156.985 193.269 157.018 181.022 157.059H180.817V156.854C180.809 151.16 180.801 144.967 180.793 138.413C180.793 135.141 180.793 131.77 180.785 128.334C180.785 126.616 180.785 124.881 180.785 123.122C180.785 122.247 180.785 121.363 180.785 120.48V119.154V118.492V118.156V117.992V117.911V117.87V117.845V117.837C180.58 118.042 181.063 117.551 181.022 117.6C196.01 117.608 210.033 117.624 221.864 117.633H222.06V117.829C222.019 129.561 221.986 139.33 221.962 146.194C221.937 149.581 221.921 152.248 221.913 154.089C221.904 154.981 221.896 155.668 221.888 156.159C221.88 156.38 221.88 156.552 221.88 156.682C221.88 156.822 221.88 156.879 221.872 156.871Z" fill="#455A64"/>
<path d="M282.48 168.259C282.48 168.39 272.122 168.488 259.343 168.488C246.563 168.488 236.206 168.382 236.206 168.259C236.206 168.128 246.563 168.03 259.343 168.03C272.122 168.03 282.48 168.136 282.48 168.259Z" fill="#455A64"/>
<path d="M282.48 174.452C282.48 174.583 272.122 174.682 259.343 174.682C246.563 174.682 236.206 174.575 236.206 174.452C236.206 174.322 246.563 174.223 259.343 174.223C272.122 174.223 282.48 174.33 282.48 174.452Z" fill="#455A64"/>
<path d="M263.941 180.646C263.941 180.777 257.731 180.875 250.073 180.875C242.415 180.875 236.206 180.769 236.206 180.646C236.206 180.523 242.415 180.417 250.073 180.417C257.739 180.417 263.941 180.515 263.941 180.646Z" fill="#455A64"/>
<path d="M258.214 104.992H236.215V107.782H258.214V104.992Z" fill="#455A64"/>
<path d="M284.558 113.975H236.214V160.749H284.558V113.975Z" fill="#E0E0E0"/>
<path d="M239.961 156.748L253.338 132.678L264.276 148.059L270.919 139.886L280.811 156.748H239.961Z" fill="#97B8D3"/>
<path d="M268.932 127.998C268.932 129.921 267.377 131.475 265.454 131.475C263.532 131.475 261.977 129.921 261.977 127.998C261.977 126.076 263.532 124.521 265.454 124.521C267.377 124.513 268.932 126.076 268.932 127.998Z" fill="#97B8D3"/>
<path d="M280.811 156.871C280.811 156.871 280.803 156.805 280.803 156.682C280.803 156.543 280.794 156.363 280.794 156.134C280.786 155.635 280.778 154.932 280.77 154.032C280.762 152.174 280.737 149.491 280.721 146.087C280.696 139.256 280.663 129.528 280.623 117.845L280.819 118.042C268.989 118.05 254.966 118.066 239.977 118.074C239.92 118.123 240.411 117.641 240.206 117.853V117.862V117.886V117.927V118.009V118.172V118.508V119.171V120.496C240.206 121.38 240.206 122.263 240.206 123.139C240.206 124.889 240.206 126.624 240.206 128.35C240.206 131.786 240.206 135.149 240.198 138.43C240.19 144.983 240.182 151.176 240.174 156.871L239.977 156.666C252.168 156.707 262.353 156.74 269.512 156.772C273.079 156.797 275.894 156.813 277.841 156.822C278.79 156.83 279.526 156.838 280.05 156.846C280.287 156.854 280.475 156.854 280.623 156.854C280.737 156.871 280.803 156.871 280.811 156.871C280.811 156.871 280.753 156.879 280.631 156.879C280.492 156.879 280.312 156.887 280.083 156.887C279.567 156.895 278.847 156.903 277.914 156.912C275.975 156.928 273.177 156.944 269.627 156.961C262.435 156.985 252.208 157.018 239.961 157.059H239.756V156.854C239.748 151.16 239.74 144.967 239.732 138.413C239.732 135.141 239.732 131.77 239.724 128.334C239.724 126.616 239.724 124.881 239.724 123.122C239.724 122.247 239.724 121.363 239.724 120.48V119.154V118.492V118.156V117.992V117.911V117.87V117.845V117.837C239.519 118.042 240.002 117.551 239.961 117.6C254.949 117.608 268.972 117.624 280.803 117.633H280.999V117.829C280.958 129.561 280.925 139.33 280.901 146.194C280.876 149.581 280.86 152.248 280.852 154.089C280.843 154.981 280.835 155.668 280.827 156.159C280.819 156.38 280.819 156.552 280.819 156.682C280.819 156.822 280.811 156.879 280.811 156.871Z" fill="#455A64"/>
<path d="M200.829 189.269H178.83V192.059H200.829V189.269Z" fill="#455A64"/>
<path d="M227.174 198.26H178.83V245.034H227.174V198.26Z" fill="#E0E0E0"/>
<path d="M182.577 241.025L195.945 216.955L206.884 232.344L213.535 224.171L223.419 241.025H182.577Z" fill="#97B8D3"/>
<path d="M211.547 212.275C211.547 214.198 209.993 215.752 208.07 215.752C206.147 215.752 204.593 214.198 204.593 212.275C204.593 210.353 206.147 208.798 208.07 208.798C209.993 208.798 211.547 210.353 211.547 212.275Z" fill="#97B8D3"/>
<path d="M223.418 241.156C223.418 241.156 223.41 241.09 223.41 240.967C223.41 240.828 223.402 240.648 223.402 240.419C223.394 239.92 223.386 239.217 223.377 238.317C223.369 236.46 223.345 233.776 223.328 230.373C223.304 223.541 223.271 213.813 223.23 202.13L223.427 202.327C211.596 202.335 197.573 202.351 182.585 202.359C182.528 202.408 183.018 201.926 182.814 202.138V202.147V202.171V202.212V202.294V202.458V202.793V203.456V204.781C182.814 205.665 182.814 206.548 182.814 207.424C182.814 209.174 182.814 210.909 182.814 212.635C182.814 216.071 182.814 219.434 182.806 222.715C182.798 229.268 182.789 235.461 182.781 241.156L182.577 240.951C194.767 240.992 204.953 241.025 212.112 241.057C215.679 241.082 218.493 241.098 220.44 241.107C221.389 241.115 222.126 241.123 222.649 241.131C222.887 241.139 223.075 241.139 223.222 241.139C223.353 241.147 223.418 241.147 223.418 241.156C223.418 241.156 223.361 241.164 223.238 241.164C223.099 241.164 222.919 241.172 222.69 241.172C222.175 241.18 221.455 241.188 220.522 241.197C218.583 241.205 215.785 241.229 212.234 241.246C205.043 241.27 194.816 241.303 182.569 241.344H182.364V241.139C182.356 235.445 182.348 229.252 182.339 222.698C182.339 219.426 182.339 216.055 182.331 212.619C182.331 210.901 182.331 209.166 182.331 207.407C182.331 206.532 182.331 205.648 182.331 204.765V203.439V202.777V202.441V202.278V202.196V202.155V202.13V202.122C182.127 202.327 182.609 201.836 182.569 201.885C197.557 201.893 211.58 201.909 223.41 201.918H223.607V202.114C223.566 213.846 223.533 223.615 223.508 230.479C223.484 233.866 223.467 236.533 223.459 238.374C223.451 239.266 223.443 239.953 223.435 240.444C223.427 240.665 223.427 240.837 223.427 240.967C223.427 241.098 223.427 241.156 223.418 241.156Z" fill="#455A64"/>
<path d="M259.801 189.269H237.801V192.059H259.801V189.269Z" fill="#455A64"/>
<path d="M286.145 198.26H237.801V245.034H286.145V198.26Z" fill="#E0E0E0"/>
<path d="M241.548 241.025L254.925 216.955L265.864 232.344L272.507 224.171L282.398 241.025H241.548Z" fill="#97B8D3"/>
<path d="M270.527 212.275C270.527 214.198 268.972 215.752 267.05 215.752C265.127 215.752 263.573 214.198 263.573 212.275C263.573 210.353 265.127 208.798 267.05 208.798C268.972 208.798 270.527 210.353 270.527 212.275Z" fill="#97B8D3"/>
<path d="M282.398 241.156C282.398 241.156 282.39 241.09 282.39 240.967C282.39 240.828 282.382 240.648 282.382 240.419C282.374 239.92 282.365 239.217 282.357 238.317C282.349 236.46 282.324 233.776 282.308 230.373C282.284 223.541 282.251 213.813 282.21 202.13L282.406 202.327C270.576 202.335 256.553 202.351 241.565 202.359C241.507 202.408 241.998 201.926 241.794 202.138V202.147V202.171V202.212V202.294V202.458V202.793V203.456V204.781C241.794 205.665 241.794 206.548 241.794 207.424C241.794 209.174 241.794 210.909 241.794 212.635C241.794 216.071 241.794 219.434 241.785 222.715C241.777 229.268 241.769 235.461 241.761 241.156L241.556 240.951C253.747 240.992 263.933 241.025 271.091 241.057C274.658 241.082 277.473 241.098 279.42 241.107C280.369 241.115 281.105 241.123 281.629 241.131C281.866 241.139 282.054 241.139 282.202 241.139C282.324 241.147 282.398 241.147 282.398 241.156C282.398 241.156 282.341 241.164 282.218 241.164C282.079 241.164 281.899 241.172 281.67 241.172C281.155 241.18 280.435 241.188 279.502 241.197C277.563 241.205 274.765 241.229 271.214 241.246C264.023 241.27 253.796 241.303 241.548 241.344H241.344V241.139C241.336 235.445 241.327 229.252 241.319 222.698C241.319 219.426 241.319 216.055 241.311 212.619C241.311 210.901 241.311 209.166 241.311 207.407C241.311 206.532 241.311 205.648 241.311 204.765V203.439V202.777V202.441V202.278V202.196V202.155V202.13V202.122C241.106 202.327 241.589 201.836 241.548 201.885C256.537 201.893 270.56 201.909 282.39 201.918H282.586V202.114C282.545 213.846 282.513 223.615 282.488 230.479C282.464 233.866 282.447 236.533 282.439 238.374C282.431 239.266 282.423 239.953 282.414 240.444C282.406 240.665 282.406 240.837 282.406 240.967C282.406 241.098 282.406 241.156 282.398 241.156Z" fill="#455A64"/>
<path d="M320.662 189.269H298.663V192.059H320.662V189.269Z" fill="#455A64"/>
<path d="M347.007 198.26H298.663V245.034H347.007V198.26Z" fill="#E0E0E0"/>
<path d="M302.41 241.025L315.778 216.955L326.717 232.344L333.368 224.171L343.252 241.025H302.41Z" fill="#97B8D3"/>
<path d="M331.38 212.275C331.38 214.198 329.826 215.752 327.903 215.752C325.98 215.752 324.426 214.198 324.426 212.275C324.426 210.353 325.98 208.798 327.903 208.798C329.817 208.798 331.38 210.353 331.38 212.275Z" fill="#97B8D3"/>
<path d="M343.251 241.156C343.251 241.156 343.243 241.09 343.243 240.967C343.243 240.828 343.235 240.648 343.235 240.419C343.227 239.92 343.219 239.217 343.211 238.317C343.202 236.46 343.178 233.776 343.161 230.373C343.137 223.541 343.104 213.813 343.063 202.13L343.26 202.327C331.429 202.335 317.406 202.351 302.418 202.359C302.361 202.408 302.852 201.926 302.647 202.138V202.147V202.171V202.212V202.294V202.458V202.793V203.456V204.781C302.647 205.665 302.647 206.548 302.647 207.424C302.647 209.174 302.647 210.909 302.647 212.635C302.647 216.071 302.647 219.434 302.639 222.715C302.631 229.268 302.623 235.461 302.614 241.156L302.41 240.951C314.6 240.992 324.786 241.025 331.945 241.057C335.512 241.082 338.326 241.098 340.273 241.107C341.222 241.115 341.959 241.123 342.482 241.131C342.72 241.139 342.908 241.139 343.055 241.139C343.186 241.147 343.251 241.147 343.251 241.156C343.251 241.156 343.194 241.164 343.071 241.164C342.932 241.164 342.752 241.172 342.523 241.172C342.008 241.18 341.288 241.188 340.355 241.197C338.416 241.205 335.618 241.229 332.067 241.246C324.876 241.27 314.649 241.303 302.402 241.344H302.205V241.139C302.197 235.445 302.189 229.252 302.181 222.698C302.181 219.426 302.181 216.055 302.173 212.619C302.173 210.901 302.173 209.166 302.173 207.407C302.173 206.532 302.173 205.648 302.173 204.765V203.439V202.777V202.441V202.278V202.196V202.155V202.13V202.122C301.968 202.327 302.451 201.836 302.41 201.885C317.398 201.893 331.421 201.909 343.251 201.918H343.448V202.114C343.407 213.846 343.374 223.615 343.35 230.479C343.325 233.866 343.309 236.533 343.301 238.374C343.292 239.266 343.284 239.953 343.276 240.444C343.268 240.665 343.268 240.837 343.268 240.967C343.26 241.098 343.26 241.156 343.251 241.156Z" fill="#455A64"/>
<path d="M342.474 160.749C342.474 160.618 344.846 160.52 347.784 160.52C347.325 160.978 347.653 160.642 347.555 160.749V160.74V160.732V160.716V160.683V160.618V160.479V160.209C347.555 160.029 347.555 159.857 347.555 159.685C347.563 159.35 347.563 159.014 347.571 158.687C347.587 158.106 347.604 157.541 347.62 157.001C347.661 156.044 347.718 155.447 347.784 155.447C347.849 155.447 347.906 156.044 347.947 157.001C347.964 157.55 347.98 158.106 347.996 158.687C348.005 159.014 348.005 159.341 348.013 159.685C348.013 159.857 348.013 160.037 348.013 160.209V160.479V160.618V160.683V160.716V160.732V160.74V160.749C347.906 160.855 348.242 160.519 347.784 160.978C344.855 160.978 342.474 160.871 342.474 160.749Z" fill="#455A64"/>
<path d="M318.372 160.749C318.372 160.618 321.071 160.52 324.401 160.52C327.731 160.52 330.431 160.626 330.431 160.749C330.431 160.871 327.731 160.978 324.401 160.978C321.063 160.978 318.372 160.871 318.372 160.749Z" fill="#455A64"/>
<path d="M301.011 155.439C301.142 155.439 301.24 157.811 301.24 160.749C300.782 160.29 301.117 160.618 301.011 160.519H301.019H301.035H301.076H301.142H301.281H301.551C301.731 160.519 301.902 160.519 302.074 160.519C302.41 160.528 302.745 160.528 303.072 160.536C303.653 160.552 304.21 160.569 304.758 160.585C305.715 160.626 306.312 160.683 306.312 160.749C306.312 160.814 305.715 160.871 304.758 160.912C304.21 160.929 303.653 160.945 303.072 160.961C302.745 160.969 302.418 160.969 302.074 160.978C301.902 160.978 301.722 160.978 301.551 160.978H301.281H301.142H301.076H301.043H301.027H301.019C300.912 160.871 301.248 161.207 300.79 160.749C300.773 157.82 300.88 155.439 301.011 155.439Z" fill="#455A64"/>
<path d="M301.011 131.336C301.142 131.336 301.24 134.036 301.24 137.366C301.24 140.696 301.133 143.396 301.011 143.396C300.888 143.396 300.782 140.696 300.782 137.366C300.774 134.028 300.88 131.336 301.011 131.336Z" fill="#455A64"/>
<path d="M306.312 113.975C306.312 114.106 303.94 114.204 301.003 114.204C301.461 113.746 301.133 114.082 301.232 113.975V113.984V113.992V114.008V114.041V114.106V114.245V114.515C301.232 114.695 301.232 114.867 301.232 115.039C301.223 115.374 301.223 115.71 301.215 116.037C301.199 116.618 301.182 117.174 301.166 117.722C301.125 118.68 301.068 119.277 301.003 119.277C300.937 119.277 300.88 118.68 300.839 117.722C300.823 117.174 300.806 116.618 300.79 116.037C300.79 115.71 300.782 115.383 300.773 115.039C300.773 114.867 300.773 114.687 300.773 114.515V114.245V114.106V114.041V114.008V113.992V113.984V113.975C300.88 113.869 300.544 114.204 301.003 113.746C303.94 113.738 306.312 113.844 306.312 113.975Z" fill="#455A64"/>
<path d="M330.423 113.975C330.423 114.106 327.723 114.204 324.393 114.204C321.063 114.204 318.363 114.098 318.363 113.975C318.363 113.844 321.063 113.746 324.393 113.746C327.723 113.738 330.423 113.844 330.423 113.975Z" fill="#455A64"/>
<path d="M347.784 119.277C347.653 119.277 347.555 116.904 347.555 113.967C348.013 114.425 347.686 114.098 347.784 114.196H347.776H347.767H347.751H347.718H347.653H347.514H347.244C347.064 114.196 346.892 114.196 346.72 114.196C346.385 114.188 346.049 114.188 345.722 114.18C345.141 114.164 344.585 114.147 344.037 114.131C343.079 114.09 342.482 114.033 342.482 113.967C342.482 113.902 343.079 113.845 344.037 113.804C344.585 113.787 345.141 113.771 345.722 113.755C346.049 113.746 346.377 113.746 346.72 113.738C346.892 113.738 347.072 113.738 347.244 113.738H347.514H347.653H347.71H347.743H347.759H347.767H347.776C347.882 113.845 347.546 113.509 348.005 113.967C348.013 116.904 347.906 119.277 347.784 119.277Z" fill="#455A64"/>
<path d="M347.784 143.388C347.653 143.388 347.555 140.688 347.555 137.358C347.555 134.028 347.661 131.328 347.784 131.328C347.915 131.328 348.013 134.028 348.013 137.358C348.013 140.688 347.906 143.388 347.784 143.388Z" fill="#455A64"/>
<path d="M347.105 168.194C347.105 168.325 336.747 168.423 323.968 168.423C311.188 168.423 300.831 168.316 300.831 168.194C300.831 168.063 311.188 167.965 323.968 167.965C336.747 167.965 347.105 168.071 347.105 168.194Z" fill="#455A64"/>
<path d="M347.105 174.387C347.105 174.518 336.747 174.616 323.968 174.616C311.188 174.616 300.831 174.51 300.831 174.387C300.831 174.256 311.188 174.158 323.968 174.158C336.747 174.158 347.105 174.264 347.105 174.387Z" fill="#455A64"/>
<path d="M322.83 104.927H300.831V107.717H322.83V104.927Z" fill="#455A64"/>
<path d="M154.784 141.318C154.784 154.408 144.173 165.027 131.075 165.027C117.984 165.027 107.365 154.416 107.365 141.318C107.365 128.227 117.976 117.608 131.075 117.608C144.173 117.616 154.784 128.227 154.784 141.318Z" fill="#E0E0E0"/>
<path d="M159.48 192.992C159.48 193.122 147.306 193.221 132.285 193.221C117.264 193.221 105.09 193.114 105.09 192.992C105.09 192.861 117.264 192.762 132.285 192.762C147.306 192.762 159.48 192.869 159.48 192.992Z" fill="#455A64"/>
<path d="M159.48 199.005C159.48 199.136 147.306 199.234 132.285 199.234C117.264 199.234 105.09 199.128 105.09 199.005C105.09 198.874 117.264 198.776 132.285 198.776C147.306 198.776 159.48 198.882 159.48 199.005Z" fill="#455A64"/>
<path d="M159.48 205.026C159.48 205.157 147.306 205.256 132.285 205.256C117.264 205.256 105.09 205.149 105.09 205.026C105.09 204.896 117.264 204.797 132.285 204.797C147.306 204.797 159.48 204.896 159.48 205.026Z" fill="#455A64"/>
<path d="M136.343 211.171C136.343 211.302 129.283 211.4 120.578 211.4C111.864 211.4 104.812 211.293 104.812 211.171C104.812 211.048 111.873 210.942 120.578 210.942C129.283 210.942 136.343 211.04 136.343 211.171Z" fill="#455A64"/>
<path d="M105.097 183.458H142.568V180.717H105.097V183.458Z" fill="#455A64"/>
<path d="M116.225 159.431C120.259 162.917 125.503 165.027 131.246 165.027C137.006 165.027 142.259 162.908 146.292 159.415C145.04 155.128 141.98 150.039 134.544 148.91C137.775 147.552 140.074 144.222 140.091 140.287C140.115 135.141 136.221 130.944 131.394 130.927C126.567 130.903 122.64 135.059 122.615 140.205C122.599 144.173 124.914 147.544 128.187 148.91C120.619 150.047 117.502 155.169 116.225 159.431Z" fill="#97B8D3"/>
<path d="M126.1 220.555H105.09V223.116H126.1V220.555Z" fill="#97B8D3"/>
</svg>
