<svg width="64" height="58" viewBox="0 0 64 58" fill="none" xmlns="http://www.w3.org/2000/svg">
<path d="M8.2865 4.91286V57.8483H42.8048C44.9552 57.8483 46.6988 56.1001 46.6988 53.944V4.91286V4.50047C46.6988 2.0149 48.7084 0 51.1874 0H13.1864C10.4805 0 8.2865 2.19981 8.2865 4.91286Z" fill="white"/>
<path d="M63.7231 41.2202V12.9993H55.2109V41.4455C55.2109 43.6733 57.0126 45.4797 59.2346 45.4797H59.2413C61.6398 45.4797 63.598 43.5937 63.7231 41.2202Z" fill="#C4C4C4"/>
<path d="M55.2109 41.4455V39.7825V12.9994V4.03428C55.2109 1.80646 53.4093 0 51.1873 0C48.7083 0 46.6987 2.0149 46.6987 4.50047V4.91286V39.7825V40.567V45.4798H59.2346C57.0126 45.4798 55.2109 43.6734 55.2109 41.4455Z" fill="#E0E0E0"/>
<path d="M38.1865 53.814V46.2822H0V53.814C0 56.0418 1.80169 57.8483 4.02363 57.8483H4.03034H42.2101C39.9882 57.8483 38.1865 56.0418 38.1865 53.814Z" fill="#E0E0E0"/>
<path d="M17.3878 13.0104H13.7643C13.2356 13.0104 12.8053 12.579 12.8053 12.0489V8.41695C12.8053 7.88689 13.2356 7.45544 13.7643 7.45544H17.3878C17.9164 7.45544 18.3467 7.88689 18.3467 8.41695V12.05C18.3467 12.5801 17.9164 13.0104 17.3878 13.0104ZM13.7643 8.01576C13.5441 8.01576 13.3641 8.19618 13.3641 8.41695V12.05C13.3641 12.2708 13.5441 12.4512 13.7643 12.4512H17.3878C17.608 12.4512 17.7879 12.2708 17.7879 12.05V8.41695C17.7879 8.19618 17.608 8.01576 17.3878 8.01576H13.7643Z" fill="#FFB073"/>
<path d="M15.6554 12.1689L13.7084 9.25303L14.4516 8.75435L15.4978 10.321L17.6594 5.4552L18.4753 5.81941L15.6554 12.1689Z" fill="#4FB9C1"/>
<path d="M17.3878 22.843H13.7643C13.2356 22.843 12.8053 22.4115 12.8053 21.8815V18.2484C12.8053 17.7183 13.2356 17.2869 13.7643 17.2869H17.3878C17.9164 17.2869 18.3467 17.7183 18.3467 18.2484V21.8815C18.3467 22.4126 17.9164 22.843 17.3878 22.843ZM13.7643 17.8483C13.5441 17.8483 13.3641 18.0287 13.3641 18.2495V21.8826C13.3641 22.1033 13.5441 22.2838 13.7643 22.2838H17.3878C17.608 22.2838 17.7879 22.1033 17.7879 21.8826V18.2495C17.7879 18.0287 17.608 17.8483 17.3878 17.8483H13.7643Z" fill="#FFB073"/>
<path d="M15.6554 22.0014L13.7084 19.0856L14.4516 18.5869L15.4978 20.1535L17.6594 15.2877L18.4753 15.6519L15.6554 22.0014Z" fill="#4FB9C1"/>
<path d="M17.3878 32.6754H13.7643C13.2356 32.6754 12.8053 32.2439 12.8053 31.7139V28.0808C12.8053 27.5507 13.2356 27.1193 13.7643 27.1193H17.3878C17.9164 27.1193 18.3467 27.5507 18.3467 28.0808V31.7139C18.3467 32.245 17.9164 32.6754 17.3878 32.6754ZM13.7643 27.6807C13.5441 27.6807 13.3641 27.8611 13.3641 28.0819V31.715C13.3641 31.9358 13.5441 32.1162 13.7643 32.1162H17.3878C17.608 32.1162 17.7879 31.9358 17.7879 31.715V28.0819C17.7879 27.8611 17.608 27.6807 17.3878 27.6807H13.7643Z" fill="#FFB073"/>
<path d="M15.6554 31.8338L13.7084 28.9179L14.4516 28.4193L15.4978 29.9859L17.6594 25.1201L18.4753 25.4843L15.6554 31.8338Z" fill="#4FB9C1"/>
<path d="M17.3878 42.5079H13.7643C13.2356 42.5079 12.8053 42.0764 12.8053 41.5464V37.9133C12.8053 37.3832 13.2356 36.9518 13.7643 36.9518H17.3878C17.9164 36.9518 18.3467 37.3832 18.3467 37.9133V41.5464C18.3467 42.0776 17.9164 42.5079 17.3878 42.5079ZM13.7643 37.5132C13.5441 37.5132 13.3641 37.6936 13.3641 37.9144V41.5475C13.3641 41.7683 13.5441 41.9487 13.7643 41.9487H17.3878C17.608 41.9487 17.7879 41.7683 17.7879 41.5475V37.9144C17.7879 37.6936 17.608 37.5132 17.3878 37.5132H13.7643Z" fill="#FFB073"/>
<path d="M42.2103 40.2363H21.1052V41.7223H42.2103V40.2363Z" fill="#E0E0E0"/>
<path d="M32.6285 37.7384H21.1052V39.2244H32.6285V37.7384Z" fill="#E0E0E0"/>
<path d="M42.2103 30.4039H21.1052V31.8899H42.2103V30.4039Z" fill="#E0E0E0"/>
<path d="M32.6285 27.906H21.1052V29.392H32.6285V27.906Z" fill="#E0E0E0"/>
<path d="M42.2103 20.5714H21.1052V22.0574H42.2103V20.5714Z" fill="#E0E0E0"/>
<path d="M32.6285 18.0735H21.1052V19.5594H32.6285V18.0735Z" fill="#E0E0E0"/>
<path d="M42.2103 10.7389H21.1052V12.2249H42.2103V10.7389Z" fill="#E0E0E0"/>
<path d="M32.6285 8.24109H21.1052V9.72705H32.6285V8.24109Z" fill="#E0E0E0"/>
</svg>
