<svg width="46" height="55" viewBox="0 0 46 55" fill="none" xmlns="http://www.w3.org/2000/svg">
<mask id="path-1-outside-1" maskUnits="userSpaceOnUse" x="0" y="-1" width="46" height="31" fill="black">
<rect fill="white" y="-1" width="46" height="31"/>
<path fill-rule="evenodd" clip-rule="evenodd" d="M24.2543 3.66261C25.5914 1.84657 28.1475 1.4583 29.9635 2.79538L41.2293 11.09C42.8405 11.6366 44 13.1618 44 14.9577C44 15.1069 43.992 15.2541 43.9764 15.3991C43.9667 16.7053 43.3317 17.9841 42.1644 18.7656L29.7698 27.0637C27.8958 28.3183 25.3596 27.8162 24.105 25.9423C22.8504 24.0683 23.3525 21.5321 25.2264 20.2775L27.0733 19.0411H6.08334C3.82817 19.0411 2 17.2129 2 14.9577C2 12.7026 3.82817 10.8744 6.08333 10.8744H27.1623L25.1216 9.37183C23.3055 8.03475 22.9172 5.47864 24.2543 3.66261Z"/>
</mask>
<path fill-rule="evenodd" clip-rule="evenodd" d="M24.2543 3.66261C25.5914 1.84657 28.1475 1.4583 29.9635 2.79538L41.2293 11.09C42.8405 11.6366 44 13.1618 44 14.9577C44 15.1069 43.992 15.2541 43.9764 15.3991C43.9667 16.7053 43.3317 17.9841 42.1644 18.7656L29.7698 27.0637C27.8958 28.3183 25.3596 27.8162 24.105 25.9423C22.8504 24.0683 23.3525 21.5321 25.2264 20.2775L27.0733 19.0411H6.08334C3.82817 19.0411 2 17.2129 2 14.9577C2 12.7026 3.82817 10.8744 6.08333 10.8744H27.1623L25.1216 9.37183C23.3055 8.03475 22.9172 5.47864 24.2543 3.66261Z" fill="#FF6363"/>
<path d="M29.9635 2.79538L31.1493 1.18482V1.18482L29.9635 2.79538ZM24.2543 3.66261L25.8649 4.8484V4.8484L24.2543 3.66261ZM41.2293 11.09L40.0435 12.7005L40.2932 12.8843L40.5868 12.9839L41.2293 11.09ZM43.9764 15.3991L41.9879 15.1854L41.9772 15.2845L41.9765 15.3843L43.9764 15.3991ZM42.1644 18.7656L43.2771 20.4275L42.1644 18.7656ZM29.7698 27.0637L30.8824 28.7256L30.8824 28.7256L29.7698 27.0637ZM25.2264 20.2775L24.1138 18.6156L24.1138 18.6156L25.2264 20.2775ZM27.0733 19.0411L28.1859 20.703L33.6556 17.0411H27.0733V19.0411ZM27.1623 10.8744V12.8744H33.252L28.3481 9.26383L27.1623 10.8744ZM25.1216 9.37183L26.3073 7.76127V7.76127L25.1216 9.37183ZM31.1493 1.18482C28.4438 -0.807149 24.6357 -0.228707 22.6438 2.47682L25.8649 4.8484C26.5471 3.92185 27.8512 3.72375 28.7777 4.40594L31.1493 1.18482ZM42.4151 9.4794L31.1493 1.18482L28.7777 4.40594L40.0435 12.7005L42.4151 9.4794ZM46 14.9577C46 12.279 44.2699 10.0096 41.8719 9.19599L40.5868 12.9839C41.4112 13.2636 42 14.0445 42 14.9577H46ZM45.965 15.6129C45.9882 15.397 46 15.1784 46 14.9577H42C42 15.0353 41.9958 15.1112 41.9879 15.1854L45.965 15.6129ZM41.9765 15.3843C41.9715 16.0567 41.6458 16.7059 41.0518 17.1036L43.2771 20.4275C45.0176 19.2622 45.9619 17.354 45.9764 15.414L41.9765 15.3843ZM41.0518 17.1036L28.6571 25.4018L30.8824 28.7256L43.2771 20.4275L41.0518 17.1036ZM28.6571 25.4018C27.701 26.0419 26.407 25.7857 25.7669 24.8296L22.4431 27.0549C24.3122 29.8467 28.0906 30.5947 30.8824 28.7256L28.6571 25.4018ZM25.7669 24.8296C25.1268 23.8735 25.383 22.5795 26.3391 21.9394L24.1138 18.6156C21.322 20.4847 20.574 24.2631 22.4431 27.0549L25.7669 24.8296ZM26.3391 21.9394L28.1859 20.703L25.9606 17.3791L24.1138 18.6156L26.3391 21.9394ZM6.08334 21.0411H27.0733V17.0411H6.08334V21.0411ZM0 14.9577C0 18.3175 2.7236 21.0411 6.08334 21.0411V17.0411C4.93274 17.0411 4 16.1083 4 14.9577H0ZM6.08333 8.87439C2.7236 8.87439 0 11.598 0 14.9577H4C4 13.8071 4.93274 12.8744 6.08333 12.8744V8.87439ZM27.1623 8.87439H6.08333V12.8744H27.1623V8.87439ZM23.9358 10.9824L25.9766 12.4849L28.3481 9.26383L26.3073 7.76127L23.9358 10.9824ZM22.6438 2.47682C20.6518 5.18234 21.2302 8.99041 23.9358 10.9824L26.3073 7.76127C25.3808 7.07908 25.1827 5.77495 25.8649 4.8484L22.6438 2.47682Z" fill="white" mask="url(#path-1-outside-1)"/>
<mask id="path-3-outside-2" maskUnits="userSpaceOnUse" x="-2.62268e-07" y="24.2545" width="46" height="31" fill="black">
<rect fill="white" x="-2.62268e-07" y="24.2545" width="46" height="31"/>
<path fill-rule="evenodd" clip-rule="evenodd" d="M21.7457 50.5919C20.4086 52.4079 17.8525 52.7962 16.0365 51.4591L4.77066 43.1646C3.15946 42.6179 2 41.0927 2 39.2968C2 39.1477 2.008 39.0004 2.02358 38.8554C2.03328 37.5492 2.66828 36.2704 3.83557 35.4889L16.2302 27.1908C18.1042 25.9362 20.6404 26.4383 21.895 28.3122C23.1496 30.1862 22.6475 32.7224 20.7736 33.977L18.9267 35.2135L39.9167 35.2135C42.1718 35.2135 44 37.0416 44 39.2968C44 41.552 42.1718 43.3801 39.9167 43.3801L18.8376 43.3801L20.8784 44.8827C22.6945 46.2198 23.0828 48.7759 21.7457 50.5919Z"/>
</mask>
<path fill-rule="evenodd" clip-rule="evenodd" d="M21.7457 50.5919C20.4086 52.4079 17.8525 52.7962 16.0365 51.4591L4.77066 43.1646C3.15946 42.6179 2 41.0927 2 39.2968C2 39.1477 2.008 39.0004 2.02358 38.8554C2.03328 37.5492 2.66828 36.2704 3.83557 35.4889L16.2302 27.1908C18.1042 25.9362 20.6404 26.4383 21.895 28.3122C23.1496 30.1862 22.6475 32.7224 20.7736 33.977L18.9267 35.2135L39.9167 35.2135C42.1718 35.2135 44 37.0416 44 39.2968C44 41.552 42.1718 43.3801 39.9167 43.3801L18.8376 43.3801L20.8784 44.8827C22.6945 46.2198 23.0828 48.7759 21.7457 50.5919Z" fill="#FF6363"/>
<path d="M16.0365 51.4591L14.8507 53.0697L14.8507 53.0697L16.0365 51.4591ZM21.7457 50.5919L20.1351 49.4061L20.1351 49.4061L21.7457 50.5919ZM4.77066 43.1646L5.95645 41.554L5.70681 41.3702L5.41324 41.2706L4.77066 43.1646ZM2.02358 38.8554L4.01213 39.0691L4.02278 38.97L4.02353 38.8703L2.02358 38.8554ZM3.83557 35.4889L2.72291 33.827L3.83557 35.4889ZM16.2302 27.1908L15.1176 25.5289L16.2302 27.1908ZM20.7736 33.977L21.8862 35.6389L20.7736 33.977ZM18.9267 35.2135L17.8141 33.5515L12.3444 37.2135L18.9267 37.2135L18.9267 35.2135ZM18.8376 43.3801L18.8376 41.3801L12.7479 41.3801L17.6519 44.9907L18.8376 43.3801ZM20.8784 44.8827L22.0642 43.2721L20.8784 44.8827ZM14.8507 53.0697C17.5562 55.0617 21.3643 54.4832 23.3562 51.7777L20.1351 49.4061C19.4529 50.3327 18.1488 50.5308 17.2223 49.8486L14.8507 53.0697ZM3.58487 44.7751L14.8507 53.0697L17.2223 49.8486L5.95645 41.554L3.58487 44.7751ZM1.1328e-06 39.2968C8.9862e-07 41.9755 1.7301 44.2449 4.12808 45.0585L5.41324 41.2706C4.58881 40.9909 4 40.21 4 39.2968L1.1328e-06 39.2968ZM0.0350316 38.6417C0.0118344 38.8575 1.15209e-06 39.0761 1.1328e-06 39.2968L4 39.2968C4 39.2192 4.00416 39.1433 4.01213 39.0691L0.0350316 38.6417ZM4.02353 38.8703C4.02852 38.1978 4.35418 37.5486 4.94822 37.1509L2.72291 33.827C0.982378 34.9923 0.0380415 36.9006 0.0236332 38.8406L4.02353 38.8703ZM4.94822 37.1509L17.3429 28.8527L15.1176 25.5289L2.72291 33.827L4.94822 37.1509ZM17.3429 28.8527C18.299 28.2126 19.593 28.4688 20.2331 29.4249L23.5569 27.1996C21.6878 24.4078 17.9094 23.6598 15.1176 25.5289L17.3429 28.8527ZM20.2331 29.4249C20.8732 30.381 20.617 31.675 19.6609 32.3151L21.8862 35.6389C24.678 33.7698 25.426 29.9914 23.5569 27.1996L20.2331 29.4249ZM19.6609 32.3151L17.8141 33.5515L20.0394 36.8754L21.8862 35.6389L19.6609 32.3151ZM39.9167 33.2135L18.9267 33.2135L18.9267 37.2135L39.9167 37.2135L39.9167 33.2135ZM46 39.2968C46 35.9371 43.2764 33.2135 39.9167 33.2135L39.9167 37.2135C41.0673 37.2135 42 38.1462 42 39.2968L46 39.2968ZM39.9167 45.3801C43.2764 45.3801 46 42.6565 46 39.2968L42 39.2968C42 40.4474 41.0673 41.3801 39.9167 41.3801L39.9167 45.3801ZM18.8376 45.3801L39.9167 45.3801L39.9167 41.3801L18.8376 41.3801L18.8376 45.3801ZM22.0642 43.2721L20.0234 41.7696L17.6519 44.9907L19.6927 46.4932L22.0642 43.2721ZM23.3562 51.7777C25.3482 49.0722 24.7698 45.2641 22.0642 43.2721L19.6927 46.4932C20.6192 47.1754 20.8173 48.4796 20.1351 49.4061L23.3562 51.7777Z" fill="white" mask="url(#path-3-outside-2)"/>
</svg>
