<svg width="66" height="59" viewBox="0 0 66 59" fill="none" xmlns="http://www.w3.org/2000/svg">
<path d="M22.7551 41.7136C23.696 42.2059 24.3063 41.1181 24.3033 40.3222C24.301 39.5798 23.9215 38.6644 24.8677 38.3957C25.2664 38.2824 25.7684 38.3163 26.1015 38.0266C26.4059 37.7629 26.4185 37.4337 26.3187 37.0681C26.2491 36.8175 25.6587 35.9199 25.6016 35.4199C25.7373 35.3864 25.8742 35.3506 26.01 35.3171C26.0908 35.3945 26.1781 35.4676 26.2688 35.5335C26.4707 35.6323 26.5821 35.7289 26.8166 35.7726C26.8935 35.7875 26.8995 35.7077 26.8797 35.6509C26.729 35.2194 26.5765 34.7885 26.4258 34.357C26.2763 33.9291 26.0026 33.5047 26.6188 33.2895C27.3521 33.0333 28.427 33.9032 29.0033 34.2697C29.738 34.7363 30.4746 35.2023 31.2093 35.6689C31.749 36.0104 32.3082 36.4706 32.9145 36.6892C33.571 36.9261 34.5628 36.6454 34.3083 35.774C34.21 35.4358 33.9009 35.201 33.6381 34.996C32.8777 34.4048 32.7451 33.6144 32.2132 32.8956C31.956 32.5471 31.6311 32.3358 31.2378 32.1624C30.9086 32.0183 30.4984 31.9504 30.194 31.7579C29.209 31.1336 29.3713 30.3776 30.146 29.9317C30.8027 29.553 31.5825 29.7548 32.2916 29.8C32.6643 29.8233 33.2522 29.875 33.3291 29.3879C33.3569 29.2108 33.2888 29.0214 33.1473 28.9015C33.0576 28.8272 32.853 28.8349 32.7992 28.772C32.5192 28.4494 33.2854 27.9906 33.6075 27.8004C34.3083 27.3883 35.0417 27.1321 35.8015 26.8548C36.3335 26.661 36.9591 26.3927 37.0415 25.7503C37.1297 25.0501 36.5317 24.6672 35.9114 24.6766C35.6046 24.6822 35.3041 24.7632 34.9986 24.7783C34.4321 24.8048 34.0628 24.5632 33.5931 24.251C33.422 24.1375 33.2703 24.0112 33.084 23.9228C32.9097 23.8402 32.7396 23.798 32.5574 23.7441C32.4661 23.7222 32.3754 23.7021 32.284 23.6802C31.739 23.6255 31.5576 23.2147 31.7382 22.4483C31.7839 22.4363 31.7858 22.4018 31.7834 22.3608C31.7682 22.129 31.7106 21.9698 31.5252 21.8154C31.0875 21.4522 30.7317 21.7399 30.3047 21.9548C30.1178 22.1097 29.9051 22.2139 29.6655 22.2637C29.2955 22.0144 29.2131 21.7443 29.4154 21.4565C29.4796 21.0754 29.8351 20.5986 30.0062 20.25C30.2993 19.6515 30.5923 19.0531 30.8865 18.4523C31.5047 17.9176 32.1197 17.4079 32.4864 16.8834C32.6887 16.5956 32.8604 16.2886 33.0297 15.9804C34.0242 14.9716 35.0229 13.9633 36.0784 13.0209C36.5277 12.6189 36.9898 12.2364 37.467 11.8685C37.6593 11.7973 37.8511 11.7304 38.0478 11.6716C38.405 11.5648 38.8126 11.4942 39.1162 11.2567C39.4339 11.0082 39.6452 10.6037 39.5336 10.2044C39.6094 10.0962 39.6774 9.9828 39.7274 9.85776C39.9946 9.19663 39.7462 8.29717 39.045 8.01806C37.964 7.58674 36.8863 8.77398 36.3024 9.7091C36.0742 9.80872 35.8723 9.9151 35.7185 10.0166C34.0041 11.1434 32.7493 12.9643 31.2811 14.3736C30.2752 15.3385 26.4487 18.735 25.4981 16.1901C25.1283 15.1995 26.0705 13.5276 26.4037 12.6163C26.8515 11.394 27.3308 10.1767 27.7469 8.94353C27.9135 8.44504 28.0985 7.90227 27.8492 7.3996C27.6649 7.02568 27.2611 6.74233 26.8398 6.85958C25.2501 7.30519 25.2489 10.2623 24.8939 11.482C24.8043 11.7903 24.3963 13.1321 23.9115 14.0087C23.808 14.0548 23.7049 14.1247 23.5879 14.2174C23.4444 14.3313 23.3073 14.5664 23.1358 14.6343C23.0907 14.6879 23.0466 14.7212 23.0028 14.7385C22.772 14.5282 22.7689 13.561 22.7201 13.347C22.5971 12.8181 22.3931 12.3196 22.1453 11.8383C22.1033 11.7693 22.0296 11.6894 21.9389 11.7092C21.5018 11.804 21.3141 12.1166 21.2764 12.5562C21.254 12.823 21.3229 13.0659 21.3908 13.3231C21.4002 13.3557 21.4066 13.3853 21.4141 13.4126C21.4053 13.4615 21.3953 13.5128 21.3865 13.5617C21.3474 13.7806 21.3384 14.1941 21.2363 14.3752C21.2228 14.4337 21.2094 14.4922 21.1959 14.5507C21.1746 14.5581 21.1509 14.5644 21.1248 14.5696C21.1065 14.5799 21.087 14.5868 21.0663 14.596C20.8642 14.5649 20.6603 14.5345 20.4589 14.5053C20.3915 14.4551 20.324 14.393 20.2586 14.3142C20.2342 14.267 20.1933 14.2354 20.1532 14.2176C20.0008 13.8384 19.9259 13.2131 19.85 12.9388C19.7227 12.4831 19.6044 12.0244 19.5139 11.5599C19.316 10.5313 19.3872 9.56002 19.3772 8.52748C19.3723 8.01716 19.305 7.50475 18.9803 7.09417C18.3593 6.30888 17.3003 6.41975 17.0058 7.41915C16.8231 8.04279 16.985 8.71744 17.1626 9.32286C17.2776 9.71501 17.4057 10.1046 17.5392 10.4923C17.5833 10.7897 17.6647 11.0801 17.7347 11.3943C17.8937 12.1178 17.5673 12.6721 17.608 13.3592C17.6492 14.0361 17.9552 14.5588 17.7757 15.277C17.7015 15.5779 17.5938 15.9084 17.4532 16.1846C17.3716 16.3446 17.2989 16.5074 17.1537 16.6279C16.7945 16.9227 16.5613 16.6714 16.3869 16.292C16.1604 15.7973 16.1512 15.2407 15.8932 14.7471C15.6847 14.3497 15.3602 14.0825 15.0711 13.7511C14.6442 13.2587 14.6226 12.6665 14.2723 12.1712C14.1631 12.0181 14.018 11.8536 13.8206 11.819C13.2111 11.711 13.043 12.479 13.2033 12.9152C13.3141 13.2211 13.572 13.4518 13.8075 13.6584C14.6117 14.3638 15.6809 15.0463 15.7463 16.2149C15.7885 16.9632 15.3492 16.8576 14.8618 16.4262C14.4925 16.0989 14.3985 15.9325 14.1623 15.5528C13.9322 15.1849 13.6637 14.8383 13.339 14.5473C12.8454 14.104 11.5014 13.3362 10.9813 14.1574C10.6474 14.6844 11.0801 14.9935 11.456 15.2428C12.2326 15.7605 12.6407 15.8511 12.0293 16.4392C11.5252 16.9241 11.5912 16.6281 11.2588 16.1783C11.1484 16.0276 11.0451 15.8744 10.9176 15.7376C10.5872 15.3848 10.2423 15.1845 9.76064 15.1575C9.71599 15.1552 9.72217 15.2128 9.72491 15.2377C9.8252 16.0554 10.5142 16.3567 11.1238 16.8072C11.8386 17.3366 12.2228 18.0372 12.6029 18.7492C12.5029 18.7423 12.4212 18.8505 12.5122 18.9801C12.6914 19.2363 12.8572 19.5171 12.6789 19.7766C12.5798 19.9208 12.3713 19.9856 12.2046 20.016C11.6997 20.1106 11.4689 19.7748 11.1399 19.4833C10.9284 19.2942 10.6116 19.1399 10.3391 19.3067C10.1062 19.4498 10.1048 19.7253 10.2405 19.9429C10.355 20.128 10.5178 20.1548 10.6725 20.2841C10.7176 20.3221 10.8193 20.3165 10.8544 20.36C10.9801 20.7086 10.9644 20.8974 10.806 20.9288C8.99235 19.9743 7.35236 18.8098 5.61664 17.7305C4.67194 17.1419 2.81075 16.6503 2.30426 18.0924C1.90752 19.2211 2.96506 20.1727 3.86708 20.6048C4.63494 20.9722 5.4666 21.2256 6.29386 21.4208C7.22318 21.6402 8.2186 21.7807 8.93122 22.4463C8.46994 22.5117 8.00689 22.5778 7.54562 22.6433C7.39781 22.665 7.57737 22.951 7.6703 22.9604C8.50083 23.0508 9.30678 23.2535 10.0586 23.6265C10.2755 23.734 10.5074 23.8503 10.7016 23.9956C10.8052 24.0869 10.9082 24.1765 11.0118 24.2678C11.0409 24.6761 11.0699 25.0843 11.0989 25.4926C11.0288 25.6685 10.7355 25.9582 10.6374 26.1279C10.357 26.6144 10.0682 26.7571 9.51858 26.8434C9.08828 26.912 8.66686 26.9775 8.24807 27.1019C7.43356 27.3425 6.68829 27.7243 5.99204 28.2066C5.8813 28.2831 6.0663 28.5333 6.17194 28.5163C6.96559 28.3985 7.75986 28.2825 8.55413 28.1665C7.9127 28.6973 7.02888 29.3327 7.63851 30.1598C7.83202 30.423 8.10129 30.4923 8.4119 30.4575C8.71302 30.4241 9.05072 30.1189 9.346 30.1771C9.87631 30.2808 10.1151 30.8788 10.3682 31.2785C10.5514 31.5692 10.7676 31.7945 11.0952 31.9112C11.5813 32.0821 12.3724 31.746 12.7744 31.9842C12.9754 32.1033 13.1119 32.46 13.1528 32.7825C13.1066 32.964 13.0093 33.1474 12.9017 33.3185C12.7481 33.5633 12.6058 33.7206 12.5171 34.0086C12.3796 34.4591 12.3794 34.8636 12.1247 35.2753C11.8467 35.7231 11.5 36 11.5 36C11.5 36 11.5 36 11.5 37.5C11.526 37.5686 11.4771 38.2852 11.5 38.5C11.5229 38.7148 11.6511 39.4785 12 39C12.0848 38.8838 12.3464 38.2661 13.2717 37.8294C13.9778 37.4951 14.1013 36.8901 14.6637 36.4128C15.1709 35.9824 15.7928 35.2136 16.3863 34.9445C17.1936 34.5689 17.9835 35.6897 17.5753 36.432C17.1763 37.155 16.8158 37.6515 17.2262 38.4844C17.4381 38.9145 17.9779 39.5129 18.5323 39.3492C18.7722 39.2774 18.8831 39.1271 18.9167 38.8922C18.9323 38.7831 18.8187 38.5718 18.8488 38.4756C19.4362 38.1609 19.7781 38.2327 19.8763 38.6906C19.9163 38.7881 19.9688 38.8814 20.0307 38.9673C20.0612 39.0204 20.1446 39.1507 20.2267 39.1121C21.9846 38.2869 21.6224 41.123 22.7551 41.7136Z" fill="#EF5E43"/>
<path d="M44 41.882C44.0002 35.1225 63.2872 4.83949 65.6981 6.03441C68.109 7.22933 55.4518 39.7907 50.0273 44.2719C47.8576 46.0642 43.9999 44.2719 44 41.882Z" fill="#D17736"/>
<path d="M43.9752 55.3248C43.1802 51.3947 31.1791 50.1149 30.4263 50.8591C25.9101 50.8591 31.1791 55.3246 27.4155 56.0688C23.6519 56.8131 16.1248 52.3473 13.8666 44.9051C11.8261 38.18 19.8474 29.5305 16.8774 30.0199C6.33946 31.7564 11.6085 49.3708 19.8883 55.3248C28.1682 61.2787 44.7279 59.0458 43.9752 55.3248Z" fill="#EF5E43"/>
<path d="M38.1927 45.6585C39.9165 42.2017 43.6994 41.8176 45.3754 42.0576C53.9947 43.498 48.9668 54.3007 43.2206 57.1814C37.4744 60.0621 28.8551 54.3007 33.1648 55.7411C37.4744 57.1814 36.0379 49.9796 38.1927 45.6585Z" fill="#F8AB0F"/>
</svg>
