<svg width="51" height="51" viewBox="0 0 51 51" fill="none" xmlns="http://www.w3.org/2000/svg">
<rect y="8.40002" width="51" height="37.8" rx="2" fill="#FFFDFE"/>
<path d="M0 40.8H51V44.2C51 45.3046 50.1046 46.2 49 46.2H2C0.89543 46.2 0 45.3046 0 44.2V40.8Z" fill="#CCCCCC"/>
<rect x="5.40002" width="40.2" height="40.8" fill="#EAEAEA"/>
<circle cx="25.8" cy="43.8" r="1.2" fill="#36D2DE"/>
<rect x="16.8" y="46.2" width="17.4" height="3" fill="#8D8D8D"/>
<rect x="10.2" y="49.2" width="31.2" height="1.8" fill="#CCCCCC"/>
<rect x="9" y="4.19995" width="9.6" height="9" fill="#2EADB6"/>
<rect x="21" y="4.19995" width="21.6" height="9" fill="#F0AF1D"/>
<rect x="21" y="28.8" width="12" height="1.8" fill="#155885"/>
<rect x="21" y="32.4" width="7.8" height="1.8" fill="#155885"/>
<rect x="31.8" y="32.4" width="10.8" height="1.8" fill="#155885"/>
<rect x="21" y="36" width="7.8" height="1.8" fill="#155885"/>
<rect x="31.8" y="36" width="10.8" height="1.8" fill="#155885"/>
<rect x="9" y="16.2" width="9.6" height="9" fill="#FFFDFF"/>
<rect x="21" y="16.2" width="9.6" height="9" fill="#FC611F"/>
<rect x="33" y="16.2" width="9.6" height="9" fill="#B8E2F2"/>
<rect x="9" y="28.8" width="9.6" height="9" fill="#F0AF1D"/>
</svg>
