<svg width="77" height="84" viewBox="0 0 77 84" fill="none" xmlns="http://www.w3.org/2000/svg">
<path d="M46.3481 67.1984L31.6502 67.1984C31.0422 67.1984 30.5481 67.6056 30.5481 68.1113L30.5481 68.7193C30.5481 69.2231 31.0422 69.6323 31.6502 69.6323L46.3481 69.6323C46.9561 69.6323 47.4493 69.224 47.4502 68.7193L47.4502 68.1113C47.4493 67.6066 46.9561 67.1984 46.3481 67.1984Z" fill="white"/>
<path d="M46.348 69.9489L31.6501 69.9489C31.0421 69.9489 30.548 70.3581 30.548 70.8618L30.548 71.4698C30.548 71.9736 31.0431 72.3818 31.6491 72.3818L46.3471 72.3818C46.9551 72.3818 47.4482 71.9736 47.4482 71.4698L47.4482 70.8618C47.4492 70.3571 46.956 69.9489 46.348 69.9489Z" fill="white"/>
<path d="M46.3481 72.7012L31.6502 72.7012C31.0422 72.7012 30.5481 73.1085 30.549 73.6132L30.549 74.2212C30.549 74.7249 31.0431 75.1322 31.6511 75.1322L46.3491 75.1322C46.9571 75.1322 47.4512 74.7249 47.4512 74.2212V73.6132C47.4493 73.1075 46.9561 72.7012 46.3481 72.7012Z" fill="white"/>
<path d="M33.4866 75.4507L44.5096 75.4507C44.5096 77.2746 41.57 78.4906 38.999 78.4906C36.4262 78.4906 33.4866 77.2746 33.4866 75.4507Z" fill="white"/>
<path d="M28.0435 27.8113C28.0435 27.8113 32.5127 23.3749 38.5492 22.9049C38.5492 22.9049 48.7297 21.8308 54.0839 32.5778C54.0839 32.5778 55.13 40.1053 54.0839 43.8073C54.0839 43.8073 49.6002 52.6994 49.6591 53.5882L46.8797 61.6793C46.8797 61.6793 46.5178 65.4228 44.9486 65.4228L33.7191 65.4228C33.7191 65.4228 31.6664 65.4527 31.6664 62.4031C31.6664 62.4031 29.4274 54.4046 28.0435 52.2603C28.0435 52.2603 23.6959 42.9619 23.6959 40.0648C23.6959 40.0648 21.8845 34.6363 28.0435 27.8113Z" fill="#F8AB0F"/>
<path d="M33.97 64.531C34.8511 62.8122 35.4524 60.9216 36.0324 59.087C36.8614 56.4611 37.5736 53.7686 37.949 51.0365C38.2028 49.1845 38.5753 46.5537 37.4124 44.9102C36.9675 44.282 35.9252 43.6334 35.1484 43.9702C34.1987 44.3814 34.1775 45.7054 34.3753 46.5441C34.6533 47.7215 35.3443 48.9297 36.5197 49.3833C37.7154 49.8456 39.1688 49.8571 40.3848 49.4808C41.5853 49.1102 42.5659 48.1876 42.7955 46.9195C42.9885 45.8483 42.644 44.3186 41.4637 43.949C40.5392 43.6595 39.8338 44.4576 39.6185 45.2847C39.2557 46.6821 40.0519 48.5012 40.9947 49.5097C41.87 50.4449 43.2047 50.8647 44.3358 50.1158C45.6705 49.2308 46.264 47.3325 46.3151 45.8126C46.3286 45.4034 46.3257 44.6883 45.8664 44.4914C45.4871 44.3283 45.0692 44.667 44.8183 44.9141C43.5965 46.1185 43.3562 48.0592 43.143 49.6699C42.5929 53.8255 43.1613 57.9762 43.4875 62.1241C43.5705 63.178 43.6322 64.2337 43.6622 65.2905C43.6699 65.5839 44.1823 64.9653 44.1765 64.7375C44.0839 61.408 43.6062 58.1065 43.4595 54.7809C43.3852 53.0949 43.4026 51.4041 43.5946 49.7259C43.6844 48.9452 43.8069 48.1664 43.97 47.3972C44.1129 46.7216 44.3541 45.6639 45.0345 45.2943C46.3412 44.586 45.5045 48.0148 45.3076 48.4279C44.7401 49.6168 43.4913 50.0955 42.3111 49.4692C41.097 48.8245 40.3771 47.3673 40.1223 46.0664C40.0412 45.6533 39.9013 44.9363 40.3616 44.7056C40.6878 44.5435 41.1057 44.6699 41.3923 44.8504C42.3207 45.4333 42.7 47.1038 41.981 47.9618C41.2418 48.8438 39.7884 49.0079 38.7162 48.9703C37.7782 48.9374 36.7455 48.7464 36.0372 48.0824C35.2989 47.3904 34.7546 46.1667 34.7759 45.1496C34.7874 44.5782 35.1677 44.5686 35.6724 44.7259C36.0121 44.832 36.3595 44.9961 36.6268 45.2364C37.1074 45.6688 37.3458 46.326 37.4771 46.9436C37.8631 48.7502 37.5842 50.7064 37.2754 52.5014C36.8546 54.945 36.2003 57.348 35.4388 59.7056C34.937 61.2594 34.4111 62.9299 33.6776 64.3602C33.4537 64.8041 33.7374 64.9855 33.97 64.531Z" fill="#033757"/>
<path d="M38.998 22.3191C29.9457 22.3191 22.6055 29.6575 22.6055 38.7117C22.6055 41.6918 23.4431 44.4635 24.7904 46.8974C28.8156 54.1499 29.883 58.2224 30.5383 62.1647C31.0884 65.4691 31.8527 66.2354 34.3484 66.2354C35.4099 66.2354 37.148 66.2344 38.998 66.2354C40.8471 66.2354 42.5862 66.2354 43.6477 66.2354C46.1453 66.2354 46.9067 65.4662 47.4578 62.1647C48.115 58.2224 49.1804 54.1499 53.2067 46.8964C54.5558 44.4645 55.3926 41.6918 55.3926 38.7117C55.3916 29.6585 48.0503 22.3191 38.998 22.3191ZM51.9145 46.1794C47.9973 53.235 46.7475 57.434 45.9996 61.9206C45.9166 62.4205 45.6618 63.9414 45.2073 64.423C45.0509 64.589 44.7431 64.7578 43.6458 64.7569L38.9961 64.7569L34.3464 64.7569C33.2501 64.7569 32.9423 64.588 32.785 64.423C32.3304 63.9414 32.0766 62.4195 31.9926 61.9206C31.2457 57.4349 29.9959 53.2359 26.0787 46.1804C24.7518 43.7841 24.0791 41.2701 24.0791 38.7108C24.0791 30.4865 30.7699 23.7957 38.9942 23.7957C47.2185 23.7957 53.9112 30.4865 53.9112 38.7108C53.915 41.274 53.2414 43.787 51.9145 46.1794Z" fill="white"/>
<path d="M30.2863 34.2385C29.6552 34.7577 26.6673 37.6008 29.8723 42.624C30.0991 42.9801 29.9958 43.452 29.6388 43.6778C29.5123 43.7599 29.3705 43.7994 29.2286 43.7985C28.9758 43.7985 28.7297 43.674 28.5839 43.4453C24.6851 37.3345 28.5096 33.7203 29.3164 33.0582C29.6416 32.7909 30.1232 32.8382 30.3905 33.1634C30.6579 33.4906 30.6125 33.9722 30.2863 34.2385Z" fill="white"/>
<path d="M63.4512 37.3452L58.0907 37.3452C57.7665 37.3452 57.502 37.6097 57.503 37.9349C57.503 38.2612 57.7665 38.5246 58.0917 38.5237L63.4532 38.5227C63.7775 38.5227 64.0419 38.2583 64.0419 37.934C64.039 37.6087 63.7765 37.3443 63.4512 37.3452Z" fill="#F8AB0F"/>
<path d="M56.3613 29.5669C56.4616 29.5669 56.564 29.5418 56.6566 29.4877L61.2923 26.7901C61.5731 26.627 61.6677 26.2661 61.5056 25.9842C61.3424 25.7034 60.9815 25.6069 60.7016 25.771L56.0659 28.4685C55.7851 28.6316 55.6895 28.9936 55.8526 29.2744C55.9607 29.4617 56.1586 29.5669 56.3613 29.5669Z" fill="#F8AB0F"/>
<path d="M49.0318 21.5964C49.1234 21.6495 49.2238 21.6746 49.3232 21.6737C49.5278 21.6737 49.7267 21.5675 49.8348 21.3764L52.4957 16.7156C52.6569 16.4328 52.5594 16.0728 52.2766 15.9116C51.9938 15.7504 51.6348 15.8489 51.4736 16.1317L48.8127 20.7925C48.6505 21.0743 48.7499 21.4343 49.0318 21.5964Z" fill="#F8AB0F"/>
<path d="M20.8503 27.9449L16.2146 25.2473C15.9337 25.0842 15.5728 25.1787 15.4106 25.4606C15.2475 25.7414 15.3431 26.1034 15.6239 26.2665L20.2596 28.9641C20.3522 29.0181 20.4545 29.0432 20.5549 29.0432C20.7576 29.0432 20.9555 28.938 21.0645 28.7498C21.2257 28.4689 21.1311 28.108 20.8503 27.9449Z" fill="#F8AB0F"/>
<path d="M61.2923 48.576L56.6566 45.8784C56.3758 45.7152 56.0148 45.8098 55.8526 46.0917C55.6895 46.3725 55.7851 46.7345 56.0659 46.8976L60.7016 49.5952C60.7942 49.6493 60.8956 49.6753 60.9969 49.6744C61.1996 49.6744 61.3975 49.5692 61.5065 49.381C61.6687 49.1011 61.5731 48.7391 61.2923 48.576Z" fill="#F8AB0F"/>
<path d="M20.2596 46.4021L15.6239 49.0997C15.3431 49.2629 15.2475 49.6248 15.4106 49.9057C15.5197 50.0939 15.7175 50.1991 15.9202 50.1991C16.0206 50.1991 16.1219 50.173 16.2156 50.1199L20.8512 47.4223C21.1321 47.2592 21.2276 46.8972 21.0645 46.6164C20.9004 46.3345 20.5395 46.238 20.2596 46.4021Z" fill="#F8AB0F"/>
<path d="M27.0807 20.8537C27.1898 21.0438 27.3876 21.151 27.5922 21.151C27.6907 21.151 27.7911 21.1259 27.8837 21.0738C28.1665 20.9126 28.264 20.5526 28.1028 20.2698L25.4419 15.609C25.2807 15.3262 24.9207 15.2287 24.6398 15.3899C24.357 15.5511 24.2595 15.9111 24.4207 16.1939L27.0807 20.8537Z" fill="#F8AB0F"/>
<path d="M38.6748 18.9505C38.999 18.9505 39.2635 18.6861 39.2635 18.3618L39.2635 12.9935C39.2625 12.6682 39.001 12.4047 38.6748 12.4047C38.3485 12.4047 38.086 12.6692 38.086 12.9935L38.086 18.3618C38.085 18.687 38.3485 18.9505 38.6748 18.9505Z" fill="#F8AB0F"/>
<path d="M20.4963 37.934C20.4963 37.6077 20.2328 37.3442 19.9075 37.3452L14.5461 37.3442C14.2218 37.3442 13.9573 37.6087 13.9573 37.933C13.9583 38.2583 14.2208 38.5227 14.5461 38.5217L19.9085 38.5217C20.2328 38.5237 20.4963 38.2602 20.4963 37.934Z" fill="#F8AB0F"/>
</svg>
