<svg width="59" height="38" viewBox="0 0 59 38" fill="none" xmlns="http://www.w3.org/2000/svg">
<path d="M55.8372 37.0833H2.23022C1.00632 37.0833 0 36.0779 0 34.8551V2.22826C0 1.00543 1.00632 0 2.23022 0H55.8463C57.0702 0 58.0765 1.00543 58.0765 2.22826V34.8551C58.0765 36.0779 57.0702 37.0833 55.8372 37.0833Z" fill="#7DACDC"/>
<path d="M6.38243 4.24823C6.38243 5.1178 5.67529 5.83338 4.79589 5.83338C3.91649 5.83338 3.20935 5.12686 3.20935 4.24823C3.20935 3.37867 3.91649 2.66309 4.79589 2.66309C5.67529 2.66309 6.38243 3.37867 6.38243 4.24823Z" fill="#D9E8FF"/>
<path d="M11.2056 4.24823C11.2056 5.1178 10.4984 5.83338 9.61901 5.83338C8.74868 5.83338 8.03247 5.12686 8.03247 4.24823C8.03247 3.37867 8.73962 2.66309 9.61901 2.66309C10.4984 2.66309 11.2056 3.37867 11.2056 4.24823Z" fill="#D9E8FF"/>
<path d="M16.1193 4.24823C16.1193 5.1178 15.4121 5.83338 14.5327 5.83338C13.6624 5.83338 12.9462 5.12686 12.9462 4.24823C12.9462 3.37867 13.6533 2.66309 14.5327 2.66309C15.4121 2.66309 16.1193 3.37867 16.1193 4.24823Z" fill="#D9E8FF"/>
<path d="M54.9851 14.7736H29.5823V16.7663H54.9851V14.7736Z" fill="#D9E8FF"/>
<path d="M54.9851 19.4022H29.5823V21.395H54.9851V19.4022Z" fill="#D9E8FF"/>
<path d="M45.6743 24.2391H29.5823V26.2319H45.6743V24.2391Z" fill="#D9E8FF"/>
<path d="M23.5715 12.0199H6.38245V29.1938H23.5715V12.0199Z" fill="#D9E8FF"/>
</svg>
