<svg width="320" height="320" viewBox="0 0 320 320" fill="none" xmlns="http://www.w3.org/2000/svg">
<path opacity="0.2" d="M256.435 297.987C256.435 303.127 199.028 307.294 128.218 307.294C57.4068 307.294 0 303.127 0 297.987C0 292.848 57.4068 288.681 128.218 288.681C199.028 288.69 256.435 292.848 256.435 297.987Z" fill="black"/>
<path d="M234.609 235.363H13.7628V118.001C13.7628 110.77 19.6812 104.851 26.9129 104.851H222.334C229.084 104.851 234.609 110.376 234.609 117.126V235.363Z" fill="#182632"/>
<path d="M214.814 255.158H33.558C22.6229 255.158 13.7628 246.298 13.7628 235.363H234.618C234.609 246.298 225.749 255.158 214.814 255.158Z" fill="white"/>
<path d="M144.073 255.158H104.001V288.506H144.073V255.158Z" fill="#E1E1E1"/>
<path d="M144.073 255.158H104.001V265.725H144.073V255.158Z" fill="#BBBBBB"/>
<path d="M170.365 301.192H77.7186V299.012C77.7186 293.233 82.4464 288.506 88.2247 288.506H159.858C165.637 288.506 170.365 293.233 170.365 299.012V301.192V301.192Z" fill="white"/>
<path d="M26.4752 114.368C24.5754 114.368 23.017 115.926 23.017 117.826V120.313L141.525 222.773H157.276H161.819L36.4297 114.368H26.4752Z" fill="#003948"/>
<path d="M23.017 158.169V171.565V201.901V219.315C23.017 221.214 24.5754 222.773 26.4752 222.773H27.9898H58.4224H67.5451H124.339L23.017 135.17V158.169Z" fill="#003948"/>
<path d="M221.599 114.368H200.421H191.298H160.865H130.31H93.1275H85.7908L211.181 222.773H221.599C223.499 222.773 225.057 221.214 225.057 219.315V180.871V167.476V117.826C225.066 115.926 223.508 114.368 221.599 114.368Z" fill="#003948"/>
<path opacity="0.57" d="M76.7118 114.368H36.4298L161.82 222.773H173.7H211.181L85.7908 114.368H76.7118Z" fill="url(#paint0_linear)"/>
<path opacity="0.57" d="M23.017 135.17L124.339 222.773H141.525L23.017 120.313V135.17Z" fill="url(#paint1_linear)"/>
<path d="M129.505 244.599C129.505 248.049 126.712 250.841 123.262 250.841C119.813 250.841 117.02 248.049 117.02 244.599C117.02 241.15 119.813 238.357 123.262 238.357C126.712 238.357 129.505 241.15 129.505 244.599Z" fill="#BBBBBB"/>
<path d="M106.015 138.55C92.2869 166.645 102.644 189.04 102.644 189.04L88.5922 190.274L79.4345 191.08C68.8846 146.447 111.303 116.364 111.6 116.163C89.8179 143.444 93.6176 170.313 93.6176 170.313C93.3637 156.769 105.822 138.83 106.015 138.55Z" fill="white"/>
<path d="M88.5922 190.265L79.4345 191.071C68.8846 146.438 111.303 116.355 111.6 116.154C111.382 116.39 83.6194 146.919 83.2867 167.826C83.1028 179.899 86.0533 186.685 88.5922 190.265Z" fill="#E1E1E1"/>
<path d="M207.302 201.428C205.498 201.428 203.756 201.699 202.119 202.198C199.457 196.07 194.196 191.342 187.726 189.399C187.594 189.355 187.454 189.311 187.314 189.276C187.235 189.258 187.157 189.232 187.078 189.206C185.187 188.698 183.191 188.427 181.142 188.427C179.995 188.427 178.866 188.514 177.762 188.672C175.469 183.997 170.662 180.784 165.103 180.784C164.332 180.784 163.579 180.845 162.844 180.967C159.272 181.545 156.146 183.463 154.001 186.185C152.145 185.73 150.202 185.485 148.205 185.485C147.951 185.485 147.698 185.494 147.444 185.503C143.014 179.505 135.896 175.627 127.876 175.627C122.317 175.627 117.195 177.492 113.098 180.635C110.375 182.718 108.107 185.363 106.47 188.401C104.964 187.586 103.353 186.921 101.681 186.439C100.736 186.168 99.7725 185.949 98.7832 185.792C97.5312 185.59 96.2354 185.485 94.9222 185.485C92.0243 185.485 89.2489 185.993 86.6749 186.921C86.0621 187.14 85.458 187.385 84.8714 187.656C83.2167 184.242 80.7828 181.265 77.8061 178.971C76.9043 178.28 75.9588 177.641 74.9607 177.08V176.966C74.9607 176.012 74.9082 175.075 74.8031 174.156C74.6367 172.711 74.3478 171.311 73.9363 169.954C73.9188 169.884 73.9013 169.822 73.8751 169.752C71.9314 163.484 67.5101 158.292 61.7581 155.333C59.3855 154.107 56.7852 153.267 54.0449 152.881C52.933 152.724 51.7948 152.645 50.6479 152.645C48.4329 152.645 46.2967 152.943 44.2567 153.494C42.926 153.853 41.639 154.326 40.4133 154.895C38.1282 152.514 35.169 150.789 31.8333 150.027C32.201 149.406 32.5425 148.766 32.8577 148.11C33.0153 147.777 33.1641 147.444 33.2954 147.112C33.383 146.884 33.4793 146.665 33.5581 146.429C33.6894 146.087 33.8032 145.737 33.917 145.387C33.9871 145.168 34.0484 144.949 34.1096 144.73C34.6525 142.822 34.9414 140.799 34.9414 138.716C34.9414 136.299 34.5562 133.97 33.8295 131.799C33.4705 130.714 33.0328 129.663 32.5075 128.656C32.4549 128.56 32.4024 128.455 32.3499 128.358C32.2273 128.122 32.096 127.886 31.9559 127.658C31.8859 127.544 31.8246 127.422 31.7545 127.308C31.6145 127.08 31.4744 126.853 31.3255 126.634C30.5201 125.408 29.592 124.261 28.5589 123.228C28.2963 122.965 28.0249 122.703 27.7535 122.449C29.023 120.558 29.7584 118.281 29.7584 115.83C29.7584 115.331 29.7321 114.841 29.6708 114.35H26.484C24.5842 114.35 23.0258 115.909 23.0258 117.809V219.297C23.0258 221.197 24.5842 222.755 26.484 222.755H221.608C223.315 222.755 224.742 221.503 225.022 219.875V216.977C223.884 208.213 216.39 201.428 207.302 201.428Z" fill="white"/>
<path d="M207.302 201.428C205.498 201.428 203.756 201.699 202.119 202.198C199.457 196.07 194.196 191.342 187.726 189.398C194.379 191.508 194.161 199.703 187.962 202.689C186.684 203.301 185.16 203.695 183.392 203.774C172.825 204.221 171.109 200.298 171.109 200.298C171.109 200.298 168.727 209.806 158.169 211.023C153.695 211.54 149.948 210.936 146.997 209.955C141.884 208.266 139.153 205.455 139.153 205.455C139.153 205.455 135.195 209.264 128.498 211.496C124.777 212.739 120.207 213.501 115.006 212.853C114.104 212.739 113.246 212.608 112.424 212.459C98.4855 209.929 96.9096 202.54 96.9096 202.54C93.9504 207.644 87.9444 211.058 78.2701 209.045C68.6045 207.031 67.0899 200.754 67.0899 200.754C62.8437 207.653 50.0526 208.826 46.2441 200.754C42.4357 192.682 46.2441 186.851 46.2441 186.851C39.9668 187.297 33.5931 176.712 37.9619 165.786C40.0018 160.673 43.7314 157.906 47.6362 156.453C54.3513 153.949 61.6092 155.324 61.7581 155.359C59.3855 154.133 56.7852 153.293 54.0449 152.907C52.933 152.75 51.7948 152.671 50.6479 152.671C48.4329 152.671 46.2967 152.969 44.2567 153.52C42.926 153.879 41.639 154.352 40.4133 154.921C38.1282 152.54 35.169 150.815 31.8333 150.053C32.201 149.432 32.5425 148.792 32.8577 148.136C33.0153 147.803 33.1641 147.47 33.2954 147.138C33.383 146.91 33.4793 146.691 33.5581 146.455C33.6894 146.113 33.8032 145.763 33.917 145.413C33.9871 145.194 34.0484 144.975 34.1096 144.756C34.6525 142.848 34.9414 140.825 34.9414 138.742C34.9414 136.325 34.5562 133.996 33.8295 131.825C33.4705 130.74 33.0328 129.689 32.5075 128.682C32.4549 128.586 32.4024 128.481 32.3499 128.384C32.2273 128.148 32.096 127.912 31.9559 127.684C31.8859 127.57 31.8246 127.448 31.7545 127.334C31.6145 127.106 31.4744 126.879 31.3255 126.66C30.5201 125.434 29.592 124.287 28.5589 123.254C28.2963 122.991 28.0249 122.729 27.7535 122.475C29.023 120.584 29.7584 118.307 29.7584 115.856C29.7584 115.357 29.7321 114.867 29.6708 114.376H26.484C24.5842 114.376 23.0258 115.935 23.0258 117.835V219.323C23.0258 221.223 24.5842 222.781 26.484 222.781H221.608C223.315 222.781 224.742 221.529 225.022 219.901V217.003C223.884 208.213 216.39 201.428 207.302 201.428Z" fill="#E1E1E1"/>
<path d="M61.3903 140.379C62.3271 142.104 61.688 144.258 59.972 145.194C58.2473 146.131 56.0935 145.492 55.1568 143.776C54.22 142.051 54.8591 139.898 56.5751 138.961C58.2911 138.024 60.4536 138.654 61.3903 140.379Z" fill="#E1E1E1"/>
<path d="M61.2241 140.073C61.907 141.325 61.443 142.892 60.191 143.566C58.939 144.249 57.3719 143.785 56.6977 142.533C56.0148 141.281 56.4789 139.714 57.7308 139.04C58.974 138.357 60.5412 138.821 61.2241 140.073Z" fill="white"/>
<path d="M128.533 167.502C129.12 168.588 128.726 169.936 127.64 170.523C126.554 171.109 125.206 170.715 124.619 169.63C124.033 168.544 124.427 167.196 125.513 166.609C126.589 166.023 127.938 166.425 128.533 167.502Z" fill="#E1E1E1"/>
<path d="M128.428 167.31C128.857 168.098 128.568 169.078 127.78 169.507C126.992 169.936 126.011 169.647 125.582 168.859C125.153 168.071 125.442 167.091 126.23 166.662C127.018 166.233 127.999 166.522 128.428 167.31Z" fill="white"/>
<path d="M85.4318 134.189C85.7469 134.767 85.5368 135.485 84.959 135.8C84.3812 136.115 83.6632 135.905 83.3481 135.327C83.0329 134.75 83.243 134.032 83.8208 133.717C84.3899 133.393 85.1166 133.611 85.4318 134.189Z" fill="#E1E1E1"/>
<path d="M85.3705 134.084C85.5982 134.504 85.4406 135.03 85.0291 135.257C84.6088 135.485 84.0835 135.327 83.8559 134.916C83.6283 134.496 83.7859 133.97 84.1973 133.743C84.6176 133.506 85.1429 133.664 85.3705 134.084Z" fill="white"/>
<path d="M74.1028 164.517L75.9676 145.186L72.5794 154.159L74.3129 122.738L70.8984 160.297L74.1816 153.652L74.1028 164.517Z" fill="white"/>
<path d="M103.24 178.411L117.195 164.902L108.799 169.542L130.485 146.735L103.537 173.123L110.349 170.19L103.24 178.411Z" fill="white"/>
<path opacity="0.2" d="M197.676 229.449L175.825 229.766L176.161 252.921L198.012 252.604L197.676 229.449Z" fill="black"/>
<path d="M196.496 228.94L174.645 229.257L174.962 251.108L196.813 250.791L196.496 228.94Z" fill="#F1BC03"/>
<path opacity="0.5" d="M187.303 223.79L183.653 223.843L183.76 231.284L187.41 231.231L187.303 223.79Z" fill="white"/>
<path d="M234.845 94.0381C234.852 93.9577 234.859 93.8773 234.865 93.7968C234.879 93.6083 234.878 93.4339 234.864 93.2458C234.863 93.1628 234.853 93.0771 234.84 92.9998C234.818 92.8091 234.773 92.63 234.728 92.4508C234.71 92.3902 234.701 92.3322 234.683 92.2716C234.68 92.2522 234.677 92.2329 234.674 92.2136C234.607 92.0182 234.512 91.8233 234.412 91.645C234.389 91.6011 234.366 91.5573 234.332 91.5191C234.212 91.3163 234.079 91.1276 233.915 90.9478C233.901 90.9342 233.887 90.9206 233.873 90.907C233.723 90.7407 233.551 90.5859 233.366 90.4452C233.33 90.4154 233.301 90.3882 233.262 90.3668C233.066 90.2318 232.851 90.0999 232.624 90.0015C232.577 89.9774 232.535 89.9643 232.488 89.9402C232.245 89.8365 231.997 89.7496 231.724 89.6824C231.46 89.6179 231.177 89.5564 230.885 89.4924C230.824 89.4824 230.757 89.4614 230.696 89.4514C230.462 89.4057 230.223 89.349 229.965 89.2955C229.879 89.2776 229.792 89.2598 229.706 89.2419C229.473 89.1962 229.231 89.1479 228.978 89.1053C228.876 89.0822 228.77 89.0675 228.665 89.0527C228.42 89.0127 228.17 88.9618 227.909 88.9166C227.795 88.8992 227.673 88.8792 227.559 88.8619C227.306 88.8193 227.043 88.7824 226.782 88.7372C226.651 88.7146 226.518 88.7003 226.379 88.6751C226.115 88.6383 225.852 88.6014 225.579 88.5619C225.43 88.5424 225.288 88.5256 225.138 88.5061C224.864 88.4749 224.591 88.4355 224.306 88.4101C224.148 88.3879 223.987 88.3742 223.826 88.3604C223.551 88.3293 223.266 88.3039 222.972 88.2759C222.863 88.2695 222.758 88.2548 222.652 88.24C222.608 88.2353 222.564 88.2305 222.528 88.2284C221.815 88.1607 221.077 88.1129 220.312 88.0655C220.177 88.0596 220.052 88.048 219.916 88.0421C219.148 88.0031 218.37 87.9698 217.561 87.9454C217.425 87.9395 217.278 87.9394 217.14 87.9418C216.309 87.9289 215.458 87.919 214.573 87.9347C214.462 87.9367 214.359 87.9413 214.249 87.9432C213.308 87.9599 212.353 87.9907 211.365 88.0387C211.03 88.0529 210.701 88.0781 210.364 88.1007C210.14 88.113 209.902 88.1394 209.67 88.149C209.36 88.1711 209.042 88.1906 208.721 88.2185C208.588 88.2319 208.469 88.2312 208.345 88.2473C208.099 88.271 207.842 88.3005 207.596 88.3243C207.17 88.365 206.753 88.4084 206.319 88.4466C205.918 88.4952 205.509 88.5413 205.098 88.5956C204.689 88.6417 204.285 88.6986 203.874 88.753C203.722 88.7696 203.578 88.7887 203.426 88.8053C203.05 88.8618 202.656 88.9214 202.277 88.9862C202.037 89.021 201.797 89.0557 201.554 89.0988C201.466 89.1169 201.38 89.1268 201.283 89.1423C200.607 89.2512 199.925 89.3769 199.232 89.5082C199.094 89.5383 198.957 89.5685 198.813 89.5876C198.159 89.7128 197.491 89.852 196.821 89.9995C196.575 90.051 196.327 90.1108 196.082 90.1622C195.45 90.3035 194.805 90.459 194.157 90.6227C193.959 90.6706 193.771 90.7127 193.57 90.7688C192.743 90.9773 191.911 91.2025 191.073 91.4445C190.88 91.5033 190.679 91.5594 190.478 91.6156C189.811 91.8102 189.142 92.0131 188.47 92.2244C188.206 92.3066 187.931 92.3946 187.666 92.4768C186.961 92.7053 186.243 92.9479 185.525 93.1904C185.348 93.2545 185.178 93.3018 185.002 93.3658C184.124 93.6777 183.232 94.0036 182.344 94.3489C182.113 94.4416 181.874 94.5317 181.643 94.6244C180.953 94.8941 180.26 95.1723 179.562 95.4671C179.287 95.5827 179.004 95.6957 178.726 95.8197C177.91 96.1692 177.091 96.5271 176.267 96.9017C176.149 96.9564 176.042 97.0054 175.926 97.0517C174.995 97.4753 174.054 97.9323 173.109 98.3976C172.848 98.5268 172.585 98.6644 172.316 98.791C171.597 99.1527 170.875 99.5227 170.148 99.9094C169.863 100.058 169.586 100.21 169.301 100.359C168.76 100.648 168.226 100.949 167.683 101.246C167.696 101.232 167.699 101.224 167.712 101.21C167.712 101.21 167.712 101.21 167.704 101.207L155.742 101.344L139.765 101.525C140.346 101.194 140.692 100.706 140.829 100.18C140.99 99.5792 140.89 98.933 140.59 98.3983C140.167 97.6693 139.363 97.1602 138.317 97.3089C132.561 98.1365 125.246 100.365 119.631 106.064C108.939 116.922 111.813 128.496 111.89 128.777L111.888 128.785C111.888 128.785 125.109 121.069 135.922 120.938C138.106 120.907 140.191 121.194 142.042 121.904C142.042 121.904 142.064 121.892 142.097 121.875C141.753 122.272 141.391 122.663 141.055 123.062L135.598 129.489L128.629 137.69L125.31 141.603C122.503 142.273 114.324 144.68 109.771 150.886C104.239 158.427 101.594 163.846 86.7758 176.42C86.7402 176.446 86.713 176.474 86.6749 176.508C86.7161 176.493 86.7574 176.479 86.7987 176.464C105.117 169.989 111.134 170.436 120.434 169.454C128.264 168.626 134.564 162.528 136.406 160.573L151.87 157.818L160.17 156.339L161.989 156.011C161.822 156.105 161.723 156.156 161.723 156.156C161.409 158.122 160.599 160.061 159.48 161.931C153.918 171.206 140.597 178.744 140.597 178.744C140.597 178.744 140.597 178.744 140.605 178.747C140.808 178.948 149.357 187.264 164.121 183.491C171.87 181.518 177.484 176.315 181.089 171.757C181.744 170.926 181.711 169.979 181.291 169.242C180.988 168.716 180.477 168.298 179.876 168.137C179.35 168 178.756 168.052 178.174 168.383L186.377 154.67L192.516 144.401L192.519 144.393C192.395 144.409 192.276 144.436 192.152 144.452C204.47 137.214 213.378 129.09 219.774 121.398C220.229 120.852 220.676 120.304 221.102 119.768C222.163 118.431 223.145 117.115 224.066 115.817C224.461 115.261 224.836 114.709 225.211 114.157C225.419 113.846 225.624 113.543 225.82 113.238C230.87 105.509 233.434 98.8258 234.659 94.8057C234.763 94.5629 234.808 94.3018 234.845 94.0381Z" fill="#A8023D" fill-opacity="0.8"/>
<path d="M200.855 127.1C191.517 127.625 185.527 126.892 166.916 132.453C166.874 132.466 166.832 132.478 166.79 132.491C166.827 132.467 166.855 132.44 166.895 132.408C182.309 120.584 185.216 115.301 191.114 108.032C197.04 100.736 208.08 99.3639 208.08 99.3639L213.657 108.51L213.678 108.555L217.82 118.432C217.82 118.432 210.239 126.574 200.855 127.1Z" fill="#F68E37"/>
<path d="M182.193 124.619C186.36 120.528 188.919 117.254 191.56 113.86C192.423 112.76 193.309 111.621 194.251 110.457C197.36 106.629 205.446 103.422 208.574 102.606L211.875 109.067L215.268 115.71C212.783 117.77 205.671 122.866 200.726 123.144C199.231 123.227 197.783 123.281 196.394 123.329C192.101 123.483 187.947 123.641 182.193 124.619Z" fill="#F1BC03"/>
<path d="M190.942 120.145C192.473 118.498 193.863 116.929 195.227 115.379L195.244 115.357C196.287 114.174 197.375 112.942 198.503 111.706C200.639 109.377 205.904 106.736 209.868 105.145L214 113.227C210.157 115.832 205.148 118.615 202.206 118.949C200.53 119.143 198.905 119.3 197.327 119.456L197.307 119.458C195.262 119.665 193.181 119.869 190.942 120.145Z" fill="#FAF8A8"/>
<path d="M224.772 80.6769C222.952 79.8665 220.89 79.4889 218.706 79.4123C207.9 79.0132 194.316 86.0724 194.316 86.0724C194.316 86.0724 194.316 86.0724 194.319 86.0642C194.265 85.7827 191.957 74.0906 203.164 63.7577C209.051 58.3411 216.466 56.4735 222.256 55.929C223.309 55.8318 224.086 56.3796 224.473 57.1285C224.75 57.669 224.815 58.3275 224.625 58.9199C224.453 59.4353 224.092 59.9087 223.487 60.2083L239.454 60.8105L251.409 61.2594L251.417 61.2625C242.018 71.8043 224.772 80.6769 224.772 80.6769Z" fill="#DC3645"/>
<path d="M194.311 86.061C194.256 85.7795 191.949 74.0874 203.155 63.7545C209.042 58.3379 216.458 56.4703 222.247 55.9258C223.3 55.8285 224.078 56.3764 224.464 57.1253C224.741 57.6658 224.806 58.3243 224.616 58.9167C224.265 59.3378 223.883 59.7663 223.479 60.2051C223.479 60.2051 210.989 62.1438 202.67 70.8442C194.483 79.4158 194.317 85.8673 194.311 86.061Z" fill="#EF4C65"/>
<path d="M224.772 80.6767C222.952 79.8663 220.889 79.4888 218.706 79.4121C224.171 71.4423 232.409 65.1658 239.45 60.8186L251.405 61.2675L251.414 61.2705C242.018 71.8042 224.772 80.6767 224.772 80.6767Z" fill="#BE292C"/>
<path d="M242.745 115.841C242.335 117.79 241.431 119.686 240.222 121.499C234.212 130.49 220.538 137.367 220.538 137.367C220.538 137.367 220.538 137.367 220.546 137.37C220.739 137.581 228.87 146.306 243.801 143.261C251.637 141.67 257.5 136.748 261.323 132.372C262.019 131.574 262.032 130.627 261.648 129.87C261.372 129.329 260.881 128.888 260.289 128.697C259.771 128.534 259.174 128.557 258.578 128.86L267.442 115.564L274.077 105.609L274.08 105.601C260.044 107.054 242.745 115.841 242.745 115.841Z" fill="#DC3645"/>
<path d="M220.543 137.378C220.736 137.589 228.867 146.314 243.798 143.269C251.634 141.678 257.497 136.756 261.321 132.38C262.016 131.582 262.029 130.635 261.645 129.878C261.369 129.338 260.878 128.896 260.286 128.705C259.739 128.747 259.17 128.798 258.575 128.868C258.575 128.868 249.693 137.855 237.766 139.507C226.037 141.129 220.705 137.494 220.543 137.378Z" fill="#EF4C65"/>
<path d="M242.745 115.841C242.335 117.79 241.431 119.686 240.222 121.499C249.884 121.738 259.789 118.735 267.447 115.576L274.083 105.62L274.086 105.612C260.044 107.054 242.745 115.841 242.745 115.841Z" fill="#BE292C"/>
<path d="M272.668 106.219C268.277 108.463 264.736 110.173 261.127 111.558C257.522 112.936 253.853 113.981 249.195 114.896C249.045 114.925 248.894 114.954 248.747 114.974L241.177 115.945L232.814 117.015L216.912 119.049L206.983 99.6315L208.229 98.2994L217.947 87.9309L223.712 81.7792C230.964 74.001 239.6 67.3769 249.205 62.3786C249.48 62.2377 249.756 62.0967 250.032 61.9558C263.243 55.1978 275.286 52.0403 285.497 50.8392C286.229 50.754 286.946 50.6823 287.654 50.6075C289.354 50.4502 290.997 50.3465 292.586 50.2882C293.269 50.2597 293.945 50.2476 294.61 50.2407C294.948 50.2347 295.283 50.2369 295.613 50.2278C299.871 50.2198 303.656 50.5321 306.893 50.988C310.672 51.5217 313.71 52.2401 315.887 52.865C318.267 53.5461 319.431 55.8317 318.594 58.1544C317.174 62.1098 314.285 68.6589 308.863 76.1315C308.651 76.4268 308.428 76.7273 308.209 77.0196C307.818 77.5475 307.408 78.0776 306.984 78.6211C306.009 79.8758 304.955 81.1391 303.829 82.4224C303.375 82.9456 302.905 83.4627 302.423 83.985C295.477 91.5677 285.868 99.466 272.668 106.219Z" fill="white"/>
<path d="M225.236 117.983L216.92 119.052C216.261 118.334 215.636 117.599 215.038 116.866C214.532 116.241 214.047 115.605 213.577 114.956C211.924 112.658 210.531 110.26 209.437 107.758C208.308 105.177 207.484 102.475 206.996 99.6457L212.73 93.5291C213.514 97.0742 214.618 100.458 216.024 103.682C217.692 107.487 219.784 111.076 222.324 114.438C222.745 114.994 223.181 115.556 223.624 116.102C224.139 116.73 224.682 117.359 225.236 117.983Z" fill="#182632"/>
<path d="M209.432 107.747C208.302 105.166 207.478 102.464 206.991 99.6345L212.725 93.5179L217.955 87.9339L223.72 81.7823C230.972 74.0041 239.608 67.38 249.213 62.3816C249.489 62.2407 249.764 62.0998 250.04 61.9588C267.927 52.8182 283.652 50.2524 295.621 50.2308C299.879 50.2228 303.664 50.5352 306.902 50.9911C306.479 53.8863 307.529 54.5811 302.625 57.9898C302.625 57.9898 269.112 56.11 246.756 72.645C226.272 87.7981 234.843 92.0107 234.843 92.0107L216.019 103.67L209.432 107.747Z" fill="#E1E1E1"/>
<path d="M202.984 115.27C202.403 115.327 201.931 115.013 201.709 114.576C201.487 114.14 201.508 113.579 201.895 113.134C216.429 96.8608 248.568 86.2633 261.831 82.4265C262.511 82.229 263.073 82.5762 263.329 83.0717C263.582 83.5754 263.528 84.2275 262.974 84.6672C252.102 93.1824 224.693 113.024 202.984 115.27Z" fill="#DC3645"/>
<path d="M263.337 83.0741L201.716 114.579C201.495 114.143 201.515 113.581 201.903 113.136C216.436 96.8631 248.575 86.2657 261.839 82.4289C262.507 82.2365 263.072 82.5755 263.337 83.0741Z" fill="#BE292C"/>
<path d="M285.109 85.6479C279.107 88.7176 271.756 86.3352 268.686 80.3337C265.616 74.3321 267.999 66.9804 274 63.9108C280.002 60.8412 287.353 63.2235 290.423 69.2251C293.493 75.2267 291.11 82.5783 285.109 85.6479Z" fill="#182632"/>
<path d="M283.947 83.3818C283.91 83.4056 283.868 83.4181 283.832 83.4419C279.153 85.7579 273.457 83.9205 271.017 79.2986C270.994 79.2619 270.978 79.2282 270.957 79.1832C270.545 78.3781 270.258 77.5354 270.085 76.6879C269.776 75.1464 269.861 73.573 270.284 72.096C270.656 70.8335 271.269 69.6505 272.121 68.6301C272.93 67.65 273.956 66.8151 275.156 66.1934C279.893 63.7684 285.721 65.6542 288.146 70.392C288.764 71.5996 289.098 72.8704 289.181 74.1416C289.269 75.4712 289.081 76.7921 288.635 78.0274C288.122 79.4711 287.26 80.7959 286.111 81.8651C285.483 82.4548 284.755 82.9611 283.947 83.3818Z" fill="#33C8CB"/>
<path opacity="0.1" d="M286.119 81.8681C287.269 80.7989 288.13 79.4741 288.643 78.0304C289.089 76.7951 289.277 75.4742 289.189 74.1446C289.107 72.8734 288.764 71.5996 288.154 70.3949C285.729 65.6572 279.902 63.7714 275.164 66.1964C274.925 66.3135 274.699 66.445 274.479 66.5876C279.075 64.6983 284.438 66.6279 286.738 71.1234C287.356 72.3311 287.691 73.6019 287.773 74.8731C287.861 76.2027 287.673 77.5236 287.227 78.7589C286.714 80.2026 285.853 81.5273 284.703 82.5966C284.252 83.009 283.759 83.3869 283.225 83.722C283.432 83.6398 283.634 83.5465 283.84 83.4449C283.874 83.4293 283.919 83.4086 283.955 83.3848C284.755 82.9611 285.483 82.4548 286.119 81.8681Z" fill="black"/>
<path d="M286.593 74.6063C286.593 74.6063 284.878 79.8432 280.348 80.8427C275.383 81.9338 272.751 78.594 271.859 74.076C271.859 74.076 270.608 78.3829 274.937 81.7786C279.443 85.3239 286.325 81.6641 286.593 74.6063Z" fill="#00EEED"/>
<path d="M308.871 76.1345C302.954 68.2627 298.54 59.6292 295.629 50.2339C304.862 50.2209 311.862 51.7086 315.895 52.868C317.347 53.2818 318.346 54.2937 318.714 55.5489C318.949 56.354 318.927 57.2507 318.599 58.1656C317.174 62.1098 314.281 68.6671 308.871 76.1345Z" fill="#DC3645"/>
<path d="M315.12 62.3141C315.467 61.5743 315.781 61.1022 316.349 59.9676C317.24 58.2062 317.18 57.3068 315.922 56.8714C313.631 56.0739 307.838 64.5293 309.138 68.9271C310.141 72.3572 313.621 65.5219 315.12 62.3141Z" fill="#EF4C65"/>
<path opacity="0.2" d="M308.871 76.1345C302.954 68.2627 298.54 59.6292 295.629 50.2339C304.862 50.2209 311.862 51.7086 315.895 52.868C317.347 53.2818 318.346 54.2937 318.714 55.5489C317.923 55.2388 312.186 53.1342 307.772 55.3893C303.026 57.8112 302.007 66.0476 308.871 76.1345Z" fill="black"/>
<defs>
<linearGradient id="paint0_linear" x1="182.472" y1="216.251" x2="-20.7334" y2="51.0928" gradientUnits="userSpaceOnUse">
<stop stop-color="#00556A"/>
<stop offset="1" stop-color="#007D8D"/>
</linearGradient>
<linearGradient id="paint1_linear" x1="161.076" y1="242.575" x2="-42.1293" y2="77.417" gradientUnits="userSpaceOnUse">
<stop stop-color="#00556A"/>
<stop offset="1" stop-color="#007D8D"/>
</linearGradient>
</defs>
</svg>
