<svg width="320" height="320" viewBox="0 0 320 320" fill="none" xmlns="http://www.w3.org/2000/svg">
<path d="M188.66 233.946H128.289V250.171H188.66V233.946Z" fill="#21397D"/>
<path d="M263.432 100.122V227.94C263.432 234.188 258.37 239.246 252.116 239.246H65.4796C59.2264 239.246 54.1637 234.188 54.1637 227.94V100.122C54.1637 93.8746 59.2264 88.8164 65.4796 88.8164H252.116C258.358 88.8164 263.432 93.8746 263.432 100.122Z" fill="#2C49AA"/>
<path d="M250.094 224.811H66.8551C63.0755 224.811 60.0125 221.75 60.0125 217.974V104.996C60.0125 101.219 63.0755 98.1591 66.8551 98.1591H250.094C253.873 98.1591 256.936 101.219 256.936 104.996V217.963C256.948 221.739 253.885 224.811 250.094 224.811Z" fill="#AAC7F9"/>
<path d="M214.609 258.982H102.34V257.574C102.34 252.7 106.293 248.762 111.159 248.762H205.766C210.644 248.762 214.586 252.712 214.586 257.574V258.982H214.609Z" fill="#2C49AA"/>
<path d="M68.0109 220.792L87.6258 171.85L110.997 208.909L134.808 142.135L151.695 193.064L169.449 153.996L194.046 201.945L209.904 136.488L231.195 212.373L239.263 174.102L248.718 220.792H68.0109Z" fill="#D9E8FF"/>
<path d="M252.475 106.335H74.3798V109.777H252.475V106.335Z" fill="#D9E8FF"/>
<path d="M233.068 115.089H74.3798V118.531H233.068V115.089Z" fill="#D9E8FF"/>
<path d="M252.475 123.843H107.911V127.284H252.475V123.843Z" fill="#D9E8FF"/>
<path d="M252.475 132.608H107.911V136.049H252.475V132.608Z" fill="#D9E8FF"/>
<path d="M231.831 141.362H107.911V144.803H231.831V141.362Z" fill="#D9E8FF"/>
<path d="M104.432 121.475H74.3798V151.501H104.432V121.475Z" fill="#D9E8FF"/>
<path d="M272.136 248.762C272.136 255.091 267.004 260.23 260.658 260.23C254.324 260.23 249.18 255.102 249.18 248.762C249.18 242.434 254.312 237.295 260.658 237.295C267.004 237.295 272.136 242.422 272.136 248.762Z" fill="#3C57AB"/>
<path d="M260.658 239.627C255.618 239.627 251.527 243.727 251.527 248.751C251.527 253.786 255.63 257.874 260.658 257.874C265.686 257.874 269.789 253.774 269.789 248.751C269.801 243.727 265.698 239.627 260.658 239.627ZM260.658 252.885C258.369 252.885 256.52 251.037 256.52 248.751C256.52 246.464 258.369 244.616 260.658 244.616C262.947 244.616 264.796 246.464 264.796 248.751C264.796 251.037 262.947 252.885 260.658 252.885Z" fill="#C3D4FB"/>
<path d="M279.984 252.827C280.262 251.511 280.412 250.148 280.412 248.751C280.412 247.353 280.262 245.991 279.984 244.674H275.43C275.095 243.438 274.598 242.272 273.985 241.186L277.199 237.976C275.696 235.678 273.731 233.715 271.431 232.213L268.217 235.424C267.131 234.812 265.964 234.315 264.727 233.98V229.43C263.409 229.153 262.045 229.003 260.647 229.003C259.248 229.003 257.884 229.153 256.566 229.43V233.98C255.33 234.315 254.162 234.812 253.076 235.424L249.862 232.213C247.562 233.715 245.597 235.678 244.095 237.976L247.308 241.186C246.695 242.272 246.198 243.438 245.863 244.674H241.309C241.032 245.991 240.881 247.353 240.881 248.751C240.881 250.148 241.032 251.511 241.309 252.827H245.863C246.198 254.063 246.695 255.229 247.308 256.315L244.095 259.525C245.597 261.823 247.562 263.787 249.862 265.288L253.076 262.078C254.162 262.69 255.33 263.186 256.566 263.521V268.071C257.884 268.348 259.248 268.498 260.647 268.498C262.045 268.498 263.409 268.348 264.727 268.071V263.521C265.964 263.186 267.131 262.69 268.217 262.078L271.431 265.288C273.731 263.787 275.696 261.823 277.199 259.525L273.985 256.315C274.598 255.229 275.095 254.063 275.43 252.827H279.984ZM260.658 259.052C254.971 259.052 250.348 254.432 250.348 248.751C250.348 243.069 254.971 238.449 260.658 238.449C266.345 238.449 270.968 243.069 270.968 248.751C270.968 254.432 266.345 259.052 260.658 259.052Z" fill="#D9E8FF"/>
<path d="M233.322 239.627C233.322 243.427 230.236 246.51 226.433 246.51C222.63 246.51 219.544 243.427 219.544 239.627C219.544 235.828 222.63 232.744 226.433 232.744C230.236 232.744 233.322 235.828 233.322 239.627Z" fill="#3C57AB"/>
<path d="M226.433 234.142C223.405 234.142 220.943 236.602 220.943 239.627C220.943 242.653 223.405 245.113 226.433 245.113C229.461 245.113 231.923 242.653 231.923 239.627C231.923 236.602 229.461 234.142 226.433 234.142ZM226.433 242.11C225.058 242.11 223.948 241.002 223.948 239.627C223.948 238.253 225.058 237.144 226.433 237.144C227.809 237.144 228.918 238.253 228.918 239.627C228.918 241.002 227.809 242.11 226.433 242.11Z" fill="#C3D4FB"/>
<path d="M238.038 242.076C238.2 241.29 238.292 240.47 238.292 239.627C238.292 238.784 238.2 237.976 238.038 237.179H235.298C235.09 236.44 234.801 235.736 234.432 235.089L236.362 233.16C235.46 231.786 234.281 230.596 232.906 229.707L230.976 231.636C230.328 231.266 229.623 230.978 228.883 230.77V228.033C228.097 227.871 227.277 227.779 226.433 227.779C225.589 227.779 224.78 227.871 223.983 228.033V230.77C223.243 230.978 222.538 231.266 221.89 231.636L219.96 229.707C218.585 230.608 217.394 231.786 216.504 233.16L218.434 235.089C218.065 235.736 217.776 236.44 217.568 237.179H214.828C214.666 237.964 214.574 238.784 214.574 239.627C214.574 240.47 214.666 241.279 214.828 242.076H217.568C217.776 242.815 218.065 243.519 218.434 244.166L216.504 246.094C217.406 247.469 218.585 248.658 219.96 249.547L221.89 247.619C222.538 247.988 223.243 248.277 223.983 248.485V251.222C224.769 251.384 225.589 251.476 226.433 251.476C227.277 251.476 228.086 251.384 228.883 251.222V248.485C229.623 248.277 230.328 247.988 230.976 247.619L232.906 249.547C234.281 248.647 235.472 247.469 236.362 246.094L234.432 244.166C234.801 243.519 235.09 242.815 235.298 242.076H238.038ZM226.433 245.817C223.023 245.817 220.238 243.046 220.238 239.627C220.238 236.221 223.012 233.437 226.433 233.437C229.843 233.437 232.628 236.209 232.628 239.627C232.628 243.046 229.843 245.817 226.433 245.817Z" fill="#D9E8FF"/>
<path opacity="0.1" d="M120.013 121.187V162.784C120.013 164.343 118.21 165.625 116.025 165.625H59.8273V118.346H116.025C118.21 118.346 120.013 119.628 120.013 121.187Z" fill="black"/>
<path opacity="0.1" d="M256.613 129.259L256.948 176.538H212.089C209.546 176.538 207.465 175.256 207.465 173.697V132.1C207.465 130.541 209.546 129.259 212.089 129.259H256.613Z" fill="black"/>
<path d="M311.909 156.432C313.967 158.026 312.499 161.514 310.152 162.634C307.54 163.881 302.766 164.539 294.398 161.571L289.462 159.585C289.462 159.585 275.095 150.958 271.408 145.346L273.951 142.482C273.951 142.482 288.422 151.905 294.109 153.545C294.097 153.534 306.592 152.31 311.909 156.432Z" fill="#EB9F8A"/>
<path d="M261.49 139.248C261.837 138.729 263.351 139.964 264.241 140.449C265.131 140.934 265.362 140.911 265.316 140.761C265.27 140.611 263.605 139.295 262.819 138.752C262.033 138.209 260.762 137.389 261.143 136.846C261.536 136.304 262.75 137.227 263.837 137.932C264.923 138.636 265.778 139.537 265.975 139.306C266.171 139.064 262.507 136.038 262.253 135.795C261.999 135.553 261.109 134.814 261.456 134.363C261.802 133.901 262.646 134.49 263.074 134.802C263.501 135.114 264.669 136.026 265.594 136.858C266.518 137.678 266.807 137.955 266.969 137.828C267.131 137.701 265.27 135.507 264.576 134.721C263.883 133.948 263.421 133.047 264.033 132.77C264.634 132.493 265.836 134.098 266.588 134.964C267.327 135.83 268.61 137.343 269.258 137.816C269.905 138.29 270.39 138.844 270.587 138.475C270.633 138.394 270.679 138.324 270.702 138.29C270.864 138.059 270.853 137.274 270.737 136.719C270.622 136.165 270.934 135.414 271.257 135.022C271.581 134.629 272.02 134.583 271.974 135.818C271.928 137.043 272.39 138.752 272.875 139.583C273.361 140.415 273.742 140.911 273.361 141.881C273.234 142.205 279.256 146.697 280.169 147.321C281.082 147.944 277.927 151.305 277.245 150.727C276.551 150.15 271.061 144.63 270.494 144.768C269.928 144.896 269.454 144.803 268.056 144.099C267.35 143.752 266.056 142.99 264.992 142.332C264.992 142.332 262.97 141.119 262.242 140.576C261.525 139.999 261.143 139.768 261.49 139.248Z" fill="#EB9F8A"/>
<path d="M295.669 152.772L295.161 163.408L308.372 164.043C311.158 164.181 313.516 162.033 313.654 159.25L313.677 158.684C313.816 155.901 311.666 153.545 308.881 153.407L295.669 152.772Z" fill="#234599"/>
<path d="M275.326 172.635H206.968C205.408 172.635 204.125 171.353 204.125 169.794V128.208C204.125 126.649 205.408 125.367 206.968 125.367H275.326C276.886 125.367 278.169 126.649 278.169 128.208V169.794C278.169 171.365 276.886 172.635 275.326 172.635Z" fill="#D4DEFE"/>
<path d="M275.326 171.792H206.968C205.408 171.792 204.125 170.51 204.125 168.951V127.365C204.125 125.806 205.408 124.524 206.968 124.524H275.326C276.886 124.524 278.169 125.806 278.169 127.365V168.962C278.169 170.522 276.886 171.792 275.326 171.792Z" fill="#FEFFFF"/>
<path d="M212.262 129.929C212.262 131.037 211.361 131.95 210.239 131.95C209.13 131.95 208.217 131.049 208.217 129.929C208.217 128.809 209.118 127.908 210.239 127.908C211.361 127.919 212.262 128.82 212.262 129.929Z" fill="#D9E8FF"/>
<path d="M218.423 129.929C218.423 131.037 217.521 131.95 216.4 131.95C215.291 131.95 214.377 131.049 214.377 129.929C214.377 128.809 215.279 127.908 216.4 127.908C217.521 127.919 218.423 128.82 218.423 129.929Z" fill="#D9E8FF"/>
<path d="M224.676 129.929C224.676 131.037 223.775 131.95 222.653 131.95C221.544 131.95 220.631 131.049 220.631 129.929C220.631 128.809 221.532 127.908 222.653 127.908C223.775 127.919 224.676 128.82 224.676 129.929Z" fill="#D9E8FF"/>
<path d="M271.639 152.899H209.592C208.841 152.899 208.228 152.287 208.228 151.536V137.851C208.228 137.1 208.841 136.488 209.592 136.488H271.639C272.39 136.488 273.003 137.1 273.003 137.851V151.536C273.003 152.287 272.39 152.899 271.639 152.899Z" fill="#5D8EDF"/>
<path d="M273.003 156.259H208.228V158.8H273.003V156.259Z" fill="#D9E8FF"/>
<path d="M273.003 162.149H208.228V164.69H273.003V162.149Z" fill="#D9E8FF"/>
<path d="M311.042 250.494C311.042 250.494 311.643 258.648 312.21 261.419C312.21 261.419 311.897 265.496 306.997 265.496C302.096 265.496 304.905 262.216 304.905 262.216C304.905 262.216 307.216 259.329 306.257 250.506H311.042V250.494Z" fill="#EB9F8A"/>
<path d="M293.785 267.182C293.785 267.24 293.785 267.286 293.797 267.332C293.797 267.378 293.808 267.413 293.82 267.459C293.831 267.505 293.843 267.551 293.854 267.598C293.866 267.632 293.866 267.667 293.889 267.702C293.901 267.759 293.924 267.817 293.947 267.875C293.958 267.921 293.982 267.956 294.005 268.002C294.062 268.117 294.12 268.233 294.178 268.337C294.328 268.602 294.606 268.752 294.906 268.752H312.545L312.487 267.447L312.452 266.685C312.88 265.357 312.626 263.452 312.221 261.419C307.077 265.45 305.297 261.835 305.228 261.685C305.217 261.708 305.216 261.719 305.205 261.743C305.182 261.8 305.147 261.858 305.101 261.927C304.835 262.32 304.303 262.736 303.621 263.14C303.575 263.175 303.529 263.198 303.483 263.221C303.182 263.394 302.847 263.567 302.489 263.74C302.431 263.764 302.385 263.787 302.338 263.81C302.026 263.948 301.714 264.098 301.379 264.237C301.321 264.26 301.275 264.283 301.217 264.306C299.252 265.126 297.033 265.796 295.623 266.05C295.426 266.085 295.253 266.108 295.091 266.131C294.074 266.235 293.785 266.685 293.785 267.182Z" fill="#00468D"/>
<path d="M295.9 268.741H312.533L312.475 267.436L312.441 266.674C312.267 266.547 312.082 266.408 311.92 266.27C311.192 265.646 310.499 265.057 309.563 264.768C307.875 264.237 306.037 264.71 304.384 265.346C302.731 265.981 301.113 266.801 299.345 266.974C298.697 267.032 298.039 267.009 297.391 267.101C296.86 267.17 296.282 267.367 296.051 267.84C295.958 268.036 295.935 268.256 295.912 268.464C295.912 268.556 295.9 268.648 295.9 268.741Z" fill="#2E81C5"/>
<path d="M293.785 267.182C293.785 267.24 293.785 267.286 293.797 267.332C293.797 267.378 293.808 267.413 293.82 267.459C293.831 267.505 293.843 267.551 293.854 267.598C293.866 267.632 293.866 267.667 293.889 267.702C293.901 267.759 293.924 267.817 293.947 267.875C293.958 267.921 293.982 267.956 294.005 268.002C294.062 268.117 294.12 268.233 294.178 268.337C294.328 268.602 294.606 268.752 294.906 268.752H312.545L312.487 267.447C312.094 267.367 311.678 267.355 311.343 267.355C309.863 267.309 308.36 267.424 306.881 267.471C305.112 267.528 303.344 267.574 301.576 267.632C299.634 267.69 297.495 267.69 296.027 266.42C295.889 266.304 295.762 266.177 295.623 266.05C295.426 266.085 295.253 266.108 295.091 266.131C294.074 266.235 293.785 266.685 293.785 267.182Z" fill="#C3CEE2"/>
<path d="M303.46 263.209C303.61 263.498 303.83 263.798 304.107 264.018C304.28 264.156 304.488 264.249 304.72 264.283H304.731C304.777 264.283 304.812 264.249 304.812 264.214C304.824 264.168 304.789 264.133 304.743 264.122C304.5 264.087 304.292 263.983 304.119 263.821C303.899 263.625 303.737 263.371 303.61 263.128C303.564 263.151 303.506 263.186 303.46 263.209Z" fill="white"/>
<path d="M302.315 263.81C302.57 264.191 302.928 264.549 303.425 264.618H303.437C303.471 264.618 303.517 264.583 303.517 264.549C303.529 264.503 303.494 264.468 303.448 264.456C303.032 264.399 302.708 264.087 302.477 263.74C302.419 263.752 302.373 263.775 302.315 263.81Z" fill="white"/>
<path d="M301.206 264.295C301.448 264.583 301.749 264.814 302.142 264.861H302.153C302.2 264.861 302.234 264.826 302.234 264.791C302.246 264.745 302.211 264.71 302.165 264.699C301.841 264.664 301.576 264.468 301.368 264.214C301.31 264.26 301.263 264.272 301.206 264.295Z" fill="white"/>
<path d="M296.86 196.205C296.86 196.205 300.686 224.129 302.674 230.227C304.662 236.324 305.552 258.578 305.552 258.578H312.314C312.314 258.578 315.862 239.581 312.314 229.234C312.314 229.234 317.734 198.757 313.885 193.93C310.06 189.114 298.004 189.265 296.86 196.205Z" fill="#ACBEE2"/>
<path d="M313.261 250.494C313.261 250.494 313.862 258.648 314.429 261.419C314.429 261.419 314.117 265.496 309.216 265.496C304.315 265.496 307.124 262.216 307.124 262.216C307.124 262.216 309.435 259.329 308.476 250.506H313.261V250.494Z" fill="#FEAC95"/>
<path d="M296.004 267.182C296.004 267.24 296.004 267.286 296.016 267.332C296.016 267.378 296.028 267.413 296.039 267.459C296.051 267.505 296.062 267.551 296.074 267.598C296.085 267.632 296.085 267.667 296.108 267.702C296.12 267.759 296.143 267.817 296.166 267.875C296.178 267.921 296.201 267.956 296.224 268.002C296.282 268.117 296.34 268.233 296.397 268.337C296.548 268.602 296.825 268.752 297.126 268.752H314.764L314.706 267.447L314.672 266.685C315.099 265.357 314.845 263.452 314.44 261.419C309.297 265.45 307.517 261.835 307.447 261.685C307.436 261.708 307.436 261.719 307.424 261.743C307.401 261.8 307.367 261.858 307.32 261.927C307.054 262.32 306.523 262.736 305.841 263.14C305.795 263.175 305.748 263.198 305.702 263.221C305.402 263.394 305.066 263.567 304.708 263.74C304.65 263.764 304.604 263.787 304.558 263.81C304.246 263.948 303.934 264.098 303.598 264.237C303.541 264.26 303.494 264.283 303.437 264.306C301.472 265.126 299.252 265.796 297.842 266.05C297.646 266.085 297.472 266.108 297.311 266.131C296.293 266.235 296.004 266.685 296.004 267.182Z" fill="#0054AA"/>
<path d="M298.108 268.741H314.741L314.683 267.436L314.648 266.674C314.475 266.547 314.29 266.408 314.128 266.27C313.4 265.646 312.707 265.057 311.77 264.768C310.083 264.237 308.245 264.71 306.592 265.346C304.939 265.981 303.321 266.801 301.553 266.974C300.905 267.032 300.246 267.009 299.599 267.101C299.067 267.17 298.489 267.367 298.258 267.84C298.166 268.036 298.143 268.256 298.12 268.464C298.12 268.556 298.12 268.648 298.108 268.741Z" fill="#3494E2"/>
<path d="M296.004 267.182C296.004 267.24 296.004 267.286 296.016 267.332C296.016 267.378 296.028 267.413 296.039 267.459C296.051 267.505 296.062 267.551 296.074 267.598C296.085 267.632 296.085 267.667 296.108 267.702C296.12 267.759 296.143 267.817 296.166 267.875C296.178 267.921 296.201 267.956 296.224 268.002C296.282 268.117 296.34 268.233 296.397 268.337C296.548 268.602 296.825 268.752 297.126 268.752H314.764L314.706 267.447C314.313 267.367 313.897 267.355 313.562 267.355C312.082 267.309 310.58 267.424 309.1 267.471C307.332 267.528 305.563 267.574 303.795 267.632C301.853 267.69 299.715 267.69 298.247 266.42C298.108 266.304 297.981 266.177 297.842 266.05C297.646 266.085 297.472 266.108 297.311 266.131C296.293 266.235 296.004 266.685 296.004 267.182Z" fill="#DCE9FF"/>
<path d="M305.679 263.209C305.829 263.498 306.049 263.798 306.326 264.018C306.5 264.156 306.708 264.249 306.939 264.283H306.95C306.997 264.283 307.031 264.249 307.031 264.214C307.043 264.168 307.008 264.133 306.962 264.122C306.719 264.087 306.511 263.983 306.338 263.821C306.118 263.625 305.956 263.371 305.829 263.128C305.771 263.151 305.725 263.186 305.679 263.209Z" fill="white"/>
<path d="M304.535 263.81C304.789 264.191 305.147 264.549 305.644 264.618H305.656C305.691 264.618 305.737 264.583 305.737 264.549C305.748 264.503 305.714 264.468 305.667 264.456C305.251 264.399 304.928 264.087 304.696 263.74C304.639 263.752 304.592 263.775 304.535 263.81Z" fill="white"/>
<path d="M303.425 264.295C303.668 264.583 303.968 264.814 304.361 264.861H304.373C304.419 264.861 304.454 264.826 304.454 264.791C304.465 264.745 304.431 264.71 304.384 264.699C304.061 264.664 303.795 264.468 303.587 264.214C303.529 264.26 303.471 264.272 303.425 264.295Z" fill="white"/>
<path d="M299.079 196.205C299.079 196.205 302.905 224.129 304.893 230.227C306.881 236.324 307.771 258.578 307.771 258.578H314.533C314.533 258.578 318.081 239.581 314.533 229.234C314.533 229.234 319.954 198.757 316.105 193.93C312.279 189.114 300.223 189.265 299.079 196.205Z" fill="#D1DEFE"/>
<path d="M312.267 258.636L312.394 258.544C310.349 255.772 308.395 197.66 308.372 197.071H308.21C308.21 197.221 308.707 211.911 309.447 226.774C310.441 246.73 311.389 257.447 312.267 258.636Z" fill="#0054AA"/>
<path opacity="0.2" d="M317.318 197.937C317.318 197.937 305.737 203.169 297.334 199.52L296.871 196.205L316.856 194.993C316.856 194.993 317.249 197.268 317.318 197.937Z" fill="#8BA2C6"/>
<path d="M320 195.212C320 195.212 314.648 199.242 306.499 199.508C304.708 199.566 302.789 199.45 300.755 199.069C299.391 198.815 297.969 198.434 296.513 197.914C296.513 197.914 296.351 193.815 296.513 188.064C296.594 185.107 296.756 181.712 297.079 178.213C297.16 177.266 297.264 176.307 297.38 175.36C297.484 174.402 297.611 173.443 297.75 172.485C299.287 161.71 302.593 151.651 309.574 151.986C309.574 151.986 316.96 151.709 318.937 158.222C320.925 164.736 319.503 171.261 319.503 171.261C319.503 171.261 318.081 188.271 320 195.212Z" fill="#2E4CAC"/>
<path d="M302.755 141.385C299.391 140.888 296.189 139.352 293.716 137.02C292.098 135.495 290.745 133.532 290.479 131.326C290.214 129.109 291.254 126.649 293.288 125.76C295.623 124.732 298.247 125.933 300.697 126.626C302.604 127.169 304.604 127.411 306.592 127.33C308.233 127.261 309.875 126.984 311.516 126.995C313.157 127.019 314.88 127.377 316.14 128.427C317.677 129.709 318.278 131.8 318.509 133.786C318.867 136.846 318.497 140.068 316.949 142.736C315.411 145.404 312.591 147.436 309.505 147.54C307.447 147.609 305.471 146.87 303.552 146.12C302.292 145.623 300.998 145.092 299.969 144.214C298.929 143.337 298.177 142.02 298.293 140.669" fill="#203983"/>
<path d="M312.406 147.09C312.406 147.09 313.469 155.382 312.683 156.987C312.371 157.622 308.141 161.468 305.194 158.072C304.639 157.437 304.419 156.583 304.535 155.751C304.708 154.458 305.02 152.217 305.344 149.977L312.406 147.09Z" fill="#FEAC95"/>
<path d="M312.406 147.09C312.406 147.09 312.984 152.956 304.754 154.157L305.136 151.259C305.136 151.259 309.667 150.785 312.406 147.09Z" fill="#F29E8B"/>
<path d="M306.581 129.813C305.217 129.617 303.841 130.033 302.801 130.922C300.917 132.527 298.027 135.622 298.224 139.468C298.513 145.138 299.518 153.88 305.737 152.795C311.955 151.709 315.747 141.292 314.545 137.123C313.516 133.532 310.823 130.402 306.581 129.813Z" fill="#FEAC95"/>
<path d="M310.476 136.396C310.476 136.396 303.413 138.29 299.067 135.53C299.067 135.53 298.721 136.142 298.42 137.32C298.42 137.32 308.153 139.78 310.476 136.396Z" fill="#F29E8B"/>
<path d="M298.651 135.218C298.651 135.218 303.668 139.56 310.476 136.396C310.476 136.396 308.939 144.815 315.041 145.196C315.041 145.196 319.33 134.375 311.655 130.622C303.991 126.868 299.091 130.968 298.651 135.218Z" fill="#203983"/>
<path d="M313.435 142.563C313.18 143.429 312.279 143.925 311.412 143.683C310.545 143.429 310.048 142.528 310.291 141.662C310.545 140.796 311.447 140.299 312.314 140.542C313.18 140.796 313.689 141.697 313.435 142.563Z" fill="#FEAC95"/>
<path d="M312.649 142.343C312.522 142.782 312.071 143.025 311.643 142.898C311.215 142.771 310.961 142.32 311.088 141.893C311.216 141.454 311.666 141.212 312.094 141.339C312.522 141.454 312.776 141.904 312.649 142.343Z" fill="#ED9783"/>
<path d="M313.296 172.046L305.968 181.793L304.905 180.996C303.148 183.04 301.495 184.807 300.478 185.904C298.813 187.694 297.484 188.133 296.525 188.064C296.605 185.107 296.767 181.712 297.091 178.213C297.391 177.531 297.738 176.746 298.12 175.903L297.391 175.349C297.495 174.39 297.623 173.432 297.761 172.473L303.564 164.747C305.586 162.068 309.389 161.525 312.082 163.535C314.764 165.556 315.307 169.355 313.296 172.046Z" fill="#1B418C"/>
<path d="M311.088 163.408C311.088 163.408 306.638 160.994 303.564 165.186C300.489 169.39 296.652 178.432 296.652 178.432L282.828 168.766L282.481 173.871L295.103 184.876C295.103 184.876 297.102 187.786 300.94 183.802C304.789 179.818 317.527 166.93 311.088 163.408Z" fill="#FEAC95"/>
<path d="M267.674 163.315C268.021 162.796 269.535 164.031 270.425 164.516C271.315 165.001 271.546 164.978 271.5 164.828C271.454 164.678 269.789 163.361 269.003 162.819C268.217 162.276 266.946 161.456 267.327 160.913C267.72 160.37 268.934 161.294 270.021 161.999C271.107 162.703 271.962 163.604 272.159 163.373C272.355 163.13 268.691 160.105 268.437 159.851C268.183 159.608 267.293 158.869 267.64 158.419C267.986 157.957 268.83 158.546 269.258 158.858C269.685 159.169 270.853 160.082 271.778 160.913C272.702 161.733 272.991 162.01 273.153 161.883C273.315 161.756 271.454 159.562 270.76 158.777C270.067 157.991 269.604 157.102 270.217 156.825C270.818 156.548 272.02 158.153 272.76 159.019C273.5 159.885 274.783 161.398 275.43 161.872C276.077 162.345 276.551 162.9 276.759 162.53C276.805 162.449 276.852 162.38 276.875 162.345C277.037 162.114 277.037 161.329 276.91 160.775C276.794 160.22 277.106 159.47 277.43 159.077C277.753 158.684 278.193 158.638 278.146 159.874C278.1 161.098 278.562 162.807 279.048 163.639C279.533 164.47 279.915 164.967 279.533 165.937C279.406 166.26 285.428 170.752 286.341 171.376C287.254 172 284.099 175.349 283.405 174.783C282.712 174.205 277.222 168.685 276.655 168.812C276.089 168.939 275.615 168.847 274.216 168.143C273.511 167.796 272.217 167.034 271.153 166.376C271.153 166.376 269.131 165.163 268.402 164.609C267.709 164.066 267.327 163.835 267.674 163.315Z" fill="#FEAC95"/>
<path d="M296.917 172.323L306.511 179.783L314.001 170.175C316.07 167.53 315.585 163.708 312.938 161.652C310.291 159.597 306.465 160.07 304.407 162.715L296.917 172.323Z" fill="#2E4CAC"/>
<path d="M23.0824 146.743C21.5105 148.175 22.9322 150.912 24.9202 151.674C27.1279 152.518 31.0579 152.749 37.6809 149.781L41.5646 147.84C41.5646 147.84 52.6956 139.884 55.3309 135.068L53.077 132.897C53.077 132.897 41.9114 141.512 37.392 143.21C37.392 143.221 27.1395 143.036 23.0824 146.743Z" fill="#FFC4B6"/>
<path d="M62.9943 129.467C62.6822 129.063 61.5263 130.171 60.8328 130.622C60.1393 131.072 59.9428 131.072 59.9775 130.945C60.0006 130.818 61.2721 129.64 61.8731 129.144C62.4857 128.658 63.4682 127.896 63.1099 127.492C62.7631 127.076 61.8269 127.908 60.9831 128.555C60.1393 129.19 59.5036 129.987 59.3302 129.813C59.1568 129.629 61.9425 126.926 62.1389 126.707C62.3354 126.487 63.0058 125.841 62.6938 125.483C62.3817 125.136 61.7344 125.656 61.3992 125.945C61.064 126.222 60.174 127.053 59.4805 127.781C58.7754 128.508 58.5558 128.751 58.4171 128.658C58.2784 128.566 59.6423 126.661 60.1624 125.979C60.6826 125.298 60.9946 124.547 60.4745 124.351C59.9659 124.166 59.0875 125.552 58.5442 126.303C57.9894 127.065 57.0532 128.37 56.5561 128.797C56.0591 129.224 55.7008 129.709 55.5159 129.421C55.4696 129.351 55.435 129.305 55.4118 129.282C55.2616 129.097 55.2153 128.462 55.2731 128C55.3309 127.538 55.0304 126.949 54.7414 126.649C54.4525 126.349 54.0942 126.349 54.2097 127.342C54.3253 128.335 54.0595 129.756 53.7243 130.46C53.3775 131.176 53.1001 131.592 53.4816 132.366C53.6087 132.62 48.9968 136.662 48.2917 137.227C47.5982 137.793 50.3723 140.322 50.904 139.814C51.4241 139.306 55.539 134.444 56.0129 134.525C56.4868 134.594 56.8567 134.49 57.9547 133.821C58.498 133.486 59.5036 132.781 60.3358 132.181C60.3358 132.181 61.9078 131.061 62.4626 130.564C63.0174 130.079 63.3179 129.871 62.9943 129.467Z" fill="#FFC4B6"/>
<path d="M36.0627 142.701L37.1723 151.317L26.4575 152.691C24.2036 152.979 22.1346 151.386 21.8456 149.134L21.7878 148.672C21.4989 146.42 23.094 144.353 25.3479 144.064L36.0627 142.701Z" fill="#EFEDDF"/>
<path d="M114.5 163.211H46.1535C44.5931 163.211 43.3101 161.929 43.3101 160.37V118.773C43.3101 117.214 44.5931 115.932 46.1535 115.932H114.511C116.071 115.932 117.354 117.214 117.354 118.773V160.37C117.354 161.929 116.071 163.211 114.5 163.211Z" fill="#D4DEFE"/>
<path d="M114.5 162.368H46.1535C44.5931 162.368 43.3101 161.086 43.3101 159.527V117.93C43.3101 116.371 44.5931 115.089 46.1535 115.089H114.511C116.071 115.089 117.354 116.371 117.354 117.93V159.527C117.354 161.086 116.071 162.368 114.5 162.368Z" fill="#FEFFFF"/>
<path d="M51.4474 120.505C51.4474 121.614 50.5458 122.526 49.4246 122.526C48.3034 122.526 47.4019 121.625 47.4019 120.505C47.4019 119.397 48.3034 118.484 49.4246 118.484C50.5458 118.484 51.4474 119.397 51.4474 120.505Z" fill="#D9E8FF"/>
<path d="M57.5965 120.505C57.5965 121.614 56.695 122.526 55.5738 122.526C54.4642 122.526 53.551 121.625 53.551 120.505C53.551 119.397 54.4526 118.484 55.5738 118.484C56.695 118.484 57.5965 119.397 57.5965 120.505Z" fill="#D9E8FF"/>
<path d="M63.8612 120.505C63.8612 121.614 62.9596 122.526 61.8384 122.526C60.7288 122.526 59.8157 121.625 59.8157 120.505C59.8157 119.397 60.7172 118.484 61.8384 118.484C62.9596 118.484 63.8612 119.397 63.8612 120.505Z" fill="#D9E8FF"/>
<path d="M113.413 133.925H81.0258V136.465H113.413V133.925Z" fill="#D9E8FF"/>
<path d="M113.413 139.826H81.0258V142.366H113.413V139.826Z" fill="#D9E8FF"/>
<path d="M101.542 145.993H81.0258V148.533H101.542V145.993Z" fill="#D9E8FF"/>
<path d="M73.3625 130.414H51.4474V152.31H73.3625V130.414Z" fill="#D9E8FF"/>
<path d="M7.07392 239.962C7.07392 239.962 3.98777 247.977 2.56606 250.587C2.56606 250.587 1.62981 254.779 6.55378 256.269C11.4777 257.758 9.66305 253.612 9.66305 253.612C9.66305 253.612 8.21822 250.009 11.8823 241.429L7.07392 239.962Z" fill="#FFC4B6"/>
<path d="M19.326 261.997C19.3144 262.054 19.2913 262.101 19.2682 262.147C19.2566 262.193 19.2335 262.228 19.2104 262.262C19.1873 262.308 19.1642 262.355 19.1295 262.389C19.1179 262.424 19.0948 262.459 19.0717 262.482C19.037 262.528 19.0023 262.586 18.9561 262.632C18.9214 262.666 18.8983 262.713 18.8636 262.747C18.7712 262.851 18.6787 262.944 18.5862 263.024C18.3551 263.244 18.0314 263.313 17.7193 263.221L0 257.862L0.462344 256.569L0.728192 255.807C0.705075 254.34 1.53729 252.504 2.57757 250.587C6.51905 256.199 9.40871 253.116 9.52429 252.989C9.52429 253.012 9.52429 253.035 9.53585 253.058C9.54741 253.127 9.55897 253.197 9.58208 253.266C9.73235 253.74 10.1369 254.317 10.7033 254.941C10.7379 254.987 10.7842 255.021 10.8189 255.068C11.0731 255.333 11.3506 255.61 11.6511 255.899C11.6973 255.934 11.7435 255.98 11.7782 256.015C12.0441 256.257 12.3215 256.5 12.6104 256.731C12.6567 256.777 12.7029 256.811 12.7491 256.846C14.4714 258.267 16.5057 259.618 17.8349 260.299C18.0199 260.391 18.1932 260.472 18.3435 260.542C19.3144 260.957 19.4763 261.5 19.326 261.997Z" fill="#EF5E43"/>
<path d="M16.7253 262.932L0 257.862L0.462344 256.569L0.728192 255.807C0.947806 255.726 1.16742 255.645 1.37547 255.553C2.30016 255.148 3.17862 254.767 4.20733 254.756C6.06827 254.733 7.76738 255.772 9.23533 256.915C10.7033 258.059 12.0903 259.375 13.801 260.091C14.4367 260.357 15.1071 260.53 15.7313 260.807C16.2398 261.038 16.76 261.408 16.8525 261.962C16.8871 262.193 16.8525 262.412 16.8062 262.632C16.7715 262.736 16.7484 262.828 16.7253 262.932Z" fill="#E2412B"/>
<path d="M19.326 261.997C19.3144 262.054 19.2913 262.101 19.2682 262.147C19.2566 262.193 19.2335 262.228 19.2104 262.262C19.1873 262.308 19.1642 262.355 19.1295 262.389C19.1179 262.424 19.0948 262.459 19.0717 262.482C19.037 262.528 19.0023 262.586 18.9561 262.632C18.9214 262.666 18.8983 262.713 18.8636 262.747C18.7712 262.851 18.6787 262.944 18.5862 263.024C18.3551 263.244 18.0314 263.313 17.7193 263.221L0 257.862L0.462344 256.569C0.890013 256.615 1.30612 256.731 1.64132 256.823C3.14394 257.227 4.61188 257.805 6.09139 258.301C7.84829 258.902 9.61676 259.491 11.3737 260.08C13.304 260.726 15.4539 261.373 17.3264 260.553C17.4997 260.472 17.6731 260.391 17.8465 260.299C18.0314 260.391 18.2048 260.472 18.3551 260.542C19.3144 260.957 19.4763 261.5 19.326 261.997Z" fill="#DCE9FF"/>
<path d="M13.304 178.79C13.304 178.79 12.0441 189.854 16.078 193.076L11.9632 220.388L3.745 245.817L10.6108 247.919L20.505 224.072L26.1571 179.841C26.1687 179.853 18.4244 170.187 13.304 178.79Z" fill="#343754"/>
<path d="M16.4363 244.097C16.4363 244.097 15.8121 252.666 15.2111 255.564C15.2111 255.564 15.5347 259.849 20.6783 259.849C25.8219 259.849 22.886 256.407 22.886 256.407C22.886 256.407 20.4587 253.37 21.4643 244.097H16.4363V244.097Z" fill="#FFC4B6"/>
<path d="M34.5718 261.627C34.5718 261.685 34.5718 261.731 34.5603 261.789C34.5603 261.835 34.5487 261.87 34.5371 261.916C34.5256 261.962 34.514 262.02 34.5025 262.066C34.4909 262.101 34.4909 262.135 34.4678 262.17C34.4562 262.228 34.4216 262.285 34.3984 262.343C34.3869 262.389 34.3638 262.436 34.3406 262.482C34.2829 262.609 34.2251 262.724 34.1673 262.828C34.0055 263.105 33.7165 263.267 33.3928 263.267H14.876L14.9337 261.893L14.9684 261.084C14.5176 259.687 14.7835 257.689 15.2112 255.553C20.609 259.779 22.4815 255.991 22.5509 255.83C22.5624 255.853 22.5624 255.864 22.574 255.888C22.5971 255.945 22.6433 256.015 22.678 256.072C22.9554 256.488 23.5102 256.915 24.2384 257.343C24.2847 257.377 24.3425 257.4 24.3887 257.435C24.7123 257.62 25.0591 257.805 25.429 257.989C25.4868 258.012 25.533 258.036 25.5908 258.07C25.9144 258.22 26.2496 258.37 26.5964 258.521C26.6542 258.544 26.7004 258.567 26.7698 258.59C28.8272 259.456 31.1736 260.16 32.6415 260.426C32.8496 260.461 33.0345 260.495 33.1963 260.507C34.2597 260.634 34.5718 261.107 34.5718 261.627Z" fill="#EF5E43"/>
<path d="M32.3526 263.278H14.876L14.9338 261.904L14.9684 261.096C15.1534 260.957 15.3383 260.819 15.5117 260.669C16.2746 260.01 17.0028 259.398 17.9852 259.086C19.7537 258.521 21.6956 259.017 23.4293 259.687C25.1631 260.357 26.8738 261.211 28.7232 261.396C29.4051 261.465 30.0987 261.431 30.7806 261.523C31.3354 261.604 31.9365 261.8 32.1792 262.297C32.2832 262.505 32.3064 262.736 32.3295 262.955C32.341 263.071 32.3526 263.175 32.3526 263.278Z" fill="#E2412B"/>
<path d="M34.5718 261.627C34.5718 261.685 34.5718 261.731 34.5603 261.789C34.5603 261.835 34.5487 261.87 34.5372 261.916C34.5256 261.962 34.5141 262.02 34.5025 262.066C34.4909 262.101 34.4909 262.135 34.4678 262.17C34.4563 262.228 34.4216 262.285 34.3985 262.343C34.3869 262.389 34.3638 262.435 34.3407 262.482C34.2829 262.609 34.2251 262.724 34.1673 262.828C34.0055 263.105 33.7165 263.267 33.3929 263.267H14.876L14.9338 261.893C15.3499 261.812 15.7891 261.8 16.1359 261.789C17.6963 261.743 19.2682 261.87 20.8287 261.916C22.6896 261.974 24.5505 262.031 26.3999 262.089C28.4342 262.147 30.6882 262.147 32.237 260.819C32.3757 260.692 32.526 260.553 32.6647 260.426C32.8727 260.461 33.0577 260.495 33.2195 260.507C34.2598 260.634 34.5718 261.107 34.5718 261.627Z" fill="#DCE9FF"/>
<path d="M24.4003 257.458C24.2385 257.758 24.0188 258.082 23.7299 258.301C23.5449 258.44 23.3253 258.544 23.0826 258.578H23.071C23.0248 258.578 22.9901 258.544 22.9901 258.497C22.9786 258.451 23.0132 258.405 23.071 258.405C23.3253 258.37 23.5449 258.255 23.7299 258.093C23.9611 257.885 24.1344 257.62 24.2731 257.366C24.2963 257.4 24.354 257.435 24.4003 257.458Z" fill="white"/>
<path d="M25.6023 258.082C25.3365 258.486 24.9551 258.855 24.4349 258.925H24.4234C24.3771 258.925 24.3425 258.89 24.3425 258.844C24.3309 258.798 24.3656 258.752 24.4118 258.752C24.851 258.694 25.1978 258.37 25.4405 258.001C25.4983 258.036 25.5445 258.059 25.6023 258.082Z" fill="white"/>
<path d="M26.7697 258.601C26.5154 258.902 26.1917 259.156 25.7872 259.202H25.7756C25.7294 259.202 25.6947 259.167 25.6947 259.121C25.6832 259.075 25.7178 259.029 25.7756 259.029C26.1108 258.982 26.3882 258.786 26.6079 258.521C26.6656 258.555 26.7119 258.578 26.7697 258.601Z" fill="white"/>
<path d="M15.893 181.931C15.893 181.931 13.7662 190.038 16.7021 196.136C19.5455 202.037 15.4422 250.506 15.4422 250.506H21.6376L32.4449 181.931C32.4449 181.931 20.7592 176.284 15.893 181.931Z" fill="#46486A"/>
<path d="M18.6324 250.529L18.459 250.483C22.0884 237.86 23.695 183.433 23.7066 182.89H23.88C23.8684 183.433 22.2618 237.884 18.6324 250.529Z" fill="#3D28E0"/>
<path d="M30.353 121.244C31.6013 122.769 31.6707 124.894 31.9596 126.834C32.2833 129.051 32.9537 131.222 33.9246 133.243C34.5719 134.583 35.3694 135.899 35.4503 137.389C35.5313 138.717 35.0227 139.999 34.9533 141.327C34.8724 142.782 35.3348 144.214 35.5544 145.658C35.6237 146.12 35.67 146.605 35.485 147.044C35.1151 147.91 34.0286 148.164 33.1039 148.268C31.4511 148.452 29.7751 148.545 28.1106 148.522C27.7985 148.522 27.4518 148.499 27.2091 148.302C26.9085 148.06 26.8507 147.621 26.7467 147.251C26.0648 144.919 22.9208 144.307 21.6147 142.263C20.9096 141.154 20.8287 139.756 20.2854 138.555C19.615 137.089 18.2974 136.026 17.2571 134.779C15.1765 132.285 14.2172 128.878 14.6795 125.667C14.7373 125.252 14.8298 124.824 15.0378 124.455C15.269 124.062 15.6273 123.762 15.9394 123.439C16.8294 122.503 17.3727 121.291 18.2511 120.355C19.9965 118.507 21.9499 118.542 24.1691 119.062C26.4346 119.558 28.7232 119.246 30.353 121.244Z" fill="#203983"/>
<path d="M32.6184 185.904C32.6184 185.904 29.7866 184.16 25.0129 183.86C23.7992 183.779 22.47 183.791 21.0252 183.952C19.1411 184.16 17.6269 184.045 16.4248 183.756C13.0728 182.971 12.1366 180.904 12.1366 180.904C14.6217 169.436 15.2459 159.458 15.2112 150.67C15.2112 150.358 15.2112 150.046 15.2112 149.734C15.1996 149.457 15.1996 149.192 15.1996 148.926C15.2227 139.78 23.3253 140.542 23.3253 140.542C29.5207 141.928 32.029 151.201 32.9074 161.006C33.0577 162.761 33.1733 164.528 33.2311 166.272C33.624 176.527 32.6184 185.904 32.6184 185.904Z" fill="white"/>
<path opacity="0.5" d="M33.2425 166.272C29.8211 167.172 26.8274 168.016 26.2611 168.304C26.2611 168.304 23.6026 169.794 23.1865 166.734C23.0131 165.463 22.4005 162.542 21.7417 159.539L21.1868 159.62L19.6727 149.723C19.3837 147.84 20.6783 146.073 22.5623 145.785L23.5217 145.635C25.4057 145.346 27.1742 146.639 27.4632 148.522L28.9773 158.419L27.8215 158.592C27.9602 160.024 28.0642 161.017 28.0642 161.017C28.0642 161.017 30.191 161.017 32.9188 160.971C33.0806 162.761 33.1847 164.528 33.2425 166.272Z" fill="#F2F0E2"/>
<path d="M22.4006 134.213C22.4006 134.213 20.3316 141.015 20.7708 142.459C20.9442 143.036 23.9494 146.859 26.8853 144.434C27.4401 143.983 27.7406 143.302 27.7638 142.586C27.7984 141.477 27.8562 139.549 27.9025 137.632L22.4006 134.213Z" fill="#FEAC95"/>
<path d="M22.412 134.213C22.412 134.213 21.0943 139.052 27.8214 141.212L27.9139 138.729C27.9139 138.729 24.1805 137.701 22.412 134.213Z" fill="#F29E8B"/>
<path d="M22.4005 120.113C23.5102 119.732 24.7123 119.859 25.7294 120.424C27.5557 121.464 30.4684 123.589 30.9192 126.822C31.5896 131.603 32.156 139.052 26.7928 139.144C21.4296 139.237 16.5981 131.153 16.9218 127.481C17.2107 124.328 18.9561 121.302 22.4005 120.113Z" fill="#FEAC95"/>
<path d="M23.1404 146.535C23.1404 146.535 26.8622 145.323 27.2206 147.494C27.5789 149.654 28.6423 160.44 28.6423 160.44C28.6423 160.44 42.0387 160.463 44.6856 159.666L45.3213 162.738C45.3213 162.738 28.2493 166.965 26.8276 167.704C26.8276 167.704 24.1691 169.193 23.753 166.133C23.4062 163.662 21.4066 154.816 20.6437 151.524C20.3547 150.254 20.5859 148.891 21.3603 147.84C21.7765 147.286 22.3544 146.789 23.1404 146.535Z" fill="#FFC4B6"/>
<path d="M29.5553 157.83L21.7648 159.019L20.2507 149.122C19.9617 147.24 21.2563 145.473 23.1403 145.184L24.0997 145.034C25.9837 144.745 27.7522 146.039 28.0412 147.921L29.5553 157.83Z" fill="#FFFEF3"/>
<path d="M55.9899 162.218C55.9552 161.699 54.3601 161.976 53.5164 161.953C52.6726 161.929 52.5223 161.826 52.6148 161.733C52.7073 161.641 54.441 161.375 55.227 161.306C56.013 161.237 57.2613 161.167 57.2036 160.613C57.1458 160.07 55.8859 160.232 54.8225 160.29C53.7591 160.347 52.765 160.659 52.7188 160.405C52.6726 160.151 56.5447 159.458 56.8337 159.389C57.1226 159.32 58.0589 159.158 57.9895 158.684C57.9202 158.211 57.0764 158.292 56.6487 158.338C56.2095 158.384 54.9959 158.569 53.9903 158.788C52.9847 159.008 52.661 159.077 52.6032 158.927C52.5339 158.777 54.7762 157.945 55.5969 157.668C56.4176 157.391 57.1111 156.929 56.7874 156.49C56.4638 156.04 54.9496 156.71 54.0596 157.033C53.1696 157.356 51.6323 157.911 50.9735 157.991C50.3146 158.072 49.7367 158.28 49.7483 157.922C49.7483 157.841 49.7367 157.784 49.7367 157.737C49.7136 157.495 50.0372 156.941 50.3493 156.594C50.6614 156.248 50.7423 155.578 50.6614 155.162C50.5805 154.746 50.2915 154.538 49.8176 155.439C49.3437 156.34 48.3265 157.379 47.633 157.784C46.9395 158.188 46.4656 158.384 46.35 159.239C46.3153 159.516 40.143 160.301 39.2299 160.37C38.3283 160.451 39.2184 164.147 39.9466 164.02C40.6747 163.893 46.8817 162.149 47.24 162.484C47.5984 162.807 47.9682 162.934 49.2628 162.992C49.9101 163.027 51.1584 163.003 52.1871 162.969C52.1871 162.969 54.1405 162.923 54.8918 162.819C55.6547 162.749 56.0246 162.738 55.9899 162.218Z" fill="#FFC4B6"/>
<path d="M19.7074 119.674C18.3782 119.905 17.1298 120.632 16.2745 121.683C15.4192 122.734 14.9568 124.097 15.003 125.448C15.0377 126.603 15.4769 127.792 16.4248 128.462C17.3263 129.097 18.54 129.132 19.6149 128.878C20.6899 128.624 21.6839 128.116 22.7126 127.712C24.1343 127.157 25.6485 126.811 27.1627 126.695C28.2376 126.614 29.3242 126.649 30.3875 126.43C31.4394 126.21 32.5028 125.702 33.0807 124.801C33.9707 123.415 33.4737 121.475 32.341 120.297C31.1966 119.119 29.5669 118.554 27.9718 118.173C26.6541 117.861 25.3018 117.664 23.961 117.745C22.6086 117.826 21.2678 118.219 20.1697 119.004C19.6149 119.408 19.1179 119.916 18.4706 120.147" fill="#203983"/>
<path opacity="0.5" d="M23.7414 183.641C22.5278 183.56 21.1985 183.571 19.7537 183.733C18.4823 183.872 17.3726 183.86 16.4248 183.756C13.0728 182.971 12.1366 180.904 12.1366 180.904C14.6217 169.436 15.2459 159.458 15.2112 150.67C16.7138 152.968 17.0721 157.714 16.8872 159.25C16.5982 161.768 15.7082 164.193 15.4424 166.711C15.0609 170.394 15.9741 174.332 14.3674 177.67C13.8819 178.709 13.2 180.061 14.0438 180.834C14.4368 181.192 15.0031 181.238 15.5348 181.262C16.7832 181.331 18.0315 181.4 19.2798 181.469C21.002 181.562 23.0942 181.92 23.6836 183.537C23.7183 183.583 23.7299 183.606 23.7414 183.641Z" fill="#F2F0E2"/>
<path d="M12.6105 125.09C10.9808 128.139 11.3391 131.857 12.0557 135.241C12.7723 138.625 13.8126 142.043 13.385 145.485C13.1538 147.321 12.5181 149.076 11.9401 150.843C11.6049 151.859 11.3044 153.037 11.8361 153.961C12.3678 154.885 13.5237 155.22 14.5755 155.428C18.3667 156.167 22.262 156.352 26.0994 155.959C27.7523 155.786 29.6248 155.37 30.4455 153.915C30.8616 153.176 30.9194 152.287 30.8847 151.432C30.746 148.06 29.3127 144.826 27.3362 142.078C26.4115 140.784 25.3481 139.56 24.7239 138.094C23.9842 136.338 23.9264 134.375 23.8802 132.469C23.8339 130.622 23.8455 128.612 24.9667 127.146C26.2959 125.402 29.0353 124.64 29.4052 122.48C29.6595 121.013 28.5614 119.581 27.209 118.958C22.47 116.752 14.8991 120.806 12.6105 125.09Z" fill="#203983"/>
<path opacity="0.1" d="M92.4804 88.8164V99.9606C92.4804 101.52 91.1974 102.802 89.637 102.802H54.1521V100.122C54.1521 93.8746 59.2148 88.8164 65.468 88.8164H92.4804V88.8164Z" fill="black"/>
<path d="M86.9439 100.122H18.5863C17.0259 100.122 15.7429 98.8404 15.7429 97.2814V55.6839C15.7429 54.1249 17.0259 52.843 18.5863 52.843H86.9439C88.5044 52.843 89.7874 54.1249 89.7874 55.6839V97.2814C89.7874 98.8404 88.5044 100.122 86.9439 100.122Z" fill="#D4DEFE"/>
<path d="M86.9439 99.2793H18.5863C17.0259 99.2793 15.7429 97.9974 15.7429 96.4384V54.8409C15.7429 53.2819 17.0259 52 18.5863 52H86.9439C88.5044 52 89.7874 53.2819 89.7874 54.8409V96.4384C89.7874 97.9974 88.5044 99.2793 86.9439 99.2793Z" fill="#FEFFFF"/>
<path d="M39.4007 88.0446C43.7746 83.6745 43.7746 76.5891 39.4007 72.2191C35.0267 67.849 27.9351 67.849 23.5612 72.2191C19.1873 76.5891 19.1873 83.6745 23.5612 88.0446C27.9351 92.4147 35.0267 92.4146 39.4007 88.0446Z" fill="#ED4F24"/>
<path d="M36.6871 79.4853L29.0006 75.0507C28.3418 74.6696 27.5211 75.1431 27.5211 75.9052V84.7744C27.5211 85.5251 28.3418 85.9986 29.0006 85.629L36.6871 81.1944C37.3459 80.8133 37.3459 79.8664 36.6871 79.4853Z" fill="#FEFFFF"/>
<path d="M86.5047 72.4638H47.9683V74.8312H86.5047V72.4638Z" fill="#D9E8FF"/>
<path d="M86.5047 79.1619H47.9683V81.5293H86.5047V79.1619Z" fill="#D9E8FF"/>
<path d="M86.5047 85.8484H47.9683V88.2159H86.5047V85.8484Z" fill="#D9E8FF"/>
</svg>
