<svg width="320" height="320" viewBox="0 0 320 320" fill="none" xmlns="http://www.w3.org/2000/svg">
<path d="M250.422 89.8099C254.891 89.8099 258.517 86.184 258.517 81.7154V40.8403C258.517 36.3724 254.895 32.7505 250.427 32.7505V32.7505C245.959 32.7505 242.337 36.3724 242.337 40.8403V81.7249C242.337 86.1934 245.953 89.8099 250.422 89.8099Z" fill="#F75C00"/>
<path d="M194.248 208.061C197.568 208.061 200.262 204.432 200.262 199.96V156.97C200.262 153.651 197.571 150.96 194.252 150.96V150.96C190.932 150.96 188.241 153.651 188.241 156.97V199.97C188.241 204.442 190.928 208.061 194.248 208.061Z" fill="#F75C00"/>
<path d="M76.1135 150.918C80.582 150.918 84.208 147.292 84.208 142.824V101.948C84.208 97.4806 80.5861 93.8586 76.1182 93.8586V93.8586C71.6503 93.8586 68.0284 97.4806 68.0284 101.948V142.833C68.0284 147.302 71.6449 150.918 76.1135 150.918Z" fill="#F75C00"/>
<path d="M60.0946 107.883C55.626 107.883 52 111.509 52 115.978V185.724C52 190.192 55.626 193.818 60.0946 193.818C64.5631 193.818 68.1891 190.192 68.1891 185.724V115.969C68.1796 111.5 64.5631 107.883 60.0946 107.883Z" fill="#F75C00"/>
<path d="M187.32 38.7611C182.851 38.7611 179.225 42.3871 179.225 46.8557V116.601C179.225 121.07 182.851 124.696 187.32 124.696C191.788 124.696 195.414 121.07 195.414 116.601V46.8462C195.405 42.3776 191.788 38.7611 187.32 38.7611Z" fill="#F75C00"/>
<path d="M207.355 38.7611C202.887 38.7611 199.261 42.3871 199.261 46.8557V94.3595C199.261 98.8281 202.887 102.454 207.355 102.454C211.824 102.454 215.45 98.8281 215.45 94.3595V46.8462C215.44 42.3776 211.824 38.7611 207.355 38.7611Z" fill="#F75C00"/>
<path d="M179.225 35.7558C179.225 25.797 187.298 17.7239 197.257 17.7239V17.7239C207.216 17.7239 215.289 25.797 215.289 35.7558V52.7859H179.225V35.7558Z" fill="#F75C00"/>
<path d="M140.887 52.9626C143.121 52.9626 144.929 51.1544 144.929 48.9201V14.0425C144.929 11.8083 143.121 10 140.887 10C138.653 10 136.844 11.8083 136.844 14.0425V48.9106C136.844 51.1544 138.653 52.9626 140.887 52.9626Z" fill="#F75C00"/>
<path d="M196.291 84.7291C198.525 84.7291 200.333 82.9208 200.333 80.6865V45.809C200.333 43.5747 198.525 41.7664 196.291 41.7664C194.057 41.7664 192.248 43.5747 192.248 45.809V80.6771C192.248 82.9208 194.057 84.7291 196.291 84.7291Z" fill="#F75C00"/>
<path opacity="0.61" d="M54.632 188.801C53.78 188.801 53.0889 187.418 53.0889 185.705L54.2155 160.957L56.1752 185.705C56.1752 187.418 55.4841 188.801 54.632 188.801Z" fill="white"/>
<path opacity="0.61" d="M181.857 119.678C181.005 119.678 180.314 118.296 180.314 116.582L181.441 91.8348L183.4 116.582C183.4 118.296 182.709 119.678 181.857 119.678Z" fill="white"/>
<path opacity="0.61" d="M122.538 183.151C121.828 183.151 121.251 181.996 121.251 180.576L122.188 159.975L123.826 180.576C123.826 181.996 123.248 183.151 122.538 183.151Z" fill="white"/>
<path opacity="0.61" d="M255.901 84.6364C255.049 84.6364 254.358 83.2542 254.358 81.5406L255.485 56.793L257.445 81.5406C257.445 83.2447 256.753 84.6364 255.901 84.6364Z" fill="white"/>
<path opacity="0.61" d="M198.259 203.052C197.706 203.052 197.257 201.659 197.257 199.933L197.988 175.002L199.261 199.933C199.261 201.65 198.812 203.052 198.259 203.052Z" fill="white"/>
<path opacity="0.61" d="M81.5928 145.745C80.7407 145.745 80.0496 144.362 80.0496 142.649L81.1762 117.901L83.1359 142.649C83.1359 144.353 82.4448 145.745 81.5928 145.745Z" fill="white"/>
<path d="M263.709 299.891C263.709 294.321 259.222 289.801 253.652 289.785C239.219 289.742 212.716 289.672 197.666 289.683C197.779 289.427 198.025 284.126 196.984 284.722C198.006 284.135 198.669 282.98 198.499 281.674C198.3 280.14 196.908 279.042 195.365 279.042H119.57C118.329 279.042 117.137 279.648 116.483 280.699C115.944 281.57 116.001 282.308 116.209 282.98C108.417 282.98 100.635 282.516 92.8435 282.374C86.5477 282.261 78.368 281.305 72.4036 283.605C67.5469 285.48 67.9255 292.523 73.5964 292.523H137.539C139.763 292.523 141.458 294.369 141.439 296.594C141.439 296.613 141.439 296.623 141.439 296.642V303.032C141.439 306.876 144.554 310 148.407 310C170.576 310 229.859 310 253.637 310C259.22 310 263.709 305.474 263.709 299.891V299.891Z" fill="#E84700"/>
<path opacity="0.61" d="M147.81 304.84C147.81 303.988 149.193 303.297 150.906 303.297L175.654 304.443L150.906 306.393C149.193 306.383 147.81 305.692 147.81 304.84Z" fill="white"/>
<path opacity="0.61" d="M188.413 282.715C188.413 281.863 189.795 281.172 191.508 281.172L216.256 282.318L191.508 284.268C189.795 284.258 188.413 283.567 188.413 282.715Z" fill="white"/>
<path opacity="0.32" d="M253.188 291.901L266.481 282.169C267.522 281.411 268.128 280.199 268.128 278.912C268.128 276.677 266.31 274.869 264.085 274.879L245.993 274.945L253.188 291.901Z" fill="#606060"/>
<path opacity="0.3" d="M243.257 128.249V171.259H244.98L243.361 248.683C243.314 250.983 241.392 252.867 239.092 252.867H208.938C203.494 252.867 199.073 257.279 199.073 262.732V277.539H204.668V262.732C204.668 260.375 206.581 258.462 208.938 258.462H239.092C244.422 258.462 248.843 254.126 248.947 248.806L250.566 170.994C252.09 170.416 253.188 168.958 253.188 167.226V133.645C253.188 130.663 250.765 128.24 247.783 128.24H243.257V128.249Z" fill="#606060"/>
<path opacity="0.6" d="M178.68 296.225L73.7825 295.572L85.1907 284.041H166.591L178.68 296.225Z" fill="#FCBE99"/>
<path d="M84.3387 69.5493L85.2381 133.349C85.2381 134.646 96.58 137.354 110.573 137.354C124.565 137.354 135.907 134.637 135.907 133.349L136.807 69.5493H84.3387V69.5493Z" fill="#313F5E"/>
<path d="M136.769 72.9007H84.225C83.2972 72.9007 82.5493 72.1528 82.5493 71.225C82.5493 70.2972 83.2972 69.5493 84.225 69.5493H136.769C137.696 69.5493 138.444 70.2972 138.444 71.225C138.444 72.1528 137.696 72.9007 136.769 72.9007Z" fill="#313F5E"/>
<path opacity="0.43" d="M102.677 123.077C96.2486 125.738 89.9433 125.075 85.2381 123.589V133.349C85.2381 134.646 96.5799 137.354 110.573 137.354C124.565 137.354 135.907 134.637 135.907 133.349L136.532 77.0474C132.991 94.079 123.666 114.396 102.677 123.077Z" fill="#313F5E"/>
<path d="M103.898 69.2273V69.2747H91.3919H90.6819C89.4133 69.2747 88.3908 70.2971 88.3908 71.5658V76.9337C88.3908 77.6817 88.902 78.3728 89.6405 78.4958C90.5777 78.6473 91.3919 77.9278 91.3919 77.0189V75.9113C91.3919 73.0048 93.9197 70.7421 96.8072 71.0829C96.9114 71.0924 97.0155 71.1113 97.1197 71.1208C101.039 71.6794 103.889 75.1539 103.889 79.1207C103.889 81.4307 103.889 83.949 103.889 85.5679C103.889 87.2815 105.176 88.8152 106.88 88.9099C108.708 89.0046 110.213 87.5561 110.213 85.7478V75.7693C110.213 75.0213 110.677 74.3302 111.387 74.103C111.605 74.0367 111.841 73.9989 112.087 73.9989C112.58 73.9989 113.034 74.1503 113.413 74.406C113.867 74.7089 114.104 75.258 114.104 75.8071V90.7749C114.104 91.7501 114.757 92.6021 115.704 92.8483C116.982 93.1796 117.872 94.3346 117.872 95.6601C117.872 97.8186 117.872 101 117.872 103.026C117.872 104.957 119.283 106.68 121.214 106.869C123.42 107.078 125.285 105.345 125.285 103.187V73.8663C125.285 72.9575 126.023 72.219 126.923 72.219C127.055 72.219 127.178 72.2285 127.301 72.2474C128.116 72.38 128.684 73.1373 128.684 73.961C128.684 76.2426 128.684 81.9893 128.684 84.8768C128.684 86.5904 129.971 88.1241 131.675 88.2188C133.503 88.3134 135.008 86.8649 135.008 85.0567V72.0486C135.008 70.5149 133.758 69.2652 132.224 69.2652L103.898 69.2273Z" fill="#F75C00"/>
<path opacity="0.61" d="M119.794 104.881C119.141 104.881 118.62 104.351 118.62 103.707L119.32 88.8436L120.968 103.707C120.968 104.36 120.447 104.881 119.794 104.881Z" fill="white"/>
<path opacity="0.61" d="M129.943 86.0507C129.621 86.0507 129.356 85.7857 129.356 85.4638L129.706 78.0319L130.53 85.4638C130.53 85.7857 130.265 86.0507 129.943 86.0507Z" fill="white"/>
<path opacity="0.61" d="M115.174 92.0719C114.814 92.0719 114.52 91.7785 114.52 91.4187L114.909 83.1916L115.817 91.4187C115.827 91.7785 115.533 92.0719 115.174 92.0719Z" fill="white"/>
<path opacity="0.61" d="M105.148 86.9028C104.788 86.9028 104.495 86.6093 104.495 86.2495L104.883 78.0225L105.792 86.2495C105.792 86.6093 105.508 86.9028 105.148 86.9028Z" fill="white"/>
<path opacity="0.61" d="M88.9209 77.3408C88.741 77.3408 88.599 77.1988 88.599 77.0189L88.7978 72.9007L89.2522 77.0189C89.2522 77.1988 89.1008 77.3408 88.9209 77.3408Z" fill="white"/>
<g opacity="0.43">
<path opacity="0.43" d="M135.907 111.328C134.752 113.657 133.351 115.844 131.637 117.785C127.311 122.661 121.536 125.274 114.473 125.558C104.069 125.984 95.851 123.077 90.038 116.943C88.0878 114.879 86.5067 112.559 85.2286 110.126V114.935C86.1186 116.233 87.1032 117.482 88.2109 118.656C94.1469 124.923 102.317 128.104 112.513 128.104C113.186 128.104 113.867 128.095 114.568 128.067C122.34 127.754 128.703 124.857 133.502 119.461C134.383 118.467 135.178 117.416 135.907 116.318V111.328V111.328Z" fill="#313F5E"/>
<path opacity="0.43" d="M134.781 81.8188C134.781 82.4626 135.273 82.9928 135.907 83.0496V80.5786C135.282 80.6449 134.781 81.175 134.781 81.8188Z" fill="#313F5E"/>
<path opacity="0.43" d="M85.2381 82.8129C85.5411 82.5857 85.7399 82.2259 85.7399 81.8188C85.7399 81.4117 85.5411 81.052 85.2381 80.8248V82.8129Z" fill="#313F5E"/>
</g>
<path d="M83.5908 79.4899H78.8666C78.8666 79.4899 74.4169 126.079 114.52 124.469C145.668 123.219 142.203 79.4899 142.203 79.4899H137.848" stroke="#5A657E" stroke-width="2.6344" stroke-miterlimit="10" stroke-linecap="round"/>
<path opacity="0.21" d="M136.74 73.5539L136.759 72.7113H84.3861L84.405 73.5539H136.74Z" fill="#313F5E"/>
<g opacity="0.61">
<path opacity="0.61" d="M90.4073 69.7954L102.828 70.0605L90.4168 70.6853C90.1706 70.6948 89.9623 70.5055 89.9434 70.2593C89.9339 70.0132 90.1233 69.8049 90.3694 69.7859C90.3884 69.7954 90.3978 69.7954 90.4073 69.7954Z" fill="white"/>
</g>
<path d="M88.4003 71.5563V72.9007H92.4334C93.4369 71.6131 95.0558 70.8557 96.8167 71.064C96.9209 71.0735 97.025 71.0924 97.1291 71.1019C98.6344 71.3196 99.9788 71.9634 101.068 72.9007H125.578C125.872 72.4652 126.374 72.1717 126.942 72.1717C127.074 72.1717 127.197 72.1812 127.32 72.2001C127.775 72.2758 128.144 72.5409 128.381 72.9007H135.027V71.9918C135.027 70.922 134.411 70.0037 133.531 69.5398H89.6216C88.902 69.9279 88.4003 70.6853 88.4003 71.5563Z" fill="#F75C00"/>
<path d="M172.79 195.947H79.102C77.3411 195.947 75.921 194.518 75.921 192.766V192.567C75.921 190.807 77.3505 189.386 79.102 189.386H172.79C174.551 189.386 175.971 190.816 175.971 192.567V192.766C175.971 194.527 174.542 195.947 172.79 195.947Z" fill="#44291C"/>
<path opacity="0.3" d="M172.886 193.713H78.9989C77.6641 193.713 76.5375 192.804 76.1114 191.545C75.9884 191.895 75.9126 192.274 75.9126 192.662C75.9126 194.48 77.2948 195.947 78.9989 195.947H172.886C174.59 195.947 175.973 194.48 175.973 192.662C175.973 192.265 175.897 191.895 175.774 191.545C175.348 192.804 174.221 193.713 172.886 193.713Z" fill="#44291C"/>
<path d="M170.927 250.356H79.1694C77.4275 250.356 76.0168 248.945 76.0168 247.203V246.938C76.0168 245.196 77.4275 243.786 79.1694 243.786H170.927C172.669 243.786 174.079 245.196 174.079 246.938V247.203C174.079 248.945 172.669 250.356 170.927 250.356Z" fill="#44291C"/>
<path opacity="0.3" d="M171.05 248.112H79.0369C77.7304 248.112 76.6321 247.203 76.2061 245.944C76.0925 246.294 76.0168 246.673 76.0168 247.061C76.0168 248.879 77.3706 250.346 79.0369 250.346H171.05C172.716 250.346 174.07 248.879 174.07 247.061C174.07 246.664 173.994 246.294 173.88 245.944C173.464 247.213 172.356 248.112 171.05 248.112Z" fill="#44291C"/>
<path d="M150.364 140.649L166.591 284.041" stroke="#44291C" stroke-width="7.5774" stroke-miterlimit="10" stroke-linecap="round"/>
<path d="M85.1906 284.041L101.418 140.649" stroke="#44291C" stroke-width="7.5774" stroke-miterlimit="10" stroke-linecap="round"/>
<path d="M174.505 147.219H77.4843C74.8619 147.219 72.7318 145.089 72.7318 142.466V138.831C72.7318 136.209 74.8619 134.078 77.4843 134.078H174.505C177.128 134.078 179.258 136.209 179.258 138.831V142.466C179.258 145.098 177.128 147.219 174.505 147.219Z" fill="#5B3725"/>
<path d="M177.468 293.006L161.241 140.649" stroke="#5B3725" stroke-width="7.5774" stroke-miterlimit="10" stroke-linecap="round"/>
<path d="M74.0002 293.006L90.2272 140.649" stroke="#5B3725" stroke-width="7.5774" stroke-miterlimit="10" stroke-linecap="round"/>
<path d="M179.258 261.281C179.258 260.24 178.481 259.397 177.478 259.265L177.894 263.203C178.69 262.919 179.258 262.162 179.258 261.281Z" fill="#5B3725"/>
<path d="M170.264 259.236H177.213C177.307 259.236 177.393 259.255 177.478 259.265L171.428 202.442H164.214L170.264 259.236Z" fill="#5B3725"/>
<path d="M163.779 198.352H170.993L166.25 153.789H159.035L163.779 198.352Z" fill="#5B3725"/>
<path d="M181.028 292.627L177.894 263.194C177.677 263.269 177.45 263.317 177.213 263.317H170.699L173.899 293.385C174.098 295.222 175.651 296.594 177.459 296.594C177.582 296.594 177.715 296.585 177.847 296.575C179.816 296.367 181.236 294.597 181.028 292.627Z" fill="#5B3725"/>
<path d="M166.25 153.789L165.549 147.219H158.335L159.036 153.789H166.25Z" fill="#5B3725"/>
<path d="M155.429 153.789L154.737 147.219H147.523L148.215 153.789H155.429Z" fill="#5B3725"/>
<path d="M164.214 202.442H171.428L170.993 198.352H163.779L164.214 202.442Z" fill="#5B3725"/>
<path d="M177.894 263.194L177.478 259.255C177.392 259.246 177.307 259.227 177.213 259.227H170.264L170.699 263.317H177.213C177.459 263.326 177.686 263.269 177.894 263.194Z" fill="#5B3725"/>
<path d="M93.7868 141.027C93.9951 139.058 92.5656 137.288 90.5964 137.08C88.6366 136.871 86.8568 138.301 86.6485 140.27L85.91 147.219H93.1241L93.7868 141.027Z" fill="#5B3725"/>
<path d="M81.2047 259.236L87.2543 202.442H80.0402L73.9717 259.397C74.2178 259.293 74.4924 259.236 74.7764 259.236H81.2047V259.236Z" fill="#5B3725"/>
<path d="M92.4331 153.789H85.219L80.4759 198.352H87.69L92.4331 153.789Z" fill="#5B3725"/>
<path d="M73.593 262.938L70.4309 292.627C70.2226 294.597 71.6522 296.367 73.6214 296.575C73.7539 296.585 73.877 296.594 74.0096 296.594C75.8178 296.594 77.3799 295.231 77.5693 293.385L80.7692 263.317H74.7764C74.3315 263.326 73.9244 263.175 73.593 262.938Z" fill="#5B3725"/>
<path d="M93.1336 147.219H85.9195L85.2189 153.789H92.433L93.1336 147.219Z" fill="#5B3725"/>
<path d="M104.258 147.219H97.0436L96.343 153.789H103.557L104.258 147.219Z" fill="#5B3725"/>
<path d="M87.6899 198.352H80.4758L80.0403 202.442H87.2544L87.6899 198.352Z" fill="#5B3725"/>
<path d="M74.7766 259.236C74.4925 259.236 74.218 259.293 73.9718 259.397L73.5931 262.938C73.9245 263.175 74.3316 263.317 74.7766 263.317H80.7693L81.2048 259.227H74.7766V259.236Z" fill="#5B3725"/>
<path d="M175.973 199.535H76.0169C74.1992 199.535 72.7318 198.068 72.7318 196.25C72.7318 194.433 74.1992 192.965 76.0169 192.965H175.973C177.79 192.965 179.258 194.433 179.258 196.25C179.258 198.068 177.79 199.535 175.973 199.535Z" fill="#5B3725"/>
<path opacity="0.3" d="M175.973 197.292H76.0169C74.5968 197.292 73.4039 196.383 72.94 195.124C72.8075 195.474 72.7318 195.853 72.7318 196.241C72.7318 198.059 74.1992 199.526 76.0169 199.526H175.973C177.79 199.526 179.258 198.059 179.258 196.241C179.258 195.843 179.173 195.474 179.05 195.124C178.586 196.392 177.393 197.292 175.973 197.292Z" fill="#5B3725"/>
<path opacity="0.29" d="M174.505 143.631H77.4843C74.8619 143.631 72.7318 141.501 72.7318 138.878V142.466C72.7318 145.089 74.8619 147.219 77.4843 147.219H174.505C177.128 147.219 179.258 145.089 179.258 142.466V138.878C179.258 141.51 177.128 143.631 174.505 143.631Z" fill="#5B3725"/>
<path d="M175.973 260.382H76.0169C74.1992 260.382 72.7318 258.914 72.7318 257.097C72.7318 255.279 74.1992 253.811 76.0169 253.811H175.973C177.79 253.811 179.258 255.279 179.258 257.097C179.258 258.914 177.79 260.382 175.973 260.382Z" fill="#5B3725"/>
<path opacity="0.3" d="M179.021 255.904C178.538 257.125 177.364 257.996 175.973 257.996H76.0169C74.6252 257.996 73.4418 257.125 72.9684 255.904C72.8264 256.273 72.7412 256.68 72.7412 257.097C72.7412 258.914 74.2086 260.382 76.0264 260.382H175.982C177.8 260.382 179.267 258.914 179.267 257.097C179.258 256.671 179.173 256.273 179.021 255.904Z" fill="#5B3725"/>
<path d="M146.624 133.331H124.612C123.855 133.331 123.23 133.946 123.23 134.713C123.23 134.874 123.268 135.016 123.315 135.158C123.268 135.252 123.23 135.357 123.23 135.47V137.023C123.23 137.241 123.382 137.439 123.59 137.477C124.205 137.581 124.063 136.833 124.101 136.483C124.12 136.322 124.186 136.152 124.338 136.095C124.414 136.067 124.499 136.067 124.584 136.067C125.275 136.095 125.947 136.104 126.638 136.057C127.074 136.029 127.216 136.161 127.424 136.531C127.614 136.871 127.708 137.269 127.708 137.657C127.708 138.329 127.708 139.049 127.708 139.522C127.708 140.015 128.077 140.459 128.57 140.488C129.1 140.516 129.535 140.1 129.535 139.57V136.682C129.535 136.464 129.668 136.265 129.876 136.199C129.943 136.18 130.009 136.171 130.085 136.171C130.227 136.171 130.359 136.218 130.463 136.284C130.596 136.37 130.662 136.531 130.662 136.691V141.018C130.662 141.302 130.851 141.548 131.126 141.614C131.495 141.709 131.751 142.04 131.751 142.429C131.751 143.053 131.751 143.972 131.751 144.559C131.751 145.117 132.158 145.619 132.716 145.666C133.351 145.723 133.89 145.231 133.89 144.597C133.89 143.063 133.89 141.529 133.89 139.996C133.89 139.304 133.89 138.613 133.89 137.922C133.89 137.572 133.711 136.18 134.07 136.076C134.231 136.029 134.411 136.01 134.582 136.029C134.657 136.038 134.724 136.048 134.78 136.095C135.027 136.265 134.894 136.758 134.894 137.004C134.913 137.771 134.866 138.538 134.866 139.304C134.866 139.797 135.235 140.242 135.727 140.27C136.257 140.299 136.693 139.882 136.693 139.352V137.648C136.693 136.786 137.393 136.086 138.255 136.086H146.605C147.362 136.086 147.987 135.47 147.987 134.703C148.006 133.946 147.391 133.331 146.624 133.331Z" fill="#F75C00"/>
<path opacity="0.61" d="M132.309 144.606C132.12 144.606 131.969 144.455 131.969 144.265L132.167 139.967L132.641 144.265C132.65 144.455 132.499 144.606 132.309 144.606Z" fill="white"/>
<path opacity="0.61" d="M130.974 140.904C130.87 140.904 130.785 140.819 130.785 140.715L130.899 138.339L131.164 140.715C131.164 140.819 131.079 140.904 130.974 140.904Z" fill="white"/>
<path opacity="0.61" d="M128.077 139.409C127.973 139.409 127.888 139.323 127.888 139.219L128.002 136.843L128.267 139.219C128.257 139.323 128.182 139.409 128.077 139.409Z" fill="white"/>
<path opacity="0.61" d="M123.382 136.644C123.334 136.644 123.287 136.606 123.287 136.55L123.344 135.357L123.476 136.55C123.476 136.606 123.439 136.644 123.382 136.644Z" fill="white"/>
<path d="M206.574 282.301L190.253 282.292C186.485 282.292 183.815 279.177 184.288 275.343L185.822 262.921C186.296 259.087 189.732 255.982 193.5 255.982L220.946 256.001C224.714 256.001 228.15 252.896 228.624 249.061L243.09 131.648" stroke="#5B3725" stroke-width="5.9054" stroke-miterlimit="10"/>
<path d="M251.62 271.915C251.62 271.915 197.59 271.83 197.467 271.811C195.526 271.575 193.396 275.882 192.724 281.421C192.251 285.283 192.61 288.673 193.519 290.471C193.794 291.295 194.333 291.835 195.299 291.854L249.641 291.797C251.355 291.626 252.633 289.345 252.955 286.741L253.248 276.63C253.57 274.027 254.176 271.915 251.62 271.915Z" fill="#FFB539"/>
<path d="M251.62 271.915C251.62 271.915 236.577 271.887 222.347 271.868C220.776 271.868 219.507 273.137 219.507 274.708C219.507 276.28 218.238 277.548 216.667 277.548H193.481C193.16 278.732 192.894 280.048 192.724 281.439C192.61 282.339 192.554 283.21 192.535 284.043H219.27C222.054 284.043 224.496 285.501 225.879 287.688C227.479 290.235 230.224 291.835 233.235 291.835L249.651 291.816C251.365 291.645 252.643 289.364 252.965 286.76L253.258 276.649C253.57 274.027 254.176 271.915 251.62 271.915Z" fill="#F7671E"/>
<path opacity="0.51" d="M247.871 287.338L197.6 287.309C195.043 287.309 193.226 285.198 193.548 282.594L192.989 287.148C192.667 289.752 194.485 291.863 197.041 291.863L247.313 291.891C249.869 291.891 252.207 289.78 252.529 287.177L253.088 282.623C252.766 285.226 250.427 287.338 247.871 287.338Z" fill="#FFB539"/>
<path opacity="0.45" d="M192.723 284.412C193.405 278.864 193.802 274.803 197.466 274.803C197.58 274.803 251.619 274.907 251.619 274.907C252.613 274.907 253.124 275.229 253.361 275.769C253.664 273.582 253.882 271.925 251.619 271.915C251.619 271.915 197.589 271.83 197.466 271.811C195.525 271.575 193.395 275.882 192.723 281.421C192.515 283.134 192.477 284.744 192.572 286.173C192.6 285.596 192.647 285.018 192.723 284.412Z" fill="#F75C00"/>
<path d="M238.839 172.073H237.552C234.712 172.073 232.695 169.725 233.045 166.828L237.732 128.789C238.091 125.892 240.685 123.553 243.526 123.553H244.813C247.653 123.553 249.67 125.901 249.32 128.798L244.633 166.838C244.274 169.725 241.68 172.073 238.839 172.073Z" fill="#FFB539"/>
<g opacity="0.51">
<path opacity="0.42" d="M246.744 123.951L242.191 160.892C241.831 163.789 239.237 166.128 236.397 166.128H235.109C234.408 166.128 233.755 165.986 233.178 165.721L233.045 166.819C232.685 169.716 234.702 172.064 237.552 172.064H238.839C241.679 172.064 244.273 169.725 244.633 166.828L249.319 128.789C249.585 126.611 248.515 124.746 246.744 123.951Z" fill="#FFB539"/>
</g>
<path d="M254.422 282.282C253.741 287.83 251.62 292.138 249.67 291.891C247.729 291.655 246.697 286.968 247.379 281.421C248.06 275.873 250.181 271.565 252.131 271.811C254.072 272.048 255.094 276.734 254.422 282.282Z" fill="#F75C00"/>
<path d="M252.576 282.121C252.358 283.92 251.478 285.302 250.607 285.189C249.736 285.084 249.215 283.532 249.433 281.733C249.651 279.934 250.531 278.552 251.402 278.666C252.273 278.77 252.794 280.322 252.576 282.121Z" fill="#5B3725"/>
</svg>
