<svg width="320" height="320" viewBox="0 0 320 320" fill="none" xmlns="http://www.w3.org/2000/svg">
<path d="M77.9695 211.233C87.277 201.621 107.416 173.108 90.4765 149.485C5.78547 31.3791 160.563 -10.9822 246.823 59.5414C333.083 130.065 280.628 284.518 111.128 241.233C89.4516 235.698 68.3715 250.845 55.5733 250.845C46.0245 250.845 67.7893 221.524 77.9695 211.233Z" fill="url(#paint0_linear)"/>
<path d="M205.411 177.091C205.411 177.091 193.989 168.878 181.772 167.038L191.673 141.992C191.673 141.992 208.295 147.033 212.663 153.52L205.411 177.091Z" fill="#FF2E2E"/>
<path d="M205.411 177.091C205.411 177.091 219.475 176.72 230.61 182.064L236.506 155.783C236.506 155.783 219.922 150.605 212.663 153.52L205.411 177.091Z" fill="#FF2E2E"/>
<path d="M212.663 153.52L205.411 177.091C205.411 177.091 197.009 166.978 181.56 163.14L191.4 136.996C191.4 136.996 209.976 141.484 212.663 153.52Z" fill="#D6D6D6"/>
<path d="M212.663 153.52L205.411 177.091C205.411 177.091 218.045 173.45 232.979 178.96L239.542 151.809C239.542 151.809 221.655 145.08 212.663 153.52Z" fill="#CCCCCC"/>
<path d="M213.851 149.659L205.411 177.091C205.411 177.091 199.416 163.965 185.867 160.862L196.131 132.598C196.131 132.59 212.421 136.178 213.851 149.659Z" fill="white"/>
<path d="M213.851 149.659L205.411 177.091C205.411 177.091 217.75 169.605 230.701 174.653L238.111 145.511C238.104 145.511 222.609 139.32 213.851 149.659Z" fill="#F0F0F0"/>
<path d="M266.413 166.289C266.413 166.804 265.997 167.228 265.474 167.228C264.959 167.228 264.535 166.812 264.535 166.289C264.535 165.775 264.952 165.351 265.474 165.351C265.989 165.351 266.413 165.767 266.413 166.289Z" fill="white"/>
<path d="M198.145 162.073C198.145 163.489 197.002 164.632 195.586 164.632C194.171 164.632 193.028 163.489 193.028 162.073C193.028 160.658 194.171 159.515 195.586 159.515C197.002 159.515 198.145 160.658 198.145 162.073Z" fill="white"/>
<path d="M235.599 120.2C235.599 120.646 235.235 121.002 234.796 121.002C234.357 121.002 233.993 120.639 233.993 120.2C233.993 119.753 234.357 119.397 234.796 119.397C235.235 119.397 235.599 119.753 235.599 120.2Z" fill="white"/>
<path d="M223.843 107.998C224.717 107.998 225.426 107.29 225.426 106.416C225.426 105.542 224.717 104.834 223.843 104.834C222.969 104.834 222.261 105.542 222.261 106.416C222.261 107.29 222.969 107.998 223.843 107.998Z" fill="white"/>
<path d="M227.681 70.8854C227.681 71.5063 227.174 72.0135 226.553 72.0135C225.932 72.0135 225.425 71.5063 225.425 70.8854C225.425 70.2646 225.932 69.7573 226.553 69.7573C227.174 69.7573 227.681 70.2646 227.681 70.8854Z" fill="white"/>
<path d="M109.123 72.5281C109.123 73.4366 108.388 74.1711 107.48 74.1711C106.571 74.1711 105.837 73.4366 105.837 72.5281C105.837 71.6195 106.571 70.8851 107.48 70.8851C108.388 70.8851 109.123 71.6195 109.123 72.5281Z" fill="white"/>
<path d="M107.479 101.072C107.479 101.405 107.207 101.678 106.874 101.678C106.541 101.678 106.268 101.405 106.268 101.072C106.268 100.739 106.541 100.466 106.874 100.466C107.207 100.466 107.479 100.739 107.479 101.072Z" fill="white"/>
<path d="M176.996 77.7285C177.787 77.7285 178.427 77.0879 178.427 76.2976C178.427 75.5073 177.787 74.8666 176.996 74.8666C176.206 74.8666 175.565 75.5073 175.565 76.2976C175.565 77.0879 176.206 77.7285 176.996 77.7285Z" fill="white"/>
<path d="M134.941 144.596C134.941 145.376 134.313 146.004 133.533 146.004C132.753 146.004 132.125 145.376 132.125 144.596C132.125 143.816 132.753 143.188 133.533 143.188C134.313 143.195 134.941 143.824 134.941 144.596Z" fill="white"/>
<path d="M296.986 53.0975C296.986 53.9076 296.327 54.5663 295.517 54.5663C294.707 54.5663 294.048 53.9076 294.048 53.0975C294.048 52.2874 294.707 51.6287 295.517 51.6287C296.335 51.6287 296.986 52.2874 296.986 53.0975Z" fill="white"/>
<path d="M301.845 114.712C302.556 114.712 303.132 114.136 303.132 113.425C303.132 112.714 302.556 112.138 301.845 112.138C301.134 112.138 300.558 112.714 300.558 113.425C300.558 114.136 301.134 114.712 301.845 114.712Z" fill="white"/>
<path d="M229.755 236.109C230.235 236.109 230.625 235.72 230.625 235.239C230.625 234.758 230.235 234.368 229.755 234.368C229.274 234.368 228.884 234.758 228.884 235.239C228.884 235.72 229.274 236.109 229.755 236.109Z" fill="white"/>
<path d="M295.744 234.368C297.161 234.368 298.31 233.219 298.31 231.802C298.31 230.385 297.161 229.236 295.744 229.236C294.327 229.236 293.178 230.385 293.178 231.802C293.178 233.219 294.327 234.368 295.744 234.368Z" fill="white"/>
<path d="M221.943 259.211C223.105 259.211 224.047 258.268 224.047 257.106C224.047 255.944 223.105 255.002 221.943 255.002C220.781 255.002 219.839 255.944 219.839 257.106C219.839 258.268 220.781 259.211 221.943 259.211Z" fill="white"/>
<path d="M195.587 192.192C196.419 192.192 197.093 191.518 197.093 190.686C197.093 189.853 196.419 189.179 195.587 189.179C194.755 189.179 194.08 189.853 194.08 190.686C194.08 191.518 194.755 192.192 195.587 192.192Z" fill="white"/>
<path d="M257.754 197.687C257.754 198.21 257.33 198.634 256.807 198.634C256.285 198.634 255.861 198.21 255.861 197.687C255.861 197.165 256.285 196.741 256.807 196.741C257.33 196.748 257.754 197.172 257.754 197.687Z" fill="white"/>
<path d="M302.413 176.228C302.413 176.917 301.86 177.47 301.171 177.47C300.482 177.47 299.93 176.917 299.93 176.228C299.93 175.539 300.49 174.986 301.171 174.986C301.853 174.986 302.413 175.539 302.413 176.228Z" fill="white"/>
<path d="M234.796 139.176C234.796 139.623 234.433 139.979 233.993 139.979C233.547 139.979 233.191 139.615 233.191 139.176C233.191 138.729 233.554 138.373 233.993 138.373C234.433 138.373 234.796 138.729 234.796 139.176Z" fill="white"/>
<path d="M207.531 63.0962H206.297C205.048 63.0962 204.034 62.0819 204.034 60.833V59.5992C204.034 59.1904 203.739 58.8195 203.337 58.7817C202.868 58.7362 202.475 59.0996 202.475 59.5537V60.833C202.475 62.0819 201.46 63.0962 200.211 63.0962H198.977C198.569 63.0962 198.198 63.3914 198.16 63.7926C198.115 64.2619 198.478 64.6555 198.932 64.6555H200.211C201.46 64.6555 202.475 65.6698 202.475 66.9187V68.1525C202.475 68.5613 202.77 68.9322 203.171 68.97C203.64 69.0154 204.034 68.6521 204.034 68.1979V66.9187C204.034 65.6698 205.048 64.6555 206.297 64.6555H207.576C208.03 64.6555 208.401 64.2619 208.348 63.7926C208.31 63.3914 207.932 63.0962 207.531 63.0962Z" fill="white"/>
<path d="M161.222 156.88L160.351 156.01C159.466 155.124 159.466 153.694 160.351 152.808L161.222 151.938C161.509 151.65 161.562 151.181 161.305 150.863C161.01 150.499 160.472 150.477 160.147 150.802L159.246 151.703C158.36 152.589 156.93 152.589 156.044 151.703L155.174 150.833C154.886 150.545 154.417 150.492 154.099 150.749C153.736 151.044 153.713 151.582 154.038 151.907L154.939 152.808C155.825 153.694 155.825 155.124 154.939 156.01L154.069 156.88C153.781 157.168 153.728 157.637 153.985 157.955C154.281 158.319 154.818 158.341 155.143 158.016L156.044 157.115C156.93 156.229 158.36 156.229 159.246 157.115L160.147 158.016C160.472 158.341 161.01 158.319 161.305 157.955C161.562 157.637 161.509 157.168 161.222 156.88Z" fill="white"/>
<path d="M253.855 232.582L252.985 231.711C252.099 230.825 252.099 229.395 252.985 228.509L253.855 227.639C254.143 227.351 254.196 226.882 253.938 226.564C253.643 226.201 253.106 226.178 252.78 226.503L251.88 227.404C250.994 228.29 249.563 228.29 248.678 227.404L247.807 226.534C247.52 226.246 247.05 226.193 246.732 226.45C246.369 226.746 246.346 227.283 246.672 227.608L247.573 228.509C248.458 229.395 248.458 230.825 247.573 231.711L246.702 232.582C246.414 232.869 246.362 233.338 246.619 233.656C246.914 234.02 247.451 234.042 247.777 233.717L248.678 232.816C249.563 231.931 250.994 231.931 251.88 232.816L252.78 233.717C253.106 234.042 253.643 234.02 253.938 233.656C254.196 233.338 254.143 232.869 253.855 232.582Z" fill="white"/>
<path d="M228.142 245.964C228.945 239.788 226.409 233.49 222.291 228.82C220.346 226.617 217.878 224.187 218.347 221.288C218.68 219.275 220.785 216.928 219.18 214.975C217.954 213.477 214.828 212.962 213.049 212.591C208.174 211.561 203.02 211.895 198.319 213.529C195.632 214.461 193.096 215.823 190.863 217.587C187.639 220.13 184.974 223.529 183.892 227.487C182.31 233.27 184.293 239.538 187.616 244.526C192.521 251.891 200.423 257.197 209.09 258.961C211.58 259.468 214.162 259.687 216.644 259.18C222.753 257.924 227.332 252.141 228.142 245.964ZM213.041 222.431C211.686 222.719 210.21 222.371 209.113 221.515C208.553 221.076 208.068 220.433 208.091 219.721C208.106 219.176 208.424 218.684 208.818 218.313C209.87 217.344 211.588 217.254 212.837 217.905C213.987 218.503 215.433 220.062 214.646 221.439C214.321 222 213.677 222.302 213.041 222.431Z" fill="#FFF7D9"/>
<path d="M206.32 232.354C205.714 234.133 206.645 236.026 207.266 237.804C207.523 238.546 207.735 239.326 208.144 239.992C208.553 240.658 209.226 241.241 210.006 241.301C210.982 241.385 211.861 240.666 212.436 239.871C213.011 239.068 213.412 238.145 214.101 237.441C214.487 237.047 214.964 236.73 215.274 236.268C215.918 235.314 215.675 233.989 215.085 233.005C213.488 230.326 207.667 228.388 206.32 232.354Z" fill="#FFC400"/>
<path d="M194.61 221.053C193.407 221.909 193.142 223.536 192.718 224.944C192.544 225.535 192.324 226.125 192.279 226.738C192.233 227.351 192.392 228.025 192.869 228.426C193.452 228.926 194.338 228.865 195.064 228.623C195.791 228.381 196.472 227.972 197.229 227.843C197.653 227.767 198.1 227.783 198.508 227.639C199.356 227.328 199.803 226.375 199.878 225.474C200.098 223.044 197.282 219.154 194.61 221.053Z" fill="#FF2F00"/>
<path d="M212.451 246.229C211.384 247.41 210.241 248.765 210.309 250.354C210.347 251.331 210.854 252.239 211.497 252.981C212.625 254.29 214.457 255.214 216.084 254.631C217.333 254.185 218.166 252.92 218.393 251.611C218.62 250.301 218.325 248.954 217.871 247.713C217.515 246.721 216.917 245.048 215.804 244.662C214.487 244.208 213.238 245.359 212.451 246.229Z" fill="#2228B3"/>
<path d="M193.051 239.061C192.778 240.113 193.036 241.226 193.369 242.255C193.634 243.08 193.959 243.905 194.489 244.587C195.019 245.268 195.791 245.805 196.654 245.888C197.661 245.987 198.652 245.442 199.288 244.647C199.924 243.86 200.234 242.861 200.393 241.854C200.575 240.681 200.544 239.439 200.045 238.365C198.675 235.405 193.891 235.874 193.051 239.061Z" fill="#009245"/>
<path d="M267.919 95.9547C266.935 94.6906 265.119 94.4636 263.854 95.4476L212.792 135.164L206.804 143.49L216.349 139.736L267.412 100.019C268.676 99.0354 268.903 97.2188 267.919 95.9547Z" fill="#494ED1"/>
<path d="M268.177 96.2802C267.056 94.8344 265.119 94.4635 263.862 95.4475L212.83 135.209L212.194 136.171L213.723 138.161L268.207 96.3407C268.192 96.318 268.184 96.2953 268.177 96.2802Z" fill="#2228B3"/>
<path d="M216.349 139.728C216.379 139.403 216.387 139.047 216.016 138.54C215.668 138.078 214.79 138.139 214.411 137.601C214.025 137.041 214.366 136.375 214.003 135.777C213.76 135.376 213.337 135.081 212.867 135.088L212.792 135.149L206.804 143.475L216.349 139.728Z" fill="#FAB594"/>
<path d="M208.25 141.477L206.804 143.491L209.106 142.582C209.098 142.332 209.023 142.09 208.864 141.886C208.705 141.674 208.493 141.545 208.25 141.477Z" fill="#0D0B30"/>
<path d="M267.919 95.9547C266.935 94.6906 265.118 94.4635 263.854 95.4475L259.169 99.096L262.727 103.668L267.412 100.019C268.676 99.0354 268.903 97.2188 267.919 95.9547Z" fill="#1FDDFF"/>
<path d="M260.6 97.9825L259.985 98.4611L263.544 103.038L264.16 102.56L260.6 97.9825Z" fill="#0D0B30"/>
<path d="M259.484 98.8589L258.868 99.3375L262.428 103.915L263.043 103.436L259.484 98.8589Z" fill="#0D0B30"/>
<path d="M163.454 101.261C157.921 100.337 152.274 101.352 147.142 103.373C140.777 105.886 134.971 110.041 131.126 115.794C127.28 121.547 125.54 128.972 127.122 135.959C127.682 138.434 128.764 140.977 130.838 142.393C133.767 144.391 137.772 143.43 140.383 141.204C142.994 138.979 144.569 135.762 146.257 132.727C147.952 129.699 149.958 126.641 153.031 125.135C156.551 123.409 160.775 124.029 164.658 124.945C168.541 125.861 172.538 127.042 176.406 126.323C178.025 126.02 179.623 125.354 180.72 124.12C182.431 122.213 182.673 119.238 181.916 116.68C180.728 112.645 177.374 108.883 174.248 106.211C171.168 103.585 167.353 101.912 163.454 101.261Z" fill="url(#paint1_linear)"/>
<path d="M165.794 107.044C166.377 108.247 165.87 109.701 164.666 110.276C163.462 110.859 162.009 110.352 161.434 109.148C160.851 107.945 161.358 106.499 162.562 105.916C163.765 105.333 165.211 105.84 165.794 107.044Z" fill="#0D0B30"/>
<path d="M169.714 115.143C170.297 116.347 169.79 117.8 168.586 118.375C167.383 118.958 165.937 118.451 165.354 117.247C164.771 116.044 165.279 114.591 166.482 114.015C167.686 113.432 169.131 113.94 169.714 115.143Z" fill="#0D0B30"/>
<path d="M160.464 111.926C161.668 111.343 163.114 111.85 163.697 113.054C164.279 114.258 163.772 115.711 162.569 116.286C161.365 116.869 159.912 116.362 159.337 115.158C158.761 113.955 159.261 112.509 160.464 111.926Z" fill="#0D0B30"/>
<path d="M168.571 108.005C169.775 107.422 171.228 107.929 171.803 109.133C172.386 110.337 171.879 111.782 170.676 112.365C169.472 112.948 168.019 112.441 167.444 111.237C166.861 110.041 167.368 108.588 168.571 108.005Z" fill="#0D0B30"/>
<path d="M136.894 121.017C137.477 122.22 136.97 123.674 135.766 124.249C134.563 124.832 133.11 124.325 132.534 123.121C131.951 121.918 132.459 120.464 133.662 119.889C134.866 119.314 136.311 119.813 136.894 121.017Z" fill="#0D0B30"/>
<path d="M140.814 129.124C141.397 130.327 140.89 131.78 139.687 132.356C138.483 132.939 137.03 132.431 136.455 131.228C135.872 130.024 136.379 128.571 137.582 127.996C138.786 127.413 140.232 127.92 140.814 129.124Z" fill="#0D0B30"/>
<path d="M131.572 125.907C132.776 125.324 134.229 125.831 134.804 127.034C135.387 128.238 134.88 129.684 133.677 130.267C132.473 130.849 131.02 130.342 130.445 129.139C129.862 127.935 130.369 126.489 131.572 125.907Z" fill="#0D0B30"/>
<path d="M139.671 121.986C140.875 121.403 142.328 121.91 142.904 123.114C143.486 124.317 142.979 125.77 141.776 126.346C140.572 126.928 139.126 126.421 138.544 125.218C137.961 124.014 138.468 122.569 139.671 121.986Z" fill="#0D0B30"/>
<path d="M152.206 115.302L147.097 117.777C146.423 118.103 146.143 118.905 146.469 119.579C146.794 120.252 147.597 120.532 148.27 120.207L153.38 117.732C154.053 117.406 154.333 116.604 154.008 115.93C153.69 115.264 152.88 114.984 152.206 115.302Z" fill="white"/>
<path d="M145.735 196.166C131.921 187.181 119.06 175.698 121.452 172.019C123.844 168.348 139.558 175.441 153.372 184.426C167.186 193.41 180.046 204.901 177.655 208.572C175.263 212.243 159.549 205.143 145.735 196.166ZM153.024 184.955C136.538 174.23 123.67 169.786 121.997 172.36C120.324 174.934 129.604 184.895 146.09 195.621C162.576 206.346 175.444 210.79 177.125 208.216C178.79 205.642 169.51 195.681 153.024 184.955Z" fill="white"/>
<path d="M153.066 206.971C162.263 205.061 168.17 196.057 166.261 186.86C164.351 177.663 155.347 171.755 146.15 173.665C136.953 175.575 131.045 184.578 132.955 193.776C134.865 202.973 143.869 208.88 153.066 206.971Z" fill="#1FDDFF"/>
<path d="M146.863 198.769C146.446 197.868 145.72 197.149 144.925 196.567C144.334 196.135 143.691 195.764 143.191 195.227C142.692 194.697 142.336 193.948 142.503 193.236C142.76 192.101 144.213 191.351 144.062 190.193C143.956 189.323 143.01 188.861 142.185 188.566C140.179 187.847 138.112 187.211 136.326 186.053C135.403 185.455 134.555 184.69 133.911 183.797C130.967 190.859 133.117 199.163 139.339 203.871C140.512 203.409 141.859 203.47 143.138 203.387C144.569 203.288 146.151 202.872 146.863 201.623C147.332 200.768 147.271 199.67 146.863 198.769Z" fill="#0AABE0"/>
<path d="M161.865 178.536C161.774 178.892 161.714 179.255 161.577 179.551C161.191 180.414 160.548 181.17 159.708 181.632C159.163 181.927 158.557 182.117 158.02 182.419C157.482 182.73 156.983 183.199 156.869 183.812C156.703 184.736 157.437 185.553 158.08 186.234C159.246 187.468 160.313 188.831 160.949 190.405C161.585 191.98 161.751 193.796 161.131 195.371C160.707 196.453 159.942 197.376 159.503 198.459C159.072 199.519 158.981 200.715 159.246 201.827C159.405 202.493 159.708 203.144 160.162 203.651C161.57 202.539 162.826 201.184 163.863 199.594C168.269 192.835 167.239 184.115 161.865 178.536Z" fill="#0AABE0"/>
<path d="M143.267 174.547C143.638 175.319 144.463 175.819 145.311 176.001C146.234 176.205 147.195 176.091 148.142 176.023C149.088 175.955 150.072 175.933 150.95 176.288C151.654 176.576 152.282 177.098 153.039 177.174C153.985 177.265 154.833 176.652 155.575 176.061C156.006 175.721 156.46 175.35 156.725 174.88C152.388 172.874 147.513 172.844 143.267 174.547Z" fill="#0AABE0"/>
<path d="M159.571 204.159C159.753 204.022 159.935 203.886 160.116 203.742C155.931 201.646 151.185 198.936 146.083 195.62C141.042 192.343 136.674 189.133 133.094 186.189C133.033 186.409 132.98 186.636 132.935 186.855C136.765 189.981 141.193 193.206 145.735 196.158C150.322 199.148 155.121 201.918 159.571 204.159Z" fill="white"/>
<path d="M264.632 206.183C270.357 203.377 272.723 196.461 269.917 190.737C267.112 185.012 260.196 182.645 254.471 185.451C248.747 188.257 246.38 195.172 249.186 200.897C251.991 206.622 258.907 208.988 264.632 206.183Z" fill="#E61E64"/>
<path d="M270.243 191.541C269.781 190.398 269.16 189.353 268.403 188.445C266.844 188.914 265.209 189.202 263.597 189.429C260.441 189.86 257.224 190.072 254.166 190.965C251.857 191.647 249.859 192.752 248.095 194.341C247.944 195.499 247.959 196.695 248.178 197.891C249.563 196.998 251.145 196.385 252.75 195.976C255.331 195.325 258.003 195.159 260.645 194.841C263.287 194.515 265.959 194.023 268.313 192.767C268.986 192.403 269.622 191.987 270.243 191.541Z" fill="#A8023D"/>
<path d="M270.016 200.639C270.576 199.413 270.924 198.096 271.03 196.726C267.465 198.694 263.438 199.837 259.358 199.988C257.239 200.064 255.089 199.89 253.03 200.397C251.849 200.752 250.744 201.222 249.836 202.085C250.646 203.341 251.683 204.408 252.871 205.249C255.24 205.506 257.617 205.892 259.994 205.544C262.537 205.173 264.891 203.992 267.056 202.615C268.063 201.986 269.039 201.313 270.016 200.639Z" fill="#A8023D"/>
<path d="M262.061 185.69C262.258 186.348 261.887 187.045 261.228 187.242C260.569 187.439 259.873 187.068 259.676 186.409C259.479 185.75 259.85 185.054 260.509 184.857C261.168 184.66 261.864 185.031 262.061 185.69Z" fill="#A8023D"/>
<path d="M259.744 187.605C259.813 187.832 259.684 188.066 259.457 188.135C259.23 188.203 258.995 188.074 258.927 187.847C258.859 187.62 258.987 187.385 259.215 187.317C259.434 187.256 259.676 187.377 259.744 187.605Z" fill="#A8023D"/>
<path d="M262.969 187.923C263.098 188.354 262.855 188.808 262.424 188.937C261.992 189.066 261.538 188.824 261.409 188.392C261.281 187.96 261.523 187.506 261.954 187.377C262.386 187.249 262.84 187.491 262.969 187.923Z" fill="#A8023D"/>
<path d="M148.547 18.9324C145.284 19.7954 141.803 18.7584 138.843 17.1385C135.883 15.5262 133.264 13.3463 130.335 11.681C128.874 10.8484 127.3 10.1293 125.619 10.0158C123.946 9.89464 122.145 10.4699 121.131 11.8097C119.738 13.649 120.253 16.4648 121.835 18.1452C123.417 19.8256 125.793 20.5447 128.094 20.7264C129.025 20.8021 129.987 20.8021 130.85 21.1503C131.713 21.4985 132.485 22.3084 132.439 23.2394C132.364 24.8441 130.229 25.4042 128.647 25.1317C122.334 24.0493 118.375 17.4943 112.373 15.2613C111.086 14.7844 109.671 14.5119 108.323 14.7844C106.976 15.0569 105.697 15.935 105.212 17.2293C104.66 18.7054 105.243 20.416 106.295 21.5893C107.347 22.7625 108.8 23.4816 110.246 24.1099C112.29 24.9955 114.394 25.7373 116.544 26.3277C117.914 26.7062 119.617 27.4328 119.533 28.8483C119.465 29.9534 118.254 30.6347 117.149 30.7633C115.158 30.998 113.183 30.1578 111.502 29.0527C109.822 27.9475 108.331 26.5775 106.597 25.5632C104.864 24.5413 102.783 23.8904 100.845 24.4127C98.907 24.9349 97.3023 26.9484 97.7716 28.9013C98.1501 30.4606 99.6639 31.5051 101.2 31.9442C102.275 32.2469 103.403 32.3226 104.508 32.4286C105.644 32.5346 106.613 32.913 107.74 33.0947C108.354 33.1931 109.02 33.4429 109.269 34.003C109.444 34.3891 109.383 34.8508 109.156 35.2066C108.414 36.4101 105.977 36.1224 104.781 36.0316C103.403 35.9256 102.033 35.6834 100.656 35.691C98.5815 35.7061 96.4848 36.3193 94.8271 37.5682C93.177 38.8247 91.9962 40.7473 91.8145 42.8138C91.7161 43.881 91.8902 44.9635 92.2914 45.955C93.2603 48.3242 95.8793 48.8238 98.1425 48.1274C99.6791 47.6581 101.026 46.7271 102.306 45.7582C103.494 44.8575 104.66 43.9794 105.939 43.2149C107.15 42.4807 108.172 41.7616 109.655 41.6556C110.185 41.6178 110.753 41.6632 111.169 41.9811C111.586 42.2915 111.782 42.8365 111.782 43.3512C111.782 44.4563 111.374 45.5084 110.867 46.4622C110.496 47.1586 110.155 47.9079 110.178 48.6876C110.208 49.9592 111.23 51.0795 112.456 51.4277C114.394 51.9727 116.142 50.9357 117.263 49.3915C117.838 48.5967 118.171 47.7414 118.504 46.8331C118.989 45.5312 118.996 44.479 118.792 43.0863C118.633 42.0038 118.481 40.876 118.837 39.8466C119.185 38.8096 120.207 37.9164 121.282 38.0981C121.88 38.1965 122.395 38.6052 122.697 39.1351C123.386 40.3234 122.993 41.4361 122.637 42.6397C122.236 44.0249 122.152 45.5312 122.622 46.8936C123.091 48.2561 124.158 49.4445 125.528 49.8684C127.996 50.6329 130.668 48.68 131.561 46.2578C132.454 43.8281 132.015 41.1334 131.417 38.6203C131.152 37.5228 130.857 36.3874 131.084 35.2823C131.274 34.3664 132.099 32.9509 133.151 32.8828C134.279 32.8071 135.316 34.2225 135.671 35.1157C136.141 36.3117 136.141 37.6288 136.201 38.9155C136.337 41.7086 137.95 45.6523 141.348 45.5993C143.612 45.5614 145.224 43.336 145.92 41.1788C147.525 36.1754 146.337 30.4 148.842 25.7751C149.493 24.5716 150.394 23.4514 150.621 22.104C150.871 20.7415 149.871 18.5843 148.547 18.9324Z" fill="url(#paint2_linear)"/>
<path d="M166.63 20.4388C164.245 23.633 160.256 25.2302 156.328 25.9038C152.399 26.5851 148.38 26.4943 144.444 27.0998C142.484 27.4026 140.493 27.8946 138.858 29.0148C137.223 30.1351 135.974 31.9896 136.012 33.9728C136.072 36.7053 138.616 38.9231 141.318 39.3167C144.02 39.7103 146.745 38.6279 149.008 37.1065C149.924 36.4934 150.817 35.7894 151.87 35.4791C152.929 35.1687 154.231 35.3504 154.875 36.2436C155.98 37.7802 154.413 39.8693 152.755 40.7776C146.117 44.4109 137.639 41.2469 130.441 43.5858C128.897 44.0854 127.39 44.8726 126.338 46.114C125.286 47.3554 124.756 49.1115 125.256 50.6632C125.823 52.4344 127.625 53.5925 129.457 53.9029C131.289 54.2132 133.166 53.812 134.967 53.3352C137.511 52.6539 140.001 51.791 142.423 50.7692C143.967 50.1182 146.079 49.5354 147.04 50.9054C147.79 51.9803 147.161 53.5017 146.238 54.4252C144.565 56.1056 142.12 56.7717 139.751 56.9836C137.389 57.1955 134.998 57.0215 132.643 57.3545C130.297 57.68 127.89 58.6034 126.474 60.5109C125.066 62.4184 125.059 65.4613 126.921 66.9222C128.412 68.0878 130.585 67.944 132.333 67.2174C133.552 66.7102 134.649 65.9533 135.754 65.2342C136.882 64.5 138.063 64.1366 139.236 63.4857C139.88 63.1299 140.674 62.8726 141.325 63.2056C141.764 63.4327 142.052 63.9096 142.105 64.4016C142.302 66.0593 139.834 67.5883 138.653 68.3755C137.299 69.2838 135.853 70.071 134.581 71.0929C132.666 72.6295 131.175 74.7337 130.569 77.1105C129.964 79.4873 130.289 82.129 131.637 84.1803C132.333 85.24 133.287 86.118 134.384 86.7387C137.019 88.2223 139.812 86.7614 141.394 84.4528C142.468 82.8859 143.036 81.039 143.505 79.1997C143.944 77.4965 144.384 75.8237 144.997 74.1736C145.587 72.6067 146.003 71.1913 147.298 70.0029C147.759 69.579 148.312 69.2081 148.94 69.193C149.553 69.1778 150.136 69.5336 150.515 70.0105C151.332 71.0323 151.726 72.3115 151.953 73.5681C152.119 74.4839 152.354 75.4225 152.952 76.1416C153.913 77.2997 155.685 77.5874 157.077 77.0045C159.272 76.0886 160.135 73.8406 160.029 71.5925C159.976 70.4343 159.658 69.3973 159.303 68.3149C158.796 66.7556 158.031 65.7716 156.82 64.6287C155.881 63.743 154.912 62.812 154.481 61.5933C154.05 60.3822 154.337 58.8002 155.465 58.172C156.086 57.8238 156.873 57.8238 157.539 58.0887C159.045 58.6791 159.499 60.0038 160.06 61.3814C160.703 62.9558 161.732 64.4091 163.171 65.325C164.601 66.2409 166.463 66.5664 168.053 65.9457C170.899 64.8406 171.936 61.0711 170.982 58.172C170.028 55.2654 167.644 53.093 165.237 51.2082C164.185 50.3907 163.08 49.5505 162.482 48.3621C161.982 47.3781 161.71 45.4555 162.633 44.6229C163.617 43.7297 165.623 44.2671 166.607 44.8424C167.917 45.6069 168.886 46.8255 169.885 47.9685C172.057 50.4513 176.447 52.9189 179.558 50.3756C181.632 48.68 181.488 45.4328 180.542 42.9273C178.355 37.1141 173.011 32.6406 171.936 26.517C171.656 24.9274 171.663 23.2243 170.884 21.8088C170.112 20.4009 167.599 19.1368 166.63 20.4388Z" fill="url(#paint3_linear)"/>
<path d="M124.949 250.203C123.11 245.896 120.975 241.725 118.553 237.714C117.978 236.76 117.364 235.791 116.471 235.125C115.359 234.292 113.913 234.012 112.52 234.005C110.9 233.989 109.28 234.307 107.782 234.921C107.403 235.079 106.979 235.314 106.904 235.715C106.843 236.041 107.047 236.374 107.328 236.556C107.608 236.737 107.941 236.798 108.274 236.843C109.28 236.979 110.302 236.987 111.279 237.267C112.255 237.547 113.209 238.153 113.565 239.099C112.702 238.826 111.786 238.758 110.878 238.758C110.688 238.758 110.499 238.766 110.333 238.849C110.166 238.932 110.03 239.106 110.052 239.296C110.083 239.508 110.287 239.636 110.469 239.735C112.051 240.598 113.739 241.286 115.472 241.771C116.297 242.679 116.729 244.019 117.039 245.207C117.342 246.396 117.508 247.614 117.834 248.795C118.159 249.976 118.659 251.149 119.529 252.012C120.4 252.875 121.687 253.397 122.875 253.11C124.078 252.822 125.433 251.331 124.949 250.203Z" fill="#FFB77D"/>
<path d="M124.949 250.203C124.2 248.447 123.39 246.729 122.542 245.018C121.686 245.593 120.718 245.972 119.696 246.138C118.893 246.267 118.083 246.275 117.274 246.214C117.455 247.084 117.607 247.955 117.841 248.81C118.167 249.991 118.666 251.164 119.537 252.027C120.407 252.89 121.694 253.412 122.882 253.125C124.078 252.822 125.433 251.331 124.949 250.203Z" fill="#F0974F"/>
<path d="M41.5726 297.557L38.0529 304.665L44.2067 304.702L46.803 299.094L41.5726 297.557Z" fill="#FFB77D"/>
<path d="M105.957 271.087C97.1392 264.645 87.4504 259.392 77.2394 255.517C73.3714 254.048 69.0872 252.762 65.1511 254.041C61.1469 255.335 58.422 258.968 56.136 262.496C48.6348 274.062 42.9048 286.778 39.2185 300.062C41.3606 300.971 44.2597 301.894 46.5835 301.811C53.5246 290.517 59.0199 283.539 63.9627 273.471C76.2554 274.054 88.7221 274.19 101.015 274.781C102.4 274.849 103.861 274.894 105.072 274.221C106.291 273.547 107.078 271.904 105.957 271.087Z" fill="url(#paint4_linear)"/>
<path d="M33.1479 304.831C31.8611 305.172 30.5062 305.565 29.6206 306.549C29.068 307.17 28.7501 308.093 29.1058 308.85C29.3783 309.433 29.999 309.797 30.6348 309.925C31.2631 310.054 31.9216 309.986 32.565 309.933C35.4641 309.675 38.3859 309.615 41.2925 309.744C42.2614 309.789 43.2454 309.85 44.1764 309.592C45.1074 309.335 46.0006 308.684 46.2504 307.753C46.4321 307.087 46.2731 306.375 46.1142 305.702C45.9552 305.02 45.7433 304.271 45.1604 303.885C44.7517 303.612 44.2294 303.582 43.7374 303.559C42.8064 303.514 41.8753 303.469 40.9443 303.423C40.2025 303.385 39.3396 303.196 38.6205 303.363C36.7811 303.786 34.9645 304.339 33.1479 304.831Z" fill="#0D0B30"/>
<path d="M46.3035 307.398C40.566 308.238 34.7527 308.503 28.9622 308.17C28.9622 308.405 29.0076 308.632 29.106 308.851C29.3785 309.434 29.9992 309.798 30.635 309.926C31.2633 310.055 31.9218 309.987 32.5652 309.934C35.4642 309.677 38.386 309.616 41.2926 309.745C42.2615 309.79 43.2455 309.851 44.1766 309.593C45.1076 309.336 46.0008 308.685 46.2506 307.754C46.2808 307.633 46.2884 307.519 46.3035 307.398Z" fill="#D4E4EB"/>
<path d="M32.7088 304.945C31.5583 305.263 30.4078 305.672 29.6206 306.55C29.0831 307.155 28.7728 308.049 29.0831 308.79C30.5591 308.889 32.0427 308.987 33.5188 309.086C33.8745 308.033 33.7988 306.845 33.3144 305.853C33.1554 305.528 32.9511 305.225 32.7088 304.945Z" fill="#D4E4EB"/>
<path d="M21.4685 283.274L27.857 280.533L27.7965 285.787L20.8251 288.353L21.4685 283.274Z" fill="#FFB77D"/>
<path d="M68.6634 267.423C63.9552 267.87 42.1631 273.373 24.7687 281.116C24.4508 283.258 24.9579 285.454 27.1833 286.975C45.1605 281.003 58.7172 283.137 68.2925 277.71C90.6826 281.858 95.2469 292.47 118.614 290.699C120.423 290.563 122.111 289.624 123.587 288.58C125.063 287.528 126.259 285.968 126.516 284.182C126.766 282.494 126.168 280.768 125.206 279.36C124.245 277.952 122.951 276.809 121.641 275.719C119.317 273.782 116.873 271.927 114.095 270.731C111.317 269.535 71.5094 267.158 68.6634 267.423Z" fill="url(#paint5_linear)"/>
<path opacity="0.54" d="M125.214 279.353C124.253 277.945 122.958 276.802 121.649 275.712C119.325 273.774 116.88 271.919 114.102 270.724C113.3 270.375 109.394 269.936 104.179 269.482C102.695 271.897 103.051 276.128 103.407 278.346C103.853 281.147 104.981 283.811 106.548 286.18C109.265 290.29 115.949 290.888 118.621 290.691C120.43 290.555 122.118 289.617 123.594 288.572C125.07 287.52 126.266 285.961 126.523 284.174C126.766 282.486 126.168 280.761 125.214 279.353Z" fill="#232563"/>
<path d="M139.74 219.835C139.755 224.762 143.744 230.863 145.636 235.412C142.404 236.737 138.922 236.82 135.713 235.443C135.342 233.732 135.652 227.503 134.767 225.989C136.424 224.127 132.609 222.87 134.259 221.008C135.455 219.676 138.559 221.159 139.74 219.835Z" fill="#FFB77D"/>
<path d="M109.924 266.545C107.918 267.332 104.731 268.218 104.595 270.36C104.481 272.147 114.276 296.444 129.301 285.681C149.103 271.503 150.162 249.711 147.203 236.434C146.893 235.057 144.841 233.952 144.077 233.921C130.543 233.331 127.704 245.366 126.576 248.53C121.611 262.45 118.878 263.01 109.924 266.545Z" fill="url(#paint6_linear)"/>
<path opacity="0.51" d="M124.586 253.655C122.671 258.105 120.945 260.565 118.765 262.284C124.26 262.291 129.778 261.36 134.608 258.794C136.886 257.583 138.96 255.986 140.693 254.079C142.177 252.451 147.922 245.026 142.805 244.632C140.603 244.465 138.513 246.464 136.818 247.622C134.615 249.128 132.413 250.65 129.968 251.74C128.234 252.512 126.395 253.049 124.586 253.655Z" fill="#5F9E09"/>
<path d="M96.5639 248.084C96.8137 247.667 96.7153 247.137 96.3217 246.85C93.9903 245.132 86.2847 239.394 82.6136 236.139C82.22 235.791 82.0686 235.238 82.2276 234.731L86.9281 218.472C87.1098 217.905 86.8903 217.291 86.4058 216.958C85.6792 216.466 84.6876 216.777 84.3848 217.602C82.6893 222.257 79.6767 228.085 78.511 236.745C78.458 237.138 86.5875 242.785 95.2468 248.371C95.6858 248.666 96.2914 248.53 96.5639 248.084Z" fill="#0D0B30"/>
<path d="M21.862 276.476C21.6425 275.167 21.3851 273.774 20.4844 272.798C19.9166 272.184 19.031 271.783 18.2438 272.063C17.6383 272.283 17.222 272.866 17.0327 273.479C16.8435 274.092 16.8511 274.75 16.8435 275.394C16.8208 278.308 16.6088 281.215 16.2001 284.099C16.0638 285.06 15.9049 286.036 16.0714 286.99C16.2379 287.944 16.8056 288.89 17.7064 289.231C18.3498 289.473 19.0764 289.382 19.7577 289.291C20.4541 289.193 21.2186 289.064 21.6576 288.511C21.9679 288.125 22.0436 287.611 22.1193 287.126C22.2556 286.203 22.3843 285.279 22.5205 284.356C22.6265 283.622 22.899 282.781 22.8006 282.055C22.5508 280.193 22.1723 278.338 21.862 276.476Z" fill="#0D0B30"/>
<path d="M18.0546 289.33C17.7594 283.54 18.0546 277.727 18.9326 271.997C18.698 271.974 18.4709 271.997 18.2438 272.072C17.6383 272.292 17.222 272.875 17.0327 273.488C16.8435 274.101 16.8511 274.759 16.8435 275.403C16.8208 278.317 16.6088 281.224 16.2001 284.107C16.0638 285.069 15.9049 286.045 16.0714 286.999C16.2379 287.953 16.8056 288.899 17.7064 289.24C17.8199 289.285 17.9335 289.3 18.0546 289.33Z" fill="#D4E4EB"/>
<path d="M21.7866 276.03C21.5746 274.856 21.287 273.668 20.4846 272.798C19.9321 272.2 19.0767 271.806 18.3047 272.048C18.0624 273.509 17.8278 274.97 17.5856 276.438C18.5999 276.893 19.7883 276.93 20.8253 276.544C21.1659 276.416 21.4838 276.242 21.7866 276.03Z" fill="#D4E4EB"/>
<path d="M136.114 237.963C134.078 239.394 132.579 241.438 130.982 243.345C129.377 245.245 122.466 250.968 120.392 249.817C109.81 243.966 104.807 244.095 99.4176 239.5C98.1535 240.514 97.1846 240.976 96.6169 242.747C100.992 246.411 116.948 259.354 122.572 258.348C126.925 257.568 135.16 252.322 138.498 249.423C139.762 248.326 140.951 247.115 141.798 245.669C142.639 244.223 143.115 242.52 142.858 240.862C142.608 239.212 141.549 237.638 140.004 237.01C138.453 236.381 137.484 237.002 136.114 237.963Z" fill="#FFB77D"/>
<path d="M128.37 257.371C133.139 256.682 139.528 252.428 142.131 249.832C144.667 247.304 146.045 244.148 146.052 240.991C146.052 239.939 145.893 238.857 145.28 237.963C144.342 236.593 142.404 235.814 140.428 235.746C138.445 235.677 136.447 236.26 134.714 237.138C131.035 239.008 125.123 244.95 122.701 247.872C123.042 251.656 125.252 255.479 128.37 257.371Z" fill="url(#paint7_linear)"/>
<path d="M98.1459 234.89C97.1543 234.247 95.9886 233.944 94.8229 233.77C93.362 233.551 91.8255 233.513 90.4554 234.073C90.0542 234.239 89.6379 234.497 89.532 234.913C89.4411 235.254 89.5925 235.625 89.8423 235.889C90.0845 236.147 90.41 236.313 90.7279 236.472C91.6438 236.926 93.1577 237.873 94.119 238.228C94.2779 242.641 97.1089 243.247 97.9566 243.451C98.8952 243.678 99.9095 243.254 100.553 242.543C101.204 241.816 99.8111 235.965 98.1459 234.89Z" fill="#FFB77D"/>
<path d="M135.478 231.779C136.099 231.582 136.598 231.03 136.931 230.47C137.56 229.395 137.84 228.123 137.726 226.889C137.703 226.625 137.658 226.36 137.514 226.14C137.37 225.921 137.113 225.762 136.848 225.807C136.22 225.921 135.652 227.117 135.243 227.873C135.38 229.016 135.433 230.439 135.478 231.779Z" fill="#F0974F"/>
<path d="M125.184 219.502C125.411 221.848 126.084 224.119 126.856 226.344C127.227 227.427 127.659 228.547 128.537 229.281C129.627 230.19 131.224 230.303 132.564 229.849C133.903 229.395 135.024 228.441 135.985 227.404C137.711 225.535 139.043 223.271 139.58 220.789C140.118 218.306 139.808 215.604 138.498 213.431C137.189 211.259 134.819 209.684 132.284 209.563C129.899 209.45 127.613 210.729 126.258 212.667C124.987 214.483 124.987 217.39 125.184 219.502Z" fill="#FFB77D"/>
<path d="M122.247 215.49C124.2 216.345 125.88 218.26 132.912 214.945C133.048 216.769 132.466 223.491 140.489 223.975C141.337 221.53 142.132 217.352 142.086 215.823C142.041 214.256 141.685 212.651 140.731 211.41C139.778 210.169 138.589 209.291 137.068 209.677C136.515 208.556 135.44 207.739 134.252 207.368C133.064 206.997 131.716 207.133 130.626 207.739C129.801 208.193 129.165 208.92 128.34 209.382C127.591 209.805 121.475 215.149 122.247 215.49Z" fill="#0D0B30"/>
<path d="M121.089 206.906C119.37 207.292 118.099 208.958 117.962 210.714C117.826 212.47 118.719 214.211 120.082 215.323C121.444 216.436 123.223 216.958 124.979 217.019C126.735 217.08 128.484 216.701 130.157 216.171C131.882 215.626 133.669 214.824 134.585 213.265C135.266 212.099 135.349 210.608 134.789 209.382C134.365 208.45 133.427 207.315 132.314 207.292C131.3 207.27 130.285 207.951 129.309 208.163C127.939 208.458 126.637 208.08 125.343 207.633C123.98 207.156 122.542 206.581 121.089 206.906Z" fill="#0D0B30"/>
<path d="M136.75 219.835C136.75 221.099 135.841 222.121 134.713 222.121C133.593 222.121 132.677 221.099 132.677 219.835C132.677 218.571 133.586 217.549 134.713 217.549C135.834 217.549 136.75 218.571 136.75 219.835Z" fill="#FFB77D"/>
<path d="M127.75 220.705L127.667 220.539L133.805 217.466L133.889 217.632L127.75 220.705Z" fill="#0D0B30"/>
<path d="M128.189 221.023C128.544 222.605 128.083 224.051 127.159 224.263C126.236 224.475 125.191 223.362 124.835 221.78C124.48 220.198 124.941 218.752 125.865 218.54C126.796 218.336 127.833 219.441 128.189 221.023Z" fill="white"/>
<path d="M102.945 182.836C105.753 176.061 106.866 168.424 105.072 161.309C103.27 154.193 98.3124 147.729 91.4849 145.05C87.4655 143.468 82.2124 143.551 79.5631 146.972C77.6178 149.485 77.6935 153.096 78.8214 156.071C79.9492 159.045 81.9702 161.573 83.749 164.208C86.6329 168.477 88.9794 173.2 89.9029 178.264C90.7279 182.79 90.3495 187.627 88.3436 191.813C87.2612 194.069 83.1359 198.8 87.3217 200.026C94.5353 202.13 101.045 187.43 102.945 182.836Z" fill="#9B0260"/>
<path d="M82.4394 212.243C84.8724 212.243 86.8448 210.27 86.8448 207.837C86.8448 205.404 84.8724 203.432 82.4394 203.432C80.0064 203.432 78.0341 205.404 78.0341 207.837C78.0341 210.27 80.0064 212.243 82.4394 212.243Z" fill="#AB026A"/>
<path d="M183.907 280.314C186.473 281.131 189.175 281.813 191.264 283.501C193.353 285.196 194.617 288.3 193.293 290.638C191.968 292.977 188.857 293.5 186.17 293.477C178.593 293.409 171.001 290.972 165.029 286.316C159.049 281.661 154.78 274.773 153.614 267.295C153.039 263.623 155.151 261.466 158.761 263.147C161.108 264.237 161.933 266.636 163.583 268.468C168.67 274.122 176.776 278.035 183.907 280.314Z" fill="#6A2484"/>
<defs>
<linearGradient id="paint0_linear" x1="103.307" y1="15.2112" x2="221.38" y2="281.306" gradientUnits="userSpaceOnUse">
<stop stop-color="#FF5900"/>
<stop offset="0.152898" stop-color="#D83C48"/>
<stop offset="0.482414" stop-color="#BD179B"/>
<stop offset="1" stop-color="#4D023D"/>
</linearGradient>
<linearGradient id="paint1_linear" x1="127.717" y1="113.964" x2="165.2" y2="128.76" gradientUnits="userSpaceOnUse">
<stop stop-color="#F0FF5E"/>
<stop offset="1" stop-color="#D100A6"/>
</linearGradient>
<linearGradient id="paint2_linear" x1="86.1978" y1="38.1491" x2="121.987" y2="30.8078" gradientUnits="userSpaceOnUse">
<stop stop-color="#F9DF18"/>
<stop offset="1" stop-color="#4DC106"/>
</linearGradient>
<linearGradient id="paint3_linear" x1="134.036" y1="110.73" x2="165.378" y2="7.97135" gradientUnits="userSpaceOnUse">
<stop stop-color="#F9DF18"/>
<stop offset="1" stop-color="#4DC106"/>
</linearGradient>
<linearGradient id="paint4_linear" x1="38.6607" y1="266.842" x2="71.7604" y2="284.432" gradientUnits="userSpaceOnUse">
<stop stop-color="#4654A3"/>
<stop offset="0.3501" stop-color="#394693"/>
<stop offset="1" stop-color="#18256B"/>
</linearGradient>
<linearGradient id="paint5_linear" x1="29.8681" y1="299.147" x2="122.2" y2="269.03" gradientUnits="userSpaceOnUse">
<stop stop-color="#4654A3"/>
<stop offset="0.5196" stop-color="#3A4893"/>
<stop offset="1" stop-color="#2D3A80"/>
</linearGradient>
<linearGradient id="paint6_linear" x1="104.594" y1="261.164" x2="148.437" y2="261.164" gradientUnits="userSpaceOnUse">
<stop stop-color="#F9DF18"/>
<stop offset="1" stop-color="#4DC106"/>
</linearGradient>
<linearGradient id="paint7_linear" x1="140.455" y1="254.843" x2="130.614" y2="238.569" gradientUnits="userSpaceOnUse">
<stop stop-color="#F9DF18"/>
<stop offset="1" stop-color="#4DC106"/>
</linearGradient>
</defs>
</svg>
