<svg width="206" height="198" viewBox="0 0 206 198" fill="none" xmlns="http://www.w3.org/2000/svg">
<path d="M205.908 101.039C205.908 154.334 159.122 197.539 101.408 197.539C43.6944 197.539 0 172.834 0 119.539C0 66.2431 60.5 85.5389 97.5 53.0387C134.5 20.5386 205.908 47.7434 205.908 101.039Z" fill="#88B5CE"/>
<mask id="mask0" mask-type="alpha" maskUnits="userSpaceOnUse" x="0" y="39" width="206" height="159">
<path d="M205.908 101.039C205.908 154.334 159.122 197.539 101.408 197.539C43.6944 197.539 0 172.834 0 119.539C0 66.2431 60.5 85.5389 97.5 53.0387C134.5 20.5386 205.908 47.7434 205.908 101.039Z" fill="#C4C4C4"/>
</mask>
<g mask="url(#mask0)">
<circle cx="97.5" cy="200.5" r="65.5" fill="#F1EDD8" stroke="black" stroke-width="2"/>
</g>
<path d="M73.6973 161.02C76.7373 164.16 81.0773 167.03 84.9573 169.14C86.8773 170.18 88.5673 170.43 90.7373 170.11C95.2173 169.46 100.477 168.91 104.357 166.57C106.777 165.11 110.067 163.31 110.157 160.3C107.437 160.21 103.487 159.62 100.327 159.44C95.3373 159.16 90.2173 159.45 85.2173 159.56C82.3573 159.62 78.6673 159.65 76.0773 160.94C75.2973 161.34 74.4773 160.61 73.6973 161.02Z" fill="#AA352D"/>
<path d="M91.2373 164.51C90.4273 163.35 88.3973 162.96 87.1273 163.31C84.9973 163.91 82.4573 165.42 80.4973 166.62C77.9873 168.15 76.0773 171.25 73.5373 173.06C73.5273 173.14 73.5373 173.21 73.5773 173.27C74.8873 172.8 75.5273 174.35 76.6973 174.78C78.9473 175.6 81.8873 175.48 84.2173 175.34C87.8973 175.13 91.6773 173.81 92.0873 169.54C92.1673 168.69 93.0073 164.65 92.3673 164C92.0073 163.63 91.4073 163.92 90.9073 164.05" fill="#C93F2C"/>
<path d="M94.5174 164.46C95.2974 163.27 97.3174 162.83 98.5974 163.15C100.737 163.69 103.317 165.13 105.307 166.27C107.857 167.73 109.837 170.78 112.417 172.52C112.427 172.6 112.417 172.67 112.387 172.73C111.067 172.3 110.467 173.86 109.307 174.32C107.077 175.2 104.137 175.16 101.807 175.09C98.1174 174.98 94.3074 173.76 93.8074 169.5C93.7074 168.65 92.7774 164.63 93.3974 163.97C93.7474 163.59 94.3474 163.87 94.8574 163.98" fill="#C93F2C"/>
<path d="M93.8474 164.1C93.3474 162.98 91.3874 163.39 90.4674 163.47C90.3374 165.78 89.3274 169.64 92.5874 169.45C95.8974 169.26 95.4574 166.33 93.8474 164.1Z" fill="#D4594F"/>
<path d="M150.977 126.27C151.037 131.16 148.537 135.15 145.387 135.19C142.247 135.23 139.647 131.31 139.587 126.42C139.527 121.53 142.037 117.54 145.177 117.5C148.327 117.46 150.927 121.38 150.977 126.27Z" fill="#F2A36D"/>
<path d="M53.6974 127.6C53.7574 132.49 51.2475 136.48 48.1075 136.52C44.9575 136.56 42.3675 132.64 42.3075 127.75C42.2475 122.86 44.7575 118.87 47.8975 118.83C51.0475 118.78 53.6474 122.71 53.6974 127.6Z" fill="#F2A36D"/>
<path d="M49.6971 124.287L49.6965 124.3C49.2565 135.372 49.2796 141.992 53.4293 149.769C54.8578 152.442 57.4676 154.665 60.6994 156.348C63.9228 158.028 67.6931 159.132 71.3274 159.609L71.3278 159.609C80.6648 160.838 91.9178 161.544 102.988 160.76C114.07 159.975 124.894 157.701 133.427 153.023C138.76 150.099 141.205 144.444 142.335 137.984C143.178 133.163 143.261 128.083 143.335 123.588C143.36 122.045 143.385 120.572 143.438 119.201L143.438 119.201C143.82 109.428 141.258 102.426 136.908 97.4932C132.543 92.543 126.279 89.5643 119.065 88.0412C104.606 84.9889 86.6532 87.8543 73.7291 91.9437L49.6971 124.287ZM49.6971 124.287L49.6972 124.274M49.6971 124.287L49.6972 124.274M49.6972 124.274C49.7475 120.582 49.7674 119.167 49.8607 117.946C49.9217 117.148 50.0126 116.443 50.1674 115.245C50.2511 114.596 50.3535 113.803 50.4799 112.772L50.48 112.771M49.6972 124.274L50.48 112.771M50.48 112.771C51.1641 107.143 54.3258 102.779 58.6718 99.3833M50.48 112.771L58.6718 99.3833M58.6718 99.3833C63.0295 95.9782 68.527 93.5904 73.729 91.9437L58.6718 99.3833Z" fill="#F4CB9F" stroke="black" stroke-width="2"/>
<path d="M113.537 99.0504C112.317 99.2204 111.867 100.39 111.057 101.27C108.997 103.54 106.537 105.32 104.147 107.15C100.857 109.67 97.4974 111.13 93.9774 112.44C95.2374 112.02 95.8974 109.38 95.7274 107.94C87.8274 110.71 80.3074 114.46 72.2374 116.75C66.4674 118.39 57.6574 121.12 51.6074 119.52C41.3574 116.81 49.7774 101.89 54.3574 97.8404C66.2574 87.3204 86.4774 86.3604 101.047 88.6804C104.667 89.2604 109.387 90.0404 111.327 93.8504C112.047 95.2604 112.147 96.9504 112.897 98.3804" fill="#3E230D"/>
<path d="M120.257 96.9104C124.117 96.4304 128.047 100.87 130.797 103.44C133.327 105.79 135.247 108.42 137.127 111.35C138.617 113.67 141.267 123.54 144.577 122.83C144.567 118.69 144.967 114.64 144.787 110.48C144.647 107.21 144.467 100.07 142.617 97.5504C139.677 93.5504 131.687 95.2204 127.727 95.4504C125.427 95.5804 122.847 95.8804 120.677 96.9104" fill="#3E230D"/>
<path d="M80.0103 123.962C80.0268 125.619 78.7082 126.985 77.0435 127C75.3952 127.015 74.0271 125.696 74.0107 124.039C73.9942 122.381 75.3128 121.016 76.9775 121.001C78.6258 120.97 79.9939 122.305 80.0103 123.962Z" fill="#3E230D"/>
<path d="M114.01 122.962C114.027 124.619 112.708 125.985 111.043 126C109.395 126.015 108.027 124.696 108.011 123.039C107.994 121.381 109.313 120.016 110.978 120.001C112.626 119.97 113.977 121.305 114.01 122.962Z" fill="#3E230D"/>
<path d="M93.3484 134.249C89.1137 128.858 82.8737 130.938 78.5829 134.967C76.3533 137.048 75.0632 138.938 71.782 138.923C68.2484 138.894 67.1266 135.436 69.3702 135.099C69.3702 135.099 69.9591 134.953 70.3237 135.597C69.6506 131.935 65.8085 135.524 66.0188 138.41C66.2151 141.106 69.3421 143.89 71.4034 144.725C76.6618 146.878 86.2811 146.483 90.3897 142.161C92.6613 139.758 95.2555 137.648 93.3484 134.249Z" fill="#3E230D"/>
<path d="M93.6909 134.178C97.9688 128.844 104.182 130.986 108.46 135.023C110.663 137.107 111.953 139.001 115.235 139.016C118.77 139.016 119.92 135.591 117.676 135.227C117.676 135.227 117.086 135.081 116.722 135.723C117.423 132.079 121.238 135.693 121 138.564C120.775 141.231 117.634 143.985 115.572 144.801C110.298 146.885 100.676 146.419 96.6083 142.076C94.3361 139.657 91.7553 137.53 93.6909 134.178Z" fill="#3E230D"/>
<path d="M114.097 110.91C113.927 110.91 113.767 110.84 113.647 110.7C112.657 109.51 111.057 109.2 109.577 109.9C109.277 110.05 108.927 109.9 108.787 109.57C108.657 109.25 108.787 108.87 109.087 108.72C111.057 107.78 113.187 108.22 114.527 109.84C114.747 110.1 114.727 110.51 114.477 110.75C114.377 110.85 114.237 110.91 114.097 110.91Z" fill="#3E230D"/>
<mask id="path-18-inside-1" fill="white">
<path d="M50.4674 109.62C70.9274 90.5903 119.197 99.8603 143.377 107.47C144.487 100.52 135.337 88.3803 140.077 81.0903C142.967 76.6403 151.467 79.6403 156.987 76.7503C179.947 64.7103 165.997 24.2503 141.247 34.1403C141.437 4.12032 109.167 -2.47969 86.4674 0.740315C65.4274 3.72031 52.2074 9.74031 51.7774 31.8203C44.3274 28.4503 34.0104 30 26.9474 36.7803C19.8843 43.5606 16.4674 53.4703 17.0674 61.4603C18.3374 78.7103 34.1374 89.5103 44.7674 82.0703C48.3674 94.4603 43.4074 99.7103 49.7374 110.43"/>
</mask>
<path d="M50.4674 109.62C70.9274 90.5903 119.197 99.8603 143.377 107.47C144.487 100.52 135.337 88.3803 140.077 81.0903C142.967 76.6403 151.467 79.6403 156.987 76.7503C179.947 64.7103 165.997 24.2503 141.247 34.1403C141.437 4.12032 109.167 -2.47969 86.4674 0.740315C65.4274 3.72031 52.2074 9.74031 51.7774 31.8203C44.3274 28.4503 34.0104 30 26.9474 36.7803C19.8843 43.5606 16.4674 53.4703 17.0674 61.4603C18.3374 78.7103 34.1374 89.5103 44.7674 82.0703C48.3674 94.4603 43.4074 99.7103 49.7374 110.43" fill="#F1EDD8"/>
<path d="M143.377 107.47L142.777 109.378L144.987 110.074L145.352 107.786L143.377 107.47ZM140.077 81.0903L141.754 82.1805L141.755 82.1796L140.077 81.0903ZM156.987 76.7503L157.915 78.5222L157.916 78.5216L156.987 76.7503ZM141.247 34.1403L139.247 34.1277L139.229 37.1008L141.99 35.9975L141.247 34.1403ZM86.4674 0.740315L86.7478 2.72055L86.7483 2.72049L86.4674 0.740315ZM51.7774 31.8203L50.9531 33.6426L53.7179 34.8932L53.777 31.8593L51.7774 31.8203ZM17.0674 61.4603L19.062 61.3135L19.0618 61.3105L17.0674 61.4603ZM44.7674 82.0703L46.6879 81.5123L45.9087 78.8303L43.6206 80.4318L44.7674 82.0703ZM51.8295 111.085C61.4232 102.162 77.8645 99.6671 95.4266 100.553C112.857 101.432 130.797 105.608 142.777 109.378L143.978 105.563C131.778 101.723 113.492 97.4588 95.6281 96.5579C77.8952 95.6635 59.9716 98.049 49.1053 108.156L51.8295 111.085ZM145.352 107.786C145.702 105.596 145.23 103.179 144.589 100.9C143.951 98.6334 143.006 96.0714 142.269 93.7927C141.5 91.4131 140.899 89.1819 140.744 87.1577C140.59 85.1553 140.887 83.5147 141.754 82.1805L138.401 80.0001C136.898 82.3109 136.561 84.9215 136.755 87.463C136.948 89.9825 137.676 92.5876 138.463 95.0229C139.283 97.5592 140.121 99.791 140.738 101.984C141.352 104.163 141.608 105.87 141.402 107.155L145.352 107.786ZM141.755 82.1796C142.145 81.5787 142.752 81.1547 143.741 80.8557C144.777 80.5426 146.068 80.416 147.651 80.3325C149.153 80.2534 150.955 80.2129 152.662 80.0076C154.395 79.799 156.231 79.4036 157.915 78.5222L156.06 74.9785C154.983 75.542 153.687 75.8554 152.184 76.0362C150.654 76.2202 149.116 76.2498 147.441 76.3381C145.848 76.4221 144.127 76.5605 142.584 77.0268C140.994 77.5072 139.455 78.3769 138.4 80.001L141.755 82.1796ZM157.916 78.5216C170.552 71.8956 172.824 57.5488 168.892 46.5484C166.913 41.0103 163.303 36.0813 158.387 33.2062C153.407 30.2941 147.247 29.5893 140.505 32.2831L141.99 35.9975C147.623 33.7463 152.488 34.3902 156.367 36.6591C160.31 38.965 163.393 43.049 165.125 47.8947C168.616 57.6618 166.383 69.565 156.059 74.9791L157.916 78.5216ZM143.247 34.153C143.297 26.2688 141.209 19.8148 137.599 14.6571C133.999 9.51558 128.965 5.77183 123.276 3.15799C111.945 -2.04854 97.7892 -2.88571 86.1865 -1.23986L86.7483 2.72049C97.8456 1.14634 111.174 1.99917 121.606 6.79264C126.799 9.1788 131.215 12.5125 134.322 16.9511C137.418 21.3733 139.293 27.0018 139.247 34.1277L143.247 34.153ZM86.1869 -1.23992C75.624 0.256147 66.6007 2.5561 60.1691 7.5365C53.5858 12.6344 50.0013 20.3005 49.7777 31.7814L53.777 31.8593C53.9834 21.2602 57.2239 14.8763 62.6181 10.6991C68.1641 6.40453 76.2707 4.20448 86.7478 2.72055L86.1869 -1.23992ZM52.6017 29.9981C44.369 26.274 33.1845 28.0205 25.5623 35.3375L28.3324 38.2231C34.8364 31.9795 44.2858 30.6266 50.9531 33.6426L52.6017 29.9981ZM25.5623 35.3375C18.072 42.528 14.4279 53.0203 15.073 61.6101L19.0618 61.3105C18.5068 53.9203 21.6966 44.5933 28.3324 38.2231L25.5623 35.3375ZM15.0728 61.6072C15.7496 70.8009 20.3039 78.3617 26.2366 82.6455C32.1661 86.9271 39.7207 88.0437 45.9142 83.7088L43.6206 80.4318C39.1841 83.5369 33.5236 82.9735 28.5782 79.4026C23.6359 75.8339 19.6551 69.3697 19.062 61.3135L15.0728 61.6072ZM42.8468 82.6283C44.55 88.4901 44.2273 92.5749 44.2286 96.8772C44.2299 101.283 44.6037 105.67 48.0152 111.447L51.4595 109.413C48.541 104.471 48.2298 100.873 48.2286 96.876C48.2274 92.7757 48.5848 88.0405 46.6879 81.5123L42.8468 82.6283Z" fill="black" mask="url(#path-18-inside-1)"/>
<path d="M62.4674 133.26C62.4774 134.11 60.9974 134.81 59.1674 134.84C57.3374 134.87 55.8374 134.2 55.8274 133.35C55.8174 132.5 57.2974 131.8 59.1274 131.77C60.9674 131.75 62.4574 132.41 62.4674 133.26Z" fill="#E8A278"/>
<path d="M133.647 132.29C133.657 133.14 132.177 133.84 130.347 133.87C128.517 133.9 127.017 133.23 127.007 132.38C126.997 131.53 128.477 130.83 130.307 130.8C132.147 130.78 133.637 131.44 133.647 132.29Z" fill="#E8A278"/>
</svg>
