<svg width="120" height="120" viewBox="0 0 120 120" fill="none" xmlns="http://www.w3.org/2000/svg">
<path d="M29.6558 0H11.4744H0V11.4744V29.6558H11.4744V11.4744H29.6558V0Z" fill="black"/>
<path d="M119.813 29.6558V11.4744V0H108.338H90.2377V11.4744H108.338V29.6558H119.813Z" fill="black"/>
<path d="M90.2377 120H108.338H119.813V108.526V90.3442H108.338V108.526H90.2377V120Z" fill="black"/>
<path d="M0 90.3442V108.526V120H11.4744H29.6558V108.526H11.4744V90.3442H0Z" fill="black"/>
<path d="M62.3871 68.3553H51.0743V93.5668H36.8524V24.6393H62.4679C70.6293 24.6393 76.9322 26.4171 81.2957 30.0533C85.6592 33.6896 87.9218 38.7804 87.9218 45.4065C87.9218 50.0932 86.8713 54.0527 84.8512 57.2041C82.831 60.3555 79.7604 62.8605 75.5585 64.7191L90.5076 92.9203V93.5668H75.3161L62.3871 68.3553ZM51.0743 56.8809H62.5487C66.1042 56.8809 68.8516 55.992 70.8717 54.1335C72.8919 52.275 73.7807 49.8508 73.7807 46.6185C73.7807 43.3863 72.8919 40.8005 71.0333 38.942C69.1748 37.0834 66.2658 36.1946 62.4679 36.1946H51.0743V56.8809Z" fill="black"/>
</svg>
