<svg width="21" height="20" viewBox="0 0 21 20" fill="none" xmlns="http://www.w3.org/2000/svg">
<path d="M16.7396 6.01268C16.7396 5.87154 16.7926 5.80096 16.9513 5.80096H19.5978C19.7389 5.80096 19.7918 5.8539 19.7918 6.01268V19.3507C19.7918 19.4919 19.7566 19.5448 19.5978 19.5448H16.969C16.7926 19.5448 16.7573 19.4566 16.7573 19.3331L16.7396 6.01268Z" fill="#D17736"/>
<path d="M16.5632 2.16654C16.5632 1.09032 17.3219 0.437531 18.2922 0.437531C19.3155 0.437531 20.0212 1.12561 20.0212 2.16654C20.0212 3.27804 19.2979 3.89555 18.257 3.89555C17.269 3.89555 16.5632 3.27804 16.5632 2.16654Z" fill="#D17736"/>
<path d="M14.2521 19.3331L8.87099 1.09034C8.8357 0.949193 8.78277 0.91391 8.65927 0.91391H5.11305C5.02483 0.91391 4.9719 0.966836 4.9719 1.09034C4.93662 1.91955 4.88369 2.1842 4.79548 2.50177L0.0142493 19.2978C-0.0210365 19.4919 0.0142483 19.5448 0.190677 19.5448H2.67833C2.85476 19.5448 2.89004 19.5095 2.92533 19.3684L4.24855 14.3049H9.66492L11.0587 19.386C11.094 19.5095 11.1822 19.5448 11.3057 19.5448H14.1109C14.2521 19.5448 14.2697 19.4566 14.2521 19.3331ZM4.95426 11.5702C5.65998 8.94143 6.55977 5.60692 6.91262 3.63092H6.94791C7.37134 5.60692 8.48284 9.70008 8.9592 11.5702H4.95426Z" fill="#D17736"/>
</svg>
