<svg width="28" height="20" viewBox="0 0 28 20" fill="none" xmlns="http://www.w3.org/2000/svg">
<path d="M21.9747 5.14819C18.2873 5.14819 16.2054 8.44741 16.2054 12.5053C16.2054 16.2279 17.8992 19.5624 22.4157 19.5624C23.8272 19.5624 24.9563 19.3507 25.8561 18.9097C25.9796 18.8215 26.0325 18.7332 26.0325 18.5744V16.4397C26.0325 16.2809 25.9443 16.2632 25.8208 16.3162C24.921 16.7043 24.0389 16.8455 23.0332 16.8455C20.4397 16.8455 19.3459 15.2929 19.293 12.9993H23.7743C25.2739 12.9993 26.2972 12.9287 26.6324 12.8758C26.7735 12.8405 26.8265 12.7876 26.8618 12.6464C26.95 12.3289 27.0029 11.6584 27.0029 10.8292C27.0205 8.27099 25.715 5.14819 21.9747 5.14819ZM24.0565 10.5646C23.9683 10.5999 23.6684 10.5998 22.7862 10.5998H19.3459C19.5223 9.08256 20.228 7.63585 21.8688 7.63585C23.6508 7.63585 24.0918 9.34721 24.0918 10.2823C24.0918 10.3705 24.0565 10.4587 24.0565 10.5646Z" fill="#BA9AC2"/>
<path d="M9.97752 0.614001C9.94224 0.472858 9.88931 0.437561 9.76581 0.437561H6.1843C6.09608 0.437561 6.04315 0.490501 6.04315 0.614001C6.00787 1.4785 5.95494 1.70784 5.86672 2.02541L0.997281 19.0332C0.961996 19.2449 0.997281 19.2978 1.17371 19.2978H3.69665C3.87308 19.2978 3.926 19.2449 3.96129 19.1038L5.31979 13.9873H10.8244L12.2358 19.1214C12.2711 19.2449 12.3593 19.2978 12.5005 19.2978H15.3233C15.4645 19.2978 15.4998 19.2096 15.4645 19.0685L9.97752 0.614001ZM6.00787 11.1997C6.71358 8.53567 7.64866 5.14821 8.01916 3.15456H8.05445C8.47788 5.16585 9.64231 9.31196 10.1363 11.1997H6.00787Z" fill="#BA9AC2"/>
</svg>
