<svg width="25" height="30" viewBox="0 0 25 30" fill="none" xmlns="http://www.w3.org/2000/svg">
<path d="M2 3H14.1489C16.3903 3 18.1898 3.5112 19.5399 4.54108C20.89 5.57097 21.5697 7.11767 21.5697 9.19804C21.5697 10.4582 21.2607 11.5368 20.6447 12.4338C20.0286 13.3307 19.1467 14.031 17.9969 14.5197V14.589C19.538 14.9186 20.7065 15.647 21.4985 16.7742C22.2906 17.909 22.6895 19.3227 22.6895 21.0324C22.6895 22.0136 22.5153 22.9292 22.1652 23.7775C21.815 24.6313 21.2682 25.3672 20.5192 25.9833C19.7702 26.5994 18.8171 27.09 17.6486 27.4532C16.4802 27.8165 15.0927 28 13.4823 28H2V3ZM6.37608 13.4674H13.5179C14.5683 13.4674 15.4428 13.1734 16.1431 12.5704C16.8435 11.9675 17.1936 11.1136 17.1936 9.99386C17.1936 8.73365 16.879 7.84421 16.248 7.33301C15.617 6.82181 14.7069 6.5634 13.5179 6.5634H6.37608V13.4674ZM6.37608 24.4272H14.1133C15.4428 24.4272 16.4802 24.0846 17.2086 23.3917C17.9445 22.7064 18.3153 21.7252 18.3153 20.465C18.3153 19.2254 17.952 18.2798 17.2086 17.6075C16.4671 16.9353 15.4447 16.6132 14.1133 16.6132H6.37608V24.4272Z" fill="white"/>
</svg>
