<svg width="17" height="17" viewBox="0 0 17 17" fill="none" xmlns="http://www.w3.org/2000/svg">
<path d="M14.9062 1.09375C15.1771 0.947917 15.4375 0.96875 15.6875 1.15625C15.9583 1.32292 16.0729 1.5625 16.0312 1.875L13.7812 15.375C13.7396 15.6042 13.6042 15.7812 13.375 15.9062C13.1667 16.0312 12.9583 16.0417 12.75 15.9375L8.84375 14.3125L6.84375 16.7188C6.63542 16.9896 6.36458 17.0625 6.03125 16.9375C5.69792 16.8333 5.53125 16.6042 5.53125 16.25V13.7188L13.0625 4.5625C13.125 4.45833 13.1146 4.375 13.0312 4.3125C12.9479 4.22917 12.8646 4.21875 12.7812 4.28125L3.8125 12.1875L0.5 10.8125C0.208333 10.6875 0.0520833 10.4688 0.03125 10.1562C0.0104167 9.84375 0.135417 9.61458 0.40625 9.46875L14.9062 1.09375Z" fill="white"/>
</svg>
