<svg width="20" height="30" viewBox="0 0 20 30" fill="none" xmlns="http://www.w3.org/2000/svg">
<path d="M5 30C7.76 30 10 27.76 10 25V20H5C2.24 20 0 22.24 0 25C0 27.76 2.24 30 5 30Z" fill="#0ACF83"/>
<path d="M0 15C0 12.24 2.24 9.99997 5 9.99997H10V20H5C2.24 20 0 17.76 0 15Z" fill="#A259FF"/>
<path d="M0 5C0 2.24 2.24 0 5 0H10V10H5C2.24 10 0 7.76 0 5Z" fill="#F24E1E"/>
<path d="M9.99939 0H14.9994C17.7594 0 19.9994 2.24 19.9994 5C19.9994 7.76 17.7594 10 14.9994 10H9.99939V0Z" fill="#FF7262"/>
<path d="M19.9994 15C19.9994 17.76 17.7594 20 14.9994 20C12.2394 20 9.99939 17.76 9.99939 15C9.99939 12.24 12.2394 9.99997 14.9994 9.99997C17.7594 9.99997 19.9994 12.24 19.9994 15Z" fill="#1ABCFE"/>
</svg>
