<svg width="26" height="20" viewBox="0 0 26 20" fill="none" xmlns="http://www.w3.org/2000/svg">
<path d="M0.879395 0.52576C0.879395 0.52576 3.8434 0.4552 6.29577 0.4552C8.76577 0.4552 10.5301 1.03741 11.7121 2.0607C12.8413 3.03106 13.5999 4.67185 13.5999 6.542C13.5999 8.41214 13.0177 9.94708 11.9768 11.0233C10.6183 12.4171 9.01277 13.2287 6.29577 13.3522C5.53712 13.3874 4.84905 13.3874 4.84905 13.3874V19.4742H0.879395V0.52576ZM4.83141 10.0177C5.25484 10.0529 5.53712 10.0353 6.17227 10.0353C8.30706 10.0177 9.61263 8.71208 9.61263 6.75372C9.61263 4.98943 8.53641 3.54271 6.48984 3.47214C5.67826 3.43685 4.83141 3.47214 4.83141 3.47214V10.0177Z" fill="url(#paint0_linear)"/>
<path d="M15.0997 15.24C15.8937 15.734 17.7815 16.4573 19.0694 16.4573C20.375 16.4573 20.9219 15.9986 20.9219 15.2752C20.9219 14.5519 20.4985 13.7932 18.8577 13.2463C15.9642 12.2583 14.8527 11.0939 14.888 9.43544C14.888 6.77136 17.111 4.77771 20.569 4.77771C22.1922 4.77771 23.4978 5.307 24.3623 5.74808V8.94144C23.7271 8.58858 21.9099 7.81229 20.7102 7.81229C19.6516 7.81229 19.0517 8.25337 19.0517 8.95908C19.0517 9.62951 19.5987 9.96473 21.31 10.5822C23.9741 11.4997 25.0856 12.8582 25.1033 14.94C25.1033 17.5688 23.0743 19.6683 19.0517 19.5272C17.6756 19.4919 16.1407 18.945 15.0821 18.3627L15.0997 15.24Z" fill="url(#paint1_linear)"/>
<defs>
<linearGradient id="paint0_linear" x1="-4.65639" y1="-12.8656" x2="13.3472" y2="25.1747" gradientUnits="userSpaceOnUse">
<stop stop-color="#9DBFE5"/>
<stop offset="0.394" stop-color="#9DBFE5"/>
<stop offset="0.583" stop-color="#8BB5E0"/>
<stop offset="0.784" stop-color="#81AEDD"/>
<stop offset="1" stop-color="#7DACDC"/>
</linearGradient>
<linearGradient id="paint1_linear" x1="5.59878" y1="-17.8314" x2="23.67" y2="20.3573" gradientUnits="userSpaceOnUse">
<stop stop-color="#9DBFE5"/>
<stop offset="0.394" stop-color="#9DBFE5"/>
<stop offset="0.583" stop-color="#8BB5E0"/>
<stop offset="0.784" stop-color="#81AEDD"/>
<stop offset="1" stop-color="#7DACDC"/>
</linearGradient>
</defs>
</svg>
