<svg width="11" height="15" viewBox="0 0 11 15" fill="none" xmlns="http://www.w3.org/2000/svg">
<path d="M5.57812 0.914062C6.90885 0.914062 8.05729 1.33333 9.02344 2.17188C10.0078 3.01042 10.5 4.09505 10.5 5.42578C10.5 6.08203 10.4089 6.72005 10.2266 7.33984C10.0625 7.95964 9.81641 8.53385 9.48828 9.0625C9.16016 9.59115 8.71354 10.0104 8.14844 10.3203C7.60156 10.6302 6.98177 10.7852 6.28906 10.7852C5.92448 10.7852 5.5599 10.7031 5.19531 10.5391C4.83073 10.3568 4.56641 10.1107 4.40234 9.80078C4.34766 10.0195 4.26562 10.3294 4.15625 10.7305C4.0651 11.1315 4.0013 11.3958 3.96484 11.5234C3.94661 11.6328 3.89193 11.8242 3.80078 12.0977C3.72786 12.3711 3.65495 12.5716 3.58203 12.6992C3.52734 12.8086 3.4362 12.9727 3.30859 13.1914C3.19922 13.4102 3.07161 13.6198 2.92578 13.8203C2.79818 14.0208 2.63411 14.2578 2.43359 14.5312C2.37891 14.5677 2.34245 14.5859 2.32422 14.5859C2.32422 14.5859 2.29688 14.5586 2.24219 14.5039C2.16927 13.6289 2.13281 13.1094 2.13281 12.9453C2.13281 12.4531 2.1875 11.8971 2.29688 11.2773C2.42448 10.6393 2.60677 9.84635 2.84375 8.89844C3.09896 7.95052 3.24479 7.39453 3.28125 7.23047C3.09896 6.88411 3.00781 6.41927 3.00781 5.83594C3.00781 4.96094 3.34505 4.3776 4.01953 4.08594C4.56641 3.84896 5.00391 3.93099 5.33203 4.33203C5.49609 4.55078 5.57812 4.82422 5.57812 5.15234C5.57812 5.4987 5.45964 6.01823 5.22266 6.71094C4.98568 7.38542 4.86719 7.89583 4.86719 8.24219C4.86719 8.58854 4.98568 8.88021 5.22266 9.11719C5.47786 9.33594 5.77865 9.44531 6.125 9.44531C6.5625 9.44531 6.95443 9.29948 7.30078 9.00781C7.64714 8.71615 7.90234 8.34245 8.06641 7.88672C8.2487 7.43099 8.3763 6.98438 8.44922 6.54688C8.54036 6.09115 8.58594 5.66276 8.58594 5.26172C8.58594 4.3138 8.28516 3.57552 7.68359 3.04688C7.10026 2.51823 6.32552 2.25391 5.35938 2.25391C4.26562 2.25391 3.35417 2.60938 2.625 3.32031C1.89583 4.03125 1.53125 4.93359 1.53125 6.02734C1.53125 6.44661 1.63151 6.85677 1.83203 7.25781C2.05078 7.65885 2.16016 7.86849 2.16016 7.88672C2.16016 8.03255 2.11458 8.23307 2.02344 8.48828C1.95052 8.72526 1.85938 8.84375 1.75 8.84375C1.36719 8.84375 0.97526 8.5612 0.574219 7.99609C0.191406 7.43099 0 6.71094 0 5.83594C0 4.3776 0.55599 3.19271 1.66797 2.28125C2.79818 1.36979 4.10156 0.914062 5.57812 0.914062Z" fill="white"/>
</svg>
