<svg width="29" height="26" viewBox="0 0 29 26" fill="none" xmlns="http://www.w3.org/2000/svg">
<path d="M6.1843 0.838865L14.1634 0L22.1425 0.838865L28.3268 9.07159L14.1634 25.42L0 9.07159L6.1843 0.838865Z" fill="#E1A82F"/>
<path d="M6.02783 8.62289H22.8639L14.4556 24.8738L6.02783 8.62289Z" fill="#DFA231"/>
<path d="M14.2801 0.0195007L6.45703 0.858396L6.02783 9.16914L14.2801 0.0195007Z" fill="#EEC93F"/>
<path d="M14.28 0.0195007L6.45699 0.858396L6.0278 9.16914L14.28 0.0195007Z" fill="#EEC93F"/>
<path d="M13.8315 0.0195007L21.2292 0.858396L21.635 9.16914L13.8315 0.0195007Z" fill="#EEC93F"/>
<path d="M27.4875 8.62273L21.635 0.819366L22.0583 8.62273H27.4875Z" fill="#DFA231"/>
<path d="M22.2159 9.41998L14.0899 25.6708L27.7461 9.41998H22.2159Z" fill="#CD692A"/>
<path d="M5.82536 9.41998L14.2532 25.6708L0.0897465 9.41998H5.82536Z" fill="#CD692A"/>
</svg>
