<svg width="20" height="26" viewBox="0 0 20 26" fill="none" xmlns="http://www.w3.org/2000/svg">
<path d="M19.7565 13.0706C19.7565 12.7706 19.5448 12.5942 19.2625 12.6824L0.719831 18.5575C0.455187 18.6457 0.22583 18.9457 0.22583 19.2456V25.2618C0.22583 25.5617 0.437544 25.7382 0.719831 25.65L19.2625 19.7749C19.5272 19.6867 19.7565 19.3867 19.7565 19.0868V13.0706Z" fill="url(#paint0_linear)"/>
<path d="M0.24353 12.9118C0.24353 13.2117 0.455246 13.5116 0.737533 13.5999L19.2802 19.4749C19.5449 19.5632 19.7742 19.3867 19.7742 19.0868V13.0706C19.7742 12.7706 19.5625 12.4707 19.2802 12.3825L0.737533 6.5074C0.472889 6.41919 0.24353 6.59562 0.24353 6.89555V12.9118Z" fill="#D88D31"/>
<path d="M19.7565 0.738171C19.7565 0.438242 19.5448 0.261811 19.2625 0.350025L0.719831 6.22511C0.455187 6.31333 0.22583 6.61326 0.22583 6.91319V12.9294C0.22583 13.2294 0.437544 13.4058 0.719831 13.3176L19.2625 7.44248C19.5272 7.35426 19.7565 7.05434 19.7565 6.75441V0.738171Z" fill="#D88D31"/>
<defs>
<linearGradient id="paint0_linear" x1="9.29587" y1="21.4725" x2="10.0546" y2="15.7509" gradientUnits="userSpaceOnUse">
<stop stop-color="#D78C31"/>
<stop offset="0.53" stop-color="#D6862E"/>
<stop offset="1" stop-color="#C56C19"/>
</linearGradient>
</defs>
</svg>
