<svg width="9" height="15" viewBox="0 0 9 15" fill="none" xmlns="http://www.w3.org/2000/svg">
<path d="M8.47656 13.875C8.25781 14.112 7.90234 14.3125 7.41016 14.4766C6.9362 14.6589 6.39844 14.75 5.79688 14.75C5.03125 14.75 4.36589 14.6224 3.80078 14.3672C3.23568 14.112 2.81641 13.7747 2.54297 13.3555C2.26953 12.9362 2.06901 12.526 1.94141 12.125C1.83203 11.724 1.77734 11.3138 1.77734 10.8945V6.95703H0.492188C0.309896 6.95703 0.21875 6.86589 0.21875 6.68359V4.82422C0.21875 4.60547 0.31901 4.45964 0.519531 4.38672C1.28516 4.13151 1.85026 3.70312 2.21484 3.10156C2.57943 2.5 2.78906 1.86198 2.84375 1.1875C2.86198 0.895833 3.00781 0.75 3.28125 0.75H5.19531C5.3776 0.75 5.46875 0.841146 5.46875 1.02344V4.16797H7.76562C7.94792 4.16797 8.03906 4.25911 8.03906 4.44141V6.68359C8.03906 6.86589 7.94792 6.95703 7.76562 6.95703H5.46875V10.5938C5.46875 11.0859 5.6237 11.4323 5.93359 11.6328C6.26172 11.8151 6.72656 11.7969 7.32812 11.5781C7.49219 11.5052 7.61068 11.487 7.68359 11.5234C7.77474 11.5417 7.83854 11.6146 7.875 11.7422L8.47656 13.4922C8.54948 13.6745 8.54948 13.8021 8.47656 13.875Z" fill="white"/>
</svg>
