<svg width="32" height="32" viewBox="0 0 32 32" fill="none" xmlns="http://www.w3.org/2000/svg">
<path d="M3.01477 16C3.01477 21.1341 5.99642 25.5801 10.3366 27.6973L4.14392 10.7248C3.40291 12.3832 3.01477 14.1828 3.01477 16ZM24.7685 15.3472C24.7685 13.7417 24.1863 12.6302 23.6923 11.7657C23.0395 10.6895 22.422 9.7897 22.422 8.71349C22.422 7.51377 23.3218 6.40227 24.6097 6.40227C24.6626 6.40227 24.7156 6.40229 24.7861 6.41993C22.4749 4.30278 19.405 3.01483 16.0176 3.01483C11.4834 3.01483 7.47843 5.34368 5.16721 8.87227C5.46714 8.88991 5.76707 8.88993 5.99642 8.88993C7.35493 8.88993 9.45444 8.73115 9.45444 8.73115C10.1602 8.69586 10.2307 9.71912 9.54265 9.80734C9.54265 9.80734 8.83693 9.89557 8.06065 9.93085L12.7889 23.9923L15.6295 15.4707L13.6005 9.93085C12.8948 9.89557 12.242 9.80734 12.242 9.80734C11.5363 9.77205 11.6245 8.69586 12.3302 8.73115C12.3302 8.73115 14.4827 8.88993 15.753 8.88993C17.1115 8.88993 19.211 8.73115 19.211 8.73115C19.9167 8.69586 19.9873 9.71912 19.2992 9.80734C19.2992 9.80734 18.5935 9.89557 17.8172 9.93085L22.5102 23.8864L23.7981 19.5639C24.3451 17.7467 24.7685 16.4587 24.7685 15.3472Z" fill="#E0E0DF"/>
<path d="M16.2294 17.1468L12.3303 28.4736C13.53 28.8265 14.765 29.0029 16 29.0029C17.4644 29.0029 18.9288 28.7558 20.3049 28.2618C20.2696 28.2089 20.2343 28.1384 20.2167 28.0855L16.2294 17.1468ZM27.3974 9.77209C27.4503 10.1779 27.4856 10.6366 27.4856 11.1129C27.4856 12.4361 27.2386 13.9182 26.4976 15.7707L22.5279 27.2386C26.3917 24.9803 28.9852 20.7989 28.9852 16.0177C29.0029 13.83 28.4559 11.6775 27.3974 9.77209Z" fill="#E0E0DF"/>
<path d="M15.9999 0.862366C7.65483 0.862366 0.862305 7.65489 0.862305 16C0.862305 24.3451 7.65483 31.1376 15.9999 31.1376C24.345 31.1376 31.1376 24.3451 31.1376 16C31.1552 7.65489 24.345 0.862366 15.9999 0.862366ZM15.9999 30.4495C8.02533 30.4495 1.55038 23.9746 1.55038 16C1.55038 8.04304 8.02533 1.55044 15.9999 1.55044C23.9569 1.55044 30.4495 8.02539 30.4495 16C30.4495 23.9746 23.9745 30.4495 15.9999 30.4495Z" fill="#E0E0DF"/>
</svg>
