<svg width="26" height="20" viewBox="0 0 26 20" fill="none" xmlns="http://www.w3.org/2000/svg">
<path d="M22.6861 7.95341C22.4214 7.82991 22.0862 7.77698 21.6628 7.77698C19.4574 7.77698 17.9754 9.4707 17.9754 12.2936C17.9754 15.5222 19.475 16.8101 21.451 16.8101C21.8745 16.8101 22.3332 16.7572 22.6684 16.6161L22.6861 7.95341ZM14.835 12.4347C14.835 8.3592 17.4637 5.16583 21.7686 5.16583C22.1391 5.16583 22.3332 5.16583 22.6861 5.20112V0.649244C22.6861 0.543386 22.7743 0.472817 22.8625 0.472817H25.6853C25.8265 0.472817 25.8618 0.525742 25.8618 0.613957V16.6337C25.8618 17.1101 25.8618 17.7099 25.95 18.3451C25.95 18.4686 25.95 18.4862 25.8441 18.5392C24.3798 19.2449 22.8272 19.5624 21.3628 19.5624C17.552 19.5624 14.835 17.1983 14.835 12.4347ZM8.85401 9.5942L13.7587 19.1037C13.847 19.2449 13.794 19.386 13.6529 19.386H10.6007C10.4066 19.386 10.3184 19.3331 10.2302 19.1567C9.10101 16.8454 7.97187 14.446 6.78979 11.9583H6.75451C5.69593 14.3049 4.54914 16.8631 3.42 19.1743C3.33178 19.3154 3.24357 19.3684 3.10242 19.3684H0.22663C0.0502009 19.3684 0.0325581 19.2272 0.120773 19.1214L4.91964 9.89413L0.279558 0.702177C0.173701 0.561034 0.279559 0.437531 0.403059 0.437531H3.42C3.59643 0.437531 3.68464 0.472817 3.73757 0.631604C4.84907 2.96047 5.96057 5.25405 7.01915 7.60055H7.05444C8.07772 5.28933 9.18923 2.96047 10.2654 0.66689C10.3537 0.525747 10.4066 0.437531 10.583 0.437531H13.4059C13.547 0.437531 13.6 0.543391 13.5117 0.702177L8.85401 9.5942Z" fill="#C3488F"/>
</svg>
