<svg width="68" height="50" viewBox="0 0 68 50" fill="none" xmlns="http://www.w3.org/2000/svg">
<path d="M14.9154 19.3428H12.1606V25.4821H8.69736V8.69735H14.9351C16.9225 8.69735 18.4573 9.13025 19.5199 10.0157C20.5824 10.9012 21.1334 12.1409 21.1334 13.7544C21.1334 14.8957 20.8776 15.8599 20.3857 16.6273C19.8937 17.3947 19.146 18.0047 18.1228 18.4573L21.7631 25.3247V25.4821H18.0638L14.9154 19.3428ZM12.1606 16.5486H14.9547C15.8205 16.5486 16.4896 16.3321 16.9815 15.8796C17.4734 15.427 17.6899 14.8367 17.6899 14.0496C17.6899 13.2625 17.4734 12.6328 17.0209 12.1802C16.5683 11.7277 15.8599 11.5112 14.9351 11.5112H12.1606V16.5486Z" fill="black"/>
<path d="M23.0224 19.146C23.0224 17.9063 23.2586 16.8044 23.7308 15.8402C24.2031 14.876 24.8918 14.1283 25.7969 13.597C26.7021 13.0657 27.7253 12.8099 28.9059 12.8099C30.5982 12.8099 31.9559 13.3215 33.0185 14.3644C34.0811 15.4073 34.6714 16.7847 34.8091 18.5557L34.8288 19.4018C34.8288 21.3105 34.2975 22.8453 33.2349 24.0063C32.1724 25.1672 30.7359 25.7379 28.9256 25.7379C27.1153 25.7379 25.6985 25.1672 24.6163 24.0063C23.534 22.8453 23.0224 21.2711 23.0224 19.2837V19.146ZM26.3676 19.3821C26.3676 20.5628 26.584 21.4679 27.0366 22.0976C27.4892 22.7273 28.1188 23.0421 28.9453 23.0421C29.7521 23.0421 30.3817 22.7273 30.8343 22.1173C31.2869 21.5073 31.523 20.5037 31.523 19.146C31.523 17.985 31.2869 17.0799 30.8343 16.4502C30.3817 15.8205 29.7521 15.486 28.9256 15.486C28.1188 15.486 27.4892 15.8009 27.0366 16.4305C26.584 17.0602 26.3676 18.0441 26.3676 19.3821Z" fill="black"/>
<path d="M48.1503 19.3624C48.1503 21.3695 47.7174 22.924 46.8713 24.0456C46.0252 25.1673 44.8249 25.7182 43.29 25.7182C41.9323 25.7182 40.8501 25.2066 40.0433 24.1637L39.8859 25.4821H36.8949V7.77252H40.2204V14.1283C40.9878 13.2231 41.9913 12.7706 43.2507 12.7706C44.7658 12.7706 45.9662 13.3215 46.832 14.4431C47.6978 15.5647 48.1307 17.1389 48.1307 19.1657V19.3624H48.1503ZM44.8052 19.1263C44.8052 17.867 44.6084 16.9421 44.2149 16.3715C43.8213 15.8009 43.2113 15.5057 42.4242 15.5057C41.3617 15.5057 40.6336 15.9386 40.2401 16.8044V21.7237C40.6533 22.6092 41.3814 23.0421 42.4636 23.0421C43.5459 23.0421 44.2542 22.5108 44.5887 21.4482C44.7265 20.9366 44.8052 20.1692 44.8052 19.1263Z" fill="black"/>
<path d="M29.693 41.4797C27.863 41.4797 26.3676 40.9091 25.2263 39.7875C24.085 38.6659 23.4947 37.1704 23.4947 35.3011V34.9862C23.4947 33.7269 23.7308 32.6053 24.2227 31.6214C24.7147 30.6376 25.3837 29.8701 26.2889 29.3389C27.194 28.8076 28.1976 28.5321 29.3192 28.5321C31.0311 28.5321 32.3691 29.0634 33.353 30.1456C34.3369 31.2279 34.8288 32.743 34.8288 34.7304V36.0882H26.8792C26.9776 36.8949 27.3121 37.564 27.863 38.0559C28.414 38.5478 29.083 38.8036 29.9292 38.8036C31.2082 38.8036 32.2117 38.3314 32.9398 37.4065L34.573 39.2365C34.0811 39.9449 33.3924 40.4959 32.5462 40.8894C31.7001 41.283 30.7359 41.4797 29.693 41.4797ZM29.3192 31.2279C28.6501 31.2279 28.1188 31.4443 27.7056 31.8969C27.2924 32.3495 27.0366 32.9792 26.9185 33.8253H31.5624V33.5498C31.5427 32.8021 31.3459 32.2314 30.9721 31.8379C30.5982 31.4443 30.0275 31.2279 29.3192 31.2279Z" fill="black"/>
<path d="M40.2401 41.2436H36.8949V19.1263H40.2401V41.2436Z" fill="black"/>
<path d="M48.17 38.784C48.78 38.784 49.2916 38.6069 49.6655 38.2723C50.0394 37.9378 50.2558 37.4853 50.2558 36.9146H53.3845C53.3845 37.7607 53.1484 38.5282 52.6958 39.2365C52.2432 39.9449 51.6135 40.4762 50.8265 40.8697C50.0394 41.2633 49.1736 41.4601 48.2094 41.4601C46.4187 41.4601 45.0217 40.8894 43.9984 39.7678C42.9752 38.6462 42.4439 37.072 42.4439 35.0649V34.8485C42.4439 32.9201 42.9555 31.3853 43.9788 30.244C45.002 29.1027 46.3991 28.5321 48.1897 28.5321C49.7442 28.5321 51.0035 28.9847 51.9481 29.8701C52.8926 30.7556 53.3648 31.9363 53.3845 33.4121H50.2558C50.2361 32.7627 50.0394 32.2314 49.6655 31.8379C49.2916 31.4443 48.78 31.2279 48.1503 31.2279C47.3829 31.2279 46.7926 31.5034 46.3991 32.074C46.0055 32.6446 45.8087 33.5498 45.8087 34.8288V35.183C45.8087 36.462 46.0055 37.3869 46.3991 37.9575C46.7729 38.5085 47.3632 38.784 48.17 38.784Z" fill="black"/>
<path d="M58.7957 41.2436H55.4506V28.7682H58.7957V41.2436Z" fill="black"/>
<path d="M7.22157 0H2.79418H0V2.79418V7.22157H2.79418V2.79418H7.22157V0Z" fill="black"/>
<path d="M67.4144 7.22157V2.79418V0H64.6202H60.2125V2.79418H64.6202V7.22157H67.4144Z" fill="black"/>
<path d="M60.2125 49.8819H64.6202H67.4144V47.0878V42.6604H64.6202V47.0878H60.2125V49.8819Z" fill="black"/>
<path d="M0 42.7784V47.2058V50H2.79418H7.22157V47.2058H2.79418V42.7784H0Z" fill="black"/>
</svg>
