<svg width="175" height="150" viewBox="0 0 175 150" fill="none" xmlns="http://www.w3.org/2000/svg">
<g clip-path="url(#clip0)">
<path d="M135.653 41.5899L117.99 49.9653L150.183 57.4362L137.95 42.1161C137.397 41.4247 136.449 41.2072 135.653 41.5899Z" fill="#E0E0E0"/>
<path d="M145.55 76.1829L113.996 68.8598C113.787 68.812 113.661 68.6033 113.709 68.3989L117.955 50.1218C117.977 50.0348 118.064 49.9826 118.146 50L150.14 57.4231C150.227 57.4448 150.279 57.5318 150.262 57.6144L146.016 75.8915C145.963 76.1002 145.759 76.2307 145.55 76.1829Z" fill="#E0E0E0"/>
<path d="M148.095 57.4144L132.986 62.4935L119.695 51.4568L122.04 42.6205C122.28 41.6638 123.241 41.0767 124.198 41.2985L148.67 46.9778C149.64 47.2039 150.245 48.1736 150.018 49.1434L148.095 57.4144Z" fill="white"/>
<path d="M132.029 60.9975L113.944 67.303C113.761 68.0944 114.253 68.8902 115.049 69.0728L144.515 75.9088C145.307 76.0915 146.103 75.6001 146.285 74.8043L146.312 74.6956L133.665 61.3933C133.243 60.9497 132.603 60.7975 132.029 60.9975Z" fill="#E0E0E0"/>
<path d="M134.015 47.787L124.442 45.5669L124.215 46.5454L133.788 48.7655L134.015 47.787Z" fill="#E0E0E0"/>
<path d="M145.112 52.9692L123.868 48.0425L123.611 49.1481L144.855 54.0747L145.112 52.9692Z" fill="#F5F5F5"/>
<path d="M144.485 55.6696L123.241 50.7429L122.984 51.8485L144.228 56.7752L144.485 55.6696Z" fill="#F5F5F5"/>
<path d="M143.266 59.0451L142.374 59.3364L124.437 55.401L122.619 53.8616L122.653 53.5963L143.827 58.5102L143.745 58.8755L143.266 59.0451Z" fill="#F5F5F5"/>
<path d="M137.115 61.102L129.079 59.2408L127.156 57.6318L139.164 60.4149L137.115 61.102Z" fill="#F5F5F5"/>
<path d="M131.367 61.2281C131.372 61.2412 131.132 61.3412 130.693 61.5064C130.214 61.6804 129.584 61.9065 128.822 62.1805C127.239 62.7414 125.05 63.5024 122.627 64.3243C120.204 65.1505 118.003 65.8855 116.41 66.4073C115.64 66.6552 115.001 66.8595 114.518 67.0117C114.07 67.1509 113.817 67.2205 113.813 67.2031C113.809 67.19 114.048 67.09 114.487 66.9248C114.966 66.7508 115.597 66.5247 116.358 66.2507C117.942 65.6898 120.13 64.9288 122.553 64.1069C124.976 63.2806 127.173 62.5457 128.77 62.0239C129.54 61.776 130.18 61.5717 130.663 61.4151C131.115 61.2846 131.363 61.2151 131.367 61.2281Z" fill="#EBEBEB"/>
<path d="M146.311 74.6956C146.268 74.7391 143.536 71.9429 140.207 68.4554C136.884 64.9635 134.226 62.1021 134.269 62.0586C134.313 62.0151 137.045 64.8069 140.373 68.2988C143.701 71.7864 146.359 74.6521 146.311 74.6956Z" fill="#EBEBEB"/>
<path d="M148.818 57.1665C148.822 57.1795 148.626 57.2665 148.269 57.4144C147.913 57.5579 147.391 57.7622 146.747 58.0058C145.455 58.4928 143.667 59.1407 141.674 59.8235C139.681 60.5062 137.867 61.0889 136.549 61.4933C135.888 61.6934 135.353 61.8543 134.983 61.9586C134.613 62.063 134.404 62.1108 134.4 62.0978C134.396 62.0847 134.596 62.0021 134.957 61.876C135.361 61.7368 135.879 61.5586 136.501 61.3455C137.85 60.8889 139.629 60.2844 141.6 59.6147C143.566 58.9364 145.346 58.3232 146.69 57.8579C147.312 57.6492 147.83 57.4709 148.235 57.3361C148.609 57.21 148.813 57.1491 148.818 57.1665Z" fill="#EBEBEB"/>
<path d="M131.368 61.2281C131.359 61.2411 131.163 61.0889 130.824 60.8063C130.454 60.4975 129.967 60.0931 129.384 59.6061C128.131 58.5798 126.456 57.2056 124.607 55.6836C122.736 54.1573 121.057 52.7527 119.865 51.709C119.269 51.1872 118.795 50.7567 118.473 50.4523C118.151 50.1479 117.977 49.9739 117.986 49.9653C117.994 49.9522 118.19 50.1044 118.529 50.3871C118.899 50.6958 119.387 51.1002 119.969 51.5873C121.222 52.6135 122.897 53.9877 124.751 55.5097C126.621 57.036 128.301 58.4406 129.488 59.4843C130.084 60.0061 130.559 60.4366 130.881 60.741C131.207 61.0411 131.381 61.215 131.368 61.2281Z" fill="#EBEBEB"/>
<path d="M148.095 57.4144C148.091 57.4144 148.095 57.3709 148.112 57.2883C148.13 57.1926 148.156 57.0752 148.186 56.9273C148.256 56.5969 148.356 56.1359 148.487 55.5488C148.761 54.3399 149.148 52.6136 149.626 50.4914C149.687 50.2262 149.748 49.9522 149.814 49.6739C149.87 49.3956 149.961 49.1086 149.979 48.8303C150.014 48.265 149.735 47.6562 149.222 47.3213C148.97 47.143 148.669 47.0735 148.339 47.0039C148.012 46.93 147.686 46.856 147.351 46.7778C146.681 46.6256 145.994 46.4647 145.289 46.3038C142.466 45.6515 139.368 44.934 136.114 44.1817C132.86 43.425 129.762 42.7031 126.939 42.0422C126.234 41.8769 125.546 41.716 124.881 41.5595C124.55 41.4899 124.211 41.3812 123.906 41.3551C123.593 41.329 123.28 41.4029 123.01 41.5421C122.736 41.6812 122.514 41.8943 122.353 42.1422C122.188 42.39 122.131 42.677 122.049 42.9684C121.892 43.5468 121.744 44.099 121.601 44.6252C121.026 46.7256 120.561 48.4302 120.235 49.6261C120.074 50.2044 119.943 50.6567 119.852 50.9828C119.808 51.1263 119.773 51.2438 119.747 51.3351C119.721 51.4133 119.708 51.4525 119.704 51.4525C119.699 51.4525 119.708 51.409 119.726 51.3307C119.747 51.2394 119.773 51.122 119.808 50.9741C119.891 50.6436 120.004 50.187 120.148 49.6087C120.456 48.4085 120.9 46.6951 121.444 44.5904C121.583 44.0599 121.727 43.5076 121.879 42.9293C121.953 42.6466 122.018 42.3248 122.201 42.0508C122.375 41.7725 122.623 41.5377 122.923 41.3812C123.223 41.2246 123.571 41.142 123.919 41.1681C124.276 41.1985 124.589 41.3029 124.929 41.3725C125.599 41.5247 126.286 41.6856 126.991 41.8465C129.814 42.4988 132.912 43.2163 136.17 43.9686C139.425 44.7252 142.522 45.4471 145.341 46.1081C146.046 46.2733 146.733 46.4342 147.399 46.5908C147.734 46.669 148.06 46.7473 148.387 46.8212C148.704 46.8908 149.057 46.9734 149.331 47.1735C149.896 47.5518 150.205 48.2258 150.157 48.8477C150.131 49.1651 150.04 49.4391 149.983 49.7217C149.918 50.0001 149.853 50.274 149.787 50.5393C149.278 52.657 148.869 54.3747 148.578 55.5793C148.434 56.162 148.321 56.6186 148.239 56.9491C148.199 57.0926 148.169 57.21 148.143 57.3057C148.112 57.3752 148.099 57.4144 148.095 57.4144Z" fill="#E0E0E0"/>
<path d="M106.417 5.60158L136.545 0.000610352L141.043 20.352L109.759 25.6355L106.417 5.60158Z" fill="#EBEBEB"/>
<path d="M136.546 -2.23617e-05C136.551 0.00432622 136.533 0.0304177 136.494 0.0869493C136.446 0.152178 136.394 0.230453 136.324 0.321773C136.159 0.543551 135.937 0.839254 135.654 1.21758C135.05 2.00467 134.197 3.12226 133.148 4.49641C130.999 7.26646 128.05 11.0802 124.765 15.32L124.708 15.394L124.626 15.3505C124.443 15.2548 124.243 15.1461 124.043 15.0417C119.175 12.4543 114.772 10.1148 111.561 8.41014C109.982 7.55782 108.699 6.86639 107.789 6.375C107.359 6.13583 107.019 5.94884 106.771 5.81403C106.667 5.75315 106.58 5.70532 106.51 5.66183C106.454 5.62704 106.423 5.6053 106.423 5.6053C106.423 5.60095 106.458 5.614 106.519 5.64444C106.593 5.67923 106.684 5.72271 106.793 5.7749C107.05 5.90535 107.394 6.0793 107.833 6.30107C108.751 6.77507 110.043 7.44475 111.635 8.27098C114.855 9.96258 119.27 12.2804 124.147 14.846C124.347 14.9504 124.548 15.0548 124.73 15.1548L124.587 15.1852C127.889 10.9628 130.86 7.16644 133.022 4.40509C134.097 3.04833 134.967 1.94814 135.585 1.16975C135.881 0.804466 136.115 0.51311 136.289 0.30003C136.363 0.20871 136.424 0.139132 136.477 0.0782521C136.52 0.0217206 136.542 -0.00437094 136.546 -2.23617e-05Z" fill="#E0E0E0"/>
<path d="M109.759 25.6349C109.707 25.6001 111.643 22.53 114.088 18.7771C116.533 15.0243 118.551 12.0064 118.603 12.0412C118.656 12.076 116.72 15.1461 114.275 18.8989C111.834 22.6517 109.811 25.6653 109.759 25.6349Z" fill="#E0E0E0"/>
<path d="M141.043 20.3514C141.004 20.3992 138.185 18.2423 134.748 15.5375C131.311 12.8283 128.557 10.5932 128.592 10.5453C128.631 10.4975 131.45 12.6501 134.887 15.3636C138.329 18.064 141.082 20.3036 141.043 20.3514Z" fill="#E0E0E0"/>
<path d="M154.735 19.6733L174.716 24.5133L171.88 38.2027L151.28 32.8539L154.735 19.6733Z" fill="#F5F5F5"/>
<path d="M174.716 24.513C174.72 24.5217 174.642 24.5695 174.494 24.6565C174.324 24.7522 174.107 24.8739 173.841 25.0261C173.245 25.3523 172.419 25.8045 171.414 26.3568C169.326 27.4744 166.48 28.9964 163.317 30.6924L163.235 30.7358L163.178 30.6619C163.091 30.5532 163 30.4314 162.904 30.314C160.642 27.3961 158.597 24.7609 157.096 22.8214C156.374 21.8734 155.782 21.0994 155.356 20.5341C155.165 20.2775 155.012 20.0688 154.891 19.9035C154.786 19.76 154.734 19.6817 154.743 19.673C154.747 19.6687 154.812 19.7383 154.93 19.8731C155.06 20.0296 155.226 20.2297 155.426 20.4775C155.869 21.0298 156.478 21.7908 157.222 22.7214C158.736 24.6478 160.803 27.2744 163.083 30.1705C163.174 30.2879 163.27 30.4097 163.357 30.5184L163.213 30.488C166.389 28.8181 169.247 27.3135 171.344 26.2133C172.367 25.6871 173.202 25.261 173.807 24.9479C174.081 24.8131 174.307 24.7 174.481 24.613C174.629 24.5391 174.711 24.5043 174.716 24.513Z" fill="#E0E0E0"/>
<path d="M151.28 32.8535C151.245 32.8014 153.268 31.4403 155.791 29.8095C158.319 28.1832 160.394 26.9047 160.424 26.9569C160.459 27.009 158.436 28.3702 155.913 30.0009C153.39 31.6272 151.315 32.9057 151.28 32.8535Z" fill="#E0E0E0"/>
<path d="M171.88 38.2023C171.823 38.2327 170.674 36.1454 169.317 33.545C167.955 30.9445 166.898 28.8094 166.955 28.7833C167.011 28.7528 168.156 30.8402 169.517 33.4406C170.879 36.0411 171.936 38.1762 171.88 38.2023Z" fill="#E0E0E0"/>
<path d="M133.952 141.707C133.952 141.707 134.117 141.764 134.434 141.877C134.748 141.999 135.226 142.16 135.861 142.338C137.127 142.686 139.063 143.086 141.565 142.916C142.814 142.834 144.193 142.625 145.667 142.251C147.142 141.877 148.726 141.377 150.336 140.624C153.559 139.142 156.922 136.737 159.854 133.354C160.572 132.506 161.238 131.553 161.595 130.449C161.947 129.362 161.977 128.088 161.429 127.018C161.16 126.487 160.729 126.035 160.216 125.713C159.702 125.383 159.097 125.2 158.48 125.109C157.231 124.926 155.943 125.196 154.743 125.718C154.134 125.965 153.516 126.231 152.85 126.387C152.189 126.548 151.467 126.566 150.797 126.335C150.135 126.126 149.509 125.613 149.318 124.896C149.113 124.187 149.331 123.426 149.726 122.826C150.118 122.208 150.736 121.769 151.384 121.465C152.037 121.152 152.733 120.952 153.42 120.73C154.79 120.291 156.143 119.734 157.457 119.064C158.771 118.395 160.05 117.612 161.268 116.716C161.882 116.272 162.469 115.794 162.952 115.211C163.426 114.637 163.818 113.942 163.809 113.198C163.8 112.833 163.696 112.463 163.491 112.154C163.291 111.841 163 111.593 162.678 111.393C162.021 111.002 161.251 110.841 160.468 110.776C159.685 110.702 158.876 110.68 158.088 110.454C157.301 110.241 156.544 109.702 156.244 108.889C156.1 108.48 156.152 107.993 156.4 107.632C156.644 107.267 157 107.023 157.335 106.801C158.014 106.358 158.684 105.892 159.332 105.397C160.633 104.405 161.864 103.305 163.013 102.109C164.144 100.905 165.293 99.6521 166.002 98.1388C166.345 97.3865 166.572 96.5603 166.511 95.7341C166.472 94.9035 166.119 94.1121 165.567 93.4902C164.449 92.2465 162.66 91.6682 161.038 92.003C159.398 92.2987 157.949 93.2641 156.813 94.4469C154.521 96.8604 153.39 100.044 151.51 102.683C151.04 103.344 150.527 103.975 149.948 104.54C149.657 104.818 149.361 105.105 148.991 105.301C148.634 105.501 148.139 105.588 147.747 105.344C147.364 105.11 147.173 104.688 147.094 104.292C147.012 103.883 147.06 103.475 147.086 103.088C147.116 102.701 147.142 102.313 147.042 101.957C146.951 101.6 146.759 101.27 146.494 101.009C145.968 100.483 145.215 100.2 144.475 100.213C143.736 100.231 143.031 100.583 142.483 101.07C141.93 101.561 141.508 102.192 141.221 102.866C140.934 103.544 140.777 104.27 140.686 105.001C140.595 105.731 140.564 106.462 140.543 107.193C140.516 107.923 140.495 108.649 140.469 109.371C140.421 110.815 140.373 112.237 140.329 113.642C140.303 114.346 140.29 115.037 140.255 115.733C140.208 116.425 140.121 117.125 139.864 117.777C139.62 118.425 139.12 119.021 138.441 119.243C137.767 119.477 137.049 119.347 136.427 119.112C135.183 118.603 134.139 117.751 133.321 116.764C132.912 116.268 132.568 115.729 132.285 115.164C132.003 114.603 131.759 114.037 131.428 113.533C131.102 113.033 130.663 112.602 130.11 112.424C129.562 112.233 128.957 112.324 128.435 112.541C127.913 112.772 127.448 113.128 127.113 113.572C126.765 114.011 126.56 114.542 126.434 115.077C126.195 116.159 126.238 117.264 126.147 118.325C126.073 119.386 126.038 120.421 126.025 121.43C126.003 123.443 126.134 125.348 126.369 127.105C126.608 128.866 126.952 130.488 127.421 131.936C127.622 132.671 127.922 133.336 128.157 133.989C128.292 134.306 128.444 134.61 128.579 134.91C128.722 135.206 128.844 135.506 129.005 135.771C130.197 137.972 131.485 139.459 132.442 140.364C132.664 140.607 132.894 140.785 133.086 140.951C133.277 141.112 133.434 141.246 133.564 141.359C133.825 141.59 133.952 141.707 133.952 141.707C133.952 141.707 133.812 141.603 133.551 141.39C133.421 141.281 133.255 141.146 133.064 140.99C132.873 140.829 132.638 140.655 132.411 140.411C131.446 139.516 130.136 138.033 128.931 135.828C128.766 135.558 128.64 135.263 128.496 134.963C128.357 134.663 128.205 134.358 128.065 134.036C127.826 133.384 127.522 132.714 127.317 131.975C126.838 130.523 126.486 128.896 126.242 127.131C125.999 125.365 125.864 123.456 125.881 121.439C125.894 120.43 125.925 119.39 125.994 118.325C126.081 117.268 126.029 116.164 126.277 115.05C126.408 114.498 126.621 113.946 126.982 113.481C127.339 113.011 127.822 112.637 128.37 112.393C128.918 112.163 129.566 112.063 130.167 112.267C130.767 112.459 131.241 112.924 131.581 113.442C131.924 113.963 132.168 114.533 132.451 115.09C132.729 115.642 133.064 116.168 133.469 116.655C134.265 117.62 135.3 118.455 136.501 118.942C137.097 119.169 137.776 119.282 138.385 119.069C138.998 118.864 139.455 118.329 139.69 117.712C140.168 116.459 140.064 115.037 140.138 113.642C140.181 112.237 140.229 110.815 140.273 109.371C140.295 108.649 140.321 107.923 140.342 107.193C140.369 106.462 140.395 105.723 140.486 104.979C140.577 104.24 140.738 103.496 141.034 102.787C141.33 102.087 141.769 101.431 142.352 100.913C142.931 100.4 143.675 100.022 144.484 100C145.28 99.987 146.085 100.287 146.659 100.857C146.946 101.139 147.164 101.505 147.264 101.905C147.373 102.305 147.342 102.714 147.316 103.105C147.29 103.496 147.247 103.883 147.321 104.249C147.39 104.614 147.569 104.975 147.869 105.157C148.173 105.349 148.569 105.288 148.896 105.105C149.231 104.931 149.518 104.657 149.805 104.383C150.37 103.827 150.875 103.214 151.336 102.557C152.263 101.248 153.015 99.8043 153.82 98.3737C154.625 96.9473 155.495 95.5123 156.661 94.2903C157.818 93.0858 159.302 92.09 161.007 91.7812C162.7 91.4377 164.57 92.0334 165.749 93.3424C166.332 93.9946 166.711 94.847 166.75 95.721C166.811 96.5951 166.576 97.4605 166.219 98.2345C165.488 99.7956 164.322 101.052 163.187 102.266C162.03 103.47 160.79 104.579 159.48 105.575C158.828 106.075 158.153 106.545 157.47 106.988C157.135 107.21 156.805 107.44 156.596 107.758C156.383 108.071 156.344 108.467 156.465 108.819C156.731 109.532 157.422 110.05 158.162 110.245C158.915 110.463 159.711 110.484 160.503 110.563C161.29 110.628 162.108 110.798 162.804 111.215C163.148 111.424 163.465 111.698 163.687 112.046C163.913 112.389 164.027 112.798 164.035 113.202C164.044 114.029 163.618 114.763 163.126 115.359C162.63 115.964 162.017 116.451 161.408 116.899C160.181 117.803 158.893 118.59 157.566 119.264C156.239 119.938 154.877 120.495 153.494 120.934C152.807 121.156 152.119 121.352 151.484 121.656C150.853 121.956 150.275 122.369 149.905 122.948C149.531 123.508 149.335 124.217 149.518 124.852C149.687 125.496 150.249 125.965 150.871 126.161C151.497 126.374 152.18 126.365 152.815 126.209C153.459 126.057 154.068 125.796 154.677 125.552C155.887 125.026 157.227 124.743 158.51 124.939C159.145 125.035 159.776 125.222 160.316 125.57C160.855 125.909 161.307 126.387 161.59 126.948C162.165 128.079 162.121 129.392 161.76 130.514C161.386 131.649 160.707 132.614 159.981 133.471C157.027 136.867 153.642 139.272 150.396 140.755C148.774 141.507 147.181 142.003 145.702 142.373C144.219 142.738 142.831 142.947 141.578 143.021C139.063 143.177 137.119 142.76 135.857 142.394C135.222 142.207 134.748 142.038 134.434 141.912C134.113 141.777 133.952 141.707 133.952 141.707Z" fill="#263238"/>
<path d="M136.383 136.402C137.819 132.11 139.781 127.535 142 122.817C142.557 121.639 143.109 120.477 143.653 119.334C144.197 118.19 144.741 117.059 145.337 115.981C146.524 113.824 147.829 111.841 149.126 109.997C150.422 108.154 151.723 106.449 152.95 104.866C154.181 103.283 155.356 101.831 156.483 100.552C158.727 97.9866 160.781 96.1341 162.243 94.9209C162.974 94.3121 163.552 93.8555 163.952 93.5554C164.144 93.4119 164.296 93.2988 164.409 93.2162C164.514 93.1423 164.566 93.1032 164.57 93.1075C164.575 93.1119 164.522 93.1553 164.427 93.238C164.318 93.3293 164.174 93.4467 163.987 93.5989C163.6 93.9163 163.03 94.3816 162.312 95.0035C160.872 96.2385 158.849 98.1084 156.626 100.683C155.512 101.966 154.346 103.422 153.128 105.005C151.91 106.592 150.622 108.301 149.33 110.145C148.043 111.989 146.746 113.968 145.567 116.112C144.976 117.181 144.44 118.308 143.892 119.451C143.348 120.595 142.796 121.76 142.239 122.934C140.025 127.644 138.058 132.206 136.614 136.485" fill="#263238"/>
<path d="M145.415 115.972C145.398 115.972 145.359 115.755 145.298 115.359C145.237 114.963 145.172 114.385 145.098 113.668C144.95 112.237 144.815 110.254 144.676 108.071C144.536 105.884 144.371 103.909 144.201 102.487C144.119 101.774 144.049 101.2 143.993 100.8C143.94 100.4 143.919 100.178 143.936 100.178C143.953 100.174 144.01 100.391 144.093 100.783C144.18 101.174 144.28 101.748 144.384 102.461C144.602 103.883 144.793 105.862 144.937 108.054C145.072 110.21 145.193 112.163 145.285 113.655C145.333 114.329 145.372 114.894 145.402 115.35C145.428 115.751 145.433 115.972 145.415 115.972Z" fill="#263238"/>
<path d="M163.922 113.255C163.922 113.272 163.661 113.294 163.187 113.315C162.713 113.337 162.03 113.368 161.186 113.433C159.498 113.55 157.166 113.794 154.608 114.172C152.341 114.511 150.135 114.916 148.095 115.372C147.264 115.551 146.598 115.716 146.137 115.825C145.676 115.938 145.419 115.99 145.415 115.972C145.411 115.955 145.659 115.868 146.111 115.725C146.564 115.585 147.225 115.394 148.051 115.19C149.7 114.772 152.002 114.294 154.569 113.907C157.135 113.524 159.476 113.311 161.173 113.246C162.021 113.207 162.708 113.202 163.182 113.211C163.661 113.22 163.922 113.233 163.922 113.255Z" fill="#263238"/>
<path d="M136.623 136.072C136.614 136.076 136.575 135.998 136.505 135.841C136.427 135.658 136.331 135.437 136.218 135.163C135.97 134.576 135.635 133.715 135.231 132.645C134.426 130.505 133.408 127.518 132.329 124.204C131.25 120.891 130.258 117.894 129.501 115.746C129.127 114.698 128.822 113.842 128.596 113.198C128.5 112.92 128.418 112.694 128.353 112.502C128.3 112.341 128.274 112.259 128.283 112.254C128.292 112.25 128.331 112.328 128.4 112.485C128.479 112.667 128.574 112.889 128.687 113.159C128.935 113.746 129.27 114.607 129.675 115.677C130.48 117.816 131.498 120.804 132.577 124.117C133.656 127.431 135.078 130.905 135.84 133.058C136.214 134.102 136.088 134.484 136.314 135.124C136.41 135.402 136.492 135.632 136.558 135.819C136.605 135.985 136.632 136.067 136.623 136.072Z" fill="#263238"/>
<path d="M161.342 129.153C161.342 129.162 161.259 129.192 161.094 129.244C160.903 129.301 160.663 129.37 160.376 129.453C159.715 129.64 158.819 129.892 157.731 130.197C155.495 130.827 152.419 131.732 149.021 132.736C145.841 133.68 142.883 134.532 140.286 135.206C139.163 135.498 138.25 135.728 137.614 135.872C137.323 135.937 137.079 135.989 136.884 136.032C136.714 136.067 136.627 136.08 136.623 136.072C136.623 136.063 136.705 136.032 136.871 135.98C137.062 135.924 137.301 135.854 137.588 135.771C138.25 135.584 139.146 135.332 140.233 135.028C142.47 134.397 145.545 133.493 148.948 132.484C152.345 131.479 155.434 130.601 157.683 130.014C158.806 129.723 159.719 129.492 160.355 129.349C160.646 129.283 160.89 129.231 161.085 129.188C161.251 129.157 161.338 129.144 161.342 129.153Z" fill="#263238"/>
<path d="M89.5681 35.928C89.5681 35.928 89.3157 34.7191 88.8937 31.2228L85.0479 23.6867C85.0479 23.6867 85.905 22.1082 87.8844 25.4479C88.785 26.9699 91.8129 26.3307 91.3126 23.9433C90.808 21.5559 87.7104 20.4818 85.8049 22.8301C85.8049 22.8301 84.5737 22.9518 84.4301 21.9951C84.2866 21.0341 87.0665 18.6598 89.4332 19.3512C90.9689 19.7991 92.0522 20.8254 92.0522 20.8254C92.0522 20.8254 91.5389 12.9066 92.1784 12.837C92.8179 12.7674 93.7184 13.2501 94.2057 21.9386C94.2057 21.9386 94.4711 15.0809 94.606 14.2068C94.7365 13.3589 95.9242 12.737 96.0677 14.9374C96.0851 15.1809 96.5158 21.9169 96.5158 21.9169C96.5158 21.9169 97.2859 17.4639 97.3685 17.1073C97.5904 16.168 98.517 16.2637 98.6041 17.5117C98.6693 18.4554 98.9738 22.4822 98.9738 22.4822L99.5525 34.9017L99.6308 34.893" fill="#FFBE9D"/>
<path d="M101.871 31.8577L87.4275 31.488L85.9875 66.4202L69.6601 59.2146L69.634 59.2755C68.6507 58.8363 67.7937 58.4492 67.3369 58.197C58.3096 53.2744 52.3842 52.6787 42.7 56.1358L24.1365 63.5632C20.5473 65.2548 11.1937 66.8159 7.98743 81.5967L7.56543 83.3623L22.3963 94.0119L32.5808 120.838L44.7796 147.7L72.8185 146.791L87.471 128.544L75.0373 104.805L67.3108 78.2222C72.7707 81.8446 82.903 86.7716 95.0365 84.2015C108.179 81.4011 101.871 31.8577 101.871 31.8577Z" fill="#F21833"/>
<g opacity="0.3">
<g opacity="0.3">
<path opacity="0.3" d="M32.4849 120.582C34.8863 122.043 36.9267 122.869 39.6197 123.678C40.9857 124.087 42.5476 124.387 43.7613 123.639C44.9751 122.891 45.1622 120.677 43.8092 120.234C47.729 119.351 51.6531 118.464 55.5729 117.581C53.9763 112.989 56.6084 107.745 60.5891 104.953C64.5698 102.157 69.0943 101.365 73.9407 100.944L79.8096 119.142L60.1932 145.886L44.1311 146.351L32.4849 120.582Z" fill="black"/>
</g>
</g>
<path d="M26.3289 95.4427C26.3289 95.4427 18.9722 111.524 20.6559 119.551C21.5956 124.039 36.2872 127.87 45.6495 129.014L42.8434 144.721C42.8434 144.721 8.0525 141.412 1.53546 127.64C-2.16247 119.825 1.58331 100.678 8.62676 79.0225L26.3289 95.4427Z" fill="#F21833"/>
<path d="M59.8364 114.285C59.8408 114.294 59.7538 114.337 59.5885 114.42C59.397 114.507 59.1534 114.62 58.8532 114.763C58.2137 115.059 57.2784 115.464 56.1168 115.946C53.7936 116.916 50.5394 118.155 46.8807 119.329C43.2176 120.504 39.8503 121.382 37.3966 121.947C36.1697 122.23 35.1735 122.443 34.4818 122.573C34.1555 122.634 33.8901 122.682 33.6856 122.721C33.5029 122.752 33.4072 122.765 33.4028 122.756C33.4028 122.747 33.4942 122.721 33.6726 122.673C33.877 122.626 34.1381 122.56 34.46 122.482C35.1474 122.326 36.1349 122.086 37.3574 121.786C39.7981 121.182 43.1523 120.277 46.8067 119.108C50.4611 117.933 53.7153 116.72 56.0515 115.79C57.2218 115.324 58.1615 114.942 58.8141 114.672C59.123 114.546 59.3709 114.446 59.5667 114.368C59.7407 114.307 59.8321 114.276 59.8364 114.285Z" fill="white"/>
<path d="M69.5253 58.7188C69.547 58.7797 55.8342 63.7458 38.9021 69.8164C21.9613 75.887 8.21807 80.7618 8.19631 80.7009C8.17456 80.64 21.8873 75.674 38.8238 69.6033C55.7559 63.5327 69.5035 58.6579 69.5253 58.7188Z" fill="white"/>
<path d="M22.7531 103.579C22.7487 103.579 22.7618 103.544 22.7835 103.483C22.814 103.409 22.8531 103.322 22.8966 103.209C23.0054 102.953 23.1577 102.609 23.3447 102.17C23.7276 101.265 24.2714 99.9478 24.8239 98.2823C25.3634 96.6168 25.9115 94.586 26.1595 92.2813C26.4162 89.9852 26.3205 87.3978 25.62 84.8191C24.9109 82.2491 23.6319 79.9661 21.9917 78.3353C20.3559 76.7003 18.4591 75.7045 16.7929 75.2C15.1136 74.7043 13.6692 74.6695 12.6991 74.7652C12.4598 74.7956 12.2423 74.8217 12.0509 74.8434C11.8638 74.8695 11.7072 74.9087 11.581 74.9348C11.4635 74.9565 11.3722 74.9739 11.2895 74.9869C11.2243 75 11.1895 75 11.1895 75C11.1895 74.9956 11.2199 74.9869 11.2852 74.9652C11.3635 74.9435 11.4548 74.9174 11.5723 74.8869C11.6985 74.8565 11.8551 74.8086 12.0378 74.7739C12.2292 74.7434 12.4467 74.7086 12.686 74.6738C13.6649 74.5477 15.1267 74.5608 16.8364 75.0435C18.5331 75.5349 20.4691 76.5263 22.1396 78.1831C23.8146 79.8313 25.1197 82.1491 25.8376 84.7539C26.5467 87.363 26.6381 89.9809 26.364 92.2986C26.1029 94.6208 25.5374 96.6603 24.9718 98.3258C24.3976 99.9913 23.832 101.305 23.423 102.196C23.2142 102.644 23.0533 102.987 22.9358 103.218C22.8836 103.322 22.8357 103.409 22.8009 103.479C22.7748 103.553 22.7574 103.583 22.7531 103.579Z" fill="#263238"/>
<path d="M57.7093 55.0965C57.7137 55.0878 57.8007 55.127 57.9573 55.2052C58.1183 55.2835 58.3489 55.4096 58.6317 55.601C59.2016 55.9706 59.9716 56.6098 60.7286 57.5665C61.4899 58.5189 62.2165 59.793 62.7907 61.2976C63.3781 62.7979 63.8262 64.5069 64.3047 66.2854C65.2488 69.8426 66.0971 73.0605 66.7236 75.4262C67.0194 76.5785 67.2587 77.5178 67.4327 78.2049C67.5067 78.5137 67.5676 78.7659 67.6154 78.9616C67.6546 79.1355 67.672 79.2268 67.6633 79.2312C67.6546 79.2312 67.6241 79.1442 67.5719 78.9746C67.5154 78.7789 67.4414 78.5354 67.3501 78.2266C67.1586 77.5483 66.8933 76.6133 66.5713 75.4696C65.9274 73.1084 65.053 69.8991 64.0872 66.3463C63.6086 64.5634 63.1692 62.8631 62.5993 61.3759C62.0381 59.8843 61.342 58.6232 60.6068 57.6709C59.8759 56.7186 59.132 56.0706 58.5838 55.6792C58.0356 55.2792 57.6963 55.1139 57.7093 55.0965Z" fill="#263238"/>
<path d="M81.7675 64.4459C81.7675 64.4459 81.7023 64.4807 81.5761 64.5372C81.4369 64.5981 81.2455 64.6807 81.0018 64.7851C80.4841 65.0025 79.7359 65.32 78.7787 65.7244C76.8471 66.5376 74.0411 67.6987 70.5694 69.1119C63.626 71.9429 53.994 75.7653 43.2874 79.8051C32.5765 83.8406 22.8183 87.3325 15.7357 89.7895C12.1944 91.0201 9.32308 91.9985 7.3349 92.6639C6.34734 92.99 5.5773 93.2466 5.04219 93.4249C4.78551 93.5075 4.58974 93.5727 4.44617 93.6162C4.31131 93.6597 4.2417 93.6727 4.2417 93.6727C4.2417 93.6727 4.30696 93.6423 4.44182 93.5945C4.58539 93.5423 4.78116 93.4727 5.03349 93.3814C5.56425 93.1944 6.32994 92.9248 7.3088 92.5812C9.29697 91.8811 12.1553 90.8766 15.6879 89.6373C22.7574 87.1412 32.5025 83.6275 43.2134 79.592C53.9157 75.5522 63.5564 71.7559 70.5128 68.9641C73.9845 67.5639 76.7949 66.4289 78.7483 65.6418C79.7141 65.2548 80.4667 64.9504 80.9888 64.7416C81.2368 64.6416 81.4325 64.5677 81.5718 64.5112C81.6979 64.4677 81.7675 64.4459 81.7675 64.4459Z" fill="white"/>
<path d="M69.0294 81.7925C69.0294 81.7969 68.9729 81.823 68.8641 81.8708C68.7423 81.923 68.577 81.9925 68.3682 82.0839C67.9201 82.2709 67.2762 82.5361 66.4496 82.8797C64.7834 83.5711 62.3645 84.5408 59.3626 85.7193C53.3633 88.0762 45.0191 91.1985 35.709 94.3816C26.3946 97.5605 17.885 100.196 11.6986 102.009C8.60541 102.914 6.09518 103.627 4.35498 104.101C3.49358 104.336 2.81925 104.518 2.35375 104.644C2.13187 104.701 1.95785 104.749 1.83169 104.779C1.71423 104.81 1.65332 104.823 1.65332 104.818C1.65332 104.814 1.70988 104.792 1.82734 104.757C1.9535 104.718 2.12317 104.666 2.34505 104.601C2.81055 104.462 3.48053 104.266 4.33758 104.018C6.06907 103.518 8.57061 102.783 11.6595 101.857C17.8328 100.009 26.3337 97.3474 35.6437 94.1686C44.9494 90.9854 53.298 87.8849 59.3104 85.5714C62.3166 84.4147 64.7485 83.4667 66.4235 82.8014C67.2544 82.4752 67.9027 82.223 68.3551 82.0447C68.5683 81.9621 68.738 81.9012 68.8598 81.8534C68.9685 81.8056 69.0294 81.7882 69.0294 81.7925Z" fill="white"/>
<path d="M103.041 66.7376C103.046 66.7419 102.959 66.8202 102.785 66.955C102.593 67.1029 102.341 67.2986 102.023 67.5464C101.693 67.803 101.284 68.1117 100.801 68.4553C100.318 68.7988 99.7742 69.2032 99.152 69.6163C97.9208 70.4643 96.4199 71.4254 94.7189 72.4386C93.0135 73.4388 91.1036 74.4824 89.0545 75.4913C87.0011 76.4871 85.0042 77.3525 83.164 78.083C81.3193 78.8006 79.6401 79.3963 78.2131 79.8442C77.504 80.0834 76.8514 80.2617 76.2815 80.4313C75.7116 80.6009 75.2199 80.7357 74.8154 80.8357C74.4282 80.9357 74.1149 81.014 73.8843 81.0705C73.6712 81.1227 73.5581 81.1444 73.5537 81.1401C73.5537 81.1314 73.6625 81.0923 73.8713 81.027C74.1019 80.9575 74.4108 80.8661 74.7936 80.7487C75.1938 80.6313 75.6855 80.4878 76.251 80.3052C76.8166 80.1269 77.4648 79.9355 78.1696 79.6877C79.5878 79.2224 81.2584 78.6136 83.09 77.883C84.9172 77.1437 86.9097 76.2784 88.9588 75.2825C91.0035 74.278 92.9091 73.2431 94.6145 72.2559C96.3155 71.2558 97.8208 70.3121 99.0607 69.4815C99.6871 69.0771 100.235 68.6857 100.727 68.3509C101.219 68.0204 101.632 67.7204 101.971 67.4768C102.297 67.2464 102.558 67.0594 102.754 66.9202C102.941 66.7941 103.037 66.7289 103.041 66.7376Z" fill="white"/>
<path d="M103.72 55.1356C103.742 55.1921 99.7481 56.7967 94.8016 58.7188C89.8507 60.6409 85.8221 62.1498 85.8004 62.0933C85.7786 62.0368 89.7724 60.4322 94.7189 58.5101C99.6654 56.588 103.694 55.079 103.72 55.1356Z" fill="white"/>
<path d="M102.841 44.3164C102.859 44.3773 99.3523 45.4209 95.0105 46.6516C90.6643 47.8822 87.1317 48.8302 87.1143 48.7693C87.0969 48.7084 90.6034 47.6648 94.9496 46.4341C99.2914 45.2035 102.824 44.2555 102.841 44.3164Z" fill="white"/>
<path d="M102.076 33.7319C102.089 33.7927 98.6954 34.5885 94.5015 35.5104C90.3033 36.4323 86.8925 37.1325 86.8794 37.0672C86.8664 37.0063 90.2554 36.2106 94.4536 35.2887C98.6475 34.3668 102.058 33.671 102.076 33.7319Z" fill="white"/>
<path d="M71.7701 93.764C71.7918 93.8206 62.112 97.6908 50.1525 102.405C38.1886 107.114 28.4739 110.889 28.4522 110.828C28.4304 110.771 38.1059 106.901 50.0698 102.187C62.0293 97.4777 71.7483 93.7032 71.7701 93.764Z" fill="white"/>
<path d="M20.5909 112.907C20.5952 112.915 20.5256 112.946 20.3907 113.002C20.2341 113.067 20.0383 113.146 19.8078 113.241C19.2988 113.446 18.5592 113.724 17.6412 114.063C15.8053 114.742 13.2516 115.633 10.4063 116.538C7.56112 117.442 4.95952 118.194 3.07141 118.703C2.12735 118.96 1.36166 119.155 0.82655 119.286C0.582922 119.342 0.378449 119.39 0.21313 119.429C0.0739144 119.46 -0.00439453 119.473 -0.00439453 119.464C-0.00439453 119.455 0.0652134 119.429 0.200079 119.386C0.361047 119.338 0.56117 119.273 0.800447 119.203C1.35731 119.038 2.10995 118.821 3.02355 118.551C4.89861 118.003 7.48716 117.229 10.3324 116.325C13.1733 115.42 15.7313 114.55 17.5803 113.911C18.4809 113.602 19.2204 113.346 19.7686 113.154C20.0079 113.076 20.2037 113.011 20.369 112.954C20.5169 112.92 20.5909 112.902 20.5909 112.907Z" fill="white"/>
<path d="M25.7549 123.926C25.7766 123.982 21.0868 125.944 15.2789 128.3C9.46664 130.657 4.742 132.523 4.7159 132.466C4.69414 132.41 9.38398 130.449 15.1919 128.092C21.0041 125.735 25.7331 123.869 25.7549 123.926Z" fill="white"/>
<path d="M34.295 126.974C34.3429 127.013 31.7108 130.131 28.4219 133.932C25.1285 137.733 22.4225 140.781 22.3747 140.742C22.3268 140.703 24.9589 137.585 28.2478 133.784C31.5412 129.983 34.2472 126.935 34.295 126.974Z" fill="white"/>
<path d="M43.0263 129.192C43.0872 129.214 42.0301 132.527 40.6684 136.593C39.3067 140.664 38.1538 143.947 38.0972 143.925C38.0363 143.903 39.0935 140.59 40.4552 136.519C41.8169 132.453 42.9654 129.17 43.0263 129.192Z" fill="white"/>
<path d="M100.1 80.2574C100.122 80.314 97.6207 81.3489 94.5101 82.5665C91.3995 83.7841 88.8632 84.7234 88.8371 84.6625C88.8153 84.606 91.3168 83.5711 94.4274 82.3534C97.538 81.1402 100.079 80.2009 100.1 80.2574Z" fill="white"/>
<g opacity="0.3">
<g opacity="0.3">
<path opacity="0.3" d="M62.9736 62.0934C67.0109 73.0214 74.2719 79.1311 84.5608 84.606C84.5608 84.606 75.7423 83.9928 67.6026 78.3919" fill="black"/>
</g>
</g>
<path d="M59.3149 149.252H136.81V116.159C136.81 109.958 131.781 104.936 125.582 104.936H70.5436C64.3398 104.936 59.3149 109.963 59.3149 116.159V149.252Z" fill="#455A64"/>
<path d="M85.6398 149.252H59.8936C59.5716 149.252 59.3149 148.991 59.3149 148.674V114.976C59.3149 109.432 63.8134 104.936 69.3602 104.936H81.6721C84.1824 104.936 86.2228 106.971 86.2228 109.484V148.678C86.2228 148.991 85.9617 149.252 85.6398 149.252Z" fill="#455A64"/>
<path d="M65.0315 149.252V116.107C65.0315 109.936 70.0389 104.931 76.2123 104.931H68.2378C68.2378 104.931 58.8799 106.175 58.8799 117.881C58.8799 129.588 59.1801 149.252 59.1801 149.252H65.0315Z" fill="#263238"/>
<path d="M86.2184 146.104H21.2002V149.791H86.2184V146.104Z" fill="#263238"/>
<path d="M139.342 146.104H86.2227V149.791H139.342V146.104Z" fill="#455A64"/>
<path d="M86.2227 147.947C86.2184 147.947 86.214 147.904 86.214 147.817C86.2097 147.717 86.2097 147.591 86.2053 147.43C86.201 147.073 86.201 146.573 86.1966 145.938C86.1966 144.625 86.1966 142.755 86.201 140.45C86.2271 135.806 86.2575 129.414 86.2967 122.352C86.3141 120.586 86.3533 118.86 86.2488 117.203C86.1401 115.55 85.9008 113.955 85.4136 112.511C84.9437 111.063 84.2172 109.789 83.3384 108.767C82.4465 107.753 81.4285 106.984 80.4235 106.423C78.4005 105.305 76.4863 105.036 75.2073 105.027C74.8853 105.014 74.5982 105.031 74.3502 105.049C74.1023 105.057 73.8934 105.079 73.7238 105.11C73.5671 105.131 73.4366 105.149 73.3409 105.162C73.2539 105.17 73.2104 105.175 73.2061 105.17C73.2061 105.166 73.2496 105.157 73.3366 105.14C73.4366 105.123 73.5628 105.096 73.7194 105.066C73.8891 105.031 74.0979 105.001 74.3459 104.983C74.5939 104.957 74.881 104.931 75.2073 104.94C76.495 104.923 78.4354 105.17 80.4975 106.284C81.5199 106.84 82.5596 107.614 83.4776 108.641C84.3781 109.676 85.1264 110.976 85.6093 112.441C86.1096 113.902 86.3533 115.516 86.4664 117.181C86.5751 118.851 86.5403 120.582 86.5229 122.347C86.4577 129.405 86.4011 135.797 86.362 140.442C86.3315 142.747 86.3054 144.616 86.288 145.925C86.2749 146.56 86.2619 147.06 86.2575 147.417C86.2532 147.578 86.2488 147.704 86.2445 147.804C86.2271 147.904 86.2227 147.947 86.2227 147.947Z" fill="#263238"/>
<path d="M138.977 146.012C138.977 146.073 126.878 146.147 111.952 146.169C97.0206 146.195 84.9263 146.164 84.9263 146.099C84.9263 146.038 97.025 145.964 111.952 145.938C126.874 145.921 138.977 145.947 138.977 146.012Z" fill="#263238"/>
<path d="M138.977 149.939C138.977 150 126.965 150.022 112.147 149.978C97.3252 149.939 85.3179 149.856 85.3179 149.791C85.3179 149.73 97.3296 149.709 112.147 149.752C126.961 149.791 138.977 149.874 138.977 149.939Z" fill="#263238"/>
<path d="M131.981 141.894C131.977 141.89 131.977 141.838 131.973 141.738C131.973 141.625 131.968 141.477 131.964 141.285C131.96 140.877 131.955 140.294 131.947 139.533C131.938 138.002 131.925 135.78 131.907 132.975L131.977 133.045C124.107 133.054 111.451 133.071 97.1991 133.088C97.247 133.036 97.086 133.201 97.3123 132.975V132.98V132.984V132.993V133.01V133.045V133.114V133.258V133.545V134.115C97.3123 134.493 97.3123 134.876 97.3123 135.25C97.3123 136.006 97.3123 136.754 97.3123 137.498C97.3123 138.985 97.3123 140.455 97.3123 141.894L97.2035 141.786C107.114 141.807 115.793 141.825 122.001 141.838C125.108 141.851 127.592 141.864 129.315 141.868C130.167 141.873 130.828 141.881 131.29 141.881C131.507 141.886 131.681 141.886 131.803 141.89C131.92 141.89 131.981 141.894 131.981 141.894C131.986 141.899 131.929 141.899 131.816 141.903C131.694 141.903 131.529 141.907 131.316 141.912C130.863 141.916 130.206 141.92 129.367 141.925C127.653 141.933 125.173 141.942 122.08 141.955C115.85 141.968 107.144 141.986 97.2035 142.007H97.0947V141.894C97.0947 140.455 97.0947 138.989 97.0947 137.498C97.0947 136.754 97.0947 136.002 97.0947 135.25C97.0947 134.871 97.0947 134.493 97.0947 134.115V133.545V133.258V133.114V133.045V133.01V132.993V132.984V132.98V132.975C97.321 132.749 97.16 132.914 97.2122 132.862C111.464 132.88 124.12 132.897 131.99 132.906H132.06V132.975C132.042 135.802 132.029 138.037 132.021 139.576C132.012 140.329 132.007 140.911 132.003 141.312C131.999 141.499 131.999 141.646 131.994 141.755C131.986 141.846 131.986 141.894 131.981 141.894Z" fill="#263238"/>
<path d="M112.343 135.267V139.233H111.943V136.059L110.385 138.729H110.185L108.628 136.076V139.233H108.223V135.267H108.567L110.29 138.207L111.995 135.267H112.343V135.267Z" fill="#263238"/>
<path d="M116.124 138.176H113.914L113.439 139.237H113.004L114.819 135.271H115.232L117.046 139.237H116.602L116.124 138.176ZM115.971 137.837L115.019 135.706L114.066 137.837H115.971Z" fill="#263238"/>
<path d="M117.699 135.267H118.116V139.233H117.699V135.267Z" fill="#263238"/>
<path d="M119.413 135.267H119.83V138.872H122.053V139.233H119.413V135.267Z" fill="#263238"/>
<path d="M127.505 95.8601V89.3459H115.319V115.503C113.801 116.403 112.778 118.051 112.778 119.943C112.778 122.795 115.093 125.109 117.947 125.109C120.801 125.109 123.115 122.795 123.115 119.943C123.115 117.947 121.984 116.22 120.326 115.359V95.8601H127.505V95.8601Z" fill="#447DDC"/>
<path d="M118.09 121.847C119.191 121.847 120.083 120.956 120.083 119.856C120.083 118.756 119.191 117.864 118.09 117.864C116.99 117.864 116.098 118.756 116.098 119.856C116.098 120.956 116.99 121.847 118.09 121.847Z" fill="#263238"/>
<path d="M43.2394 56.3141C43.2481 56.3098 43.2872 56.4011 43.3525 56.5794C43.4265 56.7577 43.5135 57.0229 43.6092 57.3752C43.7962 58.0753 43.9746 59.1233 43.905 60.4279C43.8267 61.7194 43.4961 63.2805 42.639 64.7852C41.7994 66.2898 40.3855 67.6944 38.5713 68.5336C36.7658 69.3816 34.769 69.5816 33.081 69.1903C31.3843 68.8119 30.0226 67.9596 29.0568 67.0986C28.091 66.2202 27.4862 65.3418 27.1382 64.7069C26.9642 64.3894 26.8424 64.1329 26.7728 63.9546C26.6988 63.7806 26.664 63.685 26.6727 63.6806C26.6988 63.6676 26.8424 64.0415 27.2165 64.659C27.5819 65.2765 28.1997 66.1289 29.1655 66.9768C30.1313 67.8074 31.4756 68.625 33.1288 68.9859C34.7733 69.3555 36.7136 69.1598 38.4799 68.3293C40.2506 67.5074 41.6297 66.1463 42.465 64.6808C43.309 63.211 43.6527 61.6846 43.7527 60.4148C43.8441 59.132 43.6918 58.0927 43.5309 57.3926C43.3655 56.6924 43.2133 56.3228 43.2394 56.3141Z" fill="#263238"/>
<path d="M80.272 123.63L86.2104 123.552L85.9798 143.716L80.4678 143.934L80.272 123.63Z" fill="#EBEBEB"/>
<path d="M80.4672 143.934C80.4194 143.89 81.5984 142.546 83.0993 140.924C84.6002 139.307 85.8531 138.028 85.901 138.072C85.9488 138.115 84.7699 139.459 83.2689 141.081C81.7637 142.699 80.5107 143.977 80.4672 143.934Z" fill="#263238"/>
<path d="M86.2098 130.344C86.1619 130.388 84.7958 128.944 83.1557 127.122C81.5156 125.3 80.2235 123.787 80.2713 123.748C80.3192 123.704 81.6852 125.148 83.3254 126.97C84.9655 128.788 86.2533 130.301 86.2098 130.344Z" fill="#263238"/>
<path d="M35.7827 35.1888C35.7827 35.7976 36.1699 36.389 36.7311 36.6282C37.2923 36.8674 37.9884 36.7413 38.4278 36.3238C39.2631 35.5237 38.9803 34.1234 38.4582 33.0928C37.9362 32.0622 37.214 31.0098 37.3662 29.8618C37.4837 28.9834 38.0928 28.2659 38.5017 27.4831C39.2109 26.1133 39.2979 24.4087 38.6061 23.0302C37.9188 21.6517 36.4309 20.6732 34.8908 20.7037C33.3159 20.7341 31.6627 21.7213 30.2662 20.995C29.2526 20.4689 28.8306 19.2382 27.9474 18.512C26.5814 17.3857 24.5236 17.7597 22.9139 18.4946C21.3042 19.2295 19.7554 20.2862 17.9848 20.3688C16.5056 20.4428 15.0874 19.8209 13.6256 19.6209C10.4497 19.186 7.0868 20.9516 5.64678 23.8129C4.20242 26.6743 4.78539 30.4271 7.02589 32.7188C7.83073 33.5407 8.8705 34.1973 10.0147 34.3017" fill="#263238"/>
<path d="M37.7533 68.4206C33.1461 69.9383 28.1778 67.4422 26.6421 62.8414C25.7633 60.2105 25.0324 57.9884 25.0324 57.9884C25.0324 57.9884 18.0238 59.0581 15.8355 52.4091C13.6385 45.7601 10.1668 30.9619 10.1668 30.9619L9.95361 30.0661C16.636 24.3042 26.1375 23.3432 34.4252 26.3655L34.8515 27.744L43.5307 57.884C44.6749 62.3717 42.1473 66.9725 37.7533 68.4206Z" fill="#FFBE9D"/>
<path d="M16.0357 40.7723C16.7796 40.1896 16.4751 39.0546 15.5311 38.9241C15.2874 38.8893 15.0307 38.9633 14.835 39.1155C14.0867 39.6982 14.3912 40.8375 15.3396 40.9636C15.5876 40.9941 15.8399 40.9201 16.0357 40.7723Z" fill="#263238"/>
<path d="M13.2556 39.9374C13.3949 40.02 13.8952 39.3068 14.8131 39.0155C15.7267 38.7067 16.549 38.985 16.6142 38.8328C16.649 38.7632 16.4794 38.5893 16.1139 38.4588C15.7572 38.3284 15.2003 38.2718 14.6304 38.4588C14.0605 38.6458 13.6428 39.0242 13.434 39.3373C13.2208 39.6591 13.1904 39.9026 13.2556 39.9374Z" fill="#263238"/>
<path d="M24.4802 37.0412C24.1148 37.4674 24.1583 38.1066 24.5846 38.4762C25.011 38.8415 25.6505 38.798 26.0203 38.3719C26.3857 37.9457 26.3422 37.3065 25.9159 36.9368C25.4939 36.5672 24.85 36.615 24.4802 37.0412Z" fill="#263238"/>
<path d="M23.2618 37.6979C23.401 37.7805 23.9014 37.0673 24.8193 36.776C25.7329 36.4672 26.5552 36.7455 26.6204 36.5933C26.6552 36.5237 26.4855 36.3498 26.1201 36.2193C25.7634 36.0889 25.2065 36.0323 24.6366 36.2193C24.0667 36.4063 23.649 36.7846 23.4446 37.0977C23.227 37.4195 23.1922 37.6631 23.2618 37.6979Z" fill="#263238"/>
<path d="M21.97 46.4472C21.9526 46.3776 21.3523 46.4472 20.3864 46.6125C20.1385 46.6646 19.9253 46.6733 19.86 46.5385C19.7643 46.3994 19.7817 46.1124 19.8122 45.7862C19.8557 45.1079 19.8992 44.4164 19.947 43.6902C20.1124 40.7114 20.1298 38.2893 19.9862 38.2849C19.8426 38.2762 19.5947 40.6854 19.4293 43.6641C19.3945 44.3903 19.3641 45.0861 19.3336 45.7645C19.3336 46.0732 19.2684 46.4472 19.512 46.7951C19.6382 46.969 19.8687 47.0517 20.0384 47.043C20.2124 47.043 20.3473 46.9995 20.4648 46.969C21.4088 46.7125 21.9831 46.5168 21.97 46.4472Z" fill="#263238"/>
<path d="M25.2759 46.5212C26.0546 45.6471 23.0789 48.7564 21.1777 49.2565C21.1777 49.2565 22.7918 50.635 24.4972 49.3217C26.2678 47.9562 25.2759 46.5212 25.2759 46.5212Z" fill="white"/>
<path d="M24.9888 57.8971C24.9888 57.8971 29.3175 56.91 32.911 52.6744C32.911 52.6744 32.3716 58.1276 25.5195 59.6278L24.9888 57.8971Z" fill="#EB996E"/>
<path d="M35.8345 32.3013C35.9693 32.2099 40.694 30.3574 41.6685 36.2367C42.643 42.116 36.3826 41.1593 36.3435 40.9897C36.3087 40.8245 35.8345 32.3013 35.8345 32.3013Z" fill="#FFBE9D"/>
<path d="M37.8052 38.6328C37.8269 38.6111 37.9183 38.6893 38.1054 38.7372C38.2881 38.785 38.5883 38.7893 38.8754 38.6241C39.4584 38.2936 39.8195 37.2195 39.6715 36.1541C39.5976 35.6149 39.4018 35.1235 39.1408 34.7365C38.8884 34.3364 38.5622 34.0798 38.2402 34.0798C37.9183 34.0581 37.7269 34.2842 37.6834 34.4625C37.6312 34.6408 37.6877 34.7495 37.6573 34.7669C37.6442 34.7843 37.5137 34.6886 37.5224 34.4408C37.5267 34.319 37.5746 34.1711 37.6921 34.032C37.8139 33.8928 38.014 33.8015 38.2359 33.7885C38.6927 33.745 39.1712 34.0929 39.4584 34.5234C39.7672 34.9495 40.0022 35.5018 40.0848 36.1019C40.2458 37.2934 39.8195 38.5023 39.0103 38.8894C38.6144 39.0677 38.2489 38.9981 38.0488 38.8894C37.84 38.772 37.7878 38.6458 37.8052 38.6328Z" fill="#EB996E"/>
<path d="M9.41013 34.193C9.41013 34.193 14.0304 35.0236 18.581 30.9011C21.5698 28.1963 25.3808 26.2177 26.4684 26.6656C27.556 27.1135 28.7481 30.6359 32.4808 30.7185C32.4808 30.7185 34.1557 37.611 36.8096 36.6021C39.4634 35.5976 34.7996 25.5002 34.7996 25.5002L27.3124 22.7562L19.6599 23.4172L11.8899 26.5525L8.10498 30.588L9.41013 34.193Z" fill="#263238"/>
<path d="M33.6857 19.6513C33.6987 19.7209 32.9635 19.8296 32.2674 20.3689C31.5583 20.895 31.2581 21.5734 31.1972 21.543C31.1407 21.5343 31.3669 20.7602 32.1326 20.1862C32.8852 19.6079 33.6944 19.5948 33.6857 19.6513Z" fill="#263238"/>
<path d="M30.1318 17.7553C30.1579 17.7423 30.2841 17.9597 30.445 18.3293C30.6017 18.699 30.7887 19.2338 30.8801 19.8513C30.9758 20.4688 30.9279 21.0428 30.8409 21.4386C30.7496 21.8386 30.6408 22.0648 30.6147 22.0561C30.5451 22.0387 30.8496 21.0776 30.6582 19.8861C30.4711 18.6946 30.0578 17.7814 30.1318 17.7553Z" fill="#263238"/>
<path d="M48.0122 123.322L78.1394 117.725L82.6422 138.072L51.3534 143.356L48.0122 123.322Z" fill="#E0E0E0"/>
<path d="M78.1409 117.725C78.1452 117.729 78.1278 117.755 78.0887 117.812C78.0408 117.877 77.9886 117.955 77.919 118.047C77.7537 118.268 77.5318 118.564 77.249 118.942C76.6443 119.73 75.7916 120.847 74.7432 122.221C72.594 124.991 69.6444 128.805 66.3598 133.045L66.3032 133.119L66.2205 133.075C66.0378 132.98 65.8377 132.871 65.6376 132.767C60.7694 130.179 56.3667 127.84 53.156 126.135C51.5768 125.283 50.2934 124.591 49.3841 124.1C48.9534 123.861 48.6141 123.674 48.3661 123.539C48.2617 123.478 48.1747 123.43 48.1051 123.387C48.0485 123.352 48.0181 123.33 48.0181 123.33C48.0181 123.326 48.0529 123.339 48.1138 123.369C48.1877 123.404 48.2791 123.448 48.3879 123.5C48.6445 123.63 48.9882 123.804 49.4276 124.026C50.3456 124.5 51.6377 125.17 53.23 125.996C56.4493 127.687 60.8651 130.005 65.742 132.571C65.9421 132.675 66.1422 132.78 66.3249 132.88L66.1814 132.91C69.4834 128.688 72.4548 124.891 74.617 122.13C75.6916 120.773 76.5617 119.673 77.1794 118.895C77.4753 118.529 77.7102 118.238 77.8842 118.025C77.9582 117.934 78.0191 117.864 78.0713 117.803C78.1148 117.747 78.1409 117.72 78.1409 117.725Z" fill="#263238"/>
<path d="M51.3536 143.355C51.3014 143.321 53.2373 140.25 55.6823 136.498C58.1273 132.745 60.1459 129.727 60.1981 129.762C60.2503 129.796 58.3144 132.867 55.8694 136.619C53.4288 140.372 51.4058 143.39 51.3536 143.355Z" fill="#263238"/>
<path d="M82.642 138.072C82.6029 138.12 79.7837 135.963 76.3468 133.258C72.9099 130.549 70.1561 128.314 70.1952 128.266C70.2344 128.218 73.0535 130.375 76.4904 133.084C79.9229 135.789 82.6812 138.024 82.642 138.072Z" fill="#263238"/>
<path d="M48.8038 127.866C48.8038 127.866 49.017 131.81 50.9182 131.762C52.815 131.719 59.5278 128.07 60.3065 129.336C61.0853 130.605 59.0275 132.367 59.0275 132.367C59.0275 132.367 61.3898 132.332 60.511 133.745C59.6322 135.158 57.0002 141.772 54.5682 142.394C51.0704 143.286 43.0264 143.638 43.0264 143.638L45.5105 129.779L48.8038 127.866Z" fill="#FFBE9D"/>
<path d="M59.7584 131.545C59.7671 131.558 59.6801 131.658 59.5061 131.827C59.3321 132.001 59.0754 132.236 58.7404 132.519C58.0792 133.084 57.1134 133.806 55.9735 134.493C54.8337 135.176 53.7417 135.689 52.9325 136.011C52.5279 136.171 52.1973 136.293 51.9667 136.363C51.7361 136.437 51.6056 136.467 51.5969 136.454C51.5839 136.419 52.0842 136.219 52.8716 135.863C53.6591 135.506 54.7293 134.976 55.8604 134.297C56.9872 133.619 57.9573 132.919 58.6404 132.393C59.3234 131.862 59.7323 131.519 59.7584 131.545Z" fill="#EB996E"/>
<path d="M59.6542 135.45C59.6759 135.463 59.441 135.867 58.9624 136.441C58.4839 137.019 57.7399 137.754 56.8002 138.407C55.8562 139.059 54.9034 139.494 54.1943 139.737C53.4852 139.981 53.0284 140.059 53.0197 140.033C53.011 139.998 53.4504 139.868 54.1377 139.585C54.8208 139.307 55.7431 138.859 56.6697 138.22C57.5964 137.576 58.3403 136.876 58.8406 136.332C59.3453 135.793 59.6237 135.428 59.6542 135.45Z" fill="#EB996E"/>
</g>
<defs>
<clipPath id="clip0">
<rect width="174.716" height="150" fill="white"/>
</clipPath>
</defs>
</svg>
