<svg width="172" height="151" viewBox="0 0 172 151" fill="none" xmlns="http://www.w3.org/2000/svg">
<path d="M86.6924 23.8137L75.9393 34.1049L99.1002 52.2734L82.0159 55.7761L82.0301 55.8421C80.8892 56.0778 79.8851 56.2805 79.3288 56.3512C68.274 57.7372 62.6829 60.9665 56.3564 70.1403C56.3564 70.1403 59.482 83.8445 79.6494 78.6589C83.2039 77.7444 111.112 71.6206 120.149 61.6783C129.941 50.9016 86.6924 23.8137 86.6924 23.8137Z" fill="#F21833"/>
<path d="M78.5887 59.4108C73.9876 56.5257 69.0377 55.4791 61.9569 55.5781L40.3187 56.7001C36.0429 57.181 25.9073 55.5074 17.4453 69.5464L16.394 71.2105L27.8732 87.3284L28.9197 118.419L32.0264 150.244L62.3859 148.953L82.5156 145.535L78.0796 116.825L79.4655 86.8475C79.244 80.6719 80.5262 79.1162 83.0389 77.6642C84.9293 67.9907 80.6205 60.6883 78.5887 59.4108Z" fill="#F21833"/>
<g opacity="0.3">
<g opacity="0.3">
<path opacity="0.3" d="M29.0889 120.172C30.0836 121.365 37.4472 123.51 42.6422 123.114C42.5055 122.214 42.4631 121.756 42.2792 120.63C46.5833 120.271 50.713 119.861 52.5421 120.059C52.5421 119.913 52.7071 112.139 52.7165 111.993C52.9334 106.911 57.3553 102.659 62.277 101.226C67.34 99.7552 72.2522 100.519 77.3719 101.787L77.0183 122.511L76.6459 148.939L31.8373 148.297L29.0889 120.172Z" fill="black"/>
</g>
</g>
<path d="M32.0968 90.5907C32.0968 90.5907 21.7397 106.723 22.3148 115.595C22.6354 120.554 37.8105 126.918 47.6726 129.577L42.256 146.002C42.256 146.002 5.44267 137.12 0.563451 121.342C-2.20379 112.389 5.56052 93.3014 16.4362 71.1399L32.0968 90.5907Z" fill="#F21833"/>
<path d="M59.161 121.238C59.161 121.247 59.0573 121.261 58.8593 121.285C58.633 121.308 58.3455 121.341 57.9872 121.379C57.2282 121.459 56.1298 121.549 54.7674 121.638C52.0473 121.818 48.2759 121.954 44.1132 121.879C39.9506 121.799 36.1839 121.525 33.4733 121.242C32.1156 121.101 31.0219 120.974 30.2629 120.865C29.9046 120.813 29.617 120.771 29.3955 120.738C29.1975 120.705 29.0938 120.686 29.0938 120.677C29.0938 120.667 29.2022 120.672 29.4002 120.686C29.6265 120.705 29.914 120.733 30.2723 120.766C31.0313 120.842 32.1297 120.95 33.4874 121.063C36.2028 121.299 39.96 121.544 44.118 121.624C48.2759 121.7 52.0378 121.591 54.7579 121.459C56.1204 121.393 57.2188 121.327 57.9825 121.28C58.3407 121.261 58.633 121.242 58.8593 121.233C59.0573 121.228 59.161 121.228 59.161 121.238Z" fill="white"/>
<path d="M80.5259 67.8258C80.5259 67.8918 72.7569 67.9908 53.2683 68.2878C33.7703 68.5895 17.9683 68.7733 17.9683 68.7073C17.9683 68.6414 33.7656 68.3396 53.2636 68.0426C72.7522 67.7409 80.5212 67.7551 80.5259 67.8258Z" fill="white"/>
<path d="M29.306 96.1863C29.3012 96.1863 29.3201 96.1486 29.3531 96.0873C29.3955 96.0119 29.4474 95.9223 29.5087 95.8092C29.6595 95.5499 29.8622 95.1916 30.1215 94.7438C30.6495 93.8198 31.3944 92.4668 32.1958 90.7414C32.9831 89.0113 33.8222 86.8946 34.3737 84.4432C34.9347 82.0013 36.9194 75.1798 32.6106 69.2399C31.0549 67.274 29.1315 65.9682 27.4014 65.2234C25.6524 64.4832 24.1062 64.2664 23.0455 64.2522C22.7815 64.2522 22.5458 64.2569 22.3384 64.2569C22.1356 64.2617 21.9612 64.2852 21.8245 64.2947C21.6972 64.3041 21.5935 64.3135 21.5039 64.3182C21.4332 64.3229 21.3955 64.3229 21.3955 64.3182C21.3955 64.3135 21.4285 64.3041 21.5039 64.2947C21.5888 64.2805 21.6925 64.2664 21.8198 64.2475C21.9612 64.2287 22.1309 64.2004 22.3384 64.1862C22.5458 64.1768 22.7862 64.1674 23.0502 64.1579C24.1156 64.1438 25.6902 64.3371 27.4721 65.0678C29.2352 65.8079 31.1964 67.1138 32.7945 69.1032C37.2258 75.0761 35.1799 82.039 34.6 84.4998C34.0296 86.97 33.1716 89.0914 32.3608 90.8216C31.5358 92.547 30.7674 93.8858 30.2111 94.8003C29.933 95.2576 29.7161 95.6065 29.5605 95.8422C29.4898 95.9506 29.4332 96.0355 29.3814 96.1062C29.3342 96.1628 29.3107 96.191 29.306 96.1863Z" fill="#263238"/>
<path d="M77.7066 59.7693C77.7113 59.7646 77.7867 59.8306 77.9234 59.9673C78.0601 60.104 78.2534 60.3161 78.4797 60.6084C78.9322 61.1883 79.498 62.1122 79.9458 63.3568C80.3937 64.6013 80.6906 66.1618 80.7519 67.906C80.8274 69.6503 80.6906 71.5595 80.5539 73.5536C80.2758 77.5324 80.0212 81.1341 79.8327 83.7788C79.729 85.061 79.6488 86.1123 79.5875 86.876C79.5545 87.2202 79.531 87.4983 79.5074 87.7151C79.4885 87.9084 79.4697 88.0074 79.465 88.0074C79.4555 88.0074 79.4555 87.9037 79.4602 87.7104C79.4697 87.4936 79.4791 87.2107 79.4932 86.8666C79.5357 86.1029 79.5922 85.0516 79.663 83.7646C79.8327 81.12 80.0589 77.5183 80.3088 73.5348C80.4408 71.536 80.5869 69.6361 80.5257 67.9107C80.4738 66.1853 80.2004 64.6438 79.7808 63.4087C79.366 62.1735 78.8285 61.2495 78.4043 60.6603C77.98 60.0757 77.6924 59.7834 77.7066 59.7693Z" fill="#263238"/>
<path d="M80.0877 79.1069C80.0877 79.1069 80.0122 79.1211 79.8661 79.1352C79.7105 79.1494 79.4937 79.1729 79.2108 79.1965C78.6263 79.2484 77.7824 79.3238 76.6981 79.4181C74.5155 79.6066 67.859 80.0875 55.9273 80.6391C43.9909 81.1906 33.1859 81.497 25.3698 81.6479C21.4617 81.7233 18.2937 81.7658 16.111 81.7799C15.0268 81.7846 14.1782 81.7893 13.5936 81.794C13.3155 81.794 13.0986 81.794 12.9384 81.7893C12.7922 81.7893 12.7168 81.7799 12.7168 81.7799C12.7168 81.7799 12.7922 81.7705 12.9384 81.7658C13.0939 81.761 13.3155 81.7516 13.5936 81.7422C14.1782 81.728 15.0268 81.7092 16.111 81.6856C18.3079 81.6338 21.4711 81.563 25.3698 81.4782C33.1906 81.2849 43.9909 80.9502 55.9226 80.3986C67.8496 79.8424 74.4966 79.4794 76.6887 79.3238C77.773 79.2484 78.6168 79.1918 79.2061 79.1494C79.4842 79.1305 79.7011 79.1211 79.8614 79.1116C80.0122 79.1069 80.0877 79.1069 80.0877 79.1069Z" fill="white"/>
<path d="M79.9697 91.1187C79.9697 91.1234 79.9084 91.1328 79.7811 91.1469C79.6444 91.1611 79.4653 91.1799 79.2295 91.2035C78.7345 91.2459 78.0227 91.3119 77.1176 91.3921C75.2837 91.5571 72.6249 91.7598 69.3391 91.9908C62.7722 92.4481 53.6926 92.9289 43.6702 93.1505C33.6431 93.372 24.5776 93.2919 18.0202 93.1316C14.7438 93.0515 12.0897 92.9619 10.2606 92.8818C9.35543 92.8393 8.6483 92.8063 8.1533 92.7875C7.92231 92.7733 7.73845 92.7639 7.60645 92.7545C7.48388 92.7451 7.41789 92.7403 7.4226 92.7356C7.4226 92.7309 7.4886 92.7309 7.61117 92.7309C7.74788 92.7309 7.92702 92.7356 8.16273 92.7356C8.65772 92.7498 9.36486 92.7639 10.2747 92.7875C12.1085 92.8393 14.7579 92.9006 18.039 92.9619C24.5965 93.0798 33.6619 93.1316 43.6844 92.9101C53.7021 92.6838 62.7769 92.2312 69.3485 91.8211C72.6344 91.6184 75.2885 91.4345 77.127 91.3025C78.0368 91.2412 78.744 91.1894 79.2437 91.1564C79.4747 91.1422 79.6585 91.1328 79.7952 91.1234C79.9037 91.1187 79.9697 91.1187 79.9697 91.1187Z" fill="white"/>
<path d="M118.179 63.1492C118.155 63.2152 113.295 60.8722 107.326 57.9164C101.354 54.9606 96.5356 52.5092 96.5592 52.4479C96.5827 52.3819 101.443 54.7249 107.411 57.6807C113.379 60.6318 118.202 63.0832 118.179 63.1492Z" fill="white"/>
<path d="M100.755 72.4598C100.698 72.4975 98.0439 68.4056 94.8241 63.3189C91.6043 58.2276 89.0444 54.0743 89.101 54.0366C89.1576 53.9989 91.8117 58.0909 95.0315 63.1822C98.2466 68.2641 100.811 72.4221 100.755 72.4598Z" fill="white"/>
<path d="M90.1144 75.241C90.0579 75.2788 87.4038 71.1868 84.1839 66.1002C80.9641 61.0088 78.4043 56.8556 78.4609 56.8179C78.5175 56.7802 81.1716 60.8721 84.3914 65.9635C87.6112 71.0454 90.171 75.2033 90.1144 75.241Z" fill="white"/>
<path d="M97.502 31.9789C97.5586 32.0166 95.7577 35.0525 93.4808 38.7579C91.2038 42.4633 89.3181 45.4332 89.2616 45.3955C89.205 45.3578 91.0058 42.3219 93.2828 38.6165C95.555 34.9111 97.4454 31.9412 97.502 31.9789Z" fill="white"/>
<path d="M107.081 38.4845C107.133 38.5316 104.969 41.3177 102.249 44.712C99.5292 48.1062 97.2899 50.8216 97.2381 50.7745C97.1909 50.7273 99.35 47.9412 102.07 44.547C104.79 41.1527 107.029 38.4373 107.081 38.4845Z" fill="white"/>
<path d="M88.54 24.6812C88.5918 24.7236 86.7014 27.4814 84.3113 30.8379C81.9259 34.1992 79.946 36.8863 79.8941 36.8438C79.8423 36.8014 81.7327 34.0436 84.1228 30.6824C86.5082 27.3305 88.4834 24.6387 88.54 24.6812Z" fill="white"/>
<path d="M78.5886 104.361C78.5934 104.427 67.3122 105.007 53.3959 105.657C39.4748 106.303 28.189 106.775 28.189 106.709C28.1843 106.643 39.4654 106.063 53.3864 105.412C67.2981 104.766 78.5839 104.295 78.5886 104.361Z" fill="white"/>
<path d="M24.5874 106.091C24.5874 106.101 24.5072 106.11 24.3517 106.119C24.1678 106.129 23.9415 106.143 23.6681 106.157C23.0741 106.185 22.2161 106.218 21.1602 106.242C19.0388 106.294 16.1112 106.317 12.8726 106.251C9.63389 106.185 6.70636 106.044 4.58968 105.907C3.5337 105.837 2.67571 105.775 2.08643 105.719C1.81301 105.69 1.59144 105.672 1.40759 105.653C1.25202 105.634 1.17188 105.62 1.17188 105.61C1.17188 105.601 1.25673 105.601 1.4123 105.601C1.59615 105.606 1.82244 105.615 2.09586 105.624C2.72757 105.653 3.57141 105.69 4.60382 105.733C6.72051 105.827 9.64804 105.94 12.882 106.006C16.1159 106.072 19.0435 106.077 21.1602 106.072C22.1926 106.068 23.0411 106.068 23.6681 106.063C23.9415 106.068 24.1678 106.068 24.3517 106.068C24.5025 106.077 24.5874 106.082 24.5874 106.091Z" fill="white"/>
<path d="M25.0775 119.201C25.0822 119.267 19.5854 119.635 12.8017 120.022C6.01793 120.408 0.516436 120.663 0.511722 120.597C0.507008 120.531 6.00378 120.163 12.7875 119.776C19.5713 119.39 25.0728 119.135 25.0775 119.201Z" fill="white"/>
<path d="M30.8803 123.43C30.9133 123.486 27.1278 125.763 22.4183 128.512C17.7088 131.26 13.8667 133.438 13.8337 133.381C13.8007 133.325 17.5862 131.048 22.2957 128.3C27.0052 125.551 30.8473 123.373 30.8803 123.43Z" fill="white"/>
<path d="M39.0598 128.29C39.1117 128.333 36.8725 131.364 34.0486 135.06C31.2248 138.761 28.896 141.721 28.8441 141.683C28.7923 141.641 31.0315 138.61 33.8554 134.914C36.6745 131.213 39.008 128.248 39.0598 128.29Z" fill="white"/>
<path d="M112.371 100.425C112.375 100.491 109.443 100.679 105.832 100.835C102.216 100.995 99.284 101.07 99.2793 101C99.2746 100.929 102.202 100.745 105.818 100.59C109.434 100.434 112.371 100.359 112.371 100.425Z" fill="white"/>
<g opacity="0.3">
<g opacity="0.3">
<path opacity="0.3" d="M80.6534 68.7922C80.9693 81.4169 86.2728 90.2278 94.9045 99.4488C94.9045 99.4488 86.0748 95.734 79.687 87.14" fill="black"/>
</g>
</g>
<path d="M62.4423 55.9507C62.4517 55.9507 62.4564 56.0591 62.4658 56.2665C62.48 56.474 62.4753 56.7804 62.4517 57.1717C62.3998 57.9542 62.216 59.0951 61.688 60.4056C61.1553 61.7067 60.269 63.187 58.8642 64.4363C57.4735 65.6855 55.5359 66.6331 53.3768 66.8594C51.2271 67.0998 49.1105 66.6048 47.5171 65.6101C45.9095 64.6296 44.8158 63.2766 44.1228 62.0556C43.4393 60.8158 43.1281 59.7032 42.9914 58.9301C42.9254 58.5435 42.8877 58.2371 42.883 58.0344C42.8688 57.8269 42.8641 57.7185 42.8736 57.7185C42.9018 57.7138 42.9207 58.1522 43.0857 58.9112C43.246 59.6702 43.5807 60.7639 44.2737 61.9707C44.9761 63.1587 46.0651 64.4693 47.6349 65.4168C49.1906 66.3738 51.2507 66.85 53.3485 66.6142C55.4558 66.3927 57.3462 65.4781 58.7133 64.2666C60.0946 63.055 60.9809 61.6125 61.5277 60.3396C62.0698 59.0574 62.2773 57.9354 62.3574 57.1622C62.4423 56.3891 62.414 55.9507 62.4423 55.9507Z" fill="#263238"/>
<path d="M135.659 141.829C135.659 141.829 135.838 141.891 136.182 142.018C136.521 142.15 137.04 142.324 137.728 142.518C139.1 142.895 141.198 143.329 143.908 143.145C145.261 143.055 146.756 142.829 148.354 142.423C149.952 142.018 151.668 141.476 153.412 140.66C156.906 139.053 160.55 136.446 163.727 132.778C164.505 131.859 165.226 130.826 165.613 129.629C165.995 128.45 166.028 127.069 165.434 125.91C165.141 125.334 164.675 124.844 164.118 124.495C163.562 124.137 162.907 123.939 162.237 123.84C160.884 123.642 159.489 123.934 158.188 124.5C157.528 124.769 156.858 125.056 156.137 125.226C155.421 125.4 154.638 125.419 153.912 125.169C153.196 124.943 152.517 124.387 152.309 123.609C152.088 122.841 152.323 122.016 152.752 121.365C153.177 120.696 153.846 120.219 154.548 119.889C155.256 119.55 156.01 119.333 156.755 119.093C158.24 118.617 159.706 118.013 161.13 117.287C162.553 116.561 163.939 115.713 165.259 114.742C165.924 114.261 166.56 113.742 167.084 113.11C167.597 112.488 168.022 111.734 168.012 110.928C168.003 110.532 167.89 110.131 167.668 109.796C167.451 109.457 167.135 109.188 166.787 108.971C166.075 108.547 165.24 108.373 164.392 108.302C163.543 108.222 162.666 108.198 161.813 107.953C160.96 107.722 160.14 107.138 159.814 106.256C159.659 105.813 159.715 105.285 159.984 104.894C160.248 104.498 160.635 104.234 160.998 103.993C161.733 103.512 162.459 103.008 163.161 102.47C164.571 101.396 165.905 100.203 167.15 98.9065C168.375 97.6007 169.62 96.243 170.388 94.6024C170.761 93.7868 171.006 92.8911 170.94 91.9954C170.897 91.095 170.516 90.2371 169.917 89.5629C168.705 88.2147 166.768 87.5877 165.009 87.9506C163.232 88.2712 161.662 89.3178 160.432 90.6C157.943 93.2164 156.722 96.6672 154.685 99.5288C154.176 100.245 153.62 100.929 152.993 101.542C152.677 101.843 152.356 102.155 151.956 102.367C151.569 102.584 151.032 102.678 150.607 102.414C150.193 102.159 149.985 101.702 149.9 101.273C149.811 100.83 149.863 100.387 149.891 99.9672C149.924 99.5476 149.952 99.1281 149.844 98.7415C149.745 98.3549 149.537 97.9966 149.25 97.7138C148.679 97.1434 147.864 96.8369 147.062 96.8511C146.261 96.8699 145.497 97.2518 144.903 97.7798C144.304 98.3125 143.847 98.9961 143.536 99.7268C143.225 100.462 143.055 101.249 142.956 102.041C142.857 102.833 142.824 103.625 142.801 104.417C142.772 105.209 142.749 105.997 142.721 106.779C142.669 108.344 142.617 109.886 142.57 111.409C142.541 112.172 142.527 112.922 142.49 113.676C142.442 114.426 142.343 115.185 142.065 115.892C141.801 116.594 141.259 117.24 140.524 117.48C139.793 117.735 139.015 117.594 138.341 117.339C136.993 116.788 135.861 115.864 134.975 114.793C134.532 114.256 134.159 113.671 133.853 113.059C133.547 112.45 133.283 111.838 132.924 111.291C132.571 110.749 132.095 110.282 131.496 110.089C130.902 109.881 130.247 109.98 129.681 110.216C129.115 110.466 128.611 110.852 128.248 111.333C127.871 111.809 127.649 112.384 127.512 112.964C127.253 114.138 127.3 115.336 127.201 116.486C127.121 117.636 127.083 118.758 127.069 119.852C127.046 122.034 127.187 124.099 127.442 126.004C127.701 127.913 128.073 129.671 128.583 131.241C128.799 132.038 129.125 132.759 129.379 133.466C129.525 133.811 129.69 134.141 129.837 134.466C129.992 134.786 130.124 135.112 130.299 135.399C131.59 137.785 132.986 139.397 134.023 140.377C134.263 140.641 134.513 140.835 134.72 141.014C134.928 141.188 135.098 141.334 135.239 141.457C135.522 141.702 135.659 141.829 135.659 141.829C135.659 141.829 135.508 141.716 135.225 141.485C135.083 141.367 134.904 141.221 134.697 141.052C134.489 140.877 134.235 140.689 133.99 140.425C132.943 139.453 131.524 137.846 130.218 135.456C130.039 135.164 129.903 134.843 129.747 134.518C129.596 134.192 129.431 133.862 129.28 133.514C129.021 132.806 128.691 132.08 128.469 131.279C127.951 129.704 127.569 127.941 127.305 126.027C127.041 124.113 126.895 122.044 126.914 119.856C126.928 118.763 126.961 117.636 127.036 116.481C127.131 115.336 127.074 114.138 127.343 112.931C127.484 112.333 127.715 111.734 128.106 111.229C128.493 110.72 129.016 110.315 129.61 110.051C130.204 109.801 130.907 109.693 131.557 109.914C132.208 110.122 132.722 110.626 133.089 111.187C133.462 111.753 133.726 112.37 134.032 112.974C134.334 113.572 134.697 114.143 135.135 114.671C135.998 115.717 137.12 116.623 138.421 117.151C139.067 117.396 139.802 117.518 140.462 117.287C141.127 117.066 141.622 116.486 141.877 115.816C142.395 114.459 142.282 112.917 142.362 111.404C142.409 109.881 142.461 108.34 142.508 106.775C142.532 105.992 142.56 105.205 142.584 104.413C142.612 103.621 142.64 102.819 142.739 102.013C142.838 101.212 143.013 100.406 143.333 99.6372C143.654 98.8782 144.13 98.1664 144.762 97.6054C145.389 97.0491 146.195 96.639 147.072 96.6154C147.934 96.6012 148.807 96.9265 149.429 97.5441C149.74 97.8505 149.976 98.2465 150.084 98.6802C150.202 99.1139 150.169 99.5571 150.141 99.9813C150.112 100.406 150.065 100.825 150.145 101.221C150.221 101.617 150.414 102.008 150.739 102.206C151.069 102.414 151.498 102.348 151.852 102.15C152.215 101.961 152.526 101.664 152.837 101.367C153.45 100.764 153.997 100.099 154.497 99.3873C155.501 97.9684 156.316 96.4032 157.188 94.8523C158.061 93.306 159.003 91.7503 160.267 90.4256C161.521 89.1198 163.128 88.0402 164.976 87.7055C166.81 87.3331 168.837 87.9789 170.115 89.3979C170.747 90.105 171.157 91.029 171.199 91.9766C171.265 92.9242 171.011 93.8623 170.624 94.7014C169.832 96.3938 168.569 97.7562 167.338 99.0715C166.084 100.377 164.741 101.579 163.322 102.659C162.615 103.201 161.884 103.71 161.144 104.191C160.781 104.432 160.422 104.681 160.196 105.026C159.965 105.365 159.923 105.794 160.055 106.176C160.342 106.949 161.092 107.51 161.893 107.722C162.709 107.958 163.571 107.981 164.429 108.066C165.283 108.137 166.169 108.321 166.923 108.773C167.296 109 167.64 109.297 167.88 109.674C168.125 110.046 168.248 110.489 168.257 110.928C168.267 111.823 167.805 112.62 167.272 113.266C166.735 113.921 166.07 114.449 165.41 114.935C164.081 115.915 162.685 116.769 161.247 117.499C159.81 118.23 158.334 118.833 156.835 119.31C156.09 119.55 155.345 119.762 154.657 120.092C153.973 120.417 153.346 120.865 152.946 121.492C152.54 122.1 152.328 122.869 152.526 123.557C152.71 124.255 153.318 124.764 153.992 124.976C154.671 125.207 155.411 125.198 156.099 125.028C156.797 124.863 157.457 124.58 158.117 124.316C159.428 123.746 160.88 123.439 162.27 123.651C162.959 123.755 163.642 123.958 164.227 124.335C164.811 124.703 165.302 125.221 165.608 125.829C166.23 127.055 166.183 128.479 165.792 129.695C165.386 130.925 164.651 131.972 163.864 132.901C160.663 136.583 156.995 139.189 153.478 140.797C151.72 141.613 149.995 142.15 148.392 142.551C146.784 142.947 145.28 143.173 143.923 143.253C141.198 143.423 139.091 142.97 137.723 142.574C137.035 142.372 136.521 142.188 136.182 142.051C135.833 141.905 135.659 141.829 135.659 141.829Z" fill="#263238"/>
<path d="M138.294 136.073C139.85 131.42 141.976 126.461 144.38 121.346C144.983 120.069 145.582 118.81 146.171 117.57C146.761 116.33 147.35 115.104 147.996 113.935C149.283 111.597 150.697 109.447 152.102 107.449C153.507 105.45 154.916 103.602 156.246 101.886C157.58 100.17 158.853 98.5953 160.074 97.2093C162.506 94.4279 164.731 92.4196 166.315 91.1044C167.107 90.4444 167.734 89.9494 168.168 89.6241C168.375 89.4685 168.54 89.346 168.663 89.2564C168.776 89.1763 168.833 89.1338 168.837 89.1385C168.842 89.1433 168.785 89.1904 168.682 89.28C168.564 89.379 168.404 89.5062 168.206 89.6712C167.786 90.0154 167.169 90.5198 166.391 91.1939C164.83 92.5328 162.638 94.5599 160.229 97.3507C159.022 98.7414 157.759 100.321 156.439 102.037C155.119 103.757 153.724 105.61 152.323 107.609C150.928 109.608 149.523 111.753 148.246 114.077C147.605 115.236 147.025 116.457 146.431 117.697C145.841 118.937 145.243 120.201 144.639 121.473C142.24 126.579 140.109 131.524 138.544 136.163" fill="#263238"/>
<path d="M148.081 113.93C148.062 113.93 148.02 113.695 147.954 113.266C147.888 112.837 147.817 112.21 147.737 111.432C147.576 109.881 147.43 107.731 147.279 105.365C147.129 102.993 146.95 100.853 146.766 99.3117C146.676 98.5385 146.601 97.9163 146.539 97.4825C146.483 97.0488 146.459 96.8084 146.478 96.8084C146.497 96.8037 146.558 97.0394 146.648 97.4637C146.742 97.888 146.85 98.5103 146.964 99.2834C147.199 100.825 147.407 102.97 147.562 105.346C147.708 107.684 147.84 109.801 147.939 111.418C147.991 112.148 148.034 112.761 148.067 113.256C148.095 113.685 148.1 113.93 148.081 113.93Z" fill="#263238"/>
<path d="M168.135 110.979C168.135 110.998 167.853 111.022 167.339 111.045C166.825 111.069 166.085 111.102 165.17 111.173C163.341 111.3 160.814 111.564 158.042 111.974C155.586 112.342 153.196 112.78 150.985 113.275C150.085 113.469 149.363 113.648 148.864 113.766C148.364 113.888 148.086 113.945 148.081 113.926C148.076 113.907 148.345 113.813 148.835 113.657C149.326 113.506 150.042 113.299 150.938 113.077C152.725 112.625 155.218 112.106 158 111.687C160.781 111.272 163.317 111.041 165.156 110.97C166.075 110.928 166.82 110.923 167.334 110.932C167.853 110.946 168.135 110.961 168.135 110.979Z" fill="#263238"/>
<path d="M138.554 135.72C138.544 135.724 138.502 135.639 138.426 135.47C138.341 135.272 138.238 135.031 138.115 134.734C137.846 134.098 137.483 133.165 137.045 132.005C136.173 129.685 135.07 126.447 133.901 122.855C132.732 119.262 131.657 116.014 130.836 113.685C130.431 112.549 130.101 111.621 129.856 110.923C129.752 110.621 129.663 110.376 129.592 110.169C129.535 109.994 129.507 109.905 129.516 109.9C129.526 109.895 129.568 109.98 129.644 110.15C129.729 110.348 129.832 110.588 129.955 110.88C130.224 111.517 130.587 112.45 131.025 113.61C131.897 115.929 133 119.168 134.169 122.76C135.338 126.352 136.88 130.119 137.705 132.453C138.11 133.584 137.974 133.999 138.219 134.692C138.323 134.994 138.412 135.243 138.483 135.446C138.535 135.621 138.563 135.715 138.554 135.72Z" fill="#263238"/>
<path d="M165.34 128.215C165.34 128.224 165.25 128.257 165.071 128.314C164.864 128.375 164.604 128.45 164.293 128.54C163.577 128.743 162.606 129.016 161.427 129.346C159.004 130.03 155.671 131.01 151.989 132.099C148.543 133.122 145.337 134.046 142.523 134.777C141.307 135.093 140.317 135.343 139.629 135.498C139.313 135.569 139.049 135.626 138.837 135.673C138.653 135.71 138.558 135.725 138.554 135.715C138.554 135.706 138.643 135.673 138.822 135.616C139.03 135.555 139.289 135.479 139.6 135.39C140.317 135.187 141.288 134.914 142.467 134.584C144.89 133.9 148.223 132.92 151.909 131.826C155.591 130.737 158.938 129.785 161.375 129.148C162.591 128.832 163.581 128.582 164.27 128.427C164.586 128.356 164.85 128.3 165.062 128.253C165.241 128.22 165.335 128.205 165.34 128.215Z" fill="#263238"/>
<path d="M54.7812 150.009H138.756V114.133C138.756 107.411 133.306 101.966 126.588 101.966H66.9534C60.2309 101.966 54.786 107.416 54.786 114.133V150.009H54.7812Z" fill="#455A64"/>
<path d="M83.9388 146.595H13.4849V150.593H83.9388V146.595Z" fill="#263238"/>
<path d="M141.5 146.595H83.939V150.593H141.5V146.595Z" fill="#455A64"/>
<path d="M83.9389 148.594C83.9342 148.594 83.9295 148.547 83.9295 148.453C83.9248 148.345 83.9248 148.208 83.9201 148.033C83.9153 147.647 83.9153 147.105 83.9106 146.416C83.9106 144.993 83.9106 142.966 83.9153 140.467C83.9436 135.432 83.9766 128.502 84.0191 120.846C84.0379 118.933 84.0803 117.061 83.9672 115.265C83.8493 113.473 83.5901 111.743 83.0621 110.178C82.5529 108.608 81.7657 107.227 80.8134 106.119C79.847 105.021 78.7439 104.186 77.6549 103.578C75.4628 102.367 73.3885 102.074 72.0025 102.065C71.6537 102.051 71.3425 102.07 71.0738 102.093C70.8051 102.103 70.5788 102.126 70.395 102.159C70.2253 102.183 70.0838 102.202 69.9801 102.216C69.8858 102.225 69.8387 102.23 69.834 102.225C69.834 102.221 69.8811 102.211 69.9754 102.192C70.0838 102.173 70.2205 102.145 70.3903 102.112C70.5741 102.074 70.8004 102.041 71.0691 102.023C71.3378 101.994 71.649 101.966 72.0025 101.975C73.3979 101.957 75.5005 102.225 77.735 103.432C78.8428 104.036 79.9695 104.875 80.9642 105.987C81.9401 107.109 82.7509 108.519 83.2742 110.108C83.8163 111.691 84.0803 113.44 84.2029 115.246C84.3208 117.056 84.2831 118.933 84.2642 120.846C84.1935 128.498 84.1322 135.428 84.0898 140.462C84.0568 142.961 84.0285 144.988 84.0096 146.407C83.9955 147.095 83.9813 147.637 83.9766 148.024C83.9719 148.198 83.9672 148.335 83.9625 148.444C83.9436 148.543 83.9436 148.594 83.9389 148.594Z" fill="#263238"/>
<path d="M141.104 146.497C141.104 146.563 127.993 146.643 111.819 146.671C95.6397 146.699 82.5342 146.666 82.5342 146.596C82.5342 146.53 95.6444 146.45 111.819 146.426C127.989 146.393 141.104 146.426 141.104 146.497Z" fill="#263238"/>
<path d="M141.104 150.749C141.104 150.815 128.088 150.838 112.031 150.791C95.9697 150.749 82.9585 150.659 82.9585 150.588C82.9585 150.522 95.9744 150.499 112.031 150.546C128.083 150.593 141.104 150.683 141.104 150.749Z" fill="#263238"/>
<path d="M133.523 142.032C133.518 142.028 133.518 141.971 133.514 141.863C133.514 141.74 133.509 141.58 133.504 141.372C133.499 140.929 133.495 140.297 133.485 139.472C133.476 137.813 133.462 135.404 133.443 132.363L133.518 132.439C124.99 132.448 111.277 132.467 95.8329 132.486C95.8847 132.429 95.7103 132.608 95.9554 132.363V132.368V132.373V132.382V132.401V132.439V132.514V132.67V132.981V133.598C95.9554 134.009 95.9554 134.423 95.9554 134.829C95.9554 135.649 95.9554 136.46 95.9554 137.266C95.9554 138.878 95.9554 140.472 95.9554 142.032L95.8376 141.914C106.577 141.938 115.981 141.957 122.709 141.971C126.075 141.985 128.766 141.999 130.633 142.004C131.557 142.009 132.274 142.018 132.773 142.018C133.009 142.023 133.198 142.023 133.33 142.028C133.457 142.028 133.523 142.032 133.523 142.032C133.528 142.037 133.466 142.037 133.344 142.042C133.212 142.042 133.033 142.046 132.802 142.051C132.311 142.056 131.6 142.061 130.69 142.065C128.832 142.075 126.145 142.084 122.793 142.098C116.043 142.112 106.61 142.131 95.8376 142.155H95.7197V142.032C95.7197 140.472 95.7197 138.883 95.7197 137.266C95.7197 136.46 95.7197 135.644 95.7197 134.829C95.7197 134.419 95.7197 134.009 95.7197 133.598V132.981V132.67V132.514V132.439V132.401V132.382V132.373V132.368V132.363C95.9649 132.118 95.7904 132.297 95.847 132.241C111.291 132.26 125.004 132.279 133.532 132.288H133.608V132.363C133.589 135.428 133.575 137.851 133.565 139.52C133.556 140.335 133.551 140.967 133.547 141.401C133.542 141.603 133.542 141.764 133.537 141.881C133.528 141.98 133.528 142.032 133.523 142.032Z" fill="#263238"/>
<path d="M112.243 134.848V139.147H111.809V135.706L110.121 138.6H109.904L108.217 135.724V139.147H107.778V134.848H108.151L110.018 138.034L111.866 134.848H112.243V134.848Z" fill="#263238"/>
<path d="M116.34 138.002H113.945L113.431 139.152H112.959L114.925 134.853H115.373L117.339 139.152H116.858L116.34 138.002ZM116.175 137.629L115.142 135.319L114.11 137.629H116.175Z" fill="#263238"/>
<path d="M118.046 134.848H118.498V139.147H118.046V134.848Z" fill="#263238"/>
<path d="M119.904 134.848H120.356V138.756H122.765V139.147H119.904V134.848V134.848Z" fill="#263238"/>
<path d="M128.672 92.1227V85.0608H115.467V113.417C113.822 114.393 112.714 116.179 112.714 118.23C112.714 121.323 115.222 123.831 118.315 123.831C121.407 123.831 123.915 121.323 123.915 118.23C123.915 116.066 122.69 114.195 120.894 113.261V92.1227H128.672Z" fill="#447DDC"/>
<path d="M118.471 120.3C119.663 120.3 120.63 119.333 120.63 118.141C120.63 116.948 119.663 115.981 118.471 115.981C117.278 115.981 116.312 116.948 116.312 118.141C116.312 119.333 117.278 120.3 118.471 120.3Z" fill="#263238"/>
<path d="M83.9957 146.628H54.7817V114.393C54.7817 107.458 60.4058 101.834 67.3404 101.834H71.4371C78.3717 101.834 83.9957 107.458 83.9957 114.393V146.628V146.628Z" fill="#405259"/>
<path d="M45.5324 30.7437C45.6785 31.3849 45.4098 32.1061 44.8771 32.4927C44.3444 32.8793 43.576 32.917 43.0103 32.5776C41.9354 31.9364 41.8977 30.3854 42.2041 29.1692C42.5106 27.9529 43.0197 26.6659 42.5813 25.4921C42.2466 24.5917 41.431 23.9835 40.8087 23.2481C39.7292 21.9706 39.2295 20.1886 39.6302 18.5622C40.0309 16.9358 41.3603 15.5498 43.0008 15.2104C44.6697 14.8662 46.6544 15.5121 47.9602 14.409C48.903 13.6123 49.0586 12.2074 49.8129 11.2269C50.9867 9.70889 53.2496 9.60989 55.1305 10.0012C57.0115 10.3924 58.8972 11.1373 60.7876 10.8026C62.3668 10.5244 63.7151 9.52975 65.2189 8.96404C68.4718 7.74306 72.4458 8.80376 74.6568 11.4861C76.8678 14.1685 77.1506 18.2746 75.3309 21.2351C74.6757 22.3006 73.7375 23.2387 72.5496 23.6253" fill="#263238"/>
<path d="M51.4207 66.3501C56.6535 66.8498 61.3064 63.0172 61.825 57.7891C62.122 54.7956 62.3671 52.2735 62.3671 52.2735C62.3671 52.2735 70.0277 51.7266 70.749 44.1697C71.4703 36.6176 71.5929 20.1367 71.5929 20.1367L71.6023 19.142C63.1591 14.654 52.8869 15.9127 44.8538 21.0936L44.736 22.654L42.789 56.5964C42.657 61.6123 46.4284 65.874 51.4207 66.3501Z" fill="#FFBE9D"/>
<path d="M55.8757 30.3145C56.1538 30.2108 59.4349 31.0688 59.3548 31.4035C59.2699 31.7382 55.4985 31.2998 55.5598 31.0877C55.6211 30.8755 56.9364 30.8803 56.9364 30.8803C56.9364 30.8803 55.5975 30.4183 55.8757 30.3145Z" fill="#263238"/>
<path d="M62.8291 39.3376C62.8291 39.2622 63.4844 39.1868 64.5451 39.1302C64.8185 39.1255 65.0448 39.0831 65.0825 38.9275C65.1485 38.7578 65.0636 38.4561 64.9552 38.1214C64.7478 37.4142 64.5309 36.693 64.3094 35.9387C63.4231 32.8273 62.8244 30.2722 62.9752 30.2298C63.1261 30.1874 63.9652 32.6717 64.8515 35.7831C65.0589 36.5421 65.2616 37.2681 65.4549 37.98C65.5303 38.3052 65.6859 38.6871 65.5115 39.1161C65.4172 39.3329 65.1956 39.4744 65.0165 39.5074C64.8326 39.5451 64.6818 39.5356 64.5498 39.5309C63.4891 39.4838 62.8338 39.4178 62.8291 39.3376Z" fill="#263238"/>
<path d="M64.5918 43.3777C65.728 43.9387 61.4757 42.0294 59.3638 42.3029C59.3638 42.3029 60.4245 40.2616 62.6684 40.8839C64.9973 41.5297 64.5918 43.3777 64.5918 43.3777Z" fill="white"/>
<path d="M62.3857 52.1652C62.3857 52.1652 57.5725 52.1558 52.7593 48.5447C52.7593 48.5447 54.6355 54.1829 62.2396 54.1263L62.3857 52.1652Z" fill="#EB996E"/>
<path d="M68.8537 29.3529C68.5708 29.3105 65.9544 30.8096 66.143 31.116C66.3316 31.4225 69.5278 30.2203 69.3958 30.0271C69.2638 29.8338 68.1041 30.1119 68.1041 30.1119C68.1041 30.1119 69.1365 29.3954 68.8537 29.3529Z" fill="#263238"/>
<path d="M44.788 27.7077C44.623 27.6417 39.1875 26.8167 39.5646 33.2658C39.9418 39.7148 46.3343 37.2022 46.3343 37.0136C46.3343 36.8344 44.788 27.7077 44.788 27.7077Z" fill="#FFBE9D"/>
<path d="M44.2223 34.8686C44.194 34.8497 44.1139 34.9534 43.93 35.0524C43.7509 35.1467 43.435 35.2268 43.0909 35.1184C42.3932 34.9063 41.7567 33.8597 41.6577 32.7C41.6059 32.1154 41.6955 31.545 41.8793 31.0736C42.049 30.588 42.3366 30.2439 42.676 30.1638C43.0107 30.0648 43.27 30.258 43.3596 30.4325C43.4586 30.6069 43.4256 30.7389 43.4586 30.7483C43.4774 30.7625 43.5906 30.6305 43.5246 30.3665C43.4916 30.2392 43.4067 30.093 43.2464 29.9752C43.0862 29.8573 42.8504 29.8055 42.6147 29.8479C42.1197 29.9092 41.7002 30.3948 41.4975 30.918C41.2712 31.4413 41.158 32.0824 41.2146 32.7377C41.3325 34.0341 42.0679 35.2127 43.0154 35.4295C43.4774 35.5191 43.8451 35.3635 44.0337 35.1985C44.2223 35.0288 44.2459 34.878 44.2223 34.8686Z" fill="#EB996E"/>
<path d="M73.167 23.3706C73.167 23.3706 68.4857 25.3553 62.6873 22.0884C58.8829 19.9434 54.3808 18.7648 53.339 19.5002C52.2971 20.2357 51.8823 24.2475 47.9553 25.228C47.9553 25.228 47.8375 32.9169 44.7921 32.4879C41.7467 32.0589 44.2547 20.2687 44.2547 20.2687L51.5099 15.5733L59.755 14.4419L68.7167 15.8939L73.6855 19.2551L73.167 23.3706Z" fill="#263238"/>
<path d="M44.0239 13.8149C44.0239 13.8903 44.83 13.829 45.6975 14.2345C46.5696 14.621 47.0552 15.2669 47.1117 15.2197C47.173 15.2009 46.744 14.4325 45.8012 14.0129C44.8583 13.5792 44.0003 13.7583 44.0239 13.8149Z" fill="#263238"/>
<path d="M47.3283 10.9581C47.2953 10.9534 47.2152 11.2126 47.135 11.6416C47.0596 12.0706 46.9889 12.6788 47.0407 13.3529C47.0879 14.027 47.2764 14.621 47.465 15.0217C47.6536 15.4224 47.828 15.6346 47.8516 15.6204C47.9223 15.5874 47.3707 14.6446 47.2859 13.334C47.1963 12.0376 47.4132 10.9675 47.3283 10.9581Z" fill="#263238"/>
<path d="M44.4488 121.54C44.4488 121.54 77.6557 118.136 77.6557 126.16C77.6557 128.168 77.6557 142.692 77.6557 146.544C72.0929 137.342 44.2036 143.555 44.2036 143.555L44.4488 121.54Z" fill="#E0E0E0"/>
<path d="M77.7114 125.985C70.9701 122.275 66.4822 131.501 62.1734 135.399L62.098 135.47L62.0178 135.409C61.8387 135.267 61.6454 135.121 61.4521 134.97C56.752 131.284 52.4951 127.951 49.3979 125.518C47.8752 124.312 46.6401 123.326 45.7632 122.633C45.3484 122.299 45.0231 122.035 44.7826 121.837C44.6837 121.752 44.5988 121.681 44.5328 121.624C44.4762 121.577 44.4479 121.549 44.4527 121.544C44.4574 121.54 44.4857 121.563 44.5469 121.601C44.6177 121.653 44.7072 121.714 44.8109 121.794C45.0561 121.978 45.3955 122.233 45.8198 122.553C46.7061 123.232 47.96 124.194 49.5016 125.377C52.613 127.791 56.884 131.109 61.5983 134.772C61.7915 134.923 61.9848 135.074 62.164 135.211L62.0084 135.216C66.336 131.336 71.0597 121.987 77.7114 125.985Z" fill="#263238"/>
<path d="M44.2028 143.555C44.1556 143.508 46.805 140.599 50.1238 137.059C53.4426 133.513 56.1722 130.68 56.224 130.727C56.2712 130.775 53.6218 133.683 50.303 137.224C46.9842 140.769 44.2546 143.602 44.2028 143.555Z" fill="#263238"/>
<path d="M77.6548 146.544C73.2753 133.363 67.1233 131.072 67.1751 131.029C67.2223 130.982 72.6106 133.504 77.6548 146.544Z" fill="#263238"/>
<path d="M44.4293 126.537C44.4293 126.537 43.906 130.784 45.9425 131.1C47.9743 131.416 55.8282 128.795 56.4175 130.299C57.0068 131.802 54.4753 133.287 54.4753 133.287C54.4753 133.287 57.0021 133.698 55.7999 135.041C54.5931 136.385 50.5295 142.942 47.8188 143.145C43.9154 143.432 35.2695 142.277 35.2695 142.277L40.5542 127.956L44.4293 126.537Z" fill="#FFBE9D"/>
<path d="M55.4131 132.543C55.4225 132.557 55.3046 132.646 55.0878 132.797C54.8709 132.948 54.5504 133.151 54.1402 133.386C53.3247 133.863 52.1603 134.452 50.812 134.97C49.4637 135.484 48.2003 135.824 47.281 136.012C46.819 136.107 46.4419 136.173 46.1826 136.206C45.9233 136.239 45.7772 136.248 45.7725 136.234C45.7678 136.196 46.3335 136.078 47.2433 135.843C48.1532 135.612 49.393 135.249 50.7271 134.739C52.0613 134.23 53.2257 133.669 54.0554 133.236C54.8898 132.802 55.3942 132.51 55.4131 132.543Z" fill="#EB996E"/>
<path d="M54.5599 136.691C54.5787 136.71 54.2534 137.097 53.6311 137.62C53.0136 138.143 52.0802 138.789 50.9488 139.307C49.8173 139.821 48.7189 140.109 47.9175 140.231C47.1161 140.359 46.6117 140.354 46.607 140.326C46.6023 140.283 47.102 140.231 47.8845 140.062C48.6671 139.897 49.7372 139.59 50.845 139.086C51.9529 138.577 52.8816 137.969 53.5227 137.488C54.1639 137.002 54.5316 136.663 54.5599 136.691Z" fill="#EB996E"/>
<path d="M73.0444 30.2204C72.3844 29.9281 71.4887 28.924 70.8475 27.0006C70.2064 25.0725 70.2064 23.3094 70.8475 19.9387C71.4887 16.5681 71.4085 15.1349 71.3755 14.8992C71.1964 13.6217 72.1298 10.5904 73.8788 13.8715C74.3549 14.7672 74.2229 15.1962 74.2229 15.1962C74.2229 15.1962 74.3078 11.5521 75.2601 7.33762C76.1793 3.28811 77.4663 4.14138 77.4663 5.8715C77.4663 6.69649 77.4616 10.614 77.1976 13.5745C76.9053 16.8415 77.9094 19.7879 78.791 21.0654C80.474 23.5074 81.7704 25.2186 81.7704 25.2186L78.2819 32.4927C78.2772 32.5021 73.7044 30.5127 73.0444 30.2204Z" fill="#FFBE9D"/>
<path d="M74.2324 14.8992C74.2324 14.8992 74.487 18.3358 74.487 19.0571C74.487 19.7784 74.3597 20.6364 74.3597 20.6364L74.2324 16.832V14.8992V14.8992Z" fill="#EB996E"/>
<path d="M76.825 11.5521C76.825 11.5521 77.3389 5.2162 78.6683 3.92922C80.158 2.49139 79.3896 8.39359 79.3094 9.43543C79.2293 10.4773 78.3996 17.6712 79.2387 20.6317C80.0778 23.5922 78.7484 23.2669 77.9046 21.9422C77.0607 20.6175 76.8203 11.7925 76.8203 11.7925" fill="#FFBE9D"/>
<path d="M77.5416 6.95581C77.5416 6.95581 77.3861 12.462 77.3012 13.617C77.2163 14.772 76.9854 16.125 76.9854 16.125L77.3106 10.0389L77.5416 6.95581Z" fill="#EB996E"/>
<path d="M88.7428 25.1338L83.708 21.9329L74.6284 33.3036L77.2778 34.9064L88.7428 25.1338Z" fill="#E8505B"/>
<path d="M93.2026 8.36174C96.7963 6.37078 99.6472 4.64417 99.5702 4.50525C99.4932 4.36633 96.5176 5.86771 92.9239 7.85867C89.3302 9.84963 86.4794 11.5762 86.5563 11.7152C86.6333 11.8541 89.609 10.3527 93.2026 8.36174Z" fill="#447DDC"/>
<path d="M88.7727 6.05325C91.231 3.26406 93.1763 0.961112 93.1177 0.909467C93.0591 0.857823 91.0188 3.07704 88.5605 5.86623C86.1022 8.65542 84.1569 10.9584 84.2155 11.01C84.2741 11.0617 86.3144 8.84244 88.7727 6.05325Z" fill="#447DDC"/>
<path d="M92.3615 13.9894C95.8278 13.5118 98.6286 13.0577 98.6172 12.9752C98.6059 12.8926 95.7866 13.2129 92.3203 13.6906C88.854 14.1682 86.0532 14.6223 86.0645 14.7049C86.0759 14.7874 88.8951 14.4671 92.3615 13.9894Z" fill="#447DDC"/>
</svg>
